<svg width="450" height="53" viewBox="0 0 450 53" fill="none" xmlns="http://www.w3.org/2000/svg">
<g clip-path="url(#clip0_163_2)">
<rect width="450" height="53"/>
<path d="M245.182 35.3369C250.172 35.3369 254.216 31.3828 254.216 26.5036C254.216 21.6261 250.172 17.672 245.182 17.672C240.194 17.672 236.15 21.6261 236.15 26.5036C236.15 31.3828 240.194 35.3369 245.182 35.3369Z" fill="#1ABCFE"/>
<path fill-rule="evenodd" clip-rule="evenodd" d="M227.112 35.3333H227.239H236.146V44.1648C236.146 49.0423 232.1 52.9982 227.112 52.9982C222.123 52.9982 218.079 49.0423 218.079 44.1613C218.079 39.2839 222.125 35.3297 227.112 35.3297V35.3333V35.3333Z" fill="#0ACF83"/>
<path fill-rule="evenodd" clip-rule="evenodd" d="M227.239 17.6683H236.146V35.3333H227.239H227.112C222.123 35.3333 218.079 31.3773 218.079 26.4964C218.079 21.6189 222.125 17.6648 227.112 17.6648H227.239V17.6683V17.6683Z" fill="#A259FF"/>
<path fill-rule="evenodd" clip-rule="evenodd" d="M227.239 17.6683H236.146V0.00341797H227.239H227.112C222.123 0.00341797 218.079 3.95934 218.079 8.83499C218.079 13.6769 222.062 17.6062 226.997 17.6683H227.241H227.239Z" fill="#F24E1E"/>
<path fill-rule="evenodd" clip-rule="evenodd" d="M236.15 17.6683H245.068H245.304C250.236 17.6062 254.222 13.6769 254.222 8.83499C254.222 3.95756 250.176 0.00341797 245.189 0.00341797H236.151V17.6683H236.15Z" fill="#FF7262"/>
<path fill-rule="evenodd" clip-rule="evenodd" d="M288.806 5.81484C289.251 6.45936 292.817 9.79561 293.878 10.8325C295.507 12.4252 294.555 11.7629 296.458 11.7629C298.701 11.7629 300.421 13.4586 300.421 15.907C300.421 17.6204 299.667 16.493 302.927 19.6783C303.744 20.4738 305.694 22.1872 306.215 22.9666C306.998 22.908 306.617 22.8317 307.924 22.8317C310.966 22.8317 313.116 26.6154 310.719 29.442C308.445 32.1 303.528 30.4488 303.528 26.8462C303.528 26.0951 303.756 25.7045 303.82 25.0405C302.805 24.3817 298.997 20.0103 298.151 19.7866V34.1774C298.888 34.6568 299.135 34.7207 299.671 35.4558C301.528 38.0073 299.84 41.7945 296.322 41.7945C292.959 41.7945 291.25 38.1156 292.943 35.5925C295.414 31.9118 294.895 39.5573 294.895 19.7902C294.895 19.277 294.479 19.412 293.745 18.842C292.329 17.7607 291.888 15.6567 292.638 14.1244L286.447 8.13015C285.755 8.59534 272.543 21.6651 270.883 23.288C269.437 24.7013 269.174 24.8221 269.145 26.4875V26.8462C269.145 28.2897 270.665 29.3692 271.943 30.6175L292.036 50.2639C293.605 51.8122 294.141 52.9219 296.384 53H296.598C298.287 53 299.594 51.2422 300.53 50.342L320.548 30.7542C322.117 29.2201 323.267 28.6803 323.347 26.5017V26.294C323.347 24.6126 321.563 23.3785 320.628 22.4641L298.826 1.1487C297.86 0.20411 297.504 0.0354333 296.538 0.00524902H296.309H296.048H295.756C294.236 0.00524902 292.897 1.76304 292.036 2.60465C291.239 3.38589 289.347 5.0549 288.811 5.82016V5.81661L288.806 5.81484Z" fill="#EF5032"/>
<path d="M196.662 0.00183105H142.459V52.9983H196.662V0.00183105Z" fill="#F7DF1E"/>
<path fill-rule="evenodd" clip-rule="evenodd" d="M178.777 41.4767L174.77 43.7441C175.4 45.3527 177.152 46.8389 178.639 47.6521C184.047 50.548 193.543 48.4937 192.342 40.5925C191.436 34.5681 183.68 34.2236 181.803 32.0166C179.727 29.5806 183.847 26.4574 186.533 29.8522L187.087 30.4524C188.225 29.8664 189.882 28.501 190.911 28.1406C189.192 23.1247 178.654 22.0878 176.578 28.5916C175.886 30.7418 176.364 33.1902 177.439 34.6924C179.85 38.0588 185.442 38.611 186.918 40.6245C188.561 42.8954 185.981 44.5165 183.644 44.4259C182.108 44.3815 180.539 43.6749 179.682 42.5793L178.775 41.4803V41.4767H178.777Z" fill="black"/>
<path fill-rule="evenodd" clip-rule="evenodd" d="M156.808 44.3479C158.991 49.6497 168.303 50.6724 171.067 45.4612C172.389 42.9523 171.973 38.4016 171.973 35.3352L171.987 24.3233L166.887 24.3854C166.936 29.0871 166.887 33.8029 166.887 38.5206C166.887 40.6708 167.302 43.5383 165.445 44.197C162.71 45.1753 161.666 43.1157 160.879 41.8231L156.808 44.3461V44.3479Z" fill="black"/>
<path fill-rule="evenodd" clip-rule="evenodd" d="M116.744 0.00177554L98.2412 31.3206L79.775 0.00177554H67L67.8498 1.4737C68.0296 1.77732 68.1767 2.04188 68.3547 2.3455L71.3346 7.38272C71.4962 7.67214 71.6596 7.93137 71.8213 8.22433L74.3327 12.4661C75.0173 13.5971 75.6311 14.7015 76.3211 15.8325L80.2962 22.5672C80.6412 23.1496 80.9481 23.668 81.2732 24.2504C81.4511 24.5239 81.6127 24.8026 81.778 25.0778C81.9578 25.3708 82.103 25.6442 82.2828 25.9336C82.4626 26.2373 82.5897 26.4823 82.7876 26.7752C83.7646 28.3661 84.7743 30.2198 85.753 31.8107L87.253 34.3515C88.1555 35.9584 89.3123 37.7961 90.2511 39.4171C90.4127 39.7261 90.558 39.9516 90.7377 40.2587C90.9175 40.5482 91.0446 40.7932 91.2244 41.0861L94.2225 46.1695C94.9071 47.2881 95.5263 48.4209 96.2091 49.536C96.3181 49.6887 98.1449 52.7355 98.1976 52.9646C98.4136 52.8296 99.0837 51.5743 99.2272 51.3275C100.092 49.765 101.323 47.8687 102.207 46.2583C102.821 45.1717 103.614 43.9643 104.214 42.8919L106.2 39.5254C107.844 36.8461 109.523 33.7816 111.171 31.1076C112.147 29.5007 113.173 27.6151 114.169 26.0082C114.514 25.44 114.835 24.8878 115.16 24.3392L129.504 0H116.733H116.74L116.744 0.00177554Z" fill="#40B783"/>
<path fill-rule="evenodd" clip-rule="evenodd" d="M104.958 0.00183105L98.7605 10.5646C98.6716 10.719 98.3628 11.2517 98.2557 11.3298C98.1104 11.2393 97.8743 10.7616 97.769 10.5947C97.6237 10.316 97.4803 10.1047 97.315 9.82948L96.4125 8.28476C95.3647 6.57136 94.2825 4.62536 93.2347 2.88177L91.5531 0.00538215H79.7732L98.2394 31.3243L116.742 0.00538215H104.962L104.958 0.00183105V0.00183105Z" fill="#34495E"/>
<path fill-rule="evenodd" clip-rule="evenodd" d="M358.819 19.8772L358.817 33.2595L350.613 32.2403L350.615 20.8768L358.819 19.8789V19.8772ZM339.98 43.7884L350.645 41.3506C350.602 40.9493 350.469 38.1174 350.763 37.7445L358.881 36.269L358.817 33.2435L367.03 32.2385L367.032 20.8679C365.77 20.7188 359.513 20.0938 358.833 19.7902L358.799 16.8392L350.852 15.4276C350.564 15.3051 350.722 15.5182 350.611 15.2163L350.631 11.6155L339.953 9.24341L339.98 43.7902V43.7884Z" fill="#E05142"/>
<path fill-rule="evenodd" clip-rule="evenodd" d="M367.029 11.7062C367.032 12.3436 367.031 12.9828 367.031 13.6202C367.031 13.9434 367.034 14.263 367.04 14.5861C367.045 14.9803 367.158 15.3656 366.809 15.3247C366.442 15.6159 359.829 16.699 358.797 16.8411L358.832 19.792C359.511 20.0956 365.768 20.7206 367.031 20.8698L367.029 32.2404L358.815 33.2453L358.879 36.2709L366.856 37.6522C367.036 37.7446 366.967 37.6789 367.031 37.876L367.038 41.2974C368.703 41.7467 370.472 42.1 372.188 42.5172C373.348 42.7996 376.453 43.6678 377.421 43.6944L377.661 43.6678L377.637 9.25238L367.027 11.7044L367.029 11.7062Z" fill="#8C3123"/>
<path fill-rule="evenodd" clip-rule="evenodd" d="M377.423 43.6944C377.746 43.943 378.943 43.1991 379.353 43.0002C379.983 42.693 380.661 42.345 381.282 42.0663L381.278 10.9605C380.668 10.7243 380.047 10.3781 379.459 10.0904C378.892 9.81345 378.2 9.41928 377.641 9.25238L377.665 43.6678L377.425 43.6944H377.423Z" fill="#DF5243"/>
<path fill-rule="evenodd" clip-rule="evenodd" d="M339.979 43.7886L339.951 9.24182C338.729 9.7514 337.571 10.5007 336.358 10.9606V42.0575L339.977 43.7886H339.979Z" fill="#8B3123"/>
<path fill-rule="evenodd" clip-rule="evenodd" d="M358.813 13.4001L366.811 15.323C367.158 15.3638 367.047 14.9803 367.041 14.5843C367.038 14.2612 367.032 13.9434 367.032 13.6184C367.032 12.981 367.036 12.3418 367.03 11.7044L367.009 4.04292C366.046 3.37176 359.505 0.525562 358.911 0H358.721L358.77 0.0639197L358.813 13.3965V13.4001Z" fill="#E05142"/>
<path fill-rule="evenodd" clip-rule="evenodd" d="M350.615 20.8751L350.613 32.2403L358.817 33.2595L358.819 19.8772L350.615 20.8751Z" fill="#8C3123"/>
<path fill-rule="evenodd" clip-rule="evenodd" d="M358.817 39.6819V51.4928C358.817 51.9278 358.933 52.67 358.684 52.9718C358.962 53.1494 360.321 52.3504 360.736 52.1462L367.027 49.0443L367.038 41.2958L367.03 37.8744C366.967 37.6773 367.036 37.7412 366.856 37.6506C366.556 37.9081 366.248 37.9152 365.861 38.0057C365.532 38.0821 365.16 38.1709 364.813 38.2561C363.457 38.5952 359.763 39.5593 358.819 39.6801L358.817 39.6819Z" fill="#E05142"/>
<path fill-rule="evenodd" clip-rule="evenodd" d="M350.644 41.3508L350.611 49.0744L358.684 52.9717C358.933 52.6681 358.817 51.9277 358.817 51.4927V39.6817L350.76 37.7446C350.466 38.1175 350.598 40.9495 350.642 41.3508H350.644Z" fill="#8C3123"/>
<path fill-rule="evenodd" clip-rule="evenodd" d="M350.631 11.6141L350.611 15.2149C350.722 15.5167 350.562 15.3054 350.852 15.4262C351.243 15.0924 357.717 13.6861 358.813 13.3985L358.77 0.065918L350.611 3.99875L350.631 11.6141V11.6141Z" fill="#8C3123"/>
<path fill-rule="evenodd" clip-rule="evenodd" d="M350.851 15.4277L358.797 16.8393C359.828 16.699 366.44 15.6141 366.809 15.3229L358.812 13.4C357.715 13.6877 351.241 15.0939 350.851 15.4277V15.4277Z" fill="#5E1F18"/>
<path fill-rule="evenodd" clip-rule="evenodd" d="M350.762 37.7446L358.819 39.6817C359.763 39.561 363.457 38.5968 364.813 38.2577C365.16 38.1707 365.532 38.0837 365.861 38.0074C366.248 37.9168 366.557 37.9097 366.856 37.6522L358.879 36.2709L350.762 37.7464V37.7446Z" fill="#F0AFA8"/>
<path fill-rule="evenodd" clip-rule="evenodd" d="M419.275 52.4905C421.192 50.232 433.66 27.2902 434.937 26.2462L450.194 0.0337909L424.112 0.00183105L406.926 29.6606C406.158 31.0704 407.121 31.9634 407.82 33.1122L419.275 52.4905Z" fill="#62A57A"/>
<path fill-rule="evenodd" clip-rule="evenodd" d="M419.275 52.4907L434.685 52.8351C439.235 52.8387 445.931 53.2364 450.22 52.7783C449.152 50.6264 447.585 48.2436 446.366 46.1431C445.044 43.8669 443.86 41.9582 442.529 39.6446C441.324 37.5477 435.104 27.6455 434.937 26.2463C433.66 27.2904 421.19 50.2304 419.275 52.4907V52.4907Z" fill="#364A5C"/>
<path fill-rule="evenodd" clip-rule="evenodd" d="M404.666 28.0414L416.088 8.78379L393.363 8.7323L404.666 28.0414Z" fill="#69B482"/>
</g>
<defs>
<clipPath id="clip0_163_2">
<rect width="450" height="53" fill="white"/>
</clipPath>
</defs>
</svg>
