<svg width="66" height="45" viewBox="0 0 66 45" fill="none" xmlns="http://www.w3.org/2000/svg">
<rect width="66" height="45" fill="white"/>
<path fill-rule="evenodd" clip-rule="evenodd" d="M0.000296997 31.8339C1.80812 33.5692 12.2036 38.2596 15.5564 39.7092C23.2603 43.04 28.5409 44.1676 37.3192 44.1676C45.7858 44.1676 50.8757 41.8756 57.8124 39.7241C51.0486 39.1765 49.0717 39.4871 43.2051 36.779C33.8221 32.4476 29.6258 27.9614 23.1709 21.1889C20.4911 18.3771 18.1439 14.2487 15.3444 11.126C13.1938 14.4661 1.17849 29.5318 0 31.8336L0.000296997 31.8339Z" fill="#00B19D"/>
<path fill-rule="evenodd" clip-rule="evenodd" d="M22.8783 5.82938C24.1914 11.6022 30.7728 21.8415 33.5863 25.1825C36.6017 28.7632 45.1858 35.2185 52.2185 36.3879C47.6809 31.6291 45.7412 30.4701 43.1018 22.3883C40.9902 15.9216 40.5681 8.31985 41.1443 1L22.8781 5.82938H22.8783Z" fill="#00B19D"/>
<path fill-rule="evenodd" clip-rule="evenodd" d="M50.9553 31.9771C51.3001 27.3324 49.5514 26.2362 53.5632 18.3179C56.3773 12.7639 59.6442 10.6982 60.9017 8.24152L49.377 2.81366C48.0096 7.12976 46.2256 13.2927 46.4415 18.1472C46.7875 25.9292 50.8617 30.9021 50.9553 31.9771V31.9771Z" fill="#00B19D"/>
<path fill-rule="evenodd" clip-rule="evenodd" d="M52.8905 27.4792C53.6687 24.1604 60.9359 22.1458 65.9911 22.1043C66.1298 20.5653 64.6127 16.4555 63.8533 15.101C59.4687 16.4839 52.7328 21.8669 52.8908 27.4792H52.8905Z" fill="#00B19D"/>
</svg>
