<svg width="66" height="66" viewBox="0 0 66 66" fill="none" xmlns="http://www.w3.org/2000/svg">
<rect width="66" height="66"/>
<path fill-rule="evenodd" clip-rule="evenodd" d="M31.8383 29.2774C21.3471 30.7737 24.2355 37.4018 19.4986 42.9887C19.0209 43.5521 18.7319 43.8049 18.1927 44.3293C17.7334 44.776 17.3813 45.2622 16.8978 45.6766C12.7935 49.194 9.46272 54.2918 11.5795 60.1738C12.4996 62.7305 14.262 64.5795 16.8598 65.4683C22.8812 67.5286 28.2837 62.8923 34.9254 63.5376C40.6231 64.0914 46.6891 68.122 51.9279 64.5063C56.8643 61.0989 56.4589 54.1545 53.4273 49.5496C52.2745 47.7986 49.9382 45.672 48.383 44.1551C43.4018 39.2961 45.0936 34.9029 40.331 31.2195C38.1395 29.5247 35.2858 28.7859 31.838 29.2777L31.8383 29.2774Z" fill="black"/>
<path fill-rule="evenodd" clip-rule="evenodd" d="M22.2474 6.76359C13.0542 8.56479 16.6679 30.1876 25.4459 28.8289C34.6422 27.4054 31.0267 5.04344 22.2474 6.76359Z" fill="black"/>
<path fill-rule="evenodd" clip-rule="evenodd" d="M43.1817 6.73212C33.6002 8.21155 33.456 30.1208 42.5613 28.8258C46.6971 28.2376 49.3638 22.7651 49.7673 18.0002C50.17 13.2462 48.2899 5.94311 43.1817 6.73212Z" fill="black"/>
<path fill-rule="evenodd" clip-rule="evenodd" d="M9.62661 23.903C-0.422451 25.3244 4.30093 44.3522 13.5248 43.4655C23.283 42.5271 18.5838 22.6362 9.62661 23.903V23.903Z" fill="black"/>
<path fill-rule="evenodd" clip-rule="evenodd" d="M55.6721 24.0304C45.2727 26.095 45.2703 45.2208 54.6763 43.4356C58.7267 42.6669 61.7568 38.4333 62.4926 33.999C63.3175 29.027 61.1172 22.9493 55.6721 24.0304V24.0304Z" fill="black"/>
<path fill-rule="evenodd" clip-rule="evenodd" d="M19.1983 6.17355C19.8817 5.97184 20.3551 5.66851 20.9586 5.42809C21.5934 5.17557 22.3126 5.09483 22.9066 4.86227C22.8016 3.89241 21.9381 0.663201 21.0728 0C20.4225 2.12478 19.4243 3.49413 19.1983 6.17355Z" fill="black"/>
<path fill-rule="evenodd" clip-rule="evenodd" d="M5.3613 23.4098C6.9676 22.9115 6.92137 22.2718 9.13333 22.1028L7.79433 17.8575C7.73493 17.6942 7.74044 17.6954 7.67002 17.5475C7.53682 17.2677 7.56683 17.3461 7.50222 17.2523C6.3399 18.3982 5.62646 21.396 5.3613 23.4098V23.4098Z" fill="black"/>
<path fill-rule="evenodd" clip-rule="evenodd" d="M43.6891 4.86318C45.5014 5.11116 46.2332 5.80581 47.5594 6.35561C47.5217 4.95239 46.255 0.795057 45.4537 0.1875L43.6891 4.86287V4.86318Z" fill="black"/>
<path fill-rule="evenodd" clip-rule="evenodd" d="M57.5172 22.0021C60.1493 22.6126 59.404 22.527 61.2648 23.5392C61.2954 20.5514 60.104 19.205 59.3648 17.4023L58.799 18.4601C58.6388 18.9077 58.5102 19.2634 58.3562 19.6828C58.0672 20.4709 57.73 21.2276 57.5172 22.0021Z" fill="black"/>
</svg>
