<svg width="504" height="53" viewBox="0 0 504 53" fill="none" xmlns="http://www.w3.org/2000/svg">
<g clip-path="url(#clip0_163_2)">
<path d="M423.86 35.429C428.662 35.429 432.554 31.4942 432.554 26.6389C432.554 21.7853 428.662 17.8505 423.86 17.8505C419.059 17.8505 415.167 21.7853 415.167 26.6389C415.167 31.4942 419.059 35.429 423.86 35.429Z" fill="#1ABCFE"/>
<path fill-rule="evenodd" clip-rule="evenodd" d="M406.467 35.4255H406.59H415.162V44.2139C415.162 49.0675 411.268 53.004 406.467 53.004C401.667 53.004 397.775 49.0675 397.775 44.2104C397.775 39.3568 401.669 35.422 406.467 35.422V35.4255V35.4255Z" fill="#0ACF83"/>
<path fill-rule="evenodd" clip-rule="evenodd" d="M406.59 17.8471H415.162V35.4256H406.59H406.467C401.667 35.4256 397.775 31.489 397.775 26.6319C397.775 21.7784 401.669 17.8436 406.467 17.8436H406.59V17.8471V17.8471Z" fill="#A259FF"/>
<path fill-rule="evenodd" clip-rule="evenodd" d="M406.59 17.8471H415.162V0.268555H406.59H406.467C401.667 0.268555 397.775 4.20512 397.775 9.05692C397.775 13.8752 401.607 17.7852 406.357 17.8471H406.591H406.59Z" fill="#F24E1E"/>
<path fill-rule="evenodd" clip-rule="evenodd" d="M415.165 17.8471H423.748H423.975C428.721 17.7852 432.557 13.8752 432.557 9.05692C432.557 4.20335 428.664 0.268555 423.865 0.268555H415.167V17.8471H415.165Z" fill="#FF7262"/>
<path fill-rule="evenodd" clip-rule="evenodd" d="M280.329 5.78117C280.757 6.42254 284.19 9.74247 285.21 10.7743C286.778 12.3592 285.862 11.7002 287.694 11.7002C289.852 11.7002 291.507 13.3875 291.507 15.824C291.507 17.529 290.782 16.4071 293.919 19.5768C294.705 20.3684 296.582 22.0734 297.084 22.849C297.837 22.7907 297.47 22.7148 298.728 22.7148C301.655 22.7148 303.724 26.4799 301.418 29.2928C299.23 31.9378 294.497 30.2946 294.497 26.7096C294.497 25.9623 294.717 25.5735 294.778 24.9127C293.801 24.2572 290.137 19.9072 289.322 19.6846V34.005C290.032 34.4821 290.27 34.5457 290.785 35.2771C292.573 37.8161 290.948 41.5848 287.563 41.5848C284.326 41.5848 282.682 37.9239 284.31 35.4132C286.689 31.7505 286.189 39.3586 286.189 19.6881C286.189 19.1775 285.789 19.3118 285.083 18.7446C283.72 17.6686 283.295 15.5749 284.017 14.0501L278.059 8.08516C277.393 8.54807 264.678 21.5539 263.08 23.1688C261.689 24.5753 261.436 24.6954 261.408 26.3527V26.7096C261.408 28.1461 262.871 29.2203 264.101 30.4624L283.438 50.0128C284.948 51.5535 285.464 52.6578 287.622 52.7355H287.828C289.454 52.7355 290.712 50.9863 291.612 50.0905L310.877 30.5985C312.387 29.0719 313.493 28.5348 313.57 26.3669V26.1601C313.57 24.4869 311.854 23.259 310.954 22.349L289.973 1.13786C289.043 0.197888 288.7 0.0300366 287.771 0H287.55H287.299H287.017C285.555 0 284.267 1.74919 283.438 2.58668C282.671 3.3641 280.85 5.02495 280.335 5.78647V5.78294L280.329 5.78117Z" fill="#EF5032"/>
<path fill-rule="evenodd" clip-rule="evenodd" d="M69.0778 49.071C69.6493 52.6418 72.6884 53.0941 76.6275 53.08L110.863 53.0889C122.469 53.1578 116.345 44.5072 113.989 40.5883L96.9782 11.527C94.7745 9.05337 91.0766 9.74952 89.4478 12.1259L76.7358 33.8778C75.1839 36.6376 68.6619 46.4755 69.0778 49.0728V49.0692V49.071Z" fill="#00DC82"/>
<path fill-rule="evenodd" clip-rule="evenodd" d="M64.1042 53.0535C60.3661 47.737 63.1728 46.1592 68.4121 36.779L79.3485 17.8841C81.8493 13.7391 81.0874 15.1066 76.1085 6.33771C74.672 3.80403 73.4888 0.683758 70.0513 0.408128C65.8378 0.0582896 64.7246 2.84463 63.2968 5.33237C57.3358 15.7021 51.7172 25.3774 45.8401 35.5899C44.4018 38.09 42.9967 40.5459 41.4851 43.1715C39.7462 46.2034 39.0804 49.1982 42.0373 51.7407C44.2777 53.6649 48.9665 53.0836 52.5945 53.0836C56.3868 53.0836 60.3364 53.1896 64.106 53.0553L64.1042 53.0535Z" fill="#80EDC1"/>
<path fill-rule="evenodd" clip-rule="evenodd" d="M152.071 52.6208C152.716 50.6843 153.434 48.8167 154.064 46.8166C154.687 44.8342 155.301 42.8641 155.879 40.8411C158.656 31.1251 161.547 17.1192 160.489 6.89439C160.301 5.06392 160.088 3.57622 159.666 1.80936C159.607 1.55847 159.402 0.480683 159.215 0.395874C158.267 1.91007 156.425 5.25651 155.47 6.958C151.79 13.5113 147.842 20.1741 144.211 26.6885L140.951 32.4114C140.401 33.4061 140.448 32.9026 141.57 34.9221C141.897 35.5105 142.201 36.0158 142.512 36.5741C143.143 37.712 143.768 38.765 144.399 39.8693C144.509 40.0637 151.725 52.8257 151.918 53.0165C152.024 52.8328 152.043 52.8363 152.068 52.6225L152.071 52.6208Z" fill="#1767BF"/>
<path fill-rule="evenodd" clip-rule="evenodd" d="M152.071 52.6207C152.3 52.4705 159.275 40.129 159.586 39.5742C162.646 34.1217 165.886 28.6727 168.915 23.2255C169.523 22.1335 170.14 21.0487 170.779 19.9674C172.066 17.7941 173.249 15.5555 174.523 13.4017C177.013 9.19127 179.481 4.55503 181.973 0.328698C181.178 0.242122 166.409 0.31103 164.853 0.31103C164.117 0.31103 159.483 0.173215 159.219 0.394072C159.406 0.478881 159.61 1.55667 159.67 1.80756C160.091 3.57442 160.304 5.06389 160.493 6.89435C161.55 17.1192 158.66 31.1251 155.883 40.8411C155.304 42.8641 154.689 44.8342 154.067 46.8166C153.438 48.8167 152.721 50.6825 152.075 52.6207H152.071Z" fill="#1697F6"/>
<path fill-rule="evenodd" clip-rule="evenodd" d="M137.603 27.904C137.491 27.1973 137.248 26.381 137.112 25.646C136.614 22.9957 136.338 20.8172 136.346 18.0326C136.36 13.3804 137.25 9.22656 139.948 5.72641C140.072 5.56385 140.151 5.50732 140.266 5.35183C140.887 4.51787 142.435 3.2899 143.262 2.79342C145.163 1.65026 147.122 0.991219 149.397 0.614877C149.904 0.531835 151.596 0.429357 151.883 0.314511L121.854 0.312744C122.037 0.770361 132.825 19.5274 133.631 20.9797C134.277 22.1494 134.934 23.3031 135.605 24.4428C136.053 25.2025 137.217 27.3528 137.605 27.904H137.603Z" fill="#ADDCFF"/>
<path fill-rule="evenodd" clip-rule="evenodd" d="M137.603 27.9041C137.657 28.026 137.606 27.9712 137.718 28.0048L152.987 1.19977C153.141 0.924142 153.351 0.600807 153.478 0.318109L151.883 0.314575C151.594 0.429421 149.903 0.530132 149.397 0.613175C147.122 0.989516 145.163 1.64679 143.262 2.79171C142.435 3.28997 140.887 4.51617 140.266 5.35013C140.151 5.50561 140.072 5.56215 139.948 5.7247C137.25 9.22485 136.36 13.3787 136.346 18.0327C136.338 20.8172 136.616 22.9958 137.112 25.6461C137.25 26.3793 137.493 27.1974 137.603 27.9041Z" fill="#7BC6FF"/>
<path fill-rule="evenodd" clip-rule="evenodd" d="M346.867 24.6936L346.659 24.6053C344.422 24.5293 343.017 25.6477 342.026 26.7379C339.978 28.9906 338.208 31.5385 336.682 34.2806C336.078 35.3655 335.216 37.2949 334.398 38.2826C335.539 39.424 346.233 45.297 349.113 47.0144C354.861 50.4403 352.374 50.8043 364.111 43.751C365.778 42.7492 373.221 38.7985 373.862 37.6359L373.852 24.7873C364.667 19.704 361.659 28.8193 358.637 33.2452C358 34.1799 356.373 35.8726 354.952 36.1729C350.679 37.074 347.075 25.7573 346.864 24.6954L346.867 24.6936Z" fill="#FD757A"/>
<path fill-rule="evenodd" clip-rule="evenodd" d="M333.727 25.8987C334.32 25.1513 335.232 22.4745 335.784 21.4215C336.499 20.0557 337.804 18.6669 339.384 18.3577C343.501 17.5538 345.139 21.7448 346.661 24.6053L346.869 24.6937L347.982 25.0718C348.991 22.8049 351.163 17.7323 354.597 20.2288C357.161 22.0929 357.435 25.7008 359.445 28.0984C361.666 26.7803 362.531 21.5504 365.098 19.8596C369.528 16.9407 372.302 22.7943 373.861 23.9905L373.87 15.0643C373.23 13.907 365.789 9.9563 364.116 8.94742C362.811 8.16117 354.548 3.19452 353.795 3.19452C353.215 3.19452 333.958 14.1208 333.72 15.0625L333.731 25.8969L333.727 25.8987Z" fill="black"/>
<path fill-rule="evenodd" clip-rule="evenodd" d="M333.727 25.8986L333.717 15.0643C333.956 14.1225 353.211 3.19625 353.791 3.19625C354.545 3.19625 362.807 8.16113 364.113 8.94915C365.785 9.95803 373.228 13.9087 373.866 15.066L373.857 23.9922L373.852 24.7873L373.862 37.6359C373.221 38.7985 365.778 42.7474 364.111 43.751C352.374 50.8043 354.861 50.4403 349.113 47.0144C346.233 45.297 335.539 39.4257 334.398 38.2826L333.718 37.6359L333.727 25.8986V25.8986ZM331.041 13.7373V38.9646C331.041 40.2049 334.4 41.5442 336.321 42.6927L353.79 52.7055L375.465 40.3039C376.438 39.6802 376.543 40.1466 376.543 38.9663V13.7391C376.543 12.6154 375.156 12.2302 374.212 11.6896L365.429 6.61513C363.823 5.68576 354.492 0 353.793 0C353.11 0 343.874 5.60802 342.364 6.49321C340.448 7.61517 338.526 8.68059 336.523 9.88559C335.524 10.4881 334.685 10.9863 333.621 11.5941C331.392 12.8663 331.039 12.5058 331.039 13.7391L331.041 13.7373Z" fill="#E6E8EC"/>
<path fill-rule="evenodd" clip-rule="evenodd" d="M333.727 25.8986L333.718 37.6359L334.398 38.2825C335.218 37.2966 336.079 35.3654 336.682 34.2806C338.208 31.5384 339.978 28.9906 342.027 26.7379C343.017 25.6477 344.422 24.5293 346.659 24.6053C345.137 21.7447 343.5 17.5537 339.382 18.3576C337.803 18.6651 336.497 20.0556 335.782 21.4214C335.232 22.4744 334.318 25.1512 333.725 25.8986H333.727Z" fill="#CB4D69"/>
<path fill-rule="evenodd" clip-rule="evenodd" d="M359.443 28.0984C358.361 29.9129 355.093 30.1356 352.837 28.9836C351.794 28.4517 348.508 25.8209 347.981 25.0717L346.867 24.6936C347.077 25.7555 350.682 37.0723 354.955 36.1712C356.376 35.8708 358.003 34.1781 358.641 33.2435C361.661 28.8175 364.67 19.7023 373.856 24.7855L373.861 23.9904C372.3 22.7943 369.527 16.9424 365.098 19.8595C362.531 21.5504 361.668 26.7803 359.445 28.0984H359.443Z" fill="#FECC55"/>
<path fill-rule="evenodd" clip-rule="evenodd" d="M347.981 25.0717C348.508 25.8208 351.794 28.4517 352.837 28.9835C355.093 30.1355 358.361 29.9129 359.443 28.0983C357.433 25.7025 357.159 22.0945 354.595 20.2287C351.161 17.7322 348.989 22.8048 347.981 25.0717V25.0717Z" fill="#36A2EA"/>
<path fill-rule="evenodd" clip-rule="evenodd" d="M210.532 26.616C210.499 26.8633 209.137 29.503 208.915 29.9536L199.152 49.6947C198.896 50.2106 197.635 52.6789 197.535 53.0093H213.101C213.241 52.9722 213.709 51.8997 213.807 51.7054L223.567 31.9643C223.74 32.1109 224.107 32.9802 224.252 33.2717L233.71 52.3874C233.808 52.5853 233.89 52.9016 234.079 53.0093L249.645 52.997C249.517 52.5853 249.053 51.7655 248.834 51.3238C247.56 48.7618 236.68 26.851 236.648 26.6142C236.47 26.4534 234.909 23.1671 234.659 22.6617L228.931 11.0676C228.868 10.9421 228.87 10.8644 228.766 10.9139C228.534 11.3079 228.317 11.8079 228.108 12.232L224.238 20.0574C224.095 20.3454 223.74 21.1899 223.574 21.3331L218.415 10.9156C218.302 10.905 218.37 10.8927 218.298 10.9828C218.146 11.1718 210.763 26.411 210.534 26.616H210.532Z" fill="#4FBF8C"/>
<path fill-rule="evenodd" clip-rule="evenodd" d="M210.532 26.6158C210.761 26.4109 218.144 11.1717 218.297 10.9827C218.37 10.8908 218.302 10.9049 218.414 10.9155C218.239 10.4897 217.971 10.018 217.75 9.56917L214.452 2.89927C214.225 2.43988 214.015 2.01761 213.791 1.56529C213.697 1.37447 213.239 0.328486 213.101 0.291382L197.521 0.30905L210.53 26.6176L210.532 26.6158Z" fill="#35495E"/>
<path fill-rule="evenodd" clip-rule="evenodd" d="M228.766 10.9139C228.87 10.8645 228.868 10.9422 228.931 11.0676L234.659 22.6618C234.909 23.1689 236.47 26.4552 236.648 26.6143L249.645 0.288025H234.079C233.885 0.399337 233.798 0.733274 233.696 0.939997L231.395 5.59391C231.038 6.31125 229.027 10.2832 228.766 10.9139V10.9139Z" fill="#35495E"/>
<path fill-rule="evenodd" clip-rule="evenodd" d="M500.486 45.4773C500.237 47.071 499.263 47.1328 497.736 47.2141C496.285 47.2918 494.85 47.3802 493.384 47.465C490.558 47.6258 487.654 47.8077 484.821 47.965C479.047 48.283 473.327 48.6311 467.555 48.9703C463.201 49.2265 464.108 47.359 464.108 43.4171C464.108 39.7102 463.963 17.4177 464.133 15.794C464.309 14.1013 465.351 14.2568 467.013 14.1649L497.103 12.3945C501.049 12.1507 500.532 12.2108 500.532 17.9973C500.532 20.2447 500.645 44.4578 500.485 45.479L500.486 45.4773ZM496.825 8.65057C496.147 9.04105 471.784 10.3008 469.865 10.4121C462.806 10.8273 464.627 11.2496 459.409 7.1346C459.136 6.92081 458.846 6.72999 458.562 6.4738C458.299 6.23881 457.983 5.93137 458.375 5.56917C458.911 5.07268 477.301 3.98429 479.657 3.81467C482.128 3.63799 488.164 2.80756 490.149 3.66802C491.254 4.14684 493.943 6.26354 495.233 7.18938C496.072 7.79188 496.668 8.03217 496.823 8.6488L496.825 8.65057ZM486.126 0.38873C478.156 1.0566 470.185 1.53366 462.195 2.14852C460.437 2.28457 457.932 2.31461 456.298 2.62204C454.397 2.97895 453.707 4.27759 453.694 6.45083C453.675 9.77253 453.577 37.4769 453.74 38.8392C454.021 41.1908 457.233 44.8624 458.712 46.7247C459.68 47.942 460.528 49.1417 461.496 50.3697C462.426 51.5517 463.154 52.8592 465.253 53.0147C467.055 53.1454 492.402 51.4422 495.551 51.2549C500.757 50.9439 504.001 51.6701 504.003 46.8519L504.001 14.4229C504.001 9.10289 504.712 10.421 499.081 6.45966C497.814 5.5674 496.631 4.66807 495.329 3.79877C491.296 1.10784 491.357 -0.0476849 486.128 0.390497L486.126 0.38873Z" fill="black"/>
<path fill-rule="evenodd" clip-rule="evenodd" d="M492.989 20.1934V42.5919C492.914 42.8375 488.97 45.4189 486.675 42.5001C484.639 39.9116 477.483 27.715 476.17 26.1372L476.137 41.3216L479.299 42.0336C479.024 43.9683 477.16 43.8659 475.298 43.9701C473.442 44.0743 471.541 44.2139 469.673 44.2934C469.578 42.3075 470.763 42.7156 472.247 42.1131L472.261 21.9479L469.708 21.7288C469.57 19.2941 471.212 19.3825 473.264 19.2482C475.068 19.128 477.189 18.8718 478.975 18.8877C479.886 19.9037 488.556 33.8283 489.415 34.763C489.461 32.7329 489.662 21.879 489.347 20.7041L486.853 20.4037C486.448 18.2446 488.356 18.3541 490.087 18.2499C491.298 18.1757 494.429 17.8488 495.418 18.0114C495.969 19.9231 494.365 19.9249 492.989 20.197V20.1934ZM500.485 45.4772C500.646 44.456 500.532 20.2447 500.532 17.9955C500.532 12.2108 501.049 12.1489 497.103 12.3928L467.013 14.1632C465.351 14.255 464.309 14.0995 464.133 15.7922C463.963 17.4177 464.109 39.7102 464.109 43.4153C464.109 47.3572 463.201 49.2247 467.555 48.9685C473.325 48.6293 479.045 48.283 484.821 47.9632C487.656 47.8059 490.558 47.624 493.384 47.4632C494.851 47.3801 496.285 47.29 497.736 47.2123C499.263 47.131 500.235 47.0692 500.486 45.4755L500.485 45.4772Z" fill="white"/>
<path fill-rule="evenodd" clip-rule="evenodd" d="M492.989 20.1934C494.365 19.9213 495.969 19.9196 495.418 18.0078C494.429 17.8453 491.298 18.1722 490.086 18.2464C488.355 18.3506 486.448 18.2428 486.853 20.4002L489.347 20.7005C489.662 21.8755 489.459 32.7293 489.415 34.7594C488.556 33.8248 479.886 19.9001 478.975 18.8842C477.189 18.8683 475.069 19.1263 473.264 19.2446C471.214 19.3807 469.57 19.2906 469.708 21.7253L472.261 21.9444L472.247 42.1096C470.763 42.7139 469.578 42.3057 469.673 44.2899C471.541 44.2104 473.442 44.0708 475.298 43.9666C477.16 43.8623 479.022 43.9648 479.299 42.0301L476.137 41.318L476.17 26.1336C477.483 27.7132 484.639 39.9081 486.675 42.4965C488.97 45.4136 492.914 42.834 492.989 42.5884V20.1899V20.1934Z" fill="black"/>
<path fill-rule="evenodd" clip-rule="evenodd" d="M496.825 8.65064C496.67 8.03224 496.072 7.79194 495.235 7.19121C493.945 6.26538 491.256 4.14868 490.151 3.66986C488.166 2.8094 482.128 3.63805 479.659 3.81651C477.301 3.98612 458.913 5.07274 458.376 5.571C457.987 5.93321 458.303 6.24064 458.563 6.47563C458.848 6.73183 459.14 6.92265 459.411 7.13644C464.628 11.2515 462.808 10.8292 469.867 10.414C471.786 10.3027 496.149 9.04288 496.827 8.6524L496.825 8.65064Z" fill="white"/>
</g>
<defs>
<clipPath id="clip0_163_2">
<rect width="504" height="53" fill="white"/>
</clipPath>
</defs>
</svg>
