<svg width="66" height="16" viewBox="0 0 66 16" fill="none" xmlns="http://www.w3.org/2000/svg">
<rect width="66" height="16"/>
<path d="M0 11.301C0 10.8417 0.0926996 10.4405 0.278348 10.0974C0.463872 9.75441 0.720415 9.48958 1.04785 9.3032C1.37529 9.11682 1.74921 9.02356 2.16947 9.02356C2.72068 9.02356 3.17509 9.15863 3.53255 9.42877C3.89002 9.6989 4.12065 10.0664 4.22431 10.531H3.6103C3.53392 10.2123 3.36871 9.96238 3.11503 9.7813C2.86123 9.60023 2.546 9.50981 2.16947 9.50981C1.86932 9.50981 1.59919 9.5774 1.35897 9.71247C1.11887 9.84754 0.929239 10.0489 0.78994 10.3163C0.650766 10.5838 0.581242 10.9121 0.581242 11.301C0.581242 11.69 0.650766 12.0196 0.78994 12.2898C0.929114 12.5599 1.11875 12.7626 1.35897 12.8976C1.59919 13.0327 1.86932 13.1003 2.16947 13.1003C2.546 13.1003 2.86123 13.0097 3.11503 12.8288C3.36883 12.6478 3.53392 12.3952 3.6103 12.0711H4.22431C4.12065 12.525 3.88865 12.8896 3.52844 13.1652C3.16823 13.4407 2.7152 13.5785 2.16947 13.5785C1.74921 13.5785 1.37542 13.4853 1.04785 13.2989C0.720415 13.1125 0.463872 12.8478 0.278348 12.5046C0.0928242 12.1616 0 11.7603 0 11.3011V11.301ZM5.01836 11.2928C5.01836 10.839 5.10969 10.4405 5.2926 10.0974C5.47551 9.75441 5.72919 9.48958 6.05401 9.3032C6.37871 9.11682 6.74577 9.02356 7.15507 9.02356C7.58081 9.02356 7.94775 9.12089 8.25612 9.31529C8.5645 9.50981 8.7869 9.75836 8.92334 10.0609V9.08844H9.49636V13.5135H8.92334V12.5329C8.78142 12.8355 8.55628 13.0854 8.2479 13.2826C7.93952 13.4798 7.57259 13.5784 7.14684 13.5784C6.74303 13.5784 6.37871 13.4838 6.05388 13.2947C5.72919 13.1056 5.47538 12.8382 5.29248 12.4923C5.10969 12.1464 5.01824 11.7466 5.01824 11.2928H5.01836ZM8.92334 11.301C8.92334 10.9444 8.8497 10.6311 8.7023 10.3608C8.5549 10.0907 8.35431 9.8827 8.1005 9.73677C7.8467 9.59085 7.56711 9.51795 7.26135 9.51795C6.94475 9.51795 6.66104 9.58814 6.40998 9.72863C6.15892 9.86913 5.96106 10.0732 5.8164 10.3406C5.67175 10.608 5.59948 10.9255 5.59948 11.2928C5.59948 11.6549 5.67175 11.9723 5.8164 12.2451C5.96106 12.518 6.15892 12.7259 6.40998 12.8691C6.66104 13.0123 6.94487 13.0839 7.26135 13.0839C7.56698 13.0839 7.8467 13.011 8.1005 12.8651C8.35431 12.7191 8.5549 12.5112 8.7023 12.241C8.8497 11.9709 8.92334 11.6575 8.92334 11.3009V11.301ZM11.3793 7.5161V13.5135H10.8062V7.5161H11.3793ZM12.419 11.301C12.419 10.8417 12.5117 10.4405 12.6974 10.0974C12.8829 9.75441 13.1394 9.48958 13.4669 9.3032C13.7943 9.11682 14.1682 9.02356 14.5885 9.02356C15.1397 9.02356 15.5941 9.15863 15.9516 9.42877C16.309 9.6989 16.5397 10.0664 16.6433 10.531H16.0293C15.9529 10.2123 15.7877 9.96238 15.534 9.7813C15.2802 9.60023 14.965 9.50981 14.5885 9.50981C14.2883 9.50981 14.0182 9.5774 13.778 9.71247C13.5379 9.84754 13.3482 10.0489 13.209 10.3163C13.0698 10.5838 13.0003 10.9121 13.0003 11.301C13.0003 11.69 13.0698 12.0196 13.209 12.2898C13.3481 12.5599 13.5378 12.7626 13.778 12.8976C14.0182 13.0327 14.2883 13.1003 14.5885 13.1003C14.965 13.1003 15.2802 13.0097 15.534 12.8288C15.7878 12.6478 15.9529 12.3952 16.0293 12.0711H16.6433C16.5397 12.525 16.3077 12.8896 15.9475 13.1652C15.5872 13.4407 15.1342 13.5785 14.5885 13.5785C14.1682 13.5785 13.7944 13.4853 13.4669 13.2989C13.1394 13.1125 12.8829 12.8478 12.6974 12.5046C12.5118 12.1616 12.419 11.7603 12.419 11.3011V11.301ZM21.5715 9.08844V13.5135H20.9983V12.7355C20.8674 13.0111 20.6654 13.2218 20.3925 13.3677C20.1197 13.5136 19.814 13.5865 19.4756 13.5865C18.9408 13.5865 18.5042 13.4231 18.1658 13.0962C17.8274 12.7693 17.6582 12.2952 17.6582 11.6739V9.08857H18.223V11.6091C18.223 12.0899 18.3444 12.4574 18.5873 12.7114C18.8301 12.9653 19.1617 13.0923 19.5819 13.0923C20.013 13.0923 20.3569 12.9572 20.6135 12.6871C20.87 12.4169 20.9982 12.0199 20.9982 11.4957V9.08869H21.5714L21.5715 9.08844ZM23.4544 7.5161V13.5135H22.8814V7.5161H23.4544ZM24.4941 11.2928C24.4941 10.839 24.5855 10.4405 24.7684 10.0974C24.9513 9.75441 25.205 9.48958 25.5298 9.3032C25.8545 9.11682 26.2215 9.02356 26.6308 9.02356C27.0566 9.02356 27.4235 9.12089 27.7319 9.31529C28.0403 9.50981 28.2627 9.75836 28.3991 10.0609V9.08844H28.9721V13.5135H28.3991V12.5329C28.2572 12.8355 28.032 13.0854 27.7237 13.2826C27.4153 13.4798 27.0484 13.5784 26.6226 13.5784C26.2188 13.5784 25.8545 13.4838 25.5297 13.2947C25.205 13.1056 24.9512 12.8382 24.7682 12.4923C24.5855 12.1464 24.494 11.7466 24.494 11.2928H24.4941ZM28.3991 11.301C28.3991 10.9444 28.3255 10.6311 28.1781 10.3608C28.0307 10.0907 27.8301 9.8827 27.5763 9.73677C27.3225 9.59085 27.0429 9.51795 26.7371 9.51795C26.4205 9.51795 26.1368 9.58814 25.8857 9.72863C25.6347 9.86913 25.4368 10.0732 25.2922 10.3406C25.1475 10.608 25.0752 10.9255 25.0752 11.2928C25.0752 11.6549 25.1475 11.9723 25.2922 12.2451C25.4368 12.518 25.6347 12.7259 25.8857 12.8691C26.1368 13.0123 26.4206 13.0839 26.7371 13.0839C27.0427 13.0839 27.3225 13.011 27.5763 12.8651C27.8301 12.7191 28.0307 12.5112 28.1781 12.241C28.3255 11.9709 28.3991 11.6575 28.3991 11.3009V11.301ZM31.027 9.56655V12.3141C31.027 12.5842 31.0788 12.7707 31.1825 12.8733C31.2861 12.976 31.469 13.0273 31.7309 13.0273H32.2549V13.5135H31.6409C31.237 13.5135 30.9368 13.4203 30.7403 13.2339C30.5438 13.0475 30.4456 12.7408 30.4456 12.3141V9.56655H29.8234V9.08844H30.4456V7.97805H31.0268V9.08844H32.2549V9.56655H31.0268H31.027ZM35.153 13.5784C34.7327 13.5784 34.3548 13.4851 34.0191 13.2988C33.6835 13.1124 33.4188 12.8477 33.2251 12.5045C33.0313 12.1615 32.9345 11.7602 32.9345 11.301C32.9345 10.8417 33.0327 10.4405 33.2292 10.0974C33.4257 9.75441 33.6931 9.48958 34.0315 9.3032C34.3699 9.11682 34.7492 9.02356 35.1694 9.02356C35.5897 9.02356 35.9703 9.11682 36.3115 9.3032C36.6526 9.48958 36.92 9.75429 37.1137 10.0974C37.3075 10.4405 37.4043 10.8417 37.4043 11.301C37.4043 11.7549 37.306 12.1547 37.1096 12.5004C36.9131 12.8462 36.643 13.1124 36.2991 13.2988C35.9554 13.4851 35.5732 13.5784 35.1531 13.5784H35.153ZM35.153 13.084C35.4476 13.084 35.7206 13.0178 35.9716 12.8854C36.2226 12.7531 36.426 12.5531 36.5815 12.2857C36.737 12.0183 36.8147 11.69 36.8147 11.301C36.8147 10.9119 36.7383 10.5837 36.5855 10.3163C36.4327 10.0489 36.2307 9.8489 35.9797 9.71654C35.7286 9.58419 35.4557 9.51795 35.1611 9.51795C34.8664 9.51795 34.5935 9.58419 34.3425 9.71654C34.0914 9.8489 33.8908 10.0489 33.7407 10.3163C33.5907 10.5838 33.5155 10.9121 33.5155 11.301C33.5155 11.69 33.5905 12.0183 33.7407 12.2857C33.8908 12.5532 34.09 12.7531 34.3382 12.8854C34.5866 13.0178 34.8581 13.084 35.1528 13.084H35.153ZM39.0252 9.87456C39.1506 9.59899 39.3431 9.3856 39.6023 9.23424C39.8616 9.08289 40.1794 9.00728 40.5561 9.00728V9.59887H40.4006C39.9858 9.59887 39.6529 9.70964 39.4018 9.93117C39.1508 10.1527 39.0253 10.5228 39.0253 11.0416V13.5135H38.4523V9.08844H39.0253V9.87456H39.0252ZM49.0479 9.53904C49.489 9.62045 49.8516 9.83878 50.1357 10.194C50.4198 10.5493 50.5618 10.9563 50.5618 11.4152C50.5618 11.8297 50.459 12.1942 50.2534 12.5087C50.0478 12.8232 49.7507 13.0693 49.3618 13.247C48.9731 13.4246 48.5133 13.5134 47.9825 13.5134H44.6071V5.76428H47.8367C48.3675 5.76428 48.8254 5.84939 49.2105 6.01961C49.5956 6.18984 49.8871 6.42667 50.0852 6.73011C50.2833 7.03355 50.3824 7.3777 50.3824 7.76255C50.3824 8.21402 50.2609 8.59147 50.0179 8.89491C49.775 9.19835 49.4516 9.41298 49.0479 9.5388V9.53904ZM46.1771 8.96176H47.6125C47.9863 8.96176 48.2741 8.8785 48.4759 8.71198C48.6778 8.54546 48.7787 8.30677 48.7787 7.99581C48.7787 7.68497 48.6778 7.44443 48.4759 7.27421C48.2741 7.10399 47.9863 7.01887 47.6125 7.01887H46.1771V8.96164V8.96176ZM47.7584 12.2479C48.1396 12.2479 48.4368 12.1591 48.65 11.9815C48.863 11.8039 48.9696 11.5522 48.9696 11.2266C48.9696 10.8936 48.8574 10.6327 48.6332 10.4439C48.4089 10.2552 48.1061 10.1609 47.7247 10.1609H46.1773V12.2481H47.7585L47.7584 12.2479ZM56.0232 3L52.9954 15.523H51.4591L54.487 3H56.0232V3ZM65.8019 5.7644V13.5135H64.232V8.4733L62.1349 13.5135H60.9463L58.838 8.4733V13.5135H57.2681V5.7644H59.0512L61.5407 11.5263L64.0303 5.7644H65.802H65.8019Z" fill="#47A0F8"/>
</svg>
