<svg width="79" height="68" viewBox="0 0 79 68" fill="none" xmlns="http://www.w3.org/2000/svg">
<rect width="79" height="68"/>
<path fill-rule="evenodd" clip-rule="evenodd" d="M35.3586 31.0766C35.7334 31.3034 38.8936 30.9117 39.7404 30.9261C45.4005 31.0227 48.1239 31.2808 53.7079 31.6367C56.8004 31.8337 59.772 31.9866 62.8771 31.9463C66.2904 31.9024 67.7436 30.3679 68.9327 28.0755C69.2173 27.527 78.732 9.68246 78.9124 8.88825C79.2884 7.23486 78.381 6.04841 77.5639 5.41599C76.454 4.55681 74.762 4.77594 73.2521 4.77594L29.5007 4.77568C27.6778 4.77279 26.5661 4.82856 26.0693 6.30306C25.5803 7.75495 26.4331 8.96638 27.5656 9.28496C28.9952 9.68746 69.7929 8.97664 71.1572 9.57697C72.2681 10.0655 72.9079 11.3937 72.1963 12.8204C71.7511 13.713 70.972 15.3064 70.4757 16.024C69.6394 17.2331 68.3535 17.0418 66.6031 17.0418H32.5594C31.0529 17.0416 29.1589 16.8282 29.1193 18.5395C29.0784 20.3213 30.9962 20.1127 32.4264 20.1124C33.9798 20.1121 65.6681 19.9693 66.4113 20.2081C68.1479 20.7664 66.9611 22.7205 66.6408 23.381C66.1104 24.4757 65.5829 25.5353 65.0058 26.5434C64.4276 27.5538 63.6742 28.4472 62.3912 28.8568C60.3648 29.504 55.4581 29.1912 53.0387 29.1765C50.4045 29.1604 41.3203 29.1623 38.8952 29.6916C38.253 29.8318 37.5854 29.9875 36.9997 30.189C36.693 30.2948 36.3835 30.4092 36.1196 30.515C35.6621 30.6986 35.5472 30.7244 35.3583 31.0764L35.3586 31.0766Z" fill="#47A0F8"/>
<path fill-rule="evenodd" clip-rule="evenodd" d="M33.3571 41.7394C43.6052 41.8343 53.9346 41.6397 64.2092 41.7662C65.6611 41.7841 67.6062 41.7594 68.8979 42.2421C70.3215 42.7743 70.428 44.5971 68.6427 45.129C66.7067 45.7062 61.1025 45.5076 58.7571 45.5076C51.8875 45.5076 45.0131 45.5534 38.1447 45.526C35.5559 45.5157 30.4128 45.2385 28.1178 45.6833C26.0701 46.0803 26.2023 47.6416 27.9483 47.9697C30.5424 48.4569 57.7847 48.2117 63.8104 48.2117C65.5195 48.2117 67.2977 48.234 69.0005 48.1146C70.3999 48.0165 71.6281 47.5777 72.5318 46.6151C74.4636 44.5582 74.8903 41.2829 72.2097 39.5901C69.9267 38.1485 66.4174 38.1916 63.4115 38.1548C56.6003 38.0711 49.748 38.1416 42.9321 38.1414C37.0703 38.1414 29.4124 38.4955 25.2297 35.2263C23.4488 33.8344 22.0944 31.7051 21.2702 28.8024C20.5118 26.1312 19.706 23.5726 18.8818 20.9211C18.0581 18.2712 17.2947 15.6042 16.455 12.9632C15.0277 8.47392 13.329 2.42621 7.73969 1.15979C5.19807 0.58393 -0.221477 1.63279 0.00700433 3.21226C0.15915 4.26507 3.54151 3.60266 4.50003 3.56504C8.30709 3.41483 9.50511 4.94273 10.5116 7.98593L14.1794 19.7738C14.9504 22.4479 15.7365 25.0284 16.5353 27.6741C17.8839 32.141 19.9405 38.3936 24.4264 40.428C27.4578 41.8028 29.8313 41.707 33.3574 41.7396L33.3571 41.7394Z" fill="#47A0F8"/>
<path fill-rule="evenodd" clip-rule="evenodd" d="M29.5302 58.9418C29.9772 63.0412 33.7199 66.4932 38.3727 65.9539C42.4319 65.4833 45.9181 61.7884 45.3796 57.1116C44.9105 53.0393 41.2787 49.5449 36.6039 50.0508C32.4139 50.5041 29.0168 54.2362 29.5302 58.9418V58.9418Z" fill="#47A0F8"/>
<path fill-rule="evenodd" clip-rule="evenodd" d="M51.6403 58.6753C51.9661 62.842 55.6258 66.3214 60.2132 65.9828C64.4374 65.6711 67.9055 61.9515 67.5417 57.3389C67.2106 53.1445 63.5174 49.653 58.8985 50.0392C54.7265 50.388 51.2802 54.07 51.6403 58.6753V58.6753Z" fill="#47A0F8"/>
</svg>
