<svg width="66" height="66" viewBox="0 0 66 66" fill="none" xmlns="http://www.w3.org/2000/svg">
<g clip-path="url(#clip0_138_46)">
<rect width="66" height="66"/>
<path fill-rule="evenodd" clip-rule="evenodd" d="M-0.471313 4.73887V60.6631L14.756 60.6556L13.1782 58.9476C11.2302 56.7067 9.17233 53.7136 8.06396 50.8909C7.76044 50.1179 7.44584 49.2833 7.07871 48.5647C7.00021 48.4112 6.84671 48.1958 6.80968 48.0426L6.34032 46.0449C5.81272 43.9439 5.55952 42.7542 5.21169 40.6039C5.16359 40.3073 4.98508 39.4533 5.01135 39.2235C5.19492 37.6118 5.03984 36.0348 5.10029 34.3984C5.22594 30.9993 6.64194 25.006 8.24404 21.8823C8.32507 21.7238 8.50357 21.5112 8.53174 21.3452C7.86393 21.2405 7.18473 21.1292 6.53148 21.0154C6.17004 20.9526 5.84089 20.9301 5.60035 20.7626C4.39767 19.9242 3.48805 19.6454 2.61769 18.0311C1.36721 15.7114 1.68054 12.7327 3.10003 10.8747C4.26126 9.35426 6.71315 7.82882 9.67113 8.47838C11.9879 8.98728 13.7004 10.9172 14.2888 13.0663C14.5781 12.9881 15.6912 11.8656 16.0166 11.5674C17.7538 9.97663 19.5822 8.76003 21.8667 7.70191C24.8715 6.31057 28.4615 5.21119 32.2857 5.08928C36.1992 4.96456 40.2896 5.56348 43.5296 6.88699C46.0258 7.90666 47.6826 8.89288 49.6994 10.4371C50.0136 10.6778 51.2777 11.7662 51.5885 11.8128C53.5866 7.59063 59.9155 7.08736 62.7362 10.8778C64.0635 12.6621 64.5085 15.1606 63.459 17.5548C62.82 19.0124 61.6151 20.1386 60.2156 20.7382C59.3215 21.1211 59.4566 21.0098 58.766 21.1846C58.5287 21.2446 58.6673 21.1708 58.6141 21.2771C60.0374 23.7534 61.2569 28.0156 61.7721 31.2475C62.4656 35.594 62.2184 41.8118 60.8935 46.0383C60.6951 46.6713 60.4761 47.2743 60.3134 47.9338C60.0311 49.0782 60.4681 48.0726 59.8921 49.1401C59.3541 50.1373 58.8442 51.6956 58.0916 53.1235C57.495 54.2557 56.2781 56.119 55.5147 57.1318C55.2824 57.44 55.0371 57.7601 54.7949 58.049L52.8539 60.2236C52.6865 60.3909 52.545 60.4593 52.4383 60.655L66.3534 60.6628V4.73855C66.2239 4.47098 66.2148 4.05086 66.1154 3.74108C66.0116 3.41724 65.9033 3.16466 65.7584 2.88365C65.0884 1.58358 63.8692 0.604549 62.432 0.200682C62.168 0.126599 61.6078 0.069395 61.4445 0H4.43818C3.99413 0.188179 2.67118 0.052514 1.12889 1.53826C-0.348829 2.96179 -0.274453 4.33156 -0.470997 4.73855L-0.471313 4.73887Z" fill="#37CDE2"/>
<path fill-rule="evenodd" clip-rule="evenodd" d="M14.2892 13.0666L12.8925 14.7783C12.8225 14.859 12.7364 14.9115 12.6497 15.004L12.0015 15.7836C11.7316 16.1506 11.4799 16.4816 11.2017 16.8717L9.69902 19.1571L9.64268 19.2543C9.37492 19.701 8.67072 21.2189 8.53241 21.3455C8.50424 21.5115 8.32574 21.7241 8.24472 21.8826C6.64261 25.0063 5.22661 30.9996 5.10096 34.3987C5.04051 36.0351 5.19559 37.6121 5.01202 39.2238C4.98575 39.4536 5.16426 40.3076 5.21237 40.6042C5.56019 42.7545 5.81339 43.9442 6.34099 46.0452L6.81035 48.0429C6.84738 48.1961 7.00089 48.4115 7.07938 48.565C7.4462 49.2836 7.76111 50.1182 8.06463 50.8913C9.173 53.7139 11.2309 56.707 13.1789 58.948L14.7566 60.6559L26.109 60.6681C25.6488 60.1095 23.2951 59.3865 20.8321 56.3153C19.4759 54.6239 18.2659 52.5411 17.5852 49.9663C16.2014 44.7348 17.2209 39.9937 20.0165 35.5972C20.1557 35.378 20.4073 35.0517 20.4966 34.846C20.3086 34.6669 20.2874 34.5956 20.0795 34.4324C19.0629 33.6344 18.102 32.2231 17.5665 31.0702C15.9622 27.6155 15.6998 23.4583 16.7015 19.7998C17.3883 17.2922 18.6144 15.1619 20.6109 13.683C24.58 10.7437 29.531 11.9953 32.0978 15.7583C32.8099 16.8023 33.2729 17.9742 33.6954 19.1824L34.1379 20.3899L34.6066 19.1971C34.9902 17.9677 35.4397 16.9268 36.1929 15.8824C36.4895 15.4717 36.9554 14.863 37.32 14.532C37.4617 14.4032 37.5665 14.2629 37.7216 14.1353C38.3074 13.6552 38.9233 13.1832 39.6972 12.83C42.9894 11.3264 46.3325 12.0672 48.7901 14.5504C49.838 15.6092 50.9021 17.5948 51.4389 19.2415C52.6112 22.8369 52.5229 26.8262 51.0996 30.3516C50.6932 31.3581 49.38 33.7816 48.4046 34.1614C48.4132 34.1774 49.2262 35.1486 49.4978 35.5587C50.4375 36.9788 51.38 38.9659 51.8367 40.6358C52.6245 43.5173 52.6624 46.4772 52.0047 49.449C51.4243 52.0716 50.1827 54.5395 48.8132 56.1484L47.6558 57.4682C47.2706 57.9102 46.8487 58.2593 46.3623 58.6538C45.8426 59.0752 43.4999 60.5047 43.3695 60.6688L52.439 60.655C52.5456 60.4593 52.6871 60.3906 52.8545 60.2236L54.7956 58.0489C55.0377 57.7601 55.283 57.44 55.5153 57.1318C56.2787 56.119 57.4953 54.2557 58.0922 53.1235C58.8449 51.6959 59.3547 50.1376 59.8928 49.1401C60.4688 48.0726 60.0317 49.0782 60.314 47.9338C60.4767 47.2743 60.6957 46.6713 60.8942 46.0383C62.2193 41.8118 62.4662 35.5943 61.7728 31.2475C61.2575 28.0159 60.0381 23.7534 58.6148 21.2771C58.5948 21.1367 58.1299 20.2837 58.0175 20.0902C57.8941 19.8782 57.4725 19.1846 57.2944 19.0471C57.2687 18.5535 55.8214 16.602 55.5353 16.2375C55.2052 15.8171 54.8649 15.3888 54.5256 14.9806C54.2842 14.6902 53.6252 14.0716 53.5135 13.7158C52.7346 12.9887 52.6412 13.0957 51.7864 12.0926C51.6582 11.9425 51.6446 11.9891 51.5895 11.8125C51.279 11.7659 50.0146 10.6775 49.7003 10.4368C47.6836 8.89257 46.0268 7.90634 43.5306 6.88667C40.2906 5.56317 36.2002 4.96424 32.2867 5.08897C28.4625 5.21088 24.8725 6.31026 21.8677 7.7016C19.5832 8.75972 17.7548 9.97632 16.0175 11.5671C15.6922 11.8653 14.5788 12.9875 14.2898 13.066L14.2892 13.0666Z" fill="#B25F1A"/>
<path fill-rule="evenodd" clip-rule="evenodd" d="M29.0679 60.6681L40.4115 60.6669C40.5776 60.5178 41.3445 60.2921 41.6217 60.1918C44.3566 59.2002 46.6135 57.1828 48.2884 54.9205C51.4876 50.5987 52.3231 44.2409 50.0219 38.9237C49.5408 37.8122 48.5875 36.1361 47.7801 35.2108C45.7723 32.9098 42.0329 30.0352 38.7055 29.7261C38.9436 30.4069 39.4952 31.0008 39.7829 32.2118C40.0421 33.3018 39.863 34.3205 39.517 35.2777C38.5448 37.9678 35.9827 38.5386 35.8533 38.7821C35.8017 38.8787 35.8593 42.5626 35.8615 42.9984C35.8685 44.4019 35.8758 45.8117 35.839 47.2146C35.7688 49.9013 35.4127 52.583 35.3649 55.2331C38.4479 55.3388 41.9648 54.1553 44.2379 52.9656C46.3866 51.8409 48.0675 50.3921 49.2183 48.2411C49.3803 47.9382 49.5266 47.6272 49.6867 47.3465C49.7114 48.9129 47.8966 51.0929 46.8503 52.1222C44.9225 54.0184 42.8342 55.3322 40.0953 56.1375C38.4118 56.6323 36.5815 56.938 34.6959 56.9655C30.1364 57.0321 26.2331 55.5451 23.0852 53.1297C22.4443 52.638 22.0303 52.1804 21.5113 51.6371C21.0495 51.1538 19.3338 48.6772 19.3322 47.6941C19.9566 48.4849 19.881 48.5296 20.3883 49.3646C21.3353 50.9231 23.39 52.3373 25.0209 53.1385C27.5041 54.3582 30.8409 55.386 34.1281 55.2478C34.0597 53.9199 33.935 52.5993 33.8587 51.2651C33.7033 48.5465 33.6293 45.806 33.6157 43.0815C33.6122 42.3722 33.6131 41.6617 33.6188 40.9525C33.622 40.5389 33.6916 39.1823 33.6204 38.8872C31.5958 38.5968 30.056 37.6768 29.1037 35.9141C28.2789 34.3881 28.2355 33.0696 28.8457 31.4169C29.0075 30.9793 29.2803 30.4847 29.4006 30.0965C28.1536 30.185 25.9112 31.5229 24.931 32.2262C20.8843 35.1311 18.196 39.6849 18.1437 45.2099C18.0934 50.5258 20.6517 55.5735 24.6753 58.4459C25.6042 59.1093 26.7145 59.7732 27.8554 60.1889C28.146 60.2949 28.897 60.5075 29.0679 60.6672V60.6681Z" fill="#984E11"/>
<path fill-rule="evenodd" clip-rule="evenodd" d="M42.8108 19.1043C43.7363 18.9086 44.38 20.1105 44.6209 20.8391C44.9431 21.8132 45.0276 22.9047 45.0589 24.0041C45.0902 25.106 45.0478 26.3079 44.7807 27.3291C44.5494 28.2144 44.1101 29.2263 43.2539 29.361C42.1696 29.5317 41.6509 28.4864 41.4046 27.6474C40.8093 25.6165 40.6036 19.571 42.8105 19.1043H42.8108ZM25.0833 19.1365C26.14 18.8661 26.6714 20.072 26.9221 20.8676C27.4908 22.6728 27.4529 25.4011 27.0275 27.2426C26.7987 28.2325 26.4888 29.1384 25.5669 29.3507C23.6134 29.8002 23.3194 26.1491 23.3074 24.5052C23.2935 22.6025 23.3758 19.5732 25.0829 19.1365H25.0833ZM20.4966 34.846C20.6897 34.7172 21.4999 33.7354 21.6926 33.4959C22.5187 32.4703 24.9769 30.7926 26.1698 30.1525C27.2785 29.5573 32.7067 27.6583 34.1034 27.6449C34.8453 27.6377 35.6286 27.844 36.2999 28.0156C38.8211 28.6608 39.7731 28.5476 42.4238 29.7305C43.5733 30.2434 44.8146 30.9993 45.6995 31.6707C46.2429 32.083 46.6772 32.4047 47.1237 32.8523C47.3981 33.1271 48.2005 34.0805 48.4049 34.1611C49.38 33.7813 50.6935 31.3575 51.0999 30.3513C52.5232 26.8259 52.6111 22.8366 51.4392 19.2412C50.9024 17.5948 49.838 15.6089 48.7904 14.5501C46.3328 12.0672 42.99 11.3261 39.6975 12.8296C38.9236 13.1829 38.3077 13.6549 37.7219 14.135C37.5668 14.2622 37.4617 14.4029 37.3203 14.5317C36.9557 14.8627 36.4898 15.4713 36.1932 15.8821C35.44 16.9265 34.9905 17.9674 34.6069 19.1968L34.1382 20.3896L33.6957 19.1821C33.2732 17.9739 32.8102 16.8024 32.0981 15.758C29.5316 11.995 24.5807 10.7431 20.6112 13.6827C18.6144 15.1613 17.3886 17.2919 16.7018 19.7995C15.7001 23.458 15.9628 27.6152 17.5668 31.0699C18.1023 32.2231 19.0632 33.6344 20.0798 34.4321C20.2877 34.5953 20.3089 34.6666 20.4969 34.8457L20.4966 34.846Z" fill="#D3813C"/>
<path fill-rule="evenodd" clip-rule="evenodd" d="M-0.470997 61.1708C-0.41561 61.3033 -0.339018 61.9032 -0.274769 62.1323C-0.18615 62.4477 -0.0763262 62.7344 0.0626157 63.0091C0.357907 63.5927 0.706053 64.0494 1.0811 64.4255C1.68466 65.0313 2.46324 65.5099 3.34975 65.7746C3.65675 65.8665 4.11693 65.8893 4.36696 66H61.5154C61.9861 65.7918 63.2856 65.9115 64.7801 64.4461C66.2379 63.0173 66.155 61.6928 66.3534 61.2643V60.6628L52.4383 60.655L43.3688 60.6688L40.4108 60.6669L29.0673 60.6681L26.1084 60.6678L14.756 60.6556L-0.471313 60.6631V61.1708H-0.470997Z" fill="#FF6961"/>
<path fill-rule="evenodd" clip-rule="evenodd" d="M34.0635 30.4572C35.6989 30.2975 36.906 31.6432 36.9861 33.1446C37.0778 34.8623 35.9141 36.0463 34.2746 36.1129C30.8011 36.2536 29.9823 30.8555 34.0635 30.4572ZM20.4966 34.8457C20.407 35.0511 20.1554 35.3777 20.0165 35.5968C17.2209 39.9934 16.2014 44.7345 17.5852 49.966C18.2663 52.5408 19.4759 54.6236 20.8321 56.315C23.2948 59.3862 25.6489 60.1092 26.109 60.6678L29.068 60.6681C28.8971 60.5084 28.146 60.2958 27.8555 60.1899C26.7145 59.7741 25.6042 59.1102 24.6753 58.4469C20.6517 55.5745 18.0931 50.5265 18.1438 45.2109C18.196 39.6858 20.8843 35.132 24.931 32.2271C25.9112 31.5235 28.1536 30.1859 29.4006 30.0974C29.2803 30.4857 29.0072 30.9802 28.8458 31.4178C28.2356 33.0705 28.2789 34.3887 29.1037 35.9151C30.0561 37.6778 31.5958 38.5977 33.6204 38.8881C33.6917 39.1832 33.622 40.5398 33.6189 40.9534C33.6132 41.6627 33.6122 42.3732 33.6157 43.0824C33.6293 45.8073 33.7034 48.5475 33.8588 51.2661C33.935 52.5999 34.0597 53.9206 34.1281 55.2488C30.841 55.3869 27.5042 54.3591 25.0209 53.1394C23.39 52.3382 21.3353 50.9241 20.3884 49.3655C19.881 48.5306 19.9567 48.4859 19.3322 47.695C19.3341 48.6781 21.0495 51.1548 21.5113 51.638C22.0304 52.1813 22.4443 52.6389 23.0852 53.1306C26.2328 55.546 30.1361 57.033 34.6959 56.9664C36.5819 56.9386 38.4119 56.6332 40.0953 56.1384C42.8346 55.3332 44.9225 54.0193 46.8503 52.1232C47.8966 51.0938 49.7114 48.9141 49.6867 47.3474C49.5266 47.6281 49.3804 47.9392 49.2183 48.2421C48.0675 50.393 46.3866 51.8422 44.2379 52.9665C41.9649 54.1563 38.448 55.3397 35.365 55.2341C35.4128 52.5839 35.7688 49.9022 35.8391 47.2155C35.8758 45.8126 35.8685 44.4028 35.8616 42.9993C35.8593 42.5635 35.8017 38.8797 35.8533 38.7831C35.9828 38.5396 38.5448 37.9685 39.5171 35.2786C39.863 34.3215 40.0422 33.3031 39.7829 32.2127C39.4953 31.0018 38.9436 30.4078 38.7056 29.727C42.0329 30.0362 45.772 32.9108 47.7802 35.2117C48.5879 36.137 49.5408 37.8131 50.0219 38.9247C52.3232 44.2418 51.4876 50.5996 48.2885 54.9215C46.6139 57.1837 44.3569 59.2012 41.6218 60.1927C41.3445 60.293 40.5777 60.519 40.4115 60.6678L43.3695 60.6697C43.5002 60.5056 45.8429 59.0758 46.3623 58.6548C46.8487 58.2606 47.2706 57.9111 47.6558 57.4691L48.8132 56.1493C50.1827 54.5404 51.4243 52.0725 52.0048 49.4499C52.6624 46.4781 52.6245 43.5179 51.8367 40.6367C51.38 38.9666 50.4378 36.9797 49.4978 35.5596C49.2266 35.1498 48.4132 34.1783 48.4046 34.1624C48.2002 34.0814 47.3978 33.1283 47.1234 32.8535C46.6765 32.4062 46.2426 32.0843 45.6992 31.672C44.8143 31.0005 43.5727 30.2444 42.4235 29.7317C39.7728 28.5489 38.8208 28.662 36.2996 28.0168C35.628 27.8449 34.845 27.6389 34.1031 27.6461C32.7064 27.6595 27.2785 29.5585 26.1695 30.1537C24.9766 30.7939 22.5184 32.4713 21.6923 33.4972C21.4996 33.7366 20.6894 34.7185 20.4963 34.8472L20.4966 34.8457Z" fill="black"/>
<path fill-rule="evenodd" clip-rule="evenodd" d="M8.5321 21.3455C8.6704 21.2186 9.37492 19.701 9.64236 19.2543L9.6987 19.1571C8.99703 19.2237 8.1504 18.907 7.68167 18.6244C5.92195 17.5635 5.77858 14.6852 6.83947 13.1897C8.37226 11.0294 12.7098 11.498 12.8925 14.778L14.2892 13.0663C13.7008 10.9169 11.9882 8.98728 9.67148 8.47838C6.71351 7.82851 4.26161 9.35426 3.10039 10.8747C1.6809 12.7327 1.36757 15.7117 2.61805 18.0311C3.48841 19.6454 4.39771 19.9242 5.60071 20.7626C5.84093 20.9301 6.1704 20.9526 6.53184 21.0154C7.18509 21.1292 7.86461 21.2405 8.5321 21.3452V21.3455Z" fill="#984F14"/>
<path fill-rule="evenodd" clip-rule="evenodd" d="M51.5889 11.8131C51.6442 11.9897 51.6579 11.9431 51.7857 12.0932C52.6406 13.096 52.7343 12.9894 53.5128 13.7165C53.5897 13.2873 54.2949 12.6611 54.6203 12.4573C57.6944 10.5315 61.6835 13.3707 60.1324 17.0274C59.7143 18.013 58.7338 19.0689 57.2934 19.0474C57.4716 19.1849 57.8931 19.8785 58.0166 20.0905C58.1293 20.284 58.5939 21.137 58.6138 21.2774C58.667 21.1711 58.5284 21.2449 58.7657 21.1849C59.4563 21.0101 59.3215 21.1217 60.2153 20.7385C61.6145 20.1389 62.8197 19.0127 63.4587 17.5551C64.5082 15.1609 64.0636 12.6624 62.7359 10.8781C59.9152 7.08766 53.5863 7.59093 51.5882 11.8131H51.5889Z" fill="#984F14"/>
<path fill-rule="evenodd" clip-rule="evenodd" d="M9.69868 19.1571L11.2014 16.8717C11.4796 16.4816 11.7312 16.1506 12.0012 15.7836L12.6494 15.004C12.7361 14.9115 12.8222 14.859 12.8921 14.7783C12.7095 11.4983 8.37193 11.0294 6.83914 13.1901C5.77792 14.6858 5.9213 17.5641 7.68133 18.6248C8.15006 18.9076 8.99669 19.224 9.69836 19.1574L9.69868 19.1571Z" fill="#572E0A"/>
<path fill-rule="evenodd" clip-rule="evenodd" d="M42.8109 19.1043C40.6036 19.571 40.8094 25.6165 41.405 27.6474C41.6509 28.4864 42.1697 29.5317 43.2543 29.361C44.1104 29.2263 44.5494 28.2144 44.7811 27.3291C45.0482 26.3079 45.0906 25.106 45.0593 24.0041C45.0279 22.9047 44.9434 21.8132 44.6212 20.8391C44.3804 20.1105 43.7366 18.9086 42.8112 19.1043H42.8109Z" fill="black"/>
<path fill-rule="evenodd" clip-rule="evenodd" d="M25.0832 19.1365C23.3761 19.5732 23.2938 22.6025 23.3077 24.5052C23.3194 26.1491 23.6137 29.8002 25.5672 29.3507C26.4891 29.1384 26.799 28.2325 27.0278 27.2426C27.4532 25.4011 27.4911 22.6728 26.9224 20.8676C26.6717 20.072 26.14 18.8661 25.0836 19.1365H25.0832Z" fill="black"/>
<path fill-rule="evenodd" clip-rule="evenodd" d="M53.5131 13.7165C53.6245 14.0722 54.2838 14.6908 54.5253 14.9812C54.8646 15.3894 55.2051 15.8177 55.5349 16.2381C55.821 16.6026 57.2683 18.5541 57.294 19.0477C58.734 19.0693 59.7149 18.0133 60.133 17.0277C61.6841 13.371 57.695 10.5318 54.6209 12.4577C54.2955 12.6615 53.5903 13.2876 53.5134 13.7168L53.5131 13.7165Z" fill="#572E0A"/>
<path fill-rule="evenodd" clip-rule="evenodd" d="M34.0635 30.4572C29.9823 30.8555 30.8011 36.2539 34.2746 36.1129C35.9141 36.0463 37.0778 34.8623 36.9861 33.1446C36.9057 31.6432 35.6985 30.2975 34.0635 30.4572Z" fill="#683104"/>
</g>
<defs>
<clipPath id="clip0_138_46">
<rect width="66" height="66" fill="white"/>
</clipPath>
</defs>
</svg>
