<svg width="66" height="16" viewBox="0 0 66 16" fill="none" xmlns="http://www.w3.org/2000/svg">
<g clip-path="url(#clip0_143_143)">
<path fill-rule="evenodd" clip-rule="evenodd" d="M15.6454 3.50235C16.0367 3.30784 16.4142 3.68416 16.6775 3.86118L19.3135 5.61828C19.9099 6.0192 20.4671 6.39872 21.0693 6.80398C21.3909 7.02045 21.7071 7.1109 21.7203 7.62765L21.7181 10.5877C21.7186 11.2734 21.7918 11.3606 21.3327 11.6788C20.7569 12.0777 20.1919 12.4457 19.6024 12.842L16.9669 14.5997C15.8539 15.3498 16.0088 15.4262 15.0416 14.7737L12.4055 13.0166C11.8237 12.6244 11.2371 12.225 10.6498 11.8309C10.3293 11.6162 10.0345 11.5197 10.0271 11.0249L10.0286 8.0663C10.028 7.45452 9.95053 7.2862 10.388 6.99598L14.7528 4.0749C15.0404 3.88153 15.3241 3.66198 15.6455 3.50257L15.6454 3.50235ZM27.6111 13.279L25.1097 13.2801C24.686 13.2801 24.4595 13.0708 24.4595 12.6242L24.4601 6.02983C24.4601 5.59233 24.6756 5.37506 25.1097 5.37506H27.5628C29.6516 5.37506 31.3393 7.15058 31.3393 9.22992V9.47258C31.3393 11.5095 29.6098 13.2791 27.6111 13.2791V13.279ZM41.7768 6.02983C41.7768 5.59233 41.9927 5.37506 42.4295 5.37506H45.2646C47.8277 5.37506 48.656 9.02009 46.2647 10.1403C45.2835 10.6002 43.47 10.2094 42.8839 10.4062L42.8831 12.6242C42.8823 13.504 41.7769 13.5026 41.7766 12.6242L41.7769 6.02983H41.7768ZM59.2384 12.3332L59.2376 12.6242C59.237 13.5043 58.1311 13.5024 58.1314 12.6242L58.1316 6.02983C58.1316 5.59873 58.4461 5.23555 58.8999 5.42034C59.0996 5.50165 59.4462 5.99381 59.5903 6.18352C60.006 6.73194 60.428 7.28002 60.8614 7.81209L62.7438 10.2291C62.8455 10.3628 63.2799 10.9527 63.4228 11.042C63.4228 9.80774 63.4228 8.57344 63.4228 7.33903C63.4228 6.94829 63.348 5.87992 63.5214 5.62286C63.8265 5.17209 64.5296 5.31308 64.5296 6.07843L64.529 12.6242C64.5284 13.0715 64.1799 13.4478 63.7265 13.2181C63.4901 13.0985 61.4987 10.4319 61.1468 9.99676C60.8317 9.60716 59.3691 7.67167 59.2384 7.597V12.3332V12.3332ZM4.17628 5.42343C5.00544 5.28884 5.89256 5.42892 6.56187 5.76431C6.979 5.97357 8.18433 6.63726 7.6271 7.2687C7.25864 7.68631 6.91264 7.36235 6.66987 7.1603C5.7553 6.39918 4.51956 6.27408 3.47237 6.81244C2.09177 7.52222 1.60567 9.28836 2.31525 10.676C3.01202 12.0386 4.75915 12.5492 6.11582 11.8532C6.25876 11.7797 6.44435 11.6604 6.55904 11.574C6.71003 11.4599 6.78921 11.3584 6.9359 11.2731C7.33124 11.0437 7.76562 11.3449 7.76562 11.7512C7.76505 12.6392 4.32387 14.47 2.0152 12.1447C-0.0667046 10.0475 0.763584 5.97677 4.1764 5.42343H4.17628ZM51.0973 6.49089C51.0055 6.76808 51.0612 8.35377 51.0612 8.76898C51.8095 8.76898 52.6014 8.74336 53.3439 8.76726C54.1313 8.79265 54.1885 9.86411 53.3002 9.88664C53.0129 9.89384 51.1736 9.83712 51.0936 9.91774C50.9985 10.0137 51.041 11.8832 51.0724 12.1518C51.4813 12.2017 54.0247 12.1543 54.6943 12.1613C55.4016 12.1682 55.6098 12.8081 55.1743 13.1587C54.9041 13.3766 52.1389 13.2785 51.6139 13.2785C49.5771 13.2785 49.9542 13.69 49.9542 9.37526C49.9542 8.84559 49.8918 5.98958 50.0008 5.71605C50.1913 5.23795 50.9667 5.37483 51.5178 5.37483C52.0338 5.37483 54.8529 5.30108 55.1179 5.45408C55.5659 5.71205 55.4675 6.45819 54.792 6.49158C53.6232 6.54955 52.2851 6.49078 51.0973 6.49078V6.49089ZM34.7423 6.49089C34.6508 6.76808 34.7062 8.35377 34.7062 8.76898C35.4545 8.76898 36.2465 8.74336 36.9889 8.76726C37.7764 8.79265 37.8335 9.86411 36.9453 9.88664C36.6583 9.89384 34.8187 9.83712 34.7389 9.91774C34.6434 10.0137 34.6863 11.8832 34.7175 12.1518C35.1263 12.2017 37.6697 12.1543 38.3393 12.1613C39.0469 12.1682 39.255 12.8081 38.8196 13.1587C38.5574 13.3699 37.4826 13.2792 37.087 13.2788L34.3443 13.2802C33.998 13.2802 33.8128 13.2396 33.6789 13.0033C33.5283 12.7373 33.5719 5.90187 33.6457 5.71605C33.8364 5.23795 34.6114 5.37483 35.1626 5.37483C35.679 5.37483 38.4977 5.30108 38.7631 5.45408C39.2107 5.71205 39.1125 6.45819 38.4368 6.49158C37.268 6.54955 35.93 6.49078 34.7421 6.49078L34.7423 6.49089ZM0 15.6303H66.3814V3.02367H0V15.6303V15.6303Z" fill="black"/>
<path fill-rule="evenodd" clip-rule="evenodd" d="M16.4364 13.5844L16.4272 11.4604C16.4274 11.3005 16.6318 11.236 16.9086 11.0497C17.1588 10.8817 18.4308 10.0027 18.5194 10.0122L20.1285 11.1209C19.9026 11.3287 17.8158 12.6852 17.379 12.9785C17.1614 13.1247 16.6453 13.5148 16.4364 13.5844V13.5844ZM11.6165 11.1209L13.2261 10.0015L15.3063 11.3589L15.3192 13.5843C15.1136 13.5186 13.7535 12.5608 13.4417 12.3606L11.6165 11.1208V11.1209ZM19.5375 9.32688C19.5762 9.28217 19.5189 9.33317 19.6067 9.25656C19.6205 9.24444 20.3939 8.67817 20.6097 8.60899L20.6112 10.0387C20.441 9.97273 19.6694 9.44878 19.5375 9.32688V9.32688ZM14.2851 9.32688L15.8737 8.22397L17.2849 9.16405C17.3197 9.18795 17.3379 9.19687 17.3698 9.22454L17.463 9.32688C17.2575 9.49029 15.9863 10.3701 15.8737 10.3701C15.7616 10.3701 14.4852 9.48789 14.2851 9.32688V9.32688ZM11.1359 8.61505C11.2551 8.63175 12.0716 9.16691 12.21 9.32688C12.0654 9.4609 11.2662 10.0137 11.1359 10.0298V8.61505ZM16.4362 5.06939C16.645 5.1388 17.1616 5.52908 17.3788 5.67522L20.0715 7.58533C19.8285 7.79516 18.8758 8.35536 18.5194 8.63312C18.1271 8.46651 16.8823 7.44982 16.4266 7.2656L16.4364 5.06928L16.4362 5.06939ZM11.623 7.53284C11.8712 7.28413 12.2389 7.09911 12.5454 6.89305L14.3972 5.65589C14.6216 5.50518 15.1028 5.13857 15.3133 5.06916L15.3204 7.14496C15.3204 7.29796 15.2158 7.31935 15.0759 7.40671C14.6336 7.68252 13.4539 8.53729 13.2284 8.63266C12.9653 8.44215 12.7052 8.28161 12.4302 8.09487C12.1703 7.91877 11.8375 7.74793 11.6231 7.53295L11.623 7.53284ZM15.6451 3.50222C15.3237 3.66163 15.0401 3.88118 14.7524 4.07454L10.3876 6.99562C9.95015 7.28584 10.0276 7.45417 10.0282 8.06594L10.0267 11.0245C10.0341 11.5194 10.3289 11.6159 10.6494 11.8306C11.2367 12.2245 11.8233 12.6239 12.4052 13.0163L15.0412 14.7734C16.0084 15.4259 15.8535 15.3495 16.9665 14.5993L19.602 12.8417C20.1915 12.4454 20.7565 12.0774 21.3323 11.6785C21.7914 11.3603 21.7183 11.273 21.7177 10.5874L21.72 7.62729C21.7068 7.11054 21.3905 7.02009 21.0689 6.80363C20.4668 6.39849 19.9095 6.01884 19.3132 5.61793L16.6771 3.86082C16.4138 3.68381 16.0364 3.30748 15.645 3.50199L15.6451 3.50222Z" fill="#FEFEFE"/>
<path fill-rule="evenodd" clip-rule="evenodd" d="M25.5665 6.4909H27.4667C29.0532 6.4909 30.2325 7.74624 30.2333 9.32702C30.2342 10.9065 29.0508 12.1631 27.4667 12.1631H25.5668L25.5665 6.4909ZM27.611 13.279C29.6097 13.279 31.3392 11.5095 31.3392 9.47247V9.22982C31.3392 7.15059 29.6515 5.37495 27.5626 5.37495H25.1096C24.6755 5.37495 24.46 5.59222 24.46 6.02972L24.4594 12.6241C24.4594 13.0708 24.6858 13.28 25.1096 13.28L27.611 13.2788V13.279Z" fill="#FEFEFE"/>
<path fill-rule="evenodd" clip-rule="evenodd" d="M59.2384 7.59689C59.3691 7.67156 60.8317 9.60705 61.1469 9.99664C61.4988 10.4319 63.4901 13.0984 63.7266 13.218C64.18 13.4477 64.5285 13.0713 64.529 12.6241L64.5296 6.07831C64.5296 5.31285 63.8266 5.17197 63.5214 5.62274C63.3479 5.8798 63.4229 6.94818 63.4229 7.33891C63.4229 8.57321 63.4229 9.80762 63.4229 11.0419C63.2799 10.9526 62.8456 10.3627 62.7438 10.229L60.8614 7.81198C60.4281 7.28002 60.006 6.73183 59.5903 6.1834C59.4462 5.99381 59.0997 5.50153 58.8999 5.42023C58.4461 5.23544 58.1317 5.59861 58.1317 6.02971L58.1314 12.6241C58.1311 13.5023 59.2371 13.5042 59.2376 12.6241L59.2384 12.333V7.59689V7.59689Z" fill="#FEFEFE"/>
<path fill-rule="evenodd" clip-rule="evenodd" d="M25.5667 12.163H27.4665C29.0508 12.163 30.2341 10.9065 30.2332 9.3269C30.2324 7.74612 29.0529 6.49078 27.4665 6.49078H25.5664L25.5667 12.163Z" fill="black"/>
<path fill-rule="evenodd" clip-rule="evenodd" d="M51.0972 6.49089C52.2852 6.49089 53.6233 6.54967 54.792 6.49169C55.4675 6.4583 55.5659 5.71217 55.1179 5.45419C54.8528 5.30119 52.0338 5.37495 51.5178 5.37495C50.9666 5.37495 50.1912 5.23807 50.0008 5.71617C49.8919 5.9897 49.9542 8.8456 49.9542 9.37538C49.9542 13.6902 49.5771 13.2786 51.6139 13.2786C52.1389 13.2786 54.9041 13.3766 55.1743 13.1588C55.6097 12.8081 55.4016 12.1683 54.6943 12.1614C54.0246 12.1544 51.4813 12.2018 51.0724 12.1519C51.041 11.8833 50.9983 10.0138 51.0936 9.91786C51.1737 9.83713 53.013 9.89396 53.3002 9.88676C54.1886 9.86434 54.1313 8.79277 53.3439 8.76738C52.6014 8.74348 51.8094 8.7691 51.0612 8.7691C51.0612 8.35389 51.0055 6.76819 51.0972 6.49101V6.49089Z" fill="#FEFEFE"/>
<path fill-rule="evenodd" clip-rule="evenodd" d="M34.7423 6.49089C35.9303 6.49089 37.2684 6.54967 38.4371 6.49169C39.1126 6.4583 39.211 5.71217 38.7633 5.45419C38.498 5.30119 35.6793 5.37495 35.1629 5.37495C34.6117 5.37495 33.8366 5.23807 33.6459 5.71617C33.5722 5.9021 33.5284 12.7374 33.6792 13.0034C33.813 13.2397 33.9983 13.2803 34.3445 13.2803L37.0872 13.279C37.4829 13.2792 38.5577 13.37 38.8198 13.1588C39.2552 12.8081 39.0472 12.1683 38.3395 12.1614C37.67 12.1544 35.1266 12.2018 34.7177 12.1519C34.6865 11.8833 34.6437 10.0138 34.7392 9.91786C34.8189 9.83713 36.6585 9.89396 36.9455 9.88676C37.8338 9.86434 37.7766 8.79277 36.9892 8.76738C36.2467 8.74348 35.4548 8.7691 34.7065 8.7691C34.7065 8.35389 34.651 6.76819 34.7426 6.49101L34.7423 6.49089Z" fill="#FEFEFE"/>
<path fill-rule="evenodd" clip-rule="evenodd" d="M42.8838 9.25405V6.49089C43.5611 6.49089 44.7968 6.41828 45.4089 6.50793C46.9646 6.73503 46.9614 9.00946 45.4089 9.23736C44.8 9.32666 43.5588 9.25405 42.8838 9.25405V9.25405ZM41.7768 6.02983L41.7765 12.6242C41.7768 13.5026 42.8821 13.504 42.883 12.6242L42.8838 10.4062C43.47 10.2095 45.2835 10.6002 46.2646 10.1403C48.656 9.02009 47.8276 5.37506 45.2645 5.37506H42.4295C41.9926 5.37506 41.7767 5.59233 41.7767 6.02983H41.7768Z" fill="#FEFEFE"/>
<path fill-rule="evenodd" clip-rule="evenodd" d="M4.17628 5.42344C0.763471 5.97678 -0.0668178 10.0474 2.01509 12.1447C4.32376 14.4702 7.76494 12.6392 7.7655 11.7512C7.7655 11.345 7.33124 11.0438 6.93578 11.2731C6.7891 11.3585 6.70992 11.4599 6.55893 11.574C6.44423 11.6604 6.25876 11.7797 6.1157 11.8532C4.75915 12.5492 3.01191 12.0385 2.31514 10.676C1.60544 9.28837 2.09155 7.52234 3.47226 6.81245C4.51945 6.27409 5.75518 6.39919 6.66976 7.16031C6.91253 7.36236 7.25841 7.68632 7.62699 7.26871C8.18422 6.63727 6.97889 5.97358 6.56176 5.76432C5.89245 5.42893 5.00532 5.28874 4.17617 5.42344H4.17628Z" fill="#FEFEFE"/>
<path fill-rule="evenodd" clip-rule="evenodd" d="M42.8838 9.25406C43.5588 9.25406 44.8 9.32667 45.4089 9.23736C46.9614 9.00934 46.9646 6.73503 45.4089 6.50793C44.7968 6.41828 43.5611 6.49089 42.8838 6.49089V9.25406Z" fill="black"/>
<path fill-rule="evenodd" clip-rule="evenodd" d="M16.4364 13.5844C16.6454 13.515 17.1614 13.1247 17.379 12.9785C17.8159 12.6852 19.9027 11.3287 20.1285 11.1209L18.5194 10.0122C18.4308 10.0027 17.1588 10.8817 16.9087 11.0497C16.6319 11.2358 16.4274 11.3005 16.4272 11.4604L16.4364 13.5844Z" fill="black"/>
<path fill-rule="evenodd" clip-rule="evenodd" d="M13.4419 12.3607C13.7538 12.561 15.1139 13.5186 15.3193 13.5844L15.3065 11.359L13.2263 10.0017L11.6167 11.1211L13.4419 12.3608V12.3607Z" fill="black"/>
<path fill-rule="evenodd" clip-rule="evenodd" d="M11.6231 7.53297C11.8375 7.74795 12.1703 7.91879 12.4302 8.09489C12.7052 8.28162 12.9655 8.44217 13.2284 8.63267C13.4541 8.53731 14.6336 7.68254 15.076 7.40673C15.2157 7.31936 15.3204 7.29809 15.3204 7.14498L15.3133 5.06918C15.1028 5.13859 14.6217 5.50519 14.3972 5.65591L12.5454 6.89306C12.2389 7.09912 11.8712 7.28414 11.623 7.53285L11.6231 7.53297Z" fill="black"/>
<path fill-rule="evenodd" clip-rule="evenodd" d="M16.4267 7.26574C16.8824 7.44996 18.1273 8.46665 18.5195 8.63325C18.876 8.35538 19.8286 7.79518 20.0716 7.58546L17.3789 5.67535C17.1617 5.52921 16.645 5.13905 16.4363 5.06953L16.4265 7.26585L16.4267 7.26574Z" fill="black"/>
<path fill-rule="evenodd" clip-rule="evenodd" d="M14.2853 9.32701C14.4854 9.48813 15.7618 10.3702 15.8738 10.3702C15.9865 10.3702 17.2576 9.49041 17.4632 9.32701L17.3699 9.22466C17.3379 9.19699 17.3199 9.18807 17.2851 9.16417L15.8738 8.2241L14.2853 9.32701V9.32701Z" fill="black"/>
<path fill-rule="evenodd" clip-rule="evenodd" d="M11.136 10.0298C11.2664 10.0137 12.0656 9.46092 12.2102 9.3269C12.0718 9.16693 11.2552 8.63177 11.136 8.61507V10.0298Z" fill="black"/>
<path fill-rule="evenodd" clip-rule="evenodd" d="M19.5376 9.327C19.6694 9.4489 20.4411 9.97285 20.6113 10.0388L20.6098 8.60911C20.3939 8.67829 19.6206 9.24455 19.6068 9.25667C19.519 9.33329 19.5763 9.28229 19.5376 9.327V9.327Z" fill="black"/>
</g>
<defs>
<clipPath id="clip0_143_143">
<rect width="66" height="16" fill="white"/>
</clipPath>
</defs>
</svg>
