<svg width="127" height="66" viewBox="0 0 127 66" fill="none" xmlns="http://www.w3.org/2000/svg">
<rect width="127" height="66"/>
<path fill-rule="evenodd" clip-rule="evenodd" d="M73.3852 48.3164L73.622 47.6519L73.9178 46.7445L74.3625 44.7383L76.4675 45.1933L83.7739 47.0666L85.9703 47.5721L86.1112 47.2563L86.6946 44.9803C86.2159 44.5425 84.9956 44.5451 84.3874 44.1931L75.1595 41.9505L75.3444 41.0684L75.7294 39.6278L76.0184 38.2285C76.1973 37.4692 76.9382 35.17 76.8035 34.7336C76.6407 34.2342 76.0577 34.0063 75.5558 33.7208L68.8199 29.2023C68.6642 27.9353 69.3297 27.7677 70.2705 27.4137C70.8446 27.1955 72.3021 26.8358 72.9099 26.8805C74.7945 27.0482 77.1574 27.0395 79.2479 27.1557C80.4801 27.2306 86.6128 28.1717 88.0333 28.5475C89.8699 29.051 90.0831 29.1688 90.47 28.3119C90.3404 28.0905 90.4888 28.2513 90.2801 28.0416C89.8905 27.7002 89.3768 27.6446 88.9017 27.4527C88.2584 27.1759 87.8976 26.8821 87.1296 26.5991C86.6543 26.4073 85.8059 26.1665 85.3328 25.9287L79.9247 23.64C78.6227 23.0856 77.2873 22.8829 75.9783 22.4665C73.407 21.6357 69.8298 21.2173 66.952 21.5086C65.159 21.6984 62.4 23.0553 60.9472 24.89C60.9744 24.6609 58.5526 23.346 54.5374 21.9846C54.5374 21.9846 51.3323 27.2524 48.1055 26.7124C44.4123 26.1041 37.8291 19.1658 33.772 19.2619C31.3748 19.3306 28.9021 19.6567 26.3742 20.1489C22.3141 20.9361 18.2041 22.0895 14.4843 23.8915C13.7473 24.24 13.4189 24.5467 12.7762 24.8845C11.8605 25.3626 10.1136 26.5071 9.31622 26.8065C10.381 30.222 13.0287 32.9609 15.3043 35.6359L18.5659 38.927C18.776 39.1062 18.943 39.2064 19.1243 39.3381L20.8901 40.9441C23.417 42.9706 26.0903 44.5744 28.9195 46.1855C29.8018 46.689 30.8399 47.1999 31.8495 47.6632C34.3272 48.7966 37.4165 49.5907 38.4704 50.1026C41.9685 51.7921 49.8374 52.433 53.8501 52.9031C53.902 55.9317 55.2564 56.6883 56.1453 57.6834C57.923 59.6739 61.5911 61.0951 64.2792 61.7778L68.0356 62.6811C69.3833 62.9458 70.9388 63.1284 72.367 63.351C73.3753 63.5226 73.6125 63.4725 74.5372 63.4403C75.9309 63.4153 77.6293 63.866 78.9823 63.7163C79.0767 63.7054 79.6924 63.5969 79.8805 63.5905C80.4611 63.5571 80.3292 63.6889 80.881 63.6082C80.6378 63.151 81.076 63.464 80.4036 63.1397C80.1897 63.0371 79.8323 62.9892 79.6153 62.948C78.2706 62.6221 77.9947 62.1938 77.0306 61.7634C76.3116 61.4367 76.6803 61.8848 75.7833 61.3652C75.1593 61.0126 75.1563 61.0738 74.6156 60.9403C73.2864 60.615 71.8241 59.8224 70.5651 59.347C70.0898 59.1551 69.6675 59.15 69.346 59.0116C68.9627 58.8548 68.7275 58.5516 68.129 58.3229C66.532 57.7236 67.3064 58.1911 65.855 57.184C64.5246 56.2596 62.4512 55.4838 62.1086 53.5779C63.3723 52.0875 64.4711 53.2619 66.903 52.8108C67.8511 52.6261 68.6227 52.5251 69.5542 52.355C70.3273 52.2233 71.6751 52.1808 72.3926 51.9083L73.386 48.3158L73.3854 48.3164H73.3852ZM74.71 43.4189C74.9968 43.9396 79.0263 44.7025 79.814 44.9094C81.5287 45.3454 83.5027 45.917 85.1918 46.2443L85.3598 45.6994L75.3356 43.1112C74.4303 43.0674 75.0117 43.0187 74.71 43.4189V43.4189ZM58.239 39.2906C58.4837 39.7173 58.3056 39.5242 58.9838 39.726L69.6001 42.3582C70.7591 42.6445 72.4225 43.1704 73.5572 43.3173C73.7765 42.3754 73.8612 42.8712 73.2491 42.5958L59.1578 39.0585C58.0285 38.8043 58.5218 38.951 58.2388 39.2906H58.239V39.2906ZM72.0677 49.0054C72.3208 48.3263 73.192 44.9892 73.1291 44.3716L68.7402 43.2842L67.3395 48.7619L66.5717 51.5973L71.5896 51.0561L72.0677 49.0054V49.0054ZM74.7529 38.183C74.9018 38.0212 74.8332 38.1408 74.9727 37.8557L75.2964 36.7039C75.4356 36.1115 75.6155 35.644 75.661 35.0472L71.7164 32.2762C71.683 32.3206 71.6517 32.3192 71.6479 32.3958L70.9537 34.6972C70.7375 35.5777 70.4574 36.4857 70.2872 37.3838L69.4612 40.4469L73.9382 41.6462L74.7531 38.1833V38.183H74.7529ZM22.0408 40.4467C22.2657 40.6419 22.4179 40.7261 22.7186 40.971C23.1395 41.3139 23.0451 41.3246 23.615 41.5058L28.3179 23.1924C28.616 22.239 28.908 21.4084 29.1522 20.5906C28.6629 20.6746 28.422 20.8011 27.9158 20.915L19.1981 23.167C18.3096 23.4159 11.6187 26.7488 10.7452 27.3211L11.0328 27.8266C11.5087 29.5699 14.8294 33.5551 15.8518 34.695C16.7549 35.7218 17.7233 36.69 18.801 37.6638C19.6242 38.4103 21.0839 39.8784 22.0412 40.4469L22.0408 40.4467V40.4467ZM31.1681 20.9492C29.7354 21.7557 29.8201 23.1882 29.0919 25.8566C28.1336 29.3741 26.9143 33.4165 26.1603 36.9132C25.9822 37.6573 25.6934 38.4267 25.7019 39.1951C25.2388 39.6951 24.8728 41.6895 24.7363 42.5433C25.7793 42.9623 27.3932 44.1614 28.6111 44.8348C36.1004 48.9902 44.7352 51.2042 53.4349 51.8083C55.1658 51.9226 64.239 52.253 65.1633 51.6064C65.5376 51.3173 65.6305 50.4002 65.8249 49.6414C66.1875 48.338 67.4655 43.7454 67.475 42.9316L56.8735 40.3154C56.9931 39.4917 57.5632 38.4132 57.3823 37.6519C59.1965 37.6626 65.6448 39.8018 68.3609 40.2402C68.61 38.7009 69.1101 37.4652 69.4997 35.9327C69.8909 34.3695 70.2572 32.9892 70.5579 31.3603C69.852 31.0805 68.8669 30.4491 68.1852 30.0016C67.3671 29.4705 64.5206 27.8893 62.5495 26.9492C61.2513 26.3182 59.9849 25.6735 58.7172 25.0593C57.6328 24.5308 56.3309 23.9762 54.868 23.5064C52.3748 22.6795 51.3132 30.4469 48.4979 30.4338C46.7468 30.4107 46.3594 27.2124 43.6502 24.7621C41.27 22.6197 36.6584 21.291 33.8343 20.2026C32.8062 19.7996 31.8291 20.5667 31.1685 20.9494L31.1683 20.9492H31.1681Z" fill="white"/>
<path fill-rule="evenodd" clip-rule="evenodd" d="M76.018 38.2285L75.729 39.6278C77.6045 39.0423 81.1603 38.9528 83.1536 39.1413C87.1563 39.5034 91.5578 41.897 95.8086 43.2389L102.608 44.9187C100.992 45.3324 91.1577 44.2586 88.9263 44.458C92.0283 45.6216 111.816 51.6301 113.872 53.0658C108.081 51.8493 98.1931 48.4229 92.3929 49.5868C94.0847 50.4825 98.6081 52.0065 101.599 53.5179C102.224 53.8398 103.797 54.6071 104.19 55.1943C98.8253 53.2918 94.3072 52.2903 88.3878 51.7743C84.4158 51.429 78.3396 50.9207 74.8346 48.7391C73.53 47.9236 73.7807 48.2275 73.622 47.6513L73.3852 48.3158C74.2417 48.7104 75.2248 49.6949 77.808 50.9102C79.1686 51.5442 81.4104 52.3897 82.8934 52.7684C87.5431 53.9606 90.5792 53.9382 95.331 54.3366C103.105 54.9882 110.503 57.5266 115.951 61.522C115.684 60.9255 114.559 59.965 113.9 59.3648C113.586 59.0732 113.494 59.0379 113.137 58.6827L109.754 56.2461C107.621 55.114 105.712 53.8697 103.155 52.7479L102.589 52.4901C102.559 52.458 102.513 52.4404 102.483 52.4235C102.09 52.1434 102.407 52.3738 102.198 52.1794C106.016 52.164 114.416 53.7523 118.559 54.7508C120.182 55.1365 121.953 55.7135 123.594 56.0539C119.671 54.1135 115.622 52.474 111.072 50.872C108.874 50.0899 106.725 49.2644 104.459 48.5714C102.842 48.0786 99.002 46.9563 97.8755 46.3336C99.1776 46.2582 105.282 46.8294 107.343 46.9134C110.482 47.0342 113.547 47.0593 116.62 46.9158C115.737 46.4429 112.738 46.037 111.531 45.7638C109.968 45.4117 107.959 44.9308 106.526 44.4776L97.1741 41.2765C89.6142 38.5308 84.1696 37.2848 76.018 38.2279L76.0178 38.2285H76.018Z" fill="#F20746"/>
<path fill-rule="evenodd" clip-rule="evenodd" d="M32.3769 39.9317C32.7469 40.0418 32.8728 40.3398 33.2313 40.6795C33.4852 40.9223 33.8771 41.2177 34.2247 41.4648C34.9509 41.9608 35.8586 42.2657 36.7671 42.5552C40.1558 42.9952 41.5005 42.3843 43.6226 40.9354C44.4337 40.36 45.4749 38.9358 45.9174 37.9125C47.7288 33.6068 45.5024 29.9511 42.9011 28.1665C36.9882 24.0871 28.3713 30.261 31.0612 37.4719C31.4601 38.5665 31.9655 39.0977 32.3773 39.9317L32.3771 39.9315L32.3769 39.9317ZM38.1107 27.9046C34.5151 28.1612 31.4837 31.2098 31.6878 35.2595C31.8719 38.7706 35.0895 41.998 39.19 41.6583C42.7091 41.3672 45.7411 38.3033 45.5044 34.2827C45.2876 30.8009 42.1299 27.6222 38.1107 27.9046V27.9046Z" fill="white"/>
<path fill-rule="evenodd" clip-rule="evenodd" d="M55.0319 53.0371C54.1976 56.5758 60.1611 59.3367 62.882 60.2976C66.311 61.4923 72.4509 62.6027 76.3582 62.6837C74.112 61.3005 60.4348 58.2441 61.3044 53.0635L55.0321 53.0373L55.0319 53.0371Z" fill="#F20746"/>
<path fill-rule="evenodd" clip-rule="evenodd" d="M62.1078 25.4529L67.6718 28.379C68.7775 25.6674 72.5568 25.8038 75.5862 25.9192C79.2086 26.0634 82.333 26.7825 85.6817 27.0823C83.11 25.6373 77.2746 23.758 73.9614 23.0605C71.7471 22.6003 69.0728 22.2715 66.7701 22.6366C64.2937 23.0393 63.1099 23.8731 62.1078 25.4529L62.1076 25.4527L62.1078 25.4529Z" fill="#F20746"/>
<path fill-rule="evenodd" clip-rule="evenodd" d="M52.964 23.0916C52.0559 24.3532 49.9436 25.2959 48.7601 25.5001C47.8768 25.6418 47.0652 25.6026 46.0817 25.2478C45.3587 24.9979 44.2088 24.2204 43.9719 23.6406C43.2654 23.3761 43.4853 23.0488 42.0504 22.3344C39.852 21.2452 39.5959 21.0486 37.1876 20.0875L34.9277 19.2872C34.887 19.1623 34.7357 19.3702 34.9533 19.0888C34.5881 19.1939 34.2021 19.4058 33.9206 19.7149L36.7338 20.711C41.2716 22.5736 43.2253 24.1733 46.4179 27.9063C46.6538 28.1942 48.9472 30.8241 48.9756 31.1941L49.0055 31.5335C49.0047 31.549 49.1803 31.4805 49.1795 31.4959C49.9059 31.362 49.6702 30.4443 50.3686 29.3106C51.4229 27.6258 51.8825 26.8797 53.105 25.2799C53.5579 24.672 54.1692 24.0257 54.5743 23.4308C54.5322 23.3365 54.5322 23.3365 54.4438 23.2246C54.5025 23.3042 54.0238 22.8665 53.6511 22.4952C53.5019 22.3497 53.1473 22.8702 52.964 23.0918V23.0914V23.0916Z" fill="#F20746"/>
<path fill-rule="evenodd" clip-rule="evenodd" d="M54.926 18.9007L55.4092 18.9393C51.1567 18.2578 45.877 16.8358 42.5663 14.2182C41.256 13.2025 40.934 12.4499 40.1596 11.3523C40.0327 12.6364 40.8239 14.3336 41.5604 15.2446C43.4467 17.563 47.4785 18.9096 50.469 19.1767C51.7153 19.2828 52.6579 19.2054 53.8058 19.092C54.167 19.0635 54.5901 19.0532 54.9262 18.9003L54.926 18.9005V18.9007Z" fill="#F20746"/>
<path fill-rule="evenodd" clip-rule="evenodd" d="M60.3374 23.0019C59.6864 22.8783 59.1786 23.0229 58.4403 22.772C57.8869 22.5764 57.2202 22.1447 56.687 21.8578C55.7275 21.3353 54.0082 20.3616 54.5562 19.4203C53.9592 19.4684 53.5567 19.6947 52.8009 19.7965L52.2273 19.9992C53.6174 21.2951 54.5919 23.7078 58.1648 23.5884C58.7767 23.5565 59.879 23.41 60.3376 23.0019H60.3374Z" fill="#F20746"/>
<path fill-rule="evenodd" clip-rule="evenodd" d="M34.3991 8.60133C34.4677 9.41887 35.2139 10.4532 36.0064 11.1827C36.9335 12.0416 37.9652 12.3679 39.3071 12.755C39.4822 12.0723 39.0151 11.7117 39.6852 10.5152C39.5566 10.5859 39.5572 10.5704 39.4092 10.717C39.293 10.8496 39.29 10.911 39.2385 11.0005C37.3782 10.9722 35.7003 9.80061 34.3991 8.60113V8.60133Z" fill="#F20746"/>
<path fill-rule="evenodd" clip-rule="evenodd" d="M52.3707 27.4407C52.3887 27.3955 52.4766 27.2001 52.4929 27.1854C52.6801 26.8872 52.837 26.8793 53.0715 26.5681C53.642 25.7969 54.387 24.6655 54.9835 24.003C55.3483 23.5905 55.5117 23.7674 55.9247 23.9562C57.5178 24.6322 59.5466 24.4229 61.0262 23.6187C64.6772 21.6291 64.1648 19.0544 64.4249 18.5447C64.5278 18.3653 64.9396 17.9551 65.0781 17.6852C65.4381 17.0575 65.6856 16.1786 65.5789 15.4975C65.5216 15.0799 65.6095 14.8845 65.5202 14.4807C65.3141 13.5953 65.1159 13.4933 64.6696 12.7193C64.3241 12.119 63.7502 11.7072 63.1919 11.2963C62.1058 10.4912 60.195 9.90753 58.9481 9.81665C58.0583 9.77369 57.6294 9.90654 56.8888 10.0091C56.7265 8.25027 55.2479 5.59826 53.5101 4.68488C52.6716 4.24493 52.4245 3.86437 51.3053 3.41115C48.8665 2.43322 46.5819 2.4457 44.2092 2.96109C43.9245 3.02426 43.4165 3.1686 43.1646 3.20246C42.7556 3.24423 42.4299 2.87516 41.8901 2.72607C40.3001 2.29601 38.5293 2.04158 37.193 2.48411C35.8717 2.94268 34.5746 3.84774 33.8708 5.71844C33.3281 7.18226 33.6088 8.7627 34.3747 10.0283C34.8366 10.8033 34.8955 11.19 35.6965 11.7509L37.3009 12.8268C38.1076 13.2805 38.1443 13.482 37.6301 14.3788C37.2872 14.9767 37.1539 15.1393 36.8329 15.6151C36.3083 16.4039 32.8229 19.4614 32.2101 20.1384C36.4078 21.2933 38.7245 22.2039 41.228 24.0758C41.9667 24.6338 42.2557 24.8013 43.6052 26.2796C45.2666 28.0954 47.8263 30.4002 48.8565 32.9538C48.8986 33.048 50.009 33.0555 50.3917 31.6608C51.1791 28.7494 52.2852 27.5895 52.3709 27.4401L52.3707 27.4403V27.4407ZM34.9059 19.1019C34.5564 19.2078 34.3747 19.3989 34.0932 19.7078L36.7238 20.6027C41.2623 22.4501 43.5042 24.2327 46.6803 27.9802C47.1685 28.5415 49.1525 30.7876 49.0914 31.3838C49.0906 31.3991 49.0743 31.4137 49.0734 31.429C49.7843 31.2943 49.7599 29.2809 50.4573 28.1624C51.5124 26.4621 51.8349 26.8926 53.0574 25.2925C53.5258 24.6853 54.1208 24.0537 54.5423 23.4442C54.4844 23.3492 54.4993 23.3654 54.411 23.2535L52.9951 21.8489C52.4282 21.2993 52.1676 20.5649 51.7647 20.1766C51.4662 19.8858 50.2663 20.1043 49.5685 19.9784C46.3584 19.4088 42.6641 18.2014 40.651 15.6004C40.1214 14.9296 39.946 14.3683 39.6013 13.7525L38.5672 13.4721C38.4452 14.0347 38.4252 14.433 38.1604 15.0346C37.7569 15.9061 37.2378 16.5875 36.6393 17.2959C36.24 17.7681 35.0612 18.8171 34.9061 19.1017V19.1015L34.9059 19.1019ZM62.2846 21.606C62.8529 20.8807 63.2061 20.3909 63.4001 19.325C63.0784 19.1866 62.7711 19.3868 62.2445 19.2846C63.031 18.2627 66.4279 16.6601 63.9754 13.1472C62.7198 11.351 59.7293 10.1465 57.494 10.4227L57.0508 10.5243C57.0952 11.2023 57.4162 11.6634 57.1419 12.1416C56.6954 12.9342 56.4323 11.9384 56.372 11.582C56.1673 10.3588 56.0739 9.09454 55.4982 8.0992C52.9106 3.5351 47.3268 2.25166 42.6473 4.16097C42.2323 4.32531 41.9502 4.64964 41.5714 4.40095C41.5267 4.04554 41.8778 3.90872 42.1303 3.55232C40.556 3.12306 38.7447 3.05099 37.4004 3.33947C36.4991 3.52638 36.2442 3.62162 35.5059 4.30789C34.9156 4.84784 34.3881 5.69785 34.2997 6.52312C34.1582 7.16147 34.0561 8.26235 34.4155 8.58707C34.4832 9.41986 35.2139 10.4534 36.0064 11.1831C36.949 12.0428 37.9652 12.3683 39.3079 12.7401C39.483 12.0572 39.0316 11.6975 39.6852 10.5156L40.0535 10.3491L40.1598 11.3527C40.0337 12.6215 40.8241 14.334 41.5613 15.2298C43.4627 17.5642 47.4787 18.91 50.4692 19.1773C51.7155 19.2834 52.6587 19.1908 53.806 19.0926C54.168 19.0486 54.5911 19.0383 54.9272 18.8855L55.4096 18.9395C55.2318 19.054 55.1515 19.0961 54.9916 19.165C54.7036 19.2894 54.6927 19.1967 54.5572 19.4052C53.9602 19.4533 53.5577 19.6796 52.8166 19.7974L52.2441 19.9848C53.6184 21.2799 54.5929 23.6925 58.166 23.5731C58.7771 23.5565 59.8951 23.4108 60.3535 23.0029C60.9186 22.9688 61.6917 22.2071 62.2853 21.6062L62.2846 21.606Z" fill="white"/>
<path fill-rule="evenodd" clip-rule="evenodd" d="M34.6486 38.3055L36.9444 38.3857L37.0932 35.4127L38.295 35.4707L38.3904 33.878L37.1731 33.8192L37.236 32.5627L38.6094 32.6291L38.6967 30.8821L35.0134 30.7043L34.6486 38.3055Z" fill="white"/>
<path fill-rule="evenodd" clip-rule="evenodd" d="M38.6753 38.5L40.9711 38.5799L41.1199 35.6072L42.3374 35.666L42.4173 34.0723L41.1998 34.0135L41.2627 32.7572L42.6363 32.8233L42.7236 31.0765L39.0559 30.8995L38.6753 38.5Z" fill="#F20746"/>
<path fill-rule="evenodd" clip-rule="evenodd" d="M12.5191 27.5143C16.4059 27.3793 21.6736 25.2832 25.861 28.2043L27.4526 22.352C23.6766 22.4617 14.3682 25.2688 12.5189 27.5143H12.5191Z" fill="#F20746"/>
</svg>
