<svg width="66" height="16" viewBox="0 0 66 16" fill="none" xmlns="http://www.w3.org/2000/svg">
<g clip-path="url(#clip0_138_51)">
<rect width="66" height="16"/>
<path d="M6.03173 4.22235V5.17421H1.11706V9.45818H5.26583V10.41H1.11706V15.695H0V4.22249H6.03173V4.22235ZM7.35635 11.1978C7.35635 10.2787 7.5345 9.47178 7.89079 8.77701C8.24722 8.08224 8.74198 7.546 9.3748 7.16842C10.0079 6.79098 10.7233 6.6022 11.5211 6.6022C12.3508 6.6022 13.0663 6.79917 13.6673 7.19299C14.2683 7.58709 14.7018 8.09043 14.9676 8.70316V6.73365H16.0847V15.695H14.9676V13.709C14.6912 14.3217 14.2522 14.8278 13.6512 15.2272C13.0503 15.6266 12.3349 15.8262 11.505 15.8262C10.718 15.8262 10.0078 15.6349 9.3748 15.2519C8.74198 14.8689 8.24722 14.3273 7.89079 13.6269C7.53436 12.9266 7.35635 12.117 7.35635 11.1978V11.1978ZM14.9678 11.2143C14.9678 10.4922 14.8242 9.85755 14.537 9.31048C14.2498 8.76313 13.8588 8.34196 13.3641 8.04657C12.8693 7.75117 12.3243 7.60333 11.7285 7.60333C11.1115 7.60333 10.5583 7.74562 10.0689 8.03019C9.57953 8.31462 9.19396 8.72759 8.91203 9.26925C8.6301 9.81091 8.48906 10.4536 8.48906 11.1977C8.48906 11.9307 8.62996 12.5736 8.91203 13.1264C9.19396 13.6788 9.57953 14.1 10.0689 14.3901C10.5583 14.6801 11.1115 14.825 11.7285 14.825C12.3242 14.825 12.8693 14.6773 13.3641 14.3819C13.8588 14.0865 14.2497 13.6652 14.537 13.118C14.8242 12.571 14.9678 11.9363 14.9678 11.2142V11.2143ZM19.7389 8.71968C20.026 8.09584 20.4703 7.58723 21.0713 7.19313C21.6723 6.79931 22.3824 6.60234 23.2015 6.60234C23.9992 6.60234 24.7121 6.79112 25.3398 7.16856C25.9673 7.54614 26.4593 8.08238 26.8157 8.77715C27.1721 9.47192 27.3504 10.279 27.3504 11.1979C27.3504 12.1172 27.1721 12.9267 26.8157 13.6271C26.4593 14.3273 25.9648 14.8689 25.3317 15.252C24.6989 15.635 23.9886 15.8263 23.2014 15.8263C22.3716 15.8263 21.6563 15.6321 21.0551 15.2438C20.4541 14.8553 20.0154 14.3492 19.7387 13.7256V15.6951H18.6377V3.54951H19.7387V8.71968H19.7389ZM26.2174 11.1979C26.2174 10.4539 26.0765 9.81104 25.7947 9.26953C25.5128 8.72787 25.1272 8.31476 24.6377 8.03046C24.1485 7.74589 23.5953 7.60361 22.9783 7.60361C22.3826 7.60361 21.8373 7.75131 21.3426 8.04684C20.8481 8.34224 20.457 8.76355 20.1698 9.31075C19.8826 9.85782 19.7389 10.4925 19.7389 11.2146C19.7389 11.9367 19.8824 12.5714 20.1698 13.1184C20.457 13.6657 20.8481 14.087 21.3426 14.3824C21.8373 14.6778 22.3826 14.8255 22.9783 14.8255C23.5953 14.8255 24.1485 14.6805 24.6377 14.3906C25.1272 14.1006 25.5128 13.6793 25.7947 13.1268C26.0765 12.5742 26.2174 11.9313 26.2174 11.1981V11.1979Z" fill="white"/>
<path d="M35.4261 4.23886V6.09357H30.7825V9.03145H34.3409V10.8533H30.7825V15.6951H28.5486V4.23886H35.4261V4.23886ZM40.9312 15.8428C40.0803 15.8428 39.3144 15.6486 38.6334 15.2601C37.9527 14.8718 37.418 14.3218 37.0297 13.6105C36.6414 12.8992 36.4474 12.0787 36.4474 11.1487C36.4474 10.2186 36.6467 9.39792 37.0458 8.68677C37.4446 7.97548 37.9898 7.42577 38.6813 7.03723C39.3729 6.64883 40.144 6.45449 40.9951 6.45449C41.846 6.45449 42.6174 6.64869 43.3087 7.03723C44.0002 7.42577 44.5455 7.97548 44.9444 8.68677C45.3433 9.39806 45.5428 10.2186 45.5428 11.1487C45.5428 12.0787 45.3379 12.8992 44.9283 13.6105C44.5189 14.3218 43.9657 14.8717 43.2689 15.2601C42.5721 15.6485 41.7928 15.8428 40.9311 15.8428H40.9312ZM40.9312 13.8406C41.3355 13.8406 41.7158 13.7394 42.0722 13.5368C42.4286 13.3344 42.7131 13.0308 42.9257 12.6259C43.1385 12.2211 43.245 11.7288 43.245 11.1488C43.245 10.2844 43.0243 9.61975 42.5827 9.15458C42.1413 8.68955 41.6013 8.45717 40.963 8.45717C40.3249 8.45717 39.7902 8.68955 39.3592 9.15458C38.9285 9.61961 38.7129 10.2844 38.7129 11.1488C38.7129 12.0132 38.9231 12.6778 39.3433 13.143C39.7634 13.608 40.2926 13.8407 40.931 13.8407L40.9312 13.8406ZM51.1119 15.8428C50.261 15.8428 49.4951 15.6486 48.8141 15.2601C48.1333 14.8718 47.5986 14.3218 47.2104 13.6105C46.8221 12.8992 46.628 12.0787 46.628 11.1487C46.628 10.2186 46.8273 9.39792 47.2264 8.68677C47.6252 7.97548 48.1705 7.42577 48.862 7.03723C49.5535 6.64883 50.3247 6.45449 51.1757 6.45449C52.0266 6.45449 52.7981 6.64869 53.4893 7.03723C54.1809 7.42577 54.7261 7.97548 55.125 8.68677C55.524 9.39806 55.7234 10.2186 55.7234 11.1487C55.7234 12.0787 55.5186 12.8992 55.109 13.6105C54.6995 14.3218 54.1463 14.8717 53.4495 15.2601C52.7527 15.6485 51.9735 15.8428 51.1118 15.8428H51.1119ZM51.1119 13.8406C51.5161 13.8406 51.8964 13.7394 52.2528 13.5368C52.6093 13.3344 52.8938 13.0308 53.1063 12.6259C53.3191 12.2211 53.4256 11.7288 53.4256 11.1488C53.4256 10.2844 53.205 9.61975 52.7634 9.15458C52.3219 8.68955 51.782 8.45717 51.1436 8.45717C50.5055 8.45717 49.9708 8.68955 49.5399 9.15458C49.1091 9.61961 48.8936 10.2844 48.8936 11.1488C48.8936 12.0132 49.1037 12.6778 49.524 13.143C49.9441 13.608 50.4733 13.8407 51.1116 13.8407L51.1119 13.8406ZM56.7927 11.116C56.7927 10.1969 56.9709 9.38168 57.3273 8.67053C57.6837 7.95924 58.1705 7.41203 58.7874 7.02918C59.4045 6.64619 60.0907 6.45462 60.8458 6.45462C61.4202 6.45462 61.9681 6.5833 62.4895 6.84039C63.0108 7.09761 63.4256 7.43938 63.7341 7.86623V3.5495H66V15.6951H63.7341V14.3492C63.4577 14.798 63.0691 15.1589 62.5693 15.4325C62.0694 15.7059 61.4896 15.8428 60.83 15.8428C60.0853 15.8428 59.4045 15.6458 58.7874 15.252C58.1705 14.8581 57.6837 14.3027 57.3273 13.586C56.9709 12.8693 56.7927 12.046 56.7927 11.1159V11.116ZM63.75 11.1488C63.75 10.5909 63.6435 10.112 63.4307 9.71275C63.2181 9.31338 62.9308 9.00702 62.569 8.7938C62.2073 8.5803 61.819 8.47369 61.4043 8.47369C60.9893 8.47369 60.6063 8.57752 60.2554 8.78533C59.9042 8.99327 59.6197 9.29686 59.4016 9.69623C59.1835 10.0956 59.0745 10.569 59.0745 11.116C59.0745 11.6631 59.1837 12.1419 59.4016 12.5521C59.6197 12.9624 59.9069 13.2771 60.2633 13.496C60.6198 13.7148 61.0001 13.8242 61.4043 13.8242C61.8191 13.8242 62.2073 13.7176 62.569 13.5041C62.9308 13.2906 63.218 12.9843 63.4307 12.585C63.6435 12.1855 63.75 11.7068 63.75 11.1488V11.1488Z" fill="#F20746"/>
</g>
<defs>
<clipPath id="clip0_138_51">
<rect width="66" height="16" fill="white"/>
</clipPath>
</defs>
</svg>
