<svg width="450" height="53" viewBox="0 0 450 53" fill="none" xmlns="http://www.w3.org/2000/svg">
<g clip-path="url(#clip0_163_2)">
<rect width="450" height="53"/>
<path fill-rule="evenodd" clip-rule="evenodd" d="M415.99 5.78202C416.43 6.4229 419.953 9.74027 421 10.7713C422.609 12.355 421.669 11.6964 423.549 11.6964C425.764 11.6964 427.463 13.3825 427.463 15.8171C427.463 17.5208 426.718 16.3997 429.938 19.567C430.745 20.358 432.672 22.0617 433.186 22.8367C433.96 22.7785 433.583 22.7026 434.874 22.7026C437.879 22.7026 440.003 26.4648 437.635 29.2755C435.389 31.9185 430.532 30.2765 430.532 26.6944C430.532 25.9475 430.758 25.5591 430.821 24.8988C429.818 24.2438 426.057 19.8972 425.221 19.6747V33.9841C425.949 34.4608 426.193 34.5243 426.722 35.2553C428.557 37.7923 426.889 41.5581 423.414 41.5581C420.092 41.5581 418.405 37.9 420.076 35.3912C422.518 31.7313 422.005 39.3336 422.005 19.6783C422.005 19.168 421.594 19.3022 420.869 18.7355C419.47 17.6603 419.034 15.5682 419.775 14.0446L413.66 8.08423C412.977 8.54679 399.926 21.5426 398.286 23.1563C396.859 24.5616 396.599 24.6817 396.57 26.3377V26.6944C396.57 28.1297 398.071 29.2031 399.334 30.4443L419.181 49.9795C420.731 51.519 421.26 52.6225 423.475 52.7001H423.687C425.355 52.7001 426.647 50.9523 427.57 50.0572L447.344 30.5802C448.894 29.0548 450.029 28.5181 450.108 26.3518V26.1453C450.108 24.4734 448.347 23.2463 447.423 22.3371L425.888 1.14229C424.934 0.203046 424.582 0.0353235 423.628 0.00531006H423.402H423.144H422.855C421.353 0.00531006 420.031 1.75315 419.181 2.59C418.394 3.36682 416.525 5.02639 415.996 5.78732V5.78379L415.99 5.78202Z" fill="#EF5032"/>
<path fill-rule="evenodd" clip-rule="evenodd" d="M123.44 26.3305C123.406 26.5777 122.008 29.2154 121.781 29.6656L111.759 49.3915C111.497 49.907 110.202 52.3734 110.1 52.7036H126.076C126.22 52.6665 126.701 51.5948 126.801 51.4006L136.819 31.6747C136.997 31.8212 137.373 32.6899 137.522 32.9812L147.23 52.0821C147.33 52.2798 147.414 52.5959 147.608 52.7036L163.585 52.6912C163.454 52.2798 162.976 51.4606 162.752 51.0193C161.445 48.4593 150.277 26.5653 150.245 26.3288C150.062 26.1681 148.46 22.8843 148.204 22.3794L142.324 10.7941C142.259 10.6688 142.261 10.5911 142.155 10.6406C141.917 11.0343 141.694 11.5339 141.479 11.9576L137.508 19.777C137.361 20.0648 136.997 20.9087 136.826 21.0517L131.531 10.6423C131.415 10.6317 131.484 10.6194 131.411 10.7094C131.255 10.8983 123.677 26.1257 123.442 26.3305H123.44Z" fill="#4FBF8C"/>
<path fill-rule="evenodd" clip-rule="evenodd" d="M123.44 26.3299C123.675 26.1251 131.253 10.8976 131.409 10.7087C131.485 10.6169 131.415 10.631 131.53 10.6416C131.35 10.2162 131.076 9.74477 130.848 9.29633L127.463 2.63157C127.23 2.17254 127.015 1.75059 126.785 1.29862C126.688 1.10795 126.218 0.0627713 126.077 0.0256958L110.086 0.0433508L123.438 26.3316L123.44 26.3299Z" fill="#35495E"/>
<path fill-rule="evenodd" clip-rule="evenodd" d="M142.155 10.6406C142.261 10.5912 142.259 10.6688 142.324 10.7942L148.204 22.3794C148.46 22.8861 150.062 26.1699 150.245 26.3288L163.585 0.0228882H147.608C147.409 0.134115 147.319 0.467794 147.215 0.674357L144.853 5.32468C144.487 6.04147 142.423 10.0103 142.155 10.6406V10.6406Z" fill="#35495E"/>
<path d="M314.811 0.00170898H261.271V52.6983H314.811V0.00170898Z" fill="#F7DF1E"/>
<path fill-rule="evenodd" clip-rule="evenodd" d="M297.145 41.2419L293.187 43.4964C293.809 45.096 295.54 46.5737 297.009 47.3823C302.351 50.2618 311.73 48.2191 310.544 40.3627C309.649 34.3723 301.988 34.0298 300.134 31.8353C298.083 29.4131 302.153 26.3075 304.806 29.6832L305.353 30.2799C306.478 29.6973 308.114 28.3396 309.131 27.9812C307.432 22.9937 297.023 21.9627 294.973 28.4297C294.29 30.5677 294.761 33.0023 295.823 34.4959C298.205 37.8433 303.728 38.3924 305.186 40.3945C306.81 42.6525 304.261 44.2644 301.952 44.1744C300.435 44.1303 298.885 43.4276 298.039 42.3383L297.143 41.2454V41.2419H297.145Z" fill="black"/>
<path fill-rule="evenodd" clip-rule="evenodd" d="M275.445 44.0968C277.601 49.3686 286.799 50.3855 289.529 45.2038C290.835 42.7092 290.424 38.1842 290.424 35.1352L290.439 24.1855L285.4 24.2473C285.449 28.9224 285.4 33.6115 285.4 38.3025C285.4 40.4405 285.811 43.2918 283.976 43.9468C281.275 44.9196 280.243 42.8716 279.467 41.5863L275.445 44.0951V44.0968Z" fill="black"/>
<path fill-rule="evenodd" clip-rule="evenodd" d="M83.7849 0.0335038L65.5089 31.1751L47.2688 0.0335038H34.6501L35.4896 1.4971C35.6672 1.799 35.8125 2.06206 35.9882 2.36396L38.9317 7.37268C39.0913 7.66046 39.2528 7.91822 39.4124 8.20953L41.8931 12.4273C42.5693 13.5519 43.1756 14.6501 43.8572 15.7747L47.7836 22.4712C48.1244 23.0503 48.4275 23.5658 48.7486 24.1449C48.9244 24.4168 49.084 24.694 49.2473 24.9676C49.4248 25.2589 49.5683 25.5308 49.7459 25.8186C49.9235 26.1205 50.049 26.3641 50.2445 26.6555C51.2096 28.2373 52.2069 30.0805 53.1737 31.6624L54.6553 34.1888C55.5467 35.7866 56.6893 37.6139 57.6166 39.2258C57.7763 39.533 57.9198 39.7572 58.0974 40.0627C58.2749 40.3504 58.4005 40.5941 58.5781 40.8854L61.5395 45.94C62.2157 47.0523 62.8273 48.1786 63.5018 49.2874C63.6094 49.4392 65.4138 52.4688 65.4659 52.6966C65.6793 52.5624 66.3412 51.3142 66.4829 51.0688C67.3367 49.5151 68.5528 47.6296 69.4264 46.0283C70.0326 44.9478 70.8165 43.7472 71.4084 42.6809L73.3707 39.3335C74.994 36.6694 76.6532 33.6221 78.28 30.9633C79.2451 29.3655 80.2585 27.4905 81.2414 25.8928C81.5822 25.3278 81.8997 24.7787 82.2208 24.2332L96.3892 0.0317383H83.7741H83.7813L83.7849 0.0335038Z" fill="#40B783"/>
<path fill-rule="evenodd" clip-rule="evenodd" d="M72.1456 0.0334473L66.0237 10.5364C65.9358 10.69 65.6309 11.2196 65.5251 11.2973C65.3816 11.2073 65.1484 10.7324 65.0443 10.5664C64.9008 10.2892 64.7591 10.0791 64.5959 9.80548L63.7045 8.2695C62.6695 6.56579 61.6004 4.63081 60.5655 2.89709L58.9045 0.0369783H47.2688L65.5089 31.1786L83.7849 0.0369783H72.1492L72.1456 0.0334473V0.0334473Z" fill="#34495E"/>
<path fill-rule="evenodd" clip-rule="evenodd" d="M383.872 0.0334473H334.861L339.993 47.2111L359.367 52.6983L378.737 47.2111L383.872 0.0334473Z" fill="#0C73B8"/>
<path fill-rule="evenodd" clip-rule="evenodd" d="M379.074 4.56372L359.367 4.56725V49.2873L374.681 44.953L379.074 4.56372Z" fill="#30A9DC"/>
<path fill-rule="evenodd" clip-rule="evenodd" d="M345.441 16.4244L344.328 10.3899H374.403L371.62 39.9938L359.923 43.4612L347.112 39.9938L345.998 30.679H352.124L352.684 35.6083L359.923 37.545L366.606 35.6083L367.164 27.9372H353.238L352.684 22.4535H367.164L367.72 16.4244H345.441Z" fill="white"/>
<path fill-rule="evenodd" clip-rule="evenodd" d="M345.441 16.4243L344.328 10.3916H359.369V16.4243H345.442H345.441ZM359.367 43.3093L347.11 39.9937L345.998 30.6754H352.124L352.682 35.61L359.365 37.3967V43.3093H359.367ZM359.367 27.9336H353.238L352.684 22.45H359.367V27.9336Z" fill="#CED1DB"/>
<path fill-rule="evenodd" clip-rule="evenodd" d="M177.567 17.6866C177.773 20.0347 178.923 21.8655 180.535 23.2938C182.524 25.054 184.467 25.0681 186.714 25.7019C188.976 26.3393 190.905 27.3615 192.503 28.4949C194.253 29.7379 195.48 31.062 196.777 32.778C198.953 35.6576 200.942 40.4597 202.061 44.6139C202.836 47.4882 203.008 48.6305 204.698 50.5089C205.243 51.1163 206.248 51.8631 207.206 52.3133C211.794 54.4778 216.944 52.2586 218.73 48.288C219.198 47.2481 219.399 46.2206 219.726 45.0465C222.066 36.6215 225.704 28.7386 234.719 25.8432C235.88 25.4706 237.01 25.3065 238.19 24.9851C241.169 24.173 243.697 21.6148 244.269 18.2533C244.73 15.5485 243.795 13.2304 242.515 11.6221C239.551 7.89864 233.871 7.42725 230.375 10.3544C228.987 11.5179 227.648 13.2463 227.306 15.831C226.651 20.755 225.119 25.197 222.599 28.2266C221.423 29.6425 219.713 31.0073 217.918 32.1089C216.165 33.1841 213.798 33.9962 211.267 34.058C208.872 34.1163 206.029 33.3571 204.339 32.3261C202.416 31.152 200.854 29.9427 199.57 28.5303C197.107 25.822 195.315 21.0922 194.673 16.3713C194.481 14.9624 194.307 14.1538 193.724 13.0292C192.21 10.1055 189.053 8.21113 185.441 8.46713C180.892 8.78845 177.131 12.7308 177.568 17.683L177.567 17.6866Z" fill="#4FBF8C"/>
<path fill-rule="evenodd" clip-rule="evenodd" d="M210.054 0.0546453C205.645 0.533095 201.896 4.38718 202.431 9.33587C202.899 13.6737 206.845 17.3583 211.869 16.8322C216.264 16.3731 220.013 12.4926 219.476 7.53859C219.012 3.23961 215.049 -0.490894 210.054 0.0528798V0.0546453Z" fill="#35485D"/>
</g>
<defs>
<clipPath id="clip0_163_2">
<rect width="450" height="53" fill="white"/>
</clipPath>
</defs>
</svg>
