<svg width="66" height="16" viewBox="0 0 66 16" fill="none" xmlns="http://www.w3.org/2000/svg">
<g clip-path="url(#clip0_146_209)">
<path d="M16.6956 0.792254V1.38562H11.9362V5.96042H16.0949V6.55378H11.9362V11.7533H11.2606V0.792254H16.6954H16.6956ZM18.0618 7.50623C18.0618 6.63192 18.2294 5.86677 18.5647 5.21093C18.9001 4.55509 19.3654 4.0503 19.961 3.69629C20.5565 3.34242 21.2346 3.16541 21.9953 3.16541C22.8561 3.16541 23.5868 3.38402 24.1873 3.82125C24.7878 4.25848 25.2082 4.81531 25.4484 5.49188V3.27471H26.1239V11.7531H25.4484V9.5203C25.2082 10.2073 24.7853 10.7721 24.1798 11.2144C23.5742 11.6569 22.846 11.8781 21.9953 11.8781C21.2346 11.8781 20.5565 11.6985 19.961 11.3394C19.3655 10.9803 18.9001 10.4703 18.5647 9.80922C18.2294 9.1483 18.0618 8.38054 18.0618 7.50623V7.50623ZM25.4484 7.50623C25.4484 6.76718 25.3008 6.11394 25.0054 5.54668C24.7101 4.97941 24.3073 4.54218 23.7968 4.23514C23.2864 3.92795 22.7158 3.77442 22.0854 3.77442C21.4248 3.77442 20.8442 3.92273 20.3438 4.21948C19.8434 4.51609 19.4529 4.94549 19.1727 5.50768C18.8924 6.06973 18.7523 6.73601 18.7523 7.50623C18.7523 8.27646 18.8924 8.94274 19.1727 9.50478C19.453 10.0668 19.8459 10.4988 20.3513 10.8007C20.8567 11.1025 21.4348 11.2536 22.0854 11.2536C22.716 11.2536 23.2889 11.1 23.8044 10.7928C24.3198 10.4858 24.7227 10.0486 25.0129 9.4813C25.3031 8.91403 25.4484 8.25558 25.4484 7.50623V7.50623ZM29.2618 5.50768C29.512 4.82067 29.9373 4.25848 30.5379 3.8214C31.1384 3.38417 31.8641 3.16555 32.7148 3.16555C33.4755 3.16555 34.1537 3.34241 34.7492 3.69643C35.3446 4.0503 35.8101 4.55523 36.1455 5.21107C36.4808 5.86692 36.6484 6.63192 36.6484 7.50638C36.6484 8.38069 36.4808 9.14845 36.1455 9.80936C35.8101 10.4704 35.3448 10.9804 34.7492 11.3395C34.1537 11.6988 33.4755 11.8782 32.7148 11.8782C31.864 11.8782 31.1359 11.6596 30.5304 11.2224C29.9249 10.7852 29.5019 10.2231 29.2618 9.5361V11.7533H28.5861V0.198895H29.2618V5.50768V5.50768ZM35.9577 7.50623C35.9577 6.73601 35.8176 6.06973 35.5373 5.50768C35.2571 4.94549 34.8642 4.51623 34.3587 4.21948C33.8533 3.92287 33.2702 3.77442 32.6096 3.77442C31.979 3.77442 31.4084 3.92795 30.8981 4.23514C30.3877 4.54218 29.9873 4.97941 29.697 5.54668C29.4067 6.11394 29.2616 6.76718 29.2616 7.50623C29.2616 8.25572 29.4067 8.91403 29.697 9.4813C29.9872 10.0486 30.3875 10.4858 30.8981 10.7928C31.4086 11.1 31.9791 11.2536 32.6096 11.2536C33.2702 11.2536 33.8533 11.1026 34.3587 10.8007C34.8642 10.4988 35.257 10.0668 35.5373 9.50478C35.8176 8.94259 35.9577 8.27646 35.9577 7.50623ZM40.2966 0.901562V11.7533H38.5851V0.901562H40.2966ZM52.5626 3.00942C53.2131 3.00942 53.7962 3.1499 54.3117 3.43099C54.8272 3.71209 55.2325 4.12844 55.5278 4.68005C55.823 5.2318 55.9706 5.89794 55.9706 6.6786V11.7531H54.2742V6.94404C54.2742 6.17382 54.0891 5.58306 53.7187 5.17193C53.3483 4.7608 52.8429 4.55523 52.2024 4.55523C51.5619 4.55523 51.0539 4.7608 50.6785 5.17193C50.3031 5.58306 50.1155 6.17382 50.1155 6.94404V11.7531H48.4189V6.94404C48.4189 6.17382 48.2338 5.58306 47.8635 5.17193C47.4931 4.7608 46.9877 4.55523 46.3471 4.55523C45.7066 4.55523 45.1987 4.7608 44.8233 5.17193C44.4479 5.58306 44.2603 6.17382 44.2603 6.94404V11.7531H42.5488V3.14975H44.2603V4.13337C44.5406 3.7795 44.8958 3.50362 45.3262 3.30588C45.7567 3.10814 46.2171 3.00928 46.7075 3.00928C47.3681 3.00928 47.9587 3.15511 48.479 3.4465C48.9995 3.73804 49.3999 4.15961 49.6802 4.71122C49.9304 4.19078 50.3207 3.77703 50.8512 3.46999C51.3818 3.1628 51.9522 3.00928 52.5627 3.00928L52.5626 3.00942ZM61.4806 3.00942C62.1211 3.00942 62.6891 3.14221 63.1845 3.40751C63.6799 3.67295 64.0679 4.00348 64.348 4.39895V3.14975H66.0746V11.8936C66.0746 12.6847 65.9144 13.39 65.5942 14.0093C65.2739 14.6286 64.811 15.1153 64.2054 15.4691C63.5999 15.823 62.8767 16 62.0361 16C60.915 16 59.9842 15.7267 59.2436 15.1803C58.5028 14.6338 58.0824 13.8921 57.9825 12.9554H59.6789C59.809 13.4029 60.0868 13.7647 60.5122 14.0404C60.9376 14.3163 61.4456 14.4542 62.0361 14.4542C62.7266 14.4542 63.2846 14.2356 63.71 13.7983C64.1355 13.3611 64.3482 12.7262 64.3482 11.8934V10.4569C64.058 10.8629 63.665 11.2038 63.1696 11.4797C62.6742 11.7556 62.1112 11.8934 61.4806 11.8934C60.7599 11.8934 60.1018 11.7035 59.5063 11.3236C58.9108 10.9436 58.4404 10.4127 58.0951 9.73094C57.7498 9.04914 57.5771 8.27617 57.5771 7.41229C57.5771 6.54842 57.7498 5.78327 58.0951 5.11699C58.4404 4.45085 58.9108 3.93302 59.5063 3.56335C60.1018 3.19382 60.7599 3.00899 61.4806 3.00899V3.00942ZM64.3482 7.44375C64.3482 6.85039 64.2305 6.33517 63.9954 5.89794C63.7602 5.46071 63.4524 5.12772 63.072 4.89866C62.6918 4.66961 62.2814 4.55523 61.8409 4.55523C61.4006 4.55523 60.9902 4.66715 60.6098 4.89098C60.2295 5.11481 59.9217 5.44273 59.6864 5.8746C59.4513 6.30661 59.3336 6.81922 59.3336 7.41258C59.3336 8.00594 59.4513 8.52638 59.6864 8.9739C59.9216 9.42157 60.2319 9.76239 60.6173 9.99667C61.0027 10.2309 61.4106 10.3481 61.8409 10.3481C62.2812 10.3481 62.6918 10.2335 63.072 10.0045C63.4524 9.77544 63.7602 9.43984 63.9954 8.99739C64.2305 8.55494 64.3482 8.03711 64.3482 7.44375V7.44375Z" fill="white"/>
</g>
<defs>
<clipPath id="clip0_146_209">
<rect width="66" height="16" fill="white"/>
</clipPath>
</defs>
</svg>
