<svg width="66" height="66" viewBox="0 0 66 66" fill="none" xmlns="http://www.w3.org/2000/svg">
<rect width="66" height="66"/>
<path fill-rule="evenodd" clip-rule="evenodd" d="M20.0607 22.3175H42.7865C44.633 22.3175 46.1306 23.8299 46.1306 25.6954V48.6511C46.1306 50.5163 44.6333 52.0287 42.7865 52.0287H20.0607C18.2143 52.0287 16.7166 50.5163 16.7166 48.6508V25.6954C16.7166 23.8302 18.2139 22.3175 20.0607 22.3175Z" fill="#ACBCD1"/>
<path fill-rule="evenodd" clip-rule="evenodd" d="M50.9488 11H64.0701C65.1357 11 66 11.873 66 12.9494V26.2033C66 27.2797 65.1357 28.1524 64.0701 28.1524H50.9488C49.8832 28.1524 49.0192 27.2797 49.0192 26.2033V12.9494C49.0192 11.873 49.8832 11 50.9488 11Z" fill="#ACBCD1"/>
<path fill-rule="evenodd" clip-rule="evenodd" d="M1.42674 42.0001H11.1224C11.9104 42.0001 12.5495 42.6454 12.5495 43.4413V53.2349C12.5495 54.0308 11.9107 54.6761 11.1227 54.6761H1.42707C0.639119 54.6761 0 54.0305 0 53.2346V43.441C0 42.645 0.638797 41.9995 1.42707 41.9995L1.42674 42.0001Z" fill="#ACBCD1"/>
<path fill-rule="evenodd" clip-rule="evenodd" d="M9.45986 11H16.0221C16.5549 11 16.9869 11.4364 16.9869 11.9745V18.6031C16.9869 19.1413 16.5549 19.5777 16.0221 19.5777H9.45986C8.92704 19.5777 8.49506 19.1413 8.49506 18.6031V11.9745C8.49506 11.4364 8.92704 11 9.45986 11V11Z" fill="#ACBCD1"/>
<path fill-rule="evenodd" clip-rule="evenodd" d="M0.691305 23.689H5.38677C5.7685 23.689 6.07808 24.0017 6.07808 24.3873V29.1302C6.07808 29.5158 5.7685 29.8285 5.38677 29.8285H0.691305C0.309573 29.8285 0 29.5158 0 29.1302V24.3873C0 24.0017 0.309573 23.689 0.691305 23.689V23.689Z" fill="#ACBCD1"/>
<path fill-rule="evenodd" clip-rule="evenodd" d="M49.9869 37.524H56.5492C57.082 37.524 57.514 37.9604 57.514 38.4985V45.1271C57.514 45.6653 57.082 46.1017 56.5492 46.1017H49.9869C49.4541 46.1017 49.0221 45.6653 49.0221 45.1271V38.4985C49.0221 37.9604 49.4541 37.524 49.9869 37.524Z" fill="#ACBCD1"/>
<path fill-rule="evenodd" clip-rule="evenodd" d="M60.6129 48.5398H65.3084C65.6901 48.5398 65.9997 48.8525 65.9997 49.2381V53.981C65.9997 54.3666 65.6901 54.6793 65.3084 54.6793H60.6129C60.2312 54.6793 59.9216 54.3666 59.9216 53.981V49.2381C59.9216 48.8525 60.2312 48.5398 60.6129 48.5398Z" fill="#ACBCD1"/>
</svg>
