<svg width="450" height="53" viewBox="0 0 450 53" fill="none" xmlns="http://www.w3.org/2000/svg">
<g clip-path="url(#clip0_163_2)">
<path fill-rule="evenodd" clip-rule="evenodd" d="M416.571 5.8143C416.999 6.45895 420.433 9.79584 421.454 10.833C423.022 12.4259 422.106 11.7635 423.938 11.7635C426.097 11.7635 427.752 13.4595 427.752 15.9084C427.752 17.6222 427.027 16.4945 430.165 19.6804C430.951 20.476 432.829 22.1897 433.331 22.9694C434.084 22.9108 433.717 22.8344 434.976 22.8344C437.904 22.8344 439.974 26.6188 437.666 29.446C435.477 32.1045 430.743 30.4529 430.743 26.8497C430.743 26.0985 430.964 25.7078 431.025 25.0436C430.047 24.3847 426.382 20.0125 425.567 19.7887V34.1823C426.277 34.6618 426.514 34.7257 427.03 35.4609C428.819 38.0129 427.193 41.8008 423.807 41.8008C420.569 41.8008 418.924 38.1212 420.553 35.5977C422.932 31.9163 422.432 39.5632 422.432 19.7923C422.432 19.2791 422.032 19.414 421.326 18.844C419.962 17.7625 419.538 15.658 420.26 14.1254L414.3 8.13005C413.634 8.59534 400.914 21.6676 399.317 23.2908C397.925 24.7044 397.672 24.8252 397.644 26.4909V26.8497C397.644 28.2935 399.107 29.3732 400.337 30.6216L419.681 50.2718C421.191 51.8204 421.707 52.9303 423.866 53.0085H424.072C425.698 53.0085 426.957 51.2503 427.857 50.35L447.129 30.7584C448.639 29.224 449.746 28.6842 449.823 26.5051V26.2974C449.823 24.6156 448.106 23.3814 447.206 22.4668L426.217 1.14727C425.287 0.2025 424.945 0.0337911 424.015 0.00360107H423.794H423.543H423.261C421.798 0.00360107 420.51 1.76173 419.681 2.6035C418.913 3.38489 417.092 5.05422 416.576 5.81963V5.81608L416.571 5.8143Z" fill="#EF5032"/>
<path fill-rule="evenodd" clip-rule="evenodd" d="M215.947 26.4837C215.914 26.7324 214.552 29.3855 214.33 29.8384L204.563 49.6804C204.308 50.1989 203.045 52.6798 202.946 53.0119H218.517C218.656 52.9746 219.125 51.8967 219.223 51.7013L228.986 31.8593C229.159 32.0067 229.526 32.8805 229.672 33.1735L239.133 52.3868C239.231 52.5857 239.313 52.9036 239.501 53.0119L255.072 52.9995C254.945 52.5857 254.48 51.7617 254.261 51.3177C252.987 48.7427 242.103 26.7199 242.071 26.482C241.893 26.3203 240.332 23.0172 240.082 22.5093L234.351 10.8559C234.288 10.7298 234.29 10.6517 234.187 10.7014C233.955 11.0975 233.738 11.6 233.528 12.0262L229.658 19.8916C229.514 20.1811 229.159 21.03 228.993 21.1738L223.833 10.7032C223.719 10.6926 223.787 10.6801 223.716 10.7707C223.564 10.9607 216.178 26.2777 215.949 26.4837H215.947Z" fill="#4FBF8C"/>
<path fill-rule="evenodd" clip-rule="evenodd" d="M215.947 26.4838C216.176 26.2778 223.562 10.9608 223.714 10.7708C223.787 10.6784 223.719 10.6926 223.831 10.7033C223.656 10.2753 223.389 9.80115 223.167 9.35008L219.868 2.64611C219.641 2.18438 219.431 1.75994 219.207 1.30532C219.113 1.11352 218.655 0.0621959 218.517 0.0249023L202.932 0.0426612L215.945 26.4856L215.947 26.4838Z" fill="#35495E"/>
<path fill-rule="evenodd" clip-rule="evenodd" d="M234.185 10.7015C234.289 10.6518 234.287 10.7299 234.35 10.856L240.08 22.5093C240.33 23.019 241.891 26.3222 242.07 26.482L255.071 0.0213013H239.5C239.306 0.133182 239.218 0.468825 239.117 0.676603L236.815 5.35429C236.458 6.0753 234.446 10.0675 234.185 10.7015V10.7015Z" fill="#35495E"/>
<path d="M323.789 0H271.608V53.0066H323.789V0Z" fill="#F7DF1E"/>
<path fill-rule="evenodd" clip-rule="evenodd" d="M306.571 41.4829L302.713 43.7507C303.32 45.3596 305.007 46.846 306.439 47.6594C311.645 50.5559 320.786 48.5012 319.63 40.5985C318.758 34.5729 311.291 34.2284 309.484 32.0209C307.486 29.5844 311.452 26.4606 314.038 29.8561L314.571 30.4564C315.667 29.8703 317.261 28.5047 318.253 28.1442C316.597 23.1273 306.453 22.0902 304.454 28.5953C303.788 30.7459 304.248 33.1948 305.283 34.6972C307.605 38.0643 312.987 38.6166 314.408 40.6304C315.99 42.9018 313.506 44.5232 311.256 44.4326C309.778 44.3882 308.267 43.6814 307.442 42.5857L306.57 41.4864V41.4829H306.571Z" fill="black"/>
<path fill-rule="evenodd" clip-rule="evenodd" d="M285.422 44.3546C287.523 49.6574 296.488 50.6803 299.149 45.4681C300.421 42.9588 300.021 38.4072 300.021 35.3402L300.035 24.3262L295.124 24.3883C295.172 29.0909 295.124 33.8076 295.124 38.5262C295.124 40.6768 295.525 43.5448 293.736 44.2037C291.104 45.1822 290.098 43.1221 289.342 41.8293L285.422 44.3528V44.3546Z" fill="black"/>
<path fill-rule="evenodd" clip-rule="evenodd" d="M177.298 0.0319883L159.486 31.3568L141.709 0.0319883H129.411L130.229 1.5042C130.402 1.80787 130.544 2.07248 130.715 2.37616L133.584 7.41435C133.74 7.70381 133.897 7.96309 134.052 8.25612L136.47 12.4987C137.129 13.6299 137.72 14.7345 138.384 15.8658L142.211 22.6017C142.543 23.1842 142.839 23.7028 143.152 24.2853C143.323 24.5587 143.479 24.8376 143.638 25.1128C143.811 25.4058 143.951 25.6793 144.124 25.9688C144.297 26.2725 144.419 26.5175 144.61 26.8106C145.55 28.4018 146.522 30.2558 147.464 31.847L148.908 34.3883C149.777 35.9955 150.891 37.8335 151.795 39.4549C151.95 39.7639 152.09 39.9894 152.263 40.2966C152.436 40.5861 152.558 40.8312 152.732 41.1242L155.618 46.2086C156.277 47.3274 156.873 48.4604 157.53 49.5756C157.635 49.7284 159.394 52.7758 159.444 53.0049C159.653 52.8699 160.298 51.6144 160.436 51.3675C161.268 49.8047 162.453 47.9081 163.304 46.2974C163.895 45.2105 164.659 44.0029 165.236 42.9303L167.149 39.5632C168.731 36.8834 170.348 33.8182 171.933 31.1437C172.874 29.5366 173.862 27.6506 174.82 26.0434C175.152 25.4751 175.461 24.9228 175.774 24.3741L189.583 0.0302124H177.288H177.295L177.298 0.0319883Z" fill="#40B783"/>
<path fill-rule="evenodd" clip-rule="evenodd" d="M165.955 0.0319824L159.988 10.5967C159.902 10.7512 159.605 11.284 159.502 11.3621C159.362 11.2716 159.135 10.7939 159.034 10.6269C158.894 10.3481 158.756 10.1368 158.597 9.86151L157.728 8.31649C156.719 6.60276 155.677 4.65639 154.668 2.91247L153.05 0.0355342H141.709L159.486 31.3604L177.298 0.0355342H165.958L165.955 0.0319824V0.0319824Z" fill="#34495E"/>
<path fill-rule="evenodd" clip-rule="evenodd" d="M388.182 0.0319824H340.416L345.417 47.4872L364.299 53.0067L383.177 47.4872L388.182 0.0319824Z" fill="#0C73B8"/>
<path fill-rule="evenodd" clip-rule="evenodd" d="M383.506 4.58887L364.299 4.59242V49.5756L379.225 45.2158L383.506 4.58887Z" fill="#30A9DC"/>
<path fill-rule="evenodd" clip-rule="evenodd" d="M350.726 16.5193L349.643 10.4493H378.954L376.241 40.2274L364.841 43.7152L352.354 40.2274L351.27 30.8578H357.24L357.785 35.8161L364.841 37.7642L371.355 35.8161L371.898 28.0999H358.326L357.785 22.584H371.898L372.439 16.5193H350.726Z" fill="white"/>
<path fill-rule="evenodd" clip-rule="evenodd" d="M350.726 16.5193L349.643 10.451H364.301V16.5193H350.728H350.726ZM364.299 43.5624L352.354 40.2273L351.27 30.8542H357.24L357.784 35.8178L364.297 37.615V43.5624H364.299ZM364.299 28.0963H358.326L357.785 22.5804H364.299V28.0963Z" fill="#CED1DB"/>
</g>
<defs>
<clipPath id="clip0_163_2">
<rect width="450" height="53" fill="white"/>
</clipPath>
</defs>
</svg>
