<svg width="66" height="16" viewBox="0 0 66 16" fill="none" xmlns="http://www.w3.org/2000/svg">
<rect width="66" height="16"/>
<path fill-rule="evenodd" clip-rule="evenodd" d="M31.3671 15.8459L31.3781 15.5783L32.2017 15.5673L32.1672 0.763654H31.3672V0.407312C32.4588 0.407312 35.2954 0.283766 36.1635 0.528441C37.2989 0.848402 38.1697 1.83531 38.2865 3.20494C38.469 5.3432 38.5253 7.77366 36.3357 8.4364C35.6424 8.64627 34.8659 8.53681 34.1001 8.58571L34.1269 15.5627L34.9548 15.5678L35.0084 15.8243L40.7321 15.8457C39.9445 15.2818 39.6195 15.3073 39.161 14.3909C38.7614 13.5927 38.8756 12.6479 38.8756 11.683C38.8756 9.08452 38.1866 5.53183 41.1266 4.88634C42.7891 4.52138 44.369 5.78997 44.4308 7.51679C44.4592 8.31127 44.4988 9.75199 44.4105 10.5053H40.7106C40.7062 11.5146 40.7076 12.5239 40.7062 13.5331C40.7047 14.4652 40.696 15.5149 41.6799 15.6384C42.6364 15.7585 43.3829 15.071 43.684 14.5719C44.1908 13.7315 44.0701 12.9906 44.0701 11.9407L44.4567 11.9041C44.4567 13.2418 44.6234 14.6174 43.278 15.5603C43.0584 15.7141 43.0149 15.687 42.8282 15.8457L45.1368 15.8314L45.2261 15.5663L45.9332 15.5672L45.9328 5.29241H45.1883C45.2046 4.81652 45.0555 4.93439 46.2359 4.93628C46.6908 4.93702 47.2313 4.90947 47.6743 4.95174L47.8331 6.02024C48.0868 5.66894 48.1297 5.4454 48.6411 5.10199C49.3276 4.64082 51.6347 4.48931 51.6289 7.59712C51.624 10.2536 51.6287 12.9106 51.6287 15.5671L52.3227 15.5703L52.3488 15.8456H65.6292V0.119843H30.9256V15.8456H31.367L31.3671 15.8459Z" fill="#F4BC00"/>
<path fill-rule="evenodd" clip-rule="evenodd" d="M26.5289 13.8415V7.05783C26.5289 6.33295 27.0922 5.36182 27.5495 5.36182C28.0592 5.36182 28.4917 5.55182 28.4917 6.20972V14.5352C28.4917 16.1512 26.5289 15.749 26.5289 13.8415V13.8415ZM28.1928 15.9999H27.7378C27.3549 15.9528 26.9903 15.7777 26.7316 15.4155L26.5289 15.152V15.9228H23.9378V15.5374H24.723V0.813709H23.9378V0.582387C23.9378 0.404795 23.9925 0.351065 24.1734 0.351065C26.6817 0.351065 26.5412 0.171475 26.5356 0.884052L26.5289 5.74718C26.5927 5.67515 26.5957 5.67326 26.6683 5.57568C28.0673 3.69651 30.3761 5.62258 30.3761 7.59723V13.3788C30.3761 14.232 30.0942 14.8002 29.6235 15.2609L29.0111 15.7388C28.7744 15.8697 28.4884 15.9657 28.1927 15.9997L28.1928 15.9999Z" fill="#1A1A1A"/>
<path fill-rule="evenodd" clip-rule="evenodd" d="M34.0992 8.18469L34.1002 0.784587C36.7105 0.462419 36.4046 1.73774 36.4046 4.43685C36.4046 6.83566 36.8151 8.68298 34.0993 8.18469H34.0992ZM31.3672 15.8459C31.3928 15.9636 31.3286 15.9123 31.7018 15.9285C31.8416 15.9345 32.0352 15.924 32.1816 15.9233C32.5799 15.9209 34.6209 15.9737 34.8973 15.8816L35.0088 15.8244L34.9551 15.568L34.1273 15.5628L34.1005 8.58582C34.8662 8.53693 35.6427 8.64638 36.3361 8.43651C38.5256 7.77377 38.4694 5.34331 38.2869 3.20506C38.1699 1.83542 37.2992 0.848411 36.1639 0.528556C35.2957 0.28388 32.4592 0.407427 31.3676 0.407427V0.763769H32.1676L32.202 15.5674L31.3785 15.5784L31.3675 15.846L31.3672 15.8459Z" fill="#FEFEFE"/>
<path fill-rule="evenodd" clip-rule="evenodd" d="M45.1369 15.8316C45.1532 15.8437 45.1816 15.8361 45.1914 15.8594L45.4479 15.9263C45.7928 15.9602 48.2506 15.976 48.398 15.8459L48.382 15.5768L47.6975 15.5673C47.6975 14.5521 47.6179 7.85179 47.7597 7.1593C47.8961 6.49277 48.308 5.64824 48.8336 5.44099C49.868 5.03324 49.7991 6.47837 49.7983 7.21197L49.7981 15.5632L49.1094 15.588L49.0977 15.8459L49.1888 15.8905C49.3455 15.9303 52.1346 15.9927 52.349 15.8459L52.3229 15.5705L51.6289 15.5673C51.6289 12.9108 51.6243 10.2539 51.6292 7.59734C51.6349 4.48963 49.3278 4.64114 48.6414 5.10221C48.13 5.44562 48.087 5.66906 47.8333 6.02045L47.6745 4.95196C47.2316 4.90969 46.6911 4.93713 46.2361 4.9365C45.0558 4.93461 45.2047 4.81663 45.1885 5.29263H45.9331L45.9335 15.5674L45.2264 15.5665L45.137 15.8317L45.1369 15.8316Z" fill="#FEFEFE"/>
<path fill-rule="evenodd" clip-rule="evenodd" d="M20.0906 15.3833C19.5607 15.3833 19.227 15.1248 19.227 14.6124V11.1435C19.227 10.1735 20.6911 9.69836 21.19 9.37052C21.19 10.5525 21.1899 11.7345 21.19 12.9165C21.19 13.5114 21.2561 14.1218 21.0608 14.5628C20.9151 14.8915 20.5207 15.3834 20.0906 15.3834V15.3833ZM23.0743 16H22.3748C21.9805 15.9735 21.6331 15.8522 21.3507 15.3796C21.3057 15.3045 21.3095 15.2976 21.2717 15.226L21.19 15.0749C21.0777 15.4875 20.404 16 19.9338 16H18.9915C18.3149 16 17.3427 15.0576 17.3427 14.1499C17.3427 12.1316 16.9991 10.9486 18.8863 9.96091C21.4818 8.60263 21.19 10.1264 21.19 6.28699C21.19 5.19368 20.3863 5.20777 19.8551 5.20777C18.9299 5.20777 19.4626 7.05225 19.4626 7.28914C19.4626 8.47761 17.4997 8.68233 17.4997 6.98075C17.4997 4.52127 21.5022 4.08933 22.6603 5.99973C23.1991 6.88875 23.0744 7.65053 23.0744 8.98495C23.0744 10.1156 23.0744 11.2462 23.0744 12.3769C23.0744 13.1869 22.9062 14.8686 23.3099 15.4603C23.6447 15.2864 23.4831 15.498 23.6014 15.1299C23.6747 14.9016 23.579 14.7665 23.8595 14.7665C24.4063 14.7665 23.8362 15.9999 23.0744 15.9999L23.0743 16Z" fill="#1A1A1A"/>
<path fill-rule="evenodd" clip-rule="evenodd" d="M11.2185 0.813819H12.0821V15.5375H11.2185V15.9229H14.8302V15.5375H13.9665V8.13716C15.6814 8.13716 15.6153 8.33126 15.6153 9.98721H16.0864V6.13286C16.0864 5.85885 15.9335 5.90164 15.6153 5.90164C15.6153 7.78766 15.6157 7.7517 13.9665 7.7517V0.813819C15.5056 0.813819 16.289 0.505951 16.2417 2.58848C16.234 2.93094 16.1481 3.28066 16.479 3.28066C16.6599 3.28066 16.7146 3.22703 16.7146 3.04934V0.582602C16.7146 0.40501 16.6599 0.35128 16.479 0.35128H11.2185V0.813819V0.813819Z" fill="#1A1A1A"/>
<path fill-rule="evenodd" clip-rule="evenodd" d="M40.7063 10.153C40.7063 9.17275 40.7078 8.19236 40.7062 7.21198C40.7048 6.32517 40.7058 5.2224 41.6835 5.18885C42.7109 5.15363 42.6272 6.39194 42.6263 7.21198C42.6253 8.19236 42.6262 9.17275 42.6146 10.153H40.7063V10.153ZM42 15.9999H41.5262C41.1454 15.9854 41.112 15.9286 40.7322 15.8458C39.9446 15.2819 39.6196 15.3073 39.1611 14.391C38.7615 13.5927 38.8757 12.6479 38.8757 11.683C38.8757 9.08453 38.1867 5.53184 41.1267 4.88635C42.7892 4.52139 44.3691 5.78998 44.4309 7.5168C44.4593 8.31128 44.4989 9.752 44.4106 10.5053H40.7107C40.7063 11.5146 40.7077 12.5239 40.7063 13.5331C40.7048 14.4652 40.6962 15.5149 41.68 15.6384C42.6365 15.7585 43.383 15.071 43.6841 14.5719C44.1909 13.7315 44.0702 12.9906 44.0702 11.9407L44.4569 11.9041C44.4569 13.2418 44.6235 14.6174 43.2781 15.5603C43.0585 15.7141 43.0151 15.687 42.8283 15.8458C42.4856 15.9428 42.3537 15.9874 41.9999 15.9999H42Z" fill="#FEFEFE"/>
<path fill-rule="evenodd" clip-rule="evenodd" d="M48.3981 15.8459H49.0976L49.1093 15.588L49.798 15.5632L49.7982 7.21198C49.7991 6.47837 49.8679 5.03324 48.8335 5.441C48.3079 5.64824 47.896 6.49267 47.7596 7.1593C47.6179 7.8518 47.6975 14.5521 47.6975 15.5673L48.3819 15.5768L48.398 15.8459H48.3981Z" fill="#F4BC00"/>
<path fill-rule="evenodd" clip-rule="evenodd" d="M34.0992 8.18467C36.815 8.68296 36.4045 6.83564 36.4045 4.43683C36.4045 1.73772 36.7105 0.462405 34.1001 0.784573L34.0991 8.18467H34.0992Z" fill="#F4BC00"/>
<path fill-rule="evenodd" clip-rule="evenodd" d="M40.7063 10.153H42.6146C42.6262 9.17275 42.6253 8.19236 42.6263 7.21198C42.6271 6.39204 42.7109 5.15363 41.6834 5.18885C40.7059 5.22239 40.7048 6.32517 40.7062 7.21198C40.7078 8.19236 40.7063 9.17275 40.7063 10.153V10.153Z" fill="#F4BC00"/>
</svg>
