<svg width="450" height="53" viewBox="0 0 450 53" fill="none" xmlns="http://www.w3.org/2000/svg">
<g clip-path="url(#clip0_163_2)">
<path fill-rule="evenodd" clip-rule="evenodd" d="M386.278 0H336.316L341.549 47.4779L361.297 53L381.043 47.4779L386.278 0Z" fill="#0C73B8"/>
<path fill-rule="evenodd" clip-rule="evenodd" d="M381.387 4.5592L361.297 4.56276V49.5674L376.909 45.2056L381.387 4.5592Z" fill="#30A9DC"/>
<path fill-rule="evenodd" clip-rule="evenodd" d="M347.101 16.4952L345.967 10.4224H376.625L373.788 40.2147L361.864 43.7042L348.805 40.2147L347.669 30.8406H353.914L354.484 35.8012L361.864 37.7503L368.679 35.8012L369.247 28.0813H355.049L354.484 22.5628H369.247L369.812 16.4952H347.101Z" fill="white"/>
<path fill-rule="evenodd" clip-rule="evenodd" d="M347.101 16.4953L345.967 10.4242H361.299V16.4953H347.103H347.101ZM361.297 43.5514L348.803 40.2147L347.669 30.8371H353.914L354.482 35.8031L361.295 37.6011V43.5514H361.297ZM361.297 28.0778H355.049L354.484 22.5593H361.297V28.0778Z" fill="#CED1DB"/>
<path fill-rule="evenodd" clip-rule="evenodd" d="M322.751 0H272.791L278.022 47.4779L297.77 53L317.516 47.4779L322.751 0Z" fill="#E55126"/>
<path fill-rule="evenodd" clip-rule="evenodd" d="M317.859 4.5592L297.77 4.56276V49.5674L313.381 45.2056L317.859 4.5592Z" fill="#F1672C"/>
<path fill-rule="evenodd" clip-rule="evenodd" d="M289.392 15.5714L289.882 21.6069H312.323L310.58 40.0939L297.77 43.8659L284.957 40.4705L284.18 31.0378H290.392L290.783 35.9416L297.77 37.8267L304.758 35.9416L305.534 27.6425H283.791L282.473 9.15558H313.299L312.522 15.5714H289.392Z" fill="white"/>
<path fill-rule="evenodd" clip-rule="evenodd" d="M289.392 15.5714L289.882 21.6069H297.77V27.6425H283.795L282.471 9.15558H297.77V15.5714H289.395H289.392V15.5714ZM297.766 43.8659L284.952 40.4705L284.175 31.0378H290.386L290.774 35.9416L297.766 37.8267V43.8623V43.8659V43.8659Z" fill="#CED1DB"/>
<path fill-rule="evenodd" clip-rule="evenodd" d="M425.351 46.3746V35.8154C425.761 35.7088 429.986 32.8803 430.444 32.5853L435.472 29.293C436.194 29.6644 443.376 34.3176 443.568 34.5717C443.301 34.9253 428.489 44.4095 426.545 45.6692C426.214 45.8824 425.715 46.2786 425.353 46.3728L425.351 46.3746ZM423.292 53H422.713C422.188 52.9129 421.628 52.5896 420.791 52.0477L401.935 39.8326C400.758 39.0704 399.661 38.3579 398.483 37.5975C397.295 36.8282 395.735 36.1441 395.735 34.7814V18.2186C395.735 17.4067 396.296 16.8168 396.819 16.4774L419.193 1.98639C419.796 1.59551 420.305 1.26681 420.919 0.868823C421.943 0.204324 421.974 0 423.219 0C424.104 0 426.114 1.49601 426.905 2.00771C428.99 3.35803 431.873 5.14187 433.795 6.49219L449.261 16.5148C449.76 16.8754 450.279 17.4298 450.279 18.2169V34.7796C450.279 35.5916 449.718 36.1814 449.195 36.5208L425.095 52.1294C424.32 52.6322 423.784 52.9183 423.292 52.9982V53ZM402.447 34.5753C402.643 34.3159 409.836 29.659 410.544 29.2966L418.065 34.2021C418.533 34.5042 418.875 34.7281 419.343 35.0301C419.696 35.2575 420.301 35.723 420.663 35.8172V46.3763C420.193 46.2537 407.873 38.1589 407.006 37.5975C406.393 37.2013 402.656 34.8542 402.446 34.5753H402.447ZM439.84 26.3969C440.195 26.3046 442.228 24.9187 442.694 24.6167C443.239 24.2649 445.146 22.8897 445.593 22.7742V30.2258C444.561 29.6963 440.363 26.7381 439.84 26.6031V26.3952V26.3969ZM400.423 30.2276V22.776C400.798 22.8737 401.5 23.4049 401.873 23.6448C402.382 23.9735 402.784 24.2329 403.279 24.5563C403.839 24.9187 405.784 26.2975 406.178 26.3987V26.6066C405.623 26.7505 401.05 30.0677 400.425 30.2294L400.423 30.2276ZM423.009 31.7805C422.777 31.7805 421.264 30.7197 420.985 30.5385C420.242 30.0588 415.132 26.7914 414.912 26.5018C415.135 26.2051 422.819 21.2231 423.009 21.2231C423.354 21.2231 430.625 26.2459 431.211 26.3987C430.902 26.8465 423.128 31.7822 423.009 31.7822V31.7805ZM425.353 6.62722C425.752 6.73027 429.513 9.25324 429.933 9.52508C430.924 10.1665 443.305 18.0765 443.568 18.4265C443.364 18.6984 440.142 20.7167 439.584 21.0756L435.472 23.7052L434.92 23.3108C433.704 22.529 425.808 17.3018 425.353 17.1828V6.62367V6.62722ZM410.546 23.707L406.498 21.12C405.83 20.6883 405.214 20.2868 404.517 19.8372C404.139 19.5921 403.863 19.4126 403.495 19.1745C403.301 19.0502 403.159 18.9613 402.987 18.8405C402.709 18.6468 402.798 18.6237 402.451 18.5331C402.539 18.2133 402.588 18.2595 402.85 18.0925C403.071 17.9504 403.215 17.8651 403.431 17.7265C403.837 17.4635 404.195 17.2326 404.583 16.9803C405.357 16.4792 406.081 16.0102 406.883 15.4896L416.024 9.56949C416.47 9.27989 420.273 6.73205 420.668 6.629V17.1881C420.312 17.2805 418.571 18.478 418.132 18.7623L411.164 23.2734C410.91 23.4387 410.765 23.5666 410.548 23.7087L410.546 23.707Z" fill="black"/>
</g>
<defs>
<clipPath id="clip0_163_2">
<rect width="450" height="53" fill="white"/>
</clipPath>
</defs>
</svg>
