<svg width="66" height="16" viewBox="0 0 66 16" fill="none" xmlns="http://www.w3.org/2000/svg">
<g clip-path="url(#clip0_132_62)">
<rect width="66" height="16"/>
<path fill-rule="evenodd" clip-rule="evenodd" d="M44.3802 8.56069C43.7642 4.14167 50.0645 3.70119 50.4296 7.73243C50.8099 11.9303 44.92 12.4334 44.3802 8.56069ZM50.4302 10.8655C50.5409 12.5271 50.3913 14.4215 48.5245 14.9426C46.0878 15.6228 45.4748 14.0402 44.5666 13.0876H43.6909C43.5022 15.5287 48.7955 17.5348 50.9218 14.3733C51.8369 13.0126 51.536 10.8088 51.5344 9.05409C51.5267 1.56479 42.8557 3.09145 43.3154 8.5518C43.5364 11.1782 46.1649 12.7626 48.4934 12.1028C49.5129 11.814 49.8791 11.3371 50.4304 10.8657L50.4302 10.8655Z" fill="#00B19D"/>
<path fill-rule="evenodd" clip-rule="evenodd" d="M34.7193 7.53167C35.0481 4.16288 40.2753 4.13682 40.5419 7.53167H34.7193ZM41.3352 9.7541C38.9296 9.7541 40.0582 11.347 37.5359 11.2842C35.9466 11.2446 34.8538 10.0195 34.6272 8.51989L40.1749 8.52332C41.3677 8.54089 41.6034 8.67419 41.7361 8.23168C41.5756 2.98622 34.8758 2.5932 33.6739 6.99605C32.6729 10.6625 36.498 13.3168 39.48 11.8174C40.1745 11.468 41.1803 10.5365 41.3352 9.7541V9.7541Z" fill="#00B19D"/>
<path fill-rule="evenodd" clip-rule="evenodd" d="M60.5555 5.03156C64.5746 3.85228 66.0092 10.3219 62.0497 11.2061C58.1101 12.0858 56.5057 6.21993 60.5555 5.03156ZM64.4543 10.928C64.4543 12.1727 64.329 12.0757 65.4851 12.024C65.4841 9.12319 65.968 6.82341 64.1925 5.11922C60.3287 1.41032 54.5382 7.15746 58.3054 11.0063C58.9057 11.6197 59.9811 12.2123 61.2422 12.2488C62.9359 12.2979 63.5034 11.5524 64.4543 10.928Z" fill="#00B19D"/>
<path fill-rule="evenodd" clip-rule="evenodd" d="M24.4716 5.01161C28.6188 3.93331 29.735 10.2904 25.9904 11.1972C21.9988 12.1636 20.3701 6.07819 24.4716 5.01161V5.01161ZM28.309 10.845L28.3215 12.0592H29.3893C29.3891 9.29046 29.7722 6.57664 28.062 5.03039C26.3812 3.5106 23.6585 3.74973 22.1686 5.20954C18.7653 8.54379 23.401 15.1364 28.3088 10.8448L28.309 10.845Z" fill="#00B19D"/>
<path fill-rule="evenodd" clip-rule="evenodd" d="M31.0349 11.9568L31.6083 12.0794L32.1055 12.0592V0L31.0327 0.0436253L31.0349 11.9568Z" fill="#00B19D"/>
<path fill-rule="evenodd" clip-rule="evenodd" d="M53.3817 12.0076L54.4945 12.0694C54.4953 9.6024 53.9213 6.49738 55.5069 5.62448C56.7955 4.91518 56.7173 5.95429 56.7173 4.198C55.5954 4.25758 55.0517 4.44702 54.6801 5.16501C54.4315 4.87135 54.3838 4.33089 54.3303 4.18709L53.4144 4.16992L53.3819 12.0076H53.3817Z" fill="#00B19D"/>
</g>
<defs>
<clipPath id="clip0_132_62">
<rect width="66" height="16" fill="white"/>
</clipPath>
</defs>
</svg>
