<svg width="450" height="53" viewBox="0 0 450 53" fill="none" xmlns="http://www.w3.org/2000/svg">
<g clip-path="url(#clip0_163_2)">
<path d="M373.515 35.3346C378.505 35.3346 382.549 31.3805 382.549 26.5014C382.549 21.6241 378.505 17.67 373.515 17.67C368.527 17.67 364.483 21.6241 364.483 26.5014C364.483 31.3805 368.527 35.3346 373.515 35.3346Z" fill="#1ABCFE"/>
<path fill-rule="evenodd" clip-rule="evenodd" d="M355.445 35.3309H355.572H364.479V44.1623C364.479 49.0396 360.434 52.9954 355.445 52.9954C350.457 52.9954 346.413 49.0396 346.413 44.1587C346.413 39.2814 350.459 35.3273 355.445 35.3273V35.3309V35.3309Z" fill="#0ACF83"/>
<path fill-rule="evenodd" clip-rule="evenodd" d="M355.572 17.6664H364.479V35.3309H355.572H355.445C350.457 35.3309 346.413 31.3751 346.413 26.4942C346.413 21.6169 350.459 17.6628 355.445 17.6628H355.572V17.6664V17.6664Z" fill="#A259FF"/>
<path fill-rule="evenodd" clip-rule="evenodd" d="M355.572 17.6664H364.479V0.00183105H355.572H355.445C350.457 0.00183105 346.413 3.95766 346.413 8.83321C346.413 13.675 350.395 17.6042 355.331 17.6664H355.574H355.572Z" fill="#F24E1E"/>
<path fill-rule="evenodd" clip-rule="evenodd" d="M364.481 17.6664H373.399H373.635C378.567 17.6042 382.553 13.675 382.553 8.83321C382.553 3.95589 378.507 0.00183105 373.521 0.00183105H364.483V17.6664H364.481Z" fill="#FF7262"/>
<path fill-rule="evenodd" clip-rule="evenodd" d="M415.081 5.82912C415.526 6.47363 419.092 9.80981 420.153 10.8467C421.781 12.4393 420.83 11.7771 422.733 11.7771C424.976 11.7771 426.695 13.4727 426.695 15.9211C426.695 17.6345 425.942 16.507 429.201 19.6923C430.018 20.4877 431.969 22.2011 432.49 22.9805C433.272 22.9219 432.891 22.8456 434.198 22.8456C437.24 22.8456 439.39 26.6292 436.993 29.4558C434.72 32.1138 429.802 30.4625 429.802 26.86C429.802 26.109 430.031 25.7184 430.095 25.0543C429.079 24.3956 425.272 20.0243 424.425 19.8006V34.1911C425.163 34.6705 425.41 34.7344 425.945 35.4695C427.803 38.0209 426.114 41.808 422.597 41.808C419.234 41.808 417.525 38.1292 419.217 35.6062C421.689 31.9255 421.169 39.5709 421.169 19.8041C421.169 19.291 420.754 19.426 420.02 18.856C418.604 17.7747 418.162 15.6708 418.912 14.1385L412.722 8.14438C412.03 8.60957 398.818 21.6791 397.158 23.3019C395.713 24.7152 395.449 24.8359 395.42 26.5014V26.86C395.42 28.3035 396.94 29.383 398.219 30.6312L418.311 50.2772C419.88 51.8254 420.416 52.9351 422.658 53.0133H422.873C424.562 53.0133 425.869 51.2555 426.804 50.3553L446.822 30.7679C448.391 29.2339 449.541 28.6941 449.621 26.5156V26.3078C449.621 24.6264 447.838 23.3925 446.902 22.4781L425.101 1.16308C424.135 0.21851 423.779 0.049837 422.813 0.0196533H422.584H422.323H422.03C420.51 0.0196533 419.172 1.77741 418.311 2.619C417.514 3.40022 415.622 5.0692 415.086 5.83444V5.83089L415.081 5.82912Z" fill="#EF5032"/>
<path d="M202.608 0H148.407V52.9954H202.608V0Z" fill="#F7DF1E"/>
<path fill-rule="evenodd" clip-rule="evenodd" d="M184.725 41.474L180.717 43.7414C181.347 45.35 183.1 46.8361 184.587 47.6493C189.995 50.5451 199.49 48.4908 198.29 40.5898C197.383 34.5655 189.628 34.2211 187.75 32.0141C185.675 29.5781 189.795 26.455 192.481 29.8498L193.034 30.4499C194.173 29.864 195.829 28.4986 196.859 28.1382C195.139 23.1224 184.601 22.0855 182.526 28.5892C181.834 30.7393 182.312 33.1877 183.387 34.6898C185.798 38.0562 191.389 38.6084 192.866 40.6218C194.509 42.8927 191.929 44.5137 189.591 44.4232C188.055 44.3788 186.486 43.6721 185.629 42.5766L184.723 41.4776V41.474H184.725Z" fill="black"/>
<path fill-rule="evenodd" clip-rule="evenodd" d="M162.754 44.3451C164.937 49.6468 174.249 50.6695 177.013 45.4584C178.335 42.9496 177.919 38.3989 177.919 35.3326L177.933 24.3209L172.833 24.3831C172.882 29.0846 172.833 33.8004 172.833 38.5179C172.833 40.668 173.248 43.5355 171.391 44.1942C168.656 45.1725 167.612 43.1129 166.826 41.8203L162.754 44.3433V44.3451Z" fill="black"/>
<path fill-rule="evenodd" clip-rule="evenodd" d="M331.579 0.0318604H281.962L287.157 47.477L306.771 52.9953L326.378 47.477L331.579 0.0318604Z" fill="#0C73B8"/>
<path fill-rule="evenodd" clip-rule="evenodd" d="M326.72 4.58777L306.771 4.59132V49.565L322.273 45.2061L326.72 4.58777Z" fill="#30A9DC"/>
<path fill-rule="evenodd" clip-rule="evenodd" d="M292.67 16.5156L291.544 10.447H321.993L319.175 40.2187L307.332 43.7058L294.363 40.2187L293.235 30.8511H299.438L300.003 35.8083L307.332 37.7561L314.099 35.8083L314.664 28.0937H300.564L300.003 22.579H314.664L315.225 16.5156H292.67Z" fill="white"/>
<path fill-rule="evenodd" clip-rule="evenodd" d="M292.67 16.5157L291.544 10.4488H306.771V16.5157H292.672H292.67ZM306.769 43.5532L294.361 40.2187L293.235 30.8476H299.436L300.001 35.8102L306.767 37.607V43.5532H306.769ZM306.769 28.0902H300.564L300.003 22.5755H306.769V28.0902Z" fill="#CED1DB"/>
<path fill-rule="evenodd" clip-rule="evenodd" d="M268.488 0.0318604H218.873L224.068 47.477L243.681 52.9953L263.289 47.477L268.488 0.0318604Z" fill="#E55126"/>
<path fill-rule="evenodd" clip-rule="evenodd" d="M263.631 4.58777L243.681 4.59132V49.565L259.183 45.2061L263.631 4.58777Z" fill="#F1672C"/>
<path fill-rule="evenodd" clip-rule="evenodd" d="M235.359 15.5925L235.846 21.6239H258.132L256.402 40.0981L243.681 43.8675L230.956 40.4745L230.184 31.0483H236.352L236.741 35.9487L243.681 37.8325L250.62 35.9487L251.391 27.6553H229.797L228.488 9.18115H259.102L258.33 15.5925H235.359Z" fill="white"/>
<path fill-rule="evenodd" clip-rule="evenodd" d="M235.359 15.5925L235.846 21.6239H243.679V27.6553H229.801L228.486 9.18115H243.679V15.5925H235.363H235.359V15.5925ZM243.676 43.8675L230.95 40.4745L230.178 31.0483H236.347L236.732 35.9487L243.676 37.8325V43.8639V43.8675V43.8675Z" fill="#CED1DB"/>
</g>
<defs>
<clipPath id="clip0_163_2">
<rect width="450" height="53" fill="white"/>
</clipPath>
</defs>
</svg>
