<svg width="66" height="16" viewBox="0 0 66 16" fill="none" xmlns="http://www.w3.org/2000/svg">
<g clip-path="url(#clip0_147_2)">
<path d="M44.0446 2.20086C44.0343 2.51137 44.0654 3.09088 44.1379 3.93978H48.5627L49.1061 3.48954C49.396 3.22038 49.5563 3.02892 49.5875 2.91506C49.6288 2.72871 49.6133 2.57341 49.5408 2.44925C49.458 2.32509 49.313 2.21642 49.1061 2.12341C48.6403 1.90591 47.9416 1.80235 47.0102 1.81289C46.1924 1.82319 45.354 1.91621 44.4948 2.09235C44.3395 2.13379 44.1895 2.16988 44.0446 2.20102V2.20086ZM50.6277 7.30872C50.5552 7.24676 50.405 7.18983 50.1775 7.1381C49.6909 7.04476 48.5627 7.1381 46.7928 7.41755L45.6905 7.58842L45.0074 7.71257C44.7383 7.76423 44.5416 7.79537 44.4175 7.80567H44.3863C44.4278 8.37488 44.4639 8.89762 44.495 9.37373H48.33C48.7542 9.08398 49.1787 8.76819 49.603 8.4267C50.1205 8.00225 50.4414 7.68144 50.5655 7.46394C50.607 7.40198 50.6277 7.35032 50.6277 7.30872V7.30872ZM45.7527 5.80278C46.7877 5.16108 47.5174 4.69 47.9416 4.39002L48.4852 4.00174H44.1379C44.1482 4.15704 44.1585 4.29676 44.169 4.42116L44.3087 6.62566H44.3396C44.3502 6.62566 44.3552 6.62063 44.3552 6.61017L45.4577 5.95816C45.5508 5.89596 45.618 5.85452 45.6594 5.834C45.6697 5.834 45.6802 5.82873 45.6904 5.81843C45.711 5.80813 45.7319 5.80286 45.7526 5.80286L45.7527 5.80278ZM42.1041 6.68777V6.62558H43.3771L43.2374 4.48304C43.2271 4.35888 43.2165 4.19832 43.2063 4.00166H42.1196V3.9397H43.1907C43.1391 3.28745 43.1132 2.81142 43.1132 2.51137C43.0407 2.54243 42.9838 2.57333 42.9424 2.60447C42.8388 2.67697 42.7224 2.70028 42.593 2.67441C42.4638 2.64854 42.3628 2.58387 42.2905 2.48023C42.218 2.37667 42.1947 2.26026 42.2206 2.13083C42.2464 2.00164 42.3111 1.90056 42.4147 1.8283C42.5803 1.71445 42.8286 1.60051 43.1599 1.48665C43.1702 1.43499 43.1753 1.38309 43.1753 1.33135C43.1857 1.31083 43.1907 1.28999 43.1907 1.26915H42.0885V1.2072H43.2063C43.31 0.9897 43.4755 0.896682 43.7033 0.927741C43.8792 0.95888 43.9983 1.05198 44.0602 1.2072H44.2L44.3088 1.19163C45.2197 0.99497 46.12 0.891412 47.0102 0.881112C47.9831 0.870812 48.7647 0.9794 49.3545 1.2072H52.1181V1.26915H49.4942C49.8773 1.44521 50.1567 1.67804 50.3328 1.96803C50.5398 2.30944 50.5914 2.69773 50.4881 3.13248C50.4362 3.37057 50.2653 3.63949 49.9756 3.93978H52.1493V4.00174H49.9136L49.7428 4.17261C49.4219 4.46252 48.9975 4.78844 48.4697 5.1507C48.0039 5.48205 47.2794 5.94794 46.296 6.54821L46.6375 6.50158C48.5214 6.20152 49.7634 6.11354 50.3637 6.23769C50.757 6.31019 51.0573 6.43962 51.2643 6.62574H52.1493V6.68793H51.3265C51.3781 6.74989 51.4247 6.81736 51.4662 6.88962C51.6318 7.20013 51.6006 7.54682 51.3729 7.92991C51.1867 8.2508 50.7933 8.65441 50.1931 9.14106L49.9136 9.37389H52.1803V9.43609H49.8203C48.4436 10.5022 46.9635 11.3353 45.3799 11.9356H52.2423V12.122H44.8676L44.6501 12.1995C44.4948 12.2411 44.3551 12.2151 44.231 12.122H42.0884V11.9356H44.0912C44.0809 11.9253 44.0706 11.9097 44.0601 11.8892C44.029 11.7648 44.042 11.6459 44.099 11.532C44.1559 11.4181 44.2465 11.3406 44.3707 11.2992C45.7265 10.8645 47.0152 10.2433 48.2366 9.43609H44.5104L44.6346 10.8022C44.6451 10.9264 44.6087 11.0402 44.5259 11.1439C44.4431 11.2473 44.3395 11.3042 44.2154 11.3147C44.0912 11.325 43.9774 11.2886 43.874 11.2059C43.7703 11.1231 43.7134 11.0198 43.7031 10.8956C43.6617 10.44 43.6203 9.95364 43.5789 9.43609H42.135V9.37389H43.5634C43.5012 8.64939 43.4392 7.75409 43.377 6.68801H42.104L42.1041 6.68777ZM56.8226 9.45142L53.0342 9.43593C53.0342 9.50843 53.0395 9.58069 53.0497 9.65319C53.1636 10.6365 53.4328 11.2834 53.857 11.594C54.2609 11.894 54.7939 11.7388 55.4562 11.1282C55.8393 10.7763 56.1393 10.4555 56.3568 10.1657C56.5018 9.95851 56.6571 9.72049 56.8226 9.4515V9.45142ZM57.661 9.8084C57.454 10.1501 57.2574 10.4451 57.071 10.6934C56.8227 11.035 56.4913 11.3973 56.0774 11.7801L55.8755 11.9509L57.7853 11.9664C57.7647 11.3559 57.7231 10.6365 57.6611 9.80832L57.661 9.8084ZM57.5679 8.30254C57.516 7.64008 57.4799 7.11223 57.459 6.71891L53.3759 6.70334C53.0756 7.54171 52.9617 8.43173 53.0342 9.37365L56.869 9.38914L57.4435 8.42662C57.4745 8.37472 57.516 8.33328 57.5679 8.30246V8.30254ZM57.366 4.76249C57.3557 4.50388 57.3504 4.25524 57.3504 4.01723H56.5895C56.7448 4.11057 56.9001 4.23472 57.0554 4.39002C57.159 4.49334 57.2623 4.61782 57.366 4.76257V4.76249ZM52.0562 6.68777V6.62558H52.4443C52.4651 6.54278 52.4909 6.46533 52.522 6.39283C52.936 5.21281 53.5726 4.41581 54.4315 4.00166H52.0717V3.9397H54.5712C55.2649 3.64995 55.8963 3.65498 56.4655 3.95527H57.3505C57.3402 2.99275 57.366 2.09722 57.4282 1.26915H52.0407V1.2072H57.4282C57.4488 0.927741 57.4746 0.658587 57.5058 0.399972C57.5266 0.275574 57.5833 0.174731 57.6765 0.0972028C57.7696 0.0194347 57.8782 -0.0116247 58.0026 0.00386506C58.1268 0.0193548 58.2276 0.0738084 58.3052 0.166907C58.3829 0.260244 58.4165 0.368833 58.4062 0.49299C58.3752 0.731005 58.3493 0.969101 58.3285 1.20712H59.0426V1.26907H58.3285C58.2665 2.09714 58.2406 2.99267 58.2509 3.95519H59.0271V4.01715H58.2509C58.2612 4.77271 58.2973 5.65771 58.3595 6.67213H59.0426V6.73408H58.3595C58.3804 7.07574 58.414 7.56215 58.4604 8.19356C58.507 8.82496 58.5353 9.22857 58.5459 9.40471H59.027V9.46667H58.5459C58.6078 10.4397 58.6546 11.2731 58.6856 11.9663H59.0582V12.1528H58.6856C58.6753 12.2666 58.6287 12.365 58.5459 12.4477C58.4631 12.5305 58.3647 12.5719 58.2509 12.5719C58.1267 12.5719 58.0207 12.5305 57.9326 12.4477C57.8445 12.3649 57.7954 12.2666 57.7851 12.1528L55.6426 12.1372C54.7732 12.7583 53.9968 12.8203 53.3137 12.3236C53.2412 12.2614 53.1687 12.1941 53.0964 12.1216H52.0406V11.9353H52.9256C52.522 11.4178 52.2684 10.688 52.1647 9.74636C52.1441 9.64273 52.1336 9.53917 52.1336 9.43585H52.0872V9.37365H52.1181C52.0664 8.44219 52.17 7.54674 52.4286 6.68777H52.0561H52.0562ZM57.3193 6.47028C57.2468 6.34612 57.1512 6.17023 57.032 5.94243C56.9132 5.71471 56.807 5.53355 56.7137 5.39909C56.6206 5.26439 56.5173 5.13521 56.4033 5.01081C55.9995 4.6072 55.5028 4.52967 54.9127 4.77806C54.2503 5.05752 53.743 5.67863 53.3913 6.64115L57.4589 6.65672V6.61009C57.3969 6.56865 57.3502 6.52226 57.3192 6.47036L57.3193 6.47028ZM63.1416 9.45142H60.7507L60.8282 9.7153C60.9834 10.2639 61.1646 10.6726 61.3718 10.9418C61.5269 11.1487 61.6719 11.2576 61.8063 11.2679C61.9307 11.2884 62.0807 11.2109 62.2566 11.035C62.4947 10.797 62.7277 10.4139 62.9553 9.88617C63.0175 9.75147 63.0797 9.60648 63.1416 9.45142H63.1416ZM64.1041 9.46675L63.7937 10.2587C63.5143 10.8798 63.214 11.3507 62.8932 11.6715C62.7793 11.7853 62.6654 11.8784 62.5515 11.9509H63.7471C63.8507 11.4956 63.9437 10.9937 64.0265 10.4451C64.0782 10.1242 64.1248 9.7981 64.1663 9.46675H64.1041V9.46675ZM63.9799 6.65672L64.0733 6.08224C64.1664 5.54393 64.2389 4.99029 64.2905 4.42108C64.3114 4.27608 64.3269 4.14163 64.3371 4.01723L59.9432 4.00166C60.1399 5.74058 60.2382 6.62055 60.2382 6.64115L63.9799 6.65672V6.65672ZM63.9643 6.71891L60.2538 6.70334L60.3471 7.35535C60.4815 8.22477 60.611 8.90281 60.7352 9.38922H63.1728C63.5039 8.55086 63.768 7.6606 63.9644 6.71891H63.9643ZM64.1974 9.20286L64.1352 9.40479H64.1818L64.1974 9.20286ZM58.8565 1.26915V1.2072H65.8586V1.26915H58.8565V1.26915ZM58.8721 6.68777V6.62558H59.3379L59.1671 5.16611C59.0946 4.5347 59.0479 4.14666 59.0273 4.00166H58.8876V3.9397H59.0273L58.9962 3.73777C58.9859 3.62392 59.0195 3.51804 59.0971 3.41968C59.1748 3.32139 59.2731 3.26438 59.392 3.24881C59.5111 3.23332 59.6198 3.26438 59.7181 3.34191C59.8164 3.41968 59.8759 3.52052 59.8967 3.64468L59.9277 3.9397L64.337 3.95527V3.90856L64.3526 3.76883V3.73777V3.70687V3.69131C64.3629 3.67047 64.3681 3.65498 64.3681 3.64468C64.3784 3.61362 64.3887 3.58775 64.399 3.56715C64.4199 3.52555 64.4405 3.48938 64.4612 3.45832C64.5543 3.355 64.6682 3.3031 64.8029 3.3031C64.8857 3.3031 64.9606 3.32394 65.028 3.3653C65.0952 3.40674 65.1393 3.4481 65.1599 3.48954L65.2066 3.55174L65.2376 3.64484C65.2479 3.66544 65.2532 3.68628 65.2532 3.70703V3.78456C65.2635 3.826 65.2685 3.88285 65.2685 3.95543H65.843V4.01739H65.2685C65.2685 4.17269 65.2738 4.37988 65.2841 4.6385V6.67237H65.8585V6.73432H65.2841C65.2841 7.43823 65.2169 8.32849 65.0824 9.40487H65.843V9.46683H65.0824C65.0305 9.84984 64.9736 10.2226 64.9116 10.5849C64.8391 11.0816 64.7563 11.5421 64.6632 11.9666H65.8741V12.153H64.6166C64.3889 13.1777 64.1302 13.9177 63.8402 14.3731C63.5713 14.7975 63.1674 15.1856 62.6294 15.5375C61.9254 15.993 61.3149 16.1119 60.7971 15.8948C60.6626 15.8326 60.5385 15.7187 60.4245 15.5531C60.3935 15.522 60.3702 15.4936 60.3548 15.4678C60.3393 15.4419 60.3263 15.4236 60.316 15.4134C60.3057 15.4031 60.2951 15.3875 60.2848 15.3668C60.202 15.2737 60.1659 15.1651 60.1762 15.0409C60.1865 14.9167 60.2382 14.8131 60.3314 14.7304C60.4245 14.6476 60.5331 14.6112 60.6573 14.6217C60.7817 14.632 60.8851 14.6837 60.9679 14.777C60.9783 14.7873 61.0404 14.8753 61.1542 15.0409L61.1853 15.0718C61.4025 15.1548 61.7183 15.0565 62.1322 14.777C62.5567 14.5079 62.8673 14.2179 63.0639 13.9075C63.2915 13.5451 63.5037 12.9553 63.7004 12.1375H62.1323C61.9979 12.179 61.8581 12.1892 61.7131 12.1686C61.6406 12.1581 61.5734 12.1478 61.5115 12.1375L58.8564 12.122V11.9356L61.1231 11.9512C60.9473 11.827 60.7867 11.6667 60.642 11.47C60.3728 11.1076 60.145 10.6056 59.9586 9.96394C59.907 9.79834 59.8604 9.62229 59.8189 9.43617H58.9031V9.37397H59.8034C59.6792 8.8565 59.5604 8.22509 59.4464 7.47975C59.4153 7.23135 59.3792 6.96747 59.3378 6.68801H58.872L58.8721 6.68777Z" fill="#FF388E"/>
</g>
<defs>
<clipPath id="clip0_147_2">
<rect width="66" height="16" fill="white"/>
</clipPath>
</defs>
</svg>
