<svg width="420" height="420" viewBox="0 0 420 420" fill="none" xmlns="http://www.w3.org/2000/svg">
<g id="bdy">
<g id="Capa_x0020_1">
<g id="_1218875904">
<g id="Group">
<path id="Culminado" d="M182.195 198.601C182.195 198.595 182.197 198.589 182.201 198.584C182.204 198.579 182.209 198.575 182.214 198.572C182.219 198.57 182.225 198.569 182.232 198.569C182.239 198.57 182.245 198.572 182.251 198.576C182.256 198.581 182.259 198.586 182.261 198.593L182.251 198.592C182.249 198.588 182.247 198.584 182.243 198.582C182.24 198.579 182.236 198.578 182.231 198.577C182.226 198.577 182.222 198.578 182.218 198.579C182.214 198.581 182.211 198.584 182.208 198.588C182.206 198.592 182.204 198.597 182.204 198.602C182.203 198.608 182.204 198.612 182.206 198.617C182.208 198.621 182.21 198.624 182.214 198.627C182.217 198.629 182.222 198.631 182.226 198.631C182.231 198.632 182.236 198.631 182.239 198.629C182.243 198.627 182.246 198.624 182.248 198.62L182.259 198.621C182.256 198.628 182.251 198.632 182.246 198.635C182.24 198.638 182.233 198.64 182.226 198.639C182.219 198.638 182.214 198.636 182.209 198.633C182.204 198.63 182.2 198.625 182.198 198.62C182.195 198.614 182.194 198.608 182.195 198.601ZM182.322 198.593L182.318 198.646L182.309 198.645L182.31 198.638C182.308 198.64 182.305 198.642 182.302 198.643C182.299 198.645 182.296 198.645 182.292 198.645C182.288 198.644 182.284 198.643 182.281 198.641C182.278 198.639 182.275 198.636 182.274 198.633C182.272 198.629 182.271 198.625 182.272 198.62L182.275 198.589L182.283 198.589L182.281 198.62C182.28 198.625 182.281 198.629 182.284 198.632C182.286 198.635 182.29 198.637 182.294 198.637C182.299 198.638 182.303 198.636 182.306 198.634C182.309 198.631 182.311 198.627 182.311 198.621L182.314 198.592L182.322 198.593ZM182.348 198.576L182.342 198.648L182.333 198.647L182.339 198.575L182.348 198.576ZM182.426 198.6C182.43 198.601 182.434 198.602 182.437 198.604C182.44 198.606 182.442 198.609 182.444 198.612C182.445 198.616 182.446 198.62 182.446 198.625L182.443 198.657L182.434 198.656L182.437 198.626C182.437 198.62 182.436 198.616 182.434 198.613C182.431 198.61 182.428 198.608 182.424 198.608C182.419 198.608 182.415 198.609 182.412 198.612C182.409 198.614 182.407 198.618 182.407 198.624L182.404 198.654L182.396 198.653L182.398 198.623C182.399 198.617 182.398 198.613 182.395 198.61C182.393 198.607 182.389 198.605 182.385 198.605C182.38 198.604 182.377 198.606 182.374 198.608C182.371 198.611 182.369 198.615 182.368 198.621L182.366 198.65L182.357 198.65L182.362 198.596L182.37 198.597L182.37 198.604C182.372 198.602 182.374 198.6 182.377 198.599C182.38 198.597 182.384 198.597 182.387 198.597C182.392 198.598 182.396 198.599 182.399 198.601C182.402 198.604 182.405 198.607 182.406 198.611C182.408 198.607 182.411 198.604 182.414 198.603C182.418 198.601 182.422 198.6 182.426 198.6ZM182.467 198.596C182.466 198.596 182.464 198.595 182.463 198.594C182.462 198.593 182.462 198.591 182.462 198.59C182.462 198.588 182.463 198.587 182.464 198.586C182.465 198.584 182.467 198.584 182.468 198.584C182.47 198.584 182.471 198.585 182.472 198.586C182.473 198.588 182.474 198.589 182.474 198.591C182.474 198.592 182.473 198.594 182.472 198.595C182.47 198.596 182.469 198.596 182.467 198.596ZM182.471 198.605L182.466 198.659L182.458 198.658L182.462 198.605L182.471 198.605ZM182.512 198.608C182.519 198.608 182.524 198.611 182.528 198.615C182.531 198.619 182.533 198.625 182.532 198.633L182.53 198.664L182.521 198.663L182.523 198.633C182.524 198.628 182.523 198.624 182.52 198.621C182.518 198.618 182.514 198.616 182.51 198.615C182.505 198.615 182.501 198.616 182.498 198.619C182.495 198.622 182.493 198.626 182.493 198.631L182.49 198.661L182.482 198.66L182.486 198.607L182.495 198.607L182.494 198.615C182.496 198.612 182.499 198.61 182.502 198.609C182.505 198.608 182.509 198.608 182.512 198.608ZM182.543 198.638C182.543 198.633 182.545 198.628 182.548 198.624C182.55 198.62 182.553 198.617 182.557 198.615C182.562 198.613 182.566 198.612 182.571 198.613C182.575 198.613 182.579 198.615 182.583 198.617C182.586 198.619 182.588 198.622 182.59 198.625L182.591 198.615L182.6 198.616L182.595 198.67L182.586 198.669L182.587 198.659C182.585 198.662 182.582 198.664 182.578 198.666C182.575 198.668 182.571 198.669 182.566 198.668C182.561 198.668 182.557 198.666 182.553 198.664C182.55 198.661 182.547 198.657 182.545 198.653C182.543 198.648 182.543 198.644 182.543 198.638ZM182.588 198.642C182.589 198.638 182.588 198.634 182.587 198.631C182.585 198.628 182.583 198.626 182.581 198.624C182.578 198.622 182.575 198.621 182.572 198.621C182.568 198.62 182.565 198.621 182.563 198.622C182.56 198.624 182.557 198.626 182.555 198.629C182.554 198.631 182.552 198.635 182.552 198.639C182.552 198.643 182.552 198.647 182.554 198.65C182.555 198.653 182.557 198.656 182.56 198.657C182.562 198.659 182.565 198.66 182.568 198.66C182.572 198.661 182.575 198.66 182.578 198.659C182.581 198.658 182.583 198.655 182.585 198.653C182.587 198.65 182.588 198.646 182.588 198.642ZM182.609 198.644C182.609 198.638 182.611 198.634 182.614 198.63C182.616 198.626 182.619 198.623 182.623 198.621C182.628 198.619 182.632 198.618 182.637 198.618C182.641 198.619 182.645 198.62 182.648 198.622C182.652 198.625 182.654 198.627 182.656 198.631L182.658 198.602L182.667 198.603L182.661 198.675L182.652 198.675L182.653 198.664C182.651 198.668 182.648 198.67 182.644 198.672C182.641 198.673 182.637 198.674 182.632 198.674C182.627 198.673 182.623 198.672 182.619 198.669C182.616 198.666 182.613 198.663 182.611 198.658C182.609 198.654 182.609 198.649 182.609 198.644ZM182.654 198.648C182.655 198.644 182.654 198.64 182.653 198.637C182.651 198.634 182.649 198.631 182.647 198.63C182.644 198.628 182.641 198.627 182.638 198.626C182.634 198.626 182.631 198.627 182.629 198.628C182.626 198.629 182.623 198.631 182.621 198.634C182.62 198.637 182.618 198.64 182.618 198.645C182.618 198.649 182.618 198.652 182.62 198.655C182.621 198.659 182.623 198.661 182.626 198.663C182.628 198.665 182.631 198.666 182.634 198.666C182.638 198.666 182.641 198.666 182.644 198.665C182.647 198.663 182.649 198.661 182.651 198.658C182.653 198.655 182.654 198.652 182.654 198.648ZM182.699 198.679C182.694 198.679 182.69 198.677 182.686 198.675C182.682 198.672 182.679 198.669 182.677 198.664C182.675 198.66 182.674 198.655 182.675 198.649C182.675 198.644 182.677 198.639 182.68 198.635C182.682 198.631 182.686 198.628 182.69 198.626C182.695 198.625 182.699 198.624 182.704 198.624C182.709 198.625 182.714 198.626 182.718 198.629C182.722 198.631 182.725 198.635 182.727 198.639C182.729 198.644 182.729 198.649 182.729 198.654C182.729 198.66 182.727 198.664 182.724 198.668C182.721 198.672 182.718 198.675 182.713 198.677C182.709 198.679 182.704 198.68 182.699 198.679ZM182.7 198.672C182.703 198.672 182.706 198.671 182.709 198.67C182.712 198.669 182.714 198.667 182.716 198.664C182.718 198.661 182.72 198.658 182.72 198.653C182.72 198.649 182.72 198.645 182.718 198.642C182.717 198.639 182.715 198.637 182.712 198.635C182.71 198.633 182.707 198.632 182.704 198.632C182.7 198.632 182.697 198.632 182.694 198.633C182.692 198.635 182.689 198.637 182.687 198.639C182.686 198.642 182.684 198.646 182.684 198.65C182.684 198.655 182.684 198.658 182.685 198.661C182.687 198.665 182.689 198.667 182.691 198.669C182.694 198.67 182.697 198.671 182.7 198.672Z" fill="#535761"/>
</g>
<g id="Group_2">
<path id="2021" d="M180.54 214.774C180.55 214.767 180.557 214.761 180.563 214.757C180.569 214.753 180.574 214.748 180.578 214.743C180.582 214.738 180.584 214.733 180.585 214.728C180.585 214.723 180.584 214.719 180.582 214.716C180.58 214.713 180.576 214.712 180.571 214.711C180.566 214.711 180.562 214.712 180.559 214.715C180.556 214.718 180.554 214.722 180.554 214.727L180.544 214.726C180.545 214.718 180.548 214.712 180.553 214.708C180.558 214.704 180.564 214.702 180.572 214.702C180.58 214.703 180.585 214.706 180.589 214.71C180.594 214.715 180.595 214.721 180.595 214.728C180.594 214.734 180.592 214.74 180.588 214.746C180.584 214.751 180.579 214.756 180.574 214.76C180.569 214.764 180.563 214.768 180.555 214.774L180.593 214.777L180.592 214.785L180.539 214.781L180.54 214.774ZM180.607 214.746C180.608 214.734 180.611 214.724 180.616 214.717C180.621 214.71 180.628 214.707 180.639 214.708C180.649 214.709 180.656 214.713 180.659 214.721C180.663 214.728 180.664 214.738 180.663 214.751C180.662 214.764 180.659 214.774 180.654 214.781C180.649 214.788 180.642 214.79 180.632 214.79C180.621 214.789 180.614 214.785 180.611 214.777C180.607 214.77 180.606 214.759 180.607 214.746ZM180.653 214.75C180.654 214.744 180.654 214.738 180.653 214.734C180.653 214.729 180.651 214.726 180.649 214.723C180.646 214.72 180.643 214.718 180.638 214.718C180.633 214.717 180.629 214.718 180.626 214.721C180.623 214.723 180.621 214.727 180.62 214.731C180.619 214.735 180.618 214.741 180.617 214.747C180.617 214.754 180.617 214.759 180.617 214.764C180.618 214.769 180.619 214.772 180.621 214.775C180.624 214.778 180.627 214.78 180.632 214.78C180.637 214.781 180.641 214.78 180.644 214.777C180.647 214.775 180.649 214.771 180.65 214.767C180.652 214.762 180.652 214.757 180.653 214.75ZM180.673 214.785C180.683 214.778 180.691 214.773 180.696 214.768C180.702 214.764 180.707 214.759 180.711 214.754C180.715 214.749 180.718 214.744 180.718 214.739C180.718 214.734 180.717 214.731 180.715 214.728C180.713 214.725 180.71 214.723 180.705 214.722C180.7 214.722 180.695 214.723 180.692 214.726C180.689 214.729 180.688 214.733 180.687 214.738L180.677 214.737C180.678 214.729 180.681 214.723 180.686 214.719C180.691 214.715 180.698 214.713 180.705 214.714C180.713 214.714 180.719 214.717 180.723 214.722C180.727 214.726 180.729 214.732 180.728 214.74C180.727 214.746 180.725 214.752 180.721 214.757C180.717 214.762 180.712 214.767 180.707 214.771C180.702 214.775 180.696 214.78 180.688 214.785L180.726 214.788L180.725 214.797L180.672 214.792L180.673 214.785ZM180.74 214.727L180.741 214.718L180.762 214.72L180.755 214.8L180.745 214.799L180.751 214.728L180.74 214.727Z" fill="#535761"/>
</g>
<path id="Vector" fill-rule="evenodd" clip-rule="evenodd" d="M320.261 318.963C320.3 318.558 319.896 316.755 319.782 316.314L319.072 313.648C315.161 300.471 305.96 289.345 295.798 279.755C289.281 273.579 281.669 267.402 273.733 262.53C266.909 258.348 254.945 252.324 250.037 257.523C247.258 260.496 247.182 266.192 247.182 269.127C247.182 273.52 247.776 275.227 248.159 278.758C248.217 279.238 248.351 279.621 248.408 280.12L248.888 282.748C249.252 284.628 250.44 289.345 251.015 290.765L254.006 298.475L256.116 309.16C256.308 310.023 256.403 311.041 256.575 311.904L257.955 317.159C258.589 318.924 258.953 320.44 259.738 322.414C261.061 325.733 262.48 329.166 264.531 332.562C266.698 336.129 268.538 338.815 271.642 342.229C278.852 336.186 287.688 331.219 295.242 327.632C298.866 325.924 306.955 322.645 310.77 321.628C311.077 321.532 311.249 321.436 311.596 321.359C314.548 320.554 317.194 319.691 320.259 318.963H320.261Z" fill="#FEAADC"/>
<path id="Vector_2" fill-rule="evenodd" clip-rule="evenodd" d="M271.644 342.23C268.539 338.816 266.698 336.13 264.532 332.563C262.481 329.168 261.062 325.734 259.739 322.415C258.954 320.44 258.59 318.925 257.956 317.16L256.577 311.906C256.404 311.043 256.308 310.026 256.117 309.161L254.008 298.477L251.016 290.767C250.442 289.347 249.254 284.628 248.889 282.749L248.409 280.121C248.353 279.622 248.218 279.239 248.16 278.759C247.777 275.228 247.183 273.522 247.183 269.129C247.183 266.193 247.259 260.498 250.039 257.524C254.946 252.325 266.91 258.349 273.734 262.531C281.671 267.404 289.282 273.58 295.799 279.757C305.961 289.347 315.161 300.472 319.074 313.649L319.783 316.316C319.898 316.757 320.301 318.56 320.262 318.964C320.435 319.52 320.511 320.326 320.588 320.997C320.684 321.726 320.723 322.359 320.741 323.088C320.952 327.499 320.377 331.873 318.402 336.149C315.507 342.442 310.177 347.429 305.117 349.461C302.202 350.633 300.131 351.131 297.16 351.476C294.705 351.763 291.657 351.956 288.84 351.533C285.696 351.054 282.84 350.21 279.733 348.502C278.123 347.639 276.608 346.604 275.189 345.472C273.866 344.397 272.121 342.594 271.642 342.23H271.644ZM323.789 339.793C330.096 326.845 326.549 313.783 322.561 304.653C317.692 293.547 310.061 284.397 299.69 274.577C290.048 265.427 275.594 254.282 262.768 250.293C256.519 248.336 250.02 248.47 245.63 252.824C240.683 257.714 240.568 266.365 240.818 271.258L241.508 277.742L243.541 288.368C244.269 291.782 246.55 296.941 247.931 300.625C248.409 301.949 249.541 309.066 249.963 311.233C250.039 311.655 250.02 311.942 250.117 312.364L251.344 317.563C251.44 317.966 251.592 318.233 251.708 318.637C251.843 319.059 251.823 319.211 251.976 319.633L253.376 323.737C259.684 340.867 272.566 358.438 292.713 358.207C298.618 358.131 304.428 357.113 309.585 354.485C314.99 351.704 320.55 346.467 323.79 339.792L323.789 339.793Z" fill="black"/>
<path id="Vector_3" fill-rule="evenodd" clip-rule="evenodd" d="M320.261 318.963C317.194 319.691 314.549 320.554 311.597 321.359C311.252 321.436 311.079 321.532 310.772 321.628C306.956 322.645 298.867 325.924 295.243 327.632C287.69 331.219 278.853 336.187 271.644 342.229C272.124 342.593 273.868 344.396 275.191 345.471C276.608 346.602 278.124 347.638 279.734 348.501C282.84 350.208 285.698 351.053 288.841 351.531C291.66 351.954 294.708 351.761 297.161 351.475C300.132 351.129 302.204 350.632 305.118 349.46C310.178 347.428 315.508 342.439 318.403 336.148C320.378 331.872 320.954 327.498 320.742 323.087C320.723 322.357 320.685 321.725 320.59 320.995C320.513 320.324 320.436 319.519 320.263 318.963H320.261Z" fill="#F6F6D9"/>
<path id="Vector_4" fill-rule="evenodd" clip-rule="evenodd" d="M153.004 304.31C158.354 306.251 163.938 307.706 169.526 308.858C178.308 310.662 188.027 311.927 197.343 311.889C205.357 311.869 218.68 310.681 220.117 303.678C220.943 299.709 218.008 294.816 216.456 292.304C214.155 288.582 212.757 287.45 210.572 284.651C210.266 284.246 209.958 283.998 209.652 283.615L207.85 281.619C206.565 280.219 203.057 276.823 201.85 275.924L195.236 270.917L187.838 262.957C187.224 262.325 186.591 261.518 186.016 260.866L182.067 257.125C180.59 255.954 179.498 254.843 177.792 253.576C174.935 251.467 171.906 249.28 168.398 247.477C164.679 245.578 161.688 244.274 157.26 242.99C156.1 246.495 154.634 249.998 153.006 253.384V304.312L153.004 304.31Z" fill="#FEAADC"/>
<path id="Vector_5" fill-rule="evenodd" clip-rule="evenodd" d="M157.258 242.989C161.686 244.273 164.678 245.578 168.396 247.476C171.904 249.279 174.933 251.466 177.789 253.575C179.495 254.841 180.589 255.953 182.064 257.123L186.013 260.864C186.589 261.517 187.221 262.322 187.835 262.956L195.234 270.915L201.848 275.923C203.056 276.823 206.564 280.219 207.848 281.618L209.649 283.614C209.956 283.998 210.263 284.246 210.569 284.649C212.755 287.449 214.154 288.581 216.453 292.303C218.007 294.815 220.94 299.708 220.115 303.677C218.677 310.678 205.354 311.868 197.341 311.888C188.024 311.926 178.306 310.661 169.524 308.856C163.936 307.705 158.352 306.25 153.001 304.309V311.146C157.92 312.781 163.198 314.116 168.93 315.301C181.947 318.007 200.081 319.887 213.098 316.549C219.426 314.918 224.888 311.389 226.347 305.384C227.994 298.595 223.547 291.171 220.747 287.162L216.76 282.002L209.457 274.043C207.041 271.511 202.401 268.326 199.276 265.908C198.166 265.026 193.469 259.579 191.992 257.949C191.703 257.641 191.551 257.392 191.262 257.086L187.486 253.307C187.18 253.018 186.91 252.846 186.604 252.577C186.278 252.271 186.201 252.136 185.856 251.868L182.52 249.106C174.077 242.506 163.632 236.96 153 235.689V242.17C154.639 242.419 156.712 242.933 157.254 242.987L157.258 242.989Z" fill="black"/>
<path id="Vector_6" fill-rule="evenodd" clip-rule="evenodd" d="M153.004 253.382C154.632 249.997 156.097 246.494 157.258 242.989C156.716 242.934 154.644 242.42 153.004 242.171V253.382V253.382Z" fill="#F6F6D9"/>
<path id="Vector_7" fill-rule="evenodd" clip-rule="evenodd" d="M180.169 314.262H180.246C180.284 313.821 180.323 313.38 180.38 312.939C180.303 313.399 180.246 313.84 180.169 314.262V314.262ZM190.311 279.679C192.133 276.015 194.567 271.872 197.769 267.919C202.217 262.472 208.159 257.388 215.195 254.185C222.249 250.982 230.397 249.62 237.683 249.217C244.967 248.814 251.389 249.333 256.757 250.579C262.124 251.806 266.439 253.764 270.1 256.545C273.762 259.307 276.771 262.913 279.512 266.596C282.273 270.26 284.746 273.981 286.586 277.453C287.487 279.161 288.216 280.83 288.926 282.478C290.459 285.606 291.993 289.269 293.526 293.566C294.198 295.139 294.83 296.617 295.348 297.825L295.425 298.037C295.041 297.404 294.62 296.943 294.16 296.731C287.162 295.715 288.56 300.646 289.693 305.039C293.796 321.094 292.876 346.988 291.782 364.06C291.073 375.358 287.392 377.756 292.3 383.069C298.339 389.591 303.208 410.748 270.676 408.119C261.915 407.41 253.327 404.052 248.726 398.586C238.719 386.655 246.713 361.91 242.592 357.806C241.02 356.233 238.488 356.117 236.955 357.69C231.28 363.542 247.556 400.312 215.675 406.891C183.468 413.547 177.008 395.899 186.382 383.872C190.811 378.175 189.891 381.091 188.625 372.344C187.954 367.683 187.437 363.214 187.169 358.303C186.23 340.368 186.114 331.065 188.204 313.667C188.587 310.579 190.772 301.353 190.676 299.932C190.389 295.828 185.097 294.542 182.989 299.759C183.526 297.535 184.044 295.635 184.695 293.525C185.29 291.607 185.98 289.534 187.073 286.83C188.261 284.164 189.162 281.708 190.312 279.676L190.311 279.679ZM300.178 337.242C300.101 340.043 300.043 342.824 300.063 345.337C300.082 344.09 300.082 342.844 300.101 341.673C300.121 340.101 300.159 338.643 300.178 337.242V337.242Z" fill="#FEAADC"/>
<path id="Vector_8" fill-rule="evenodd" clip-rule="evenodd" d="M300.064 345.337C300.044 342.824 300.102 340.043 300.179 337.242C300.199 335.42 300.218 333.694 300.218 331.928C300.218 328.763 300.122 325.463 299.854 321.857C299.585 318.232 299.144 314.339 298.703 311.193C298.243 308.029 297.802 305.65 297.343 303.75C296.902 301.909 296.461 300.547 295.425 298.034C295.041 297.402 294.62 296.941 294.16 296.729C287.162 295.712 288.56 300.644 289.693 305.036C293.796 321.091 292.876 346.985 291.782 364.057C291.073 375.356 287.392 377.753 292.3 383.067C298.339 389.589 303.208 410.745 270.676 408.117C261.915 407.407 253.327 404.05 248.726 398.584C238.719 386.653 246.713 361.908 242.592 357.804C241.019 356.23 238.488 356.114 236.955 357.688C231.28 363.539 247.556 400.31 215.675 406.888C183.468 413.545 177.008 395.896 186.382 383.869C190.811 378.173 189.891 381.089 188.625 372.342C187.954 367.681 187.437 363.212 187.169 358.3C186.23 340.365 186.114 331.063 188.204 313.665C188.587 310.576 190.772 301.351 190.676 299.929C190.389 295.826 185.097 294.539 182.989 299.757C182.874 300.256 182.76 300.755 182.645 301.291C181.975 304.208 181.264 307.775 180.785 310.518C180.632 311.4 180.498 312.187 180.382 312.935C180.326 313.376 180.286 313.817 180.249 314.258H180.172C180.038 315.236 179.924 316.138 179.808 317.039C179.597 318.958 179.404 320.895 179.291 322.774C179.157 324.635 179.118 326.457 179.098 328.03C179.079 328.107 179.079 328.203 179.079 328.279C178.791 341.783 178.695 351.605 180.038 366.853C180.365 370.479 182.071 376.003 180.421 378.977C178.409 382.583 176.971 383.388 175.705 388.606C168.172 420.199 214.91 422.308 233.371 406.828C236.169 404.488 237.953 400.959 239.812 399.826C239.927 399.922 240.081 399.961 240.137 400.171L245.563 406.328C257.026 418.393 299.835 422.824 304.207 398.1C305.491 390.888 302.73 384.441 299.778 380.145C297.612 377.038 298.322 374.467 298.896 370.037C298.896 369.941 298.896 369.846 298.916 369.73C299.012 368.79 299.204 366.872 299.376 364.992C299.549 363.112 299.684 361.252 299.779 359.39C299.875 357.51 299.933 355.63 299.991 352.561C300.01 350.489 300.029 347.9 300.068 345.33L300.064 345.337Z" fill="#090505"/>
<path id="Vector_9" fill-rule="evenodd" clip-rule="evenodd" d="M268.859 211.282C257.571 236.832 279.986 186.045 268.859 211.282V211.282ZM153.004 247.516V154.49C162.03 142.584 174.203 133.39 187.339 127.88C195.857 124.31 193.933 123.859 191.289 115.126C181.8 83.9046 187.715 14.4118 230.432 11.8767C244.045 11.069 252.908 18.4047 257.493 28.0727C267.057 48.2315 260.203 82.7429 255.205 103.784C254.33 107.502 249.992 119.627 252.561 122.233C254.988 124.691 258.174 122.96 259.148 120.327C260.602 116.351 263.744 97.4635 266.272 93.5197C289.659 57.1195 348.474 75.2585 351.918 118.325C352.97 131.312 349.001 145.221 340.198 150.346C330.4 156.06 315.844 155.054 305.047 149.422C270.519 131.437 293.667 92.6289 290.542 87.512C288.885 84.8118 285.38 85.3221 283.736 88.3587C282.391 90.8246 281.801 93.9305 280.862 96.836C275.498 113.802 277.199 134.334 288.99 147.057C306.159 165.551 324.317 159.046 327.939 163.973C329.404 165.963 330.797 168.393 332.035 170.557C333.874 173.832 336.959 180.774 338.204 184.921C352.863 233.908 329.37 277.441 274.191 282.423C247.321 284.838 223.303 283.108 197.28 274.161C179.881 268.16 163.837 259.23 153.004 247.516V247.516Z" fill="#FEAADC"/>
<path id="Vector_10" fill-rule="evenodd" clip-rule="evenodd" d="M230.43 11.8754C244.043 11.0677 252.906 18.4035 257.491 28.0715C267.056 48.2302 260.201 82.7417 255.203 103.782C254.329 107.501 249.99 119.626 252.56 122.231C254.986 124.69 258.173 122.958 259.147 120.326C260.601 116.35 263.742 97.4623 266.271 93.5185C289.658 57.1183 348.473 75.2573 351.916 118.324C352.969 131.311 349 145.22 340.196 150.345C330.398 156.059 315.843 155.053 305.046 149.421C270.517 131.436 293.666 92.6276 290.541 87.5108C288.884 84.8106 285.379 85.3209 283.734 88.3575C282.39 90.8233 281.799 93.9292 280.86 96.8348C275.496 113.801 277.197 134.332 288.989 147.056C306.157 165.55 324.315 159.045 327.938 163.971C329.403 165.962 330.795 168.392 332.034 170.556C333.872 173.831 336.958 180.772 338.203 184.92C352.861 233.907 329.369 277.44 274.19 282.422C247.319 284.837 223.301 283.107 197.278 274.16C179.879 268.158 163.836 259.229 153.002 247.515V258.351C154.093 259.277 155.211 260.174 156.354 261.043C170.376 271.744 187.98 281.497 211.046 286.053C229.421 289.672 242.045 292.361 263.378 291.263C285.792 290.124 300.694 284.343 300.768 284.37C325.758 276.922 346.955 252.732 349.647 221.005C350.611 209.19 349.778 196.8 346.89 187.063C345.425 182.107 344.049 177.928 342.002 173.25C341.101 171.171 339.96 168.976 338.867 166.901C337.739 164.764 335.812 163.214 335.761 160.65C342.852 157.344 345.588 157.75 351.88 149.813C356.038 144.584 358.801 136.502 359.56 128.23C363.937 80.2821 311.332 52.2169 277.002 72.9237C274.448 74.4597 270.743 77.994 268.475 78.6492L269.855 62.5955C275.352 -1.92792 223.95 -5.40552 203.015 15.2446C185.899 32.1375 179.472 58.6782 179.439 83.5657C179.422 90.3407 180.075 96.4795 180.812 102.759C181.313 107.037 184.391 118.155 183.996 120.779C176.083 125.151 173.278 125.317 164.119 132.357C160.183 135.382 156.458 138.819 153.001 142.587V154.487C162.028 142.582 174.2 133.387 187.336 127.877C195.855 124.308 193.931 123.857 191.286 115.124C181.797 83.9021 187.713 14.4093 230.429 11.8741L230.43 11.8754Z" fill="#090505"/>
<path id="Vector_11" fill-rule="evenodd" clip-rule="evenodd" d="M205.973 82.433C205.285 90.536 206.218 117.625 209.534 124.354C213.684 123.976 218.487 123.132 222.897 123.083C227.965 122.994 233.019 123.537 238.085 123.449C243.294 108.335 248.466 73.2375 244.643 56.3963C241.046 40.5178 227.225 40.3653 218.686 48.2643L215.352 52.639C209.132 61.7753 206.951 70.4844 205.974 82.433H205.973Z" fill="#F7F8DA"/>
<path id="Vector_12" fill-rule="evenodd" clip-rule="evenodd" d="M222.577 239.966C232.197 240.416 231.961 237.758 234.331 237.941C236.666 238.1 236.558 241.402 245.912 242.716C245.688 249.897 242.49 258.558 232.671 257.494C223.196 256.478 221.371 249.182 222.577 239.967V239.966ZM255.545 231.694C248.82 229.776 249.953 238.188 242.938 235.149C240.897 234.263 239.506 232.047 239.402 229.44C239.234 224.843 240.237 225.718 242.965 223.947C254.383 216.6 239.646 207.746 228.995 213.541C227.768 218.943 229.901 221.685 232.83 224.147C232.275 235.208 224.637 233.405 222.364 231.383C220.701 229.893 220.788 226.61 218.025 226.086C215.487 225.602 213.581 227.673 214.029 230.54C214.542 233.798 216.429 232.188 215.802 237.755C215.455 240.921 215.117 243.568 215.389 246.709C215.898 252.489 217.889 256.469 220.672 259.267C229.627 268.247 249.95 267.258 252.872 244.386C253.512 239.338 252.635 240.823 255.455 237.539C257.529 235.099 257.156 234.277 255.547 231.694H255.545Z" fill="#0B0504"/>
<path id="Vector_13" fill-rule="evenodd" clip-rule="evenodd" d="M222.577 239.966C221.372 249.18 223.196 256.477 232.671 257.493C242.49 258.558 245.687 249.897 245.912 242.715C236.558 241.401 236.665 238.1 234.331 237.94C231.961 237.757 232.197 240.414 222.577 239.965V239.966Z" fill="#F50E0E"/>
<g id="eyeLc">
<g id="flangeLeft">
<path id="Vector_14" fill-rule="evenodd" clip-rule="evenodd" d="M230.565 189.148C231.718 185.761 227.294 180.997 224.2 176.864L211.984 159.618C210.971 158.184 209.503 154.844 207.201 155.227C206.908 155.28 198.032 161.014 197.519 165.244L221.435 184.503C224.556 186.943 226.659 190.048 230.565 189.148V189.148Z" fill="#090505"/>
</g>
<g id="eyeLeft">
<path id="Vector_15" fill-rule="evenodd" clip-rule="evenodd" d="M209.905 202.254C211.383 212.717 227.4 211.016 226.378 200.399C225.368 189.63 208.364 191.17 209.905 202.254Z" fill="#090505"/>
</g>
</g>
<g id="eyeRc">
<g id="flangeRight">
<path id="Vector_16" fill-rule="evenodd" clip-rule="evenodd" d="M273.816 182.115C269.141 179.85 256.404 185.97 256.404 185.97C254.775 187.468 254.912 189.944 256.254 191.135C258.67 193.285 265.196 190.046 267.6 189.151C271.117 187.852 275.817 187.79 273.816 182.115Z" fill="#090505"/>
</g>
<g id="eyeRight">
<path id="Vector_17" fill-rule="evenodd" clip-rule="evenodd" d="M268.859 211.282C273.341 201.095 257.772 195.248 253.796 204.691C249.526 214.878 264.525 221.099 268.859 211.282Z" fill="#090505"/>
</g>
</g>
</g>
</g>
</g>
</svg>
