<svg width="66" height="16" viewBox="0 0 66 16" fill="none" xmlns="http://www.w3.org/2000/svg">
<rect width="66" height="16"/>
<path d="M7.4662 9.16243C7.4662 10.0188 7.22535 10.7543 6.7411 11.369C6.22861 12.0138 5.5794 12.336 4.79088 12.336C4.49578 12.336 4.05184 12.3286 3.45908 12.3133C2.86888 12.2981 2.42495 12.293 2.12985 12.293C1.91246 12.293 1.58694 12.3004 1.15217 12.3207C0.715203 12.3411 0.389678 12.3509 0.172294 12.3509C0.0564537 12.3509 0 12.2953 0 12.1823C0 11.6407 0.0238276 10.8274 0.0707503 9.74193C0.11804 8.65878 0.141501 7.84545 0.141501 7.30388C0.141501 6.73454 0.117673 5.87585 0.0707503 4.73249C0.0234611 3.58913 0 2.73278 0 2.1611C0 2.05279 0.0568203 2 0.172294 2C0.582867 2 1.20166 2.00235 2.02574 2.00743C2.85202 2.01251 3.47081 2.01486 3.88651 2.01486C4.85466 2.01486 5.62668 2.20607 6.20295 2.58928C6.90423 3.05773 7.25395 3.78308 7.25395 4.76534C7.25395 5.10553 7.16194 5.45784 6.97754 5.82306C6.79315 6.19102 6.5688 6.46786 6.3045 6.65438C6.17216 6.74784 6.10361 6.80806 6.10361 6.83817C6.10361 6.86828 6.17216 6.92106 6.3045 6.99927C6.65642 7.20573 6.93722 7.51034 7.14727 7.91075C7.35989 8.3139 7.4662 8.72917 7.4662 9.16243V9.16243ZM5.52551 4.92605C5.52551 4.23589 5.23517 3.76744 4.65414 3.52813C4.30479 3.38462 3.73072 3.31424 2.93303 3.31424C2.15844 3.31424 1.77133 3.37446 1.77133 3.49802C1.77133 3.65912 1.76436 3.90352 1.75007 4.22846C1.73577 4.55105 1.72881 4.79779 1.72881 4.96398C1.72881 5.07738 1.73101 5.25099 1.73577 5.48795C1.74054 5.72218 1.74274 5.89853 1.74274 6.01662C1.74274 6.16013 2.26475 6.2309 3.30585 6.2309C4.78648 6.2309 5.52551 5.79491 5.52551 4.92605V4.92605ZM5.70953 9.09204C5.70953 8.49025 5.45916 8.08476 4.9562 7.87321C4.63764 7.73479 4.14386 7.66675 3.47118 7.66675C2.30947 7.66675 1.72844 7.73205 1.72844 7.86578V9.07718C1.72844 9.25354 1.73321 9.5253 1.74274 9.88817C1.75227 10.2534 1.75703 10.5255 1.75703 10.7066C1.75703 10.757 1.90367 10.7946 2.19877 10.8172C2.49387 10.8423 2.93047 10.8548 3.5115 10.8548C4.2388 10.8548 4.76301 10.7543 5.08158 10.5525C5.49948 10.2855 5.70953 9.79941 5.70953 9.09165V9.09204ZM15.0431 5.65688C15.0431 6.01701 15.0288 6.55858 15.0006 7.28628C14.9724 8.01164 14.9581 8.55555 14.9581 8.92077C14.9581 9.27856 14.9676 9.81739 14.9889 10.5326C15.0101 11.2478 15.0193 11.7866 15.0193 12.1444C15.0193 12.2429 14.9768 12.3082 14.8895 12.336C14.8517 12.3462 14.3818 12.3512 13.48 12.3512C13.4257 12.3512 13.3928 12.1675 13.381 11.7972C13.3693 11.4292 13.3433 11.2431 13.3007 11.2431C13.2769 11.2431 13.2439 11.2658 13.197 11.3111C12.4272 12.024 11.6694 12.3814 10.9187 12.3814C9.90105 12.3814 9.228 11.9884 8.90211 11.2001C8.69902 10.714 8.59748 9.83773 8.59748 8.57315C8.59748 7.43214 8.68252 6.46513 8.85225 5.67174C8.89257 5.48013 8.96809 5.38472 9.07916 5.38472C9.2137 5.38472 9.41459 5.38707 9.68366 5.39215C9.95053 5.39724 10.1514 5.39958 10.286 5.39958C10.378 5.39958 10.4253 5.45237 10.4253 5.56068C10.4253 5.7519 10.3948 6.07176 10.3358 6.52026C10.272 6.99888 10.239 7.33399 10.2343 7.53028C10.22 7.82746 10.213 8.15241 10.213 8.50511C10.213 9.36654 10.2698 9.94331 10.3853 10.2405C10.5836 10.7719 11.0228 11.0362 11.7028 11.0362C11.9931 11.0362 12.3355 10.8825 12.7322 10.5779C13.1479 10.2581 13.3627 9.95073 13.3792 9.65629C13.403 9.28834 13.4144 7.98896 13.4144 5.75972C13.4144 5.52041 13.509 5.39958 13.6977 5.39958H14.843C14.9775 5.39958 15.0438 5.48522 15.0438 5.65649L15.0431 5.65688ZM19.6877 10.0743C19.6877 10.8071 19.4139 11.394 18.8636 11.8374C18.3633 12.2402 17.7562 12.442 17.0384 12.442C16.762 12.442 16.604 12.4345 16.5663 12.4193C16.4882 12.3814 16.4482 12.2605 16.4482 12.0591C16.4482 11.9508 16.4365 11.7897 16.4105 11.5731C16.3844 11.3565 16.3727 11.1977 16.3727 11.0945C16.3727 11.0315 16.4152 10.9889 16.4977 10.9686C16.5567 10.9533 16.6418 10.9533 16.7529 10.9686C16.8969 10.9838 16.9655 10.9913 16.9607 10.9913C17.8343 10.9913 18.2712 10.7039 18.2712 10.1326C18.2712 9.86314 18.0799 9.61641 17.6997 9.38961C17.0813 9.02439 16.7246 8.80307 16.6326 8.71705C16.2525 8.36942 16.0611 7.91114 16.0611 7.34689C16.0611 6.60903 16.3232 6.03461 16.8449 5.62168C17.317 5.25138 17.912 5.0676 18.6345 5.0676C18.6983 5.0676 18.7456 5.10045 18.7764 5.1634C18.8068 5.2287 18.8636 5.42774 18.9509 5.76284C19.0359 6.09795 19.0785 6.29933 19.0785 6.36972C19.0785 6.42251 19.0337 6.4577 18.9461 6.47295C18.651 6.51557 18.3534 6.55858 18.0535 6.59651C17.6968 6.69974 17.5197 6.90621 17.5197 7.21355C17.5197 7.43526 17.7063 7.65932 18.0769 7.88612C18.6272 8.21341 18.9765 8.45271 19.1232 8.60169C19.4986 8.98451 19.6873 9.47564 19.6873 10.0751L19.6877 10.0743ZM25.5223 5.65688C25.5223 5.76519 25.4702 6.00684 25.3643 6.37949C25.2579 6.75488 25.1824 6.94101 25.1421 6.94101C24.9343 6.84286 24.7242 6.74706 24.5141 6.64891C24.3041 6.55076 24.075 6.50267 23.8272 6.50267C23.2582 6.50267 22.7861 6.72672 22.4059 7.17249C22.028 7.621 21.8392 8.14967 21.8392 8.75693C21.8392 9.35637 22.028 9.87527 22.4059 10.3136C22.793 10.7645 23.2678 10.9913 23.825 10.9913C24.1344 10.9913 24.439 10.9107 24.7389 10.7492C25.0387 10.5881 25.1711 10.5072 25.1333 10.5072C25.1923 10.5072 25.2609 10.7136 25.3338 11.1269C25.4024 11.4996 25.4376 11.7565 25.4376 11.9004C25.4376 12.0513 25.1685 12.1999 24.6278 12.3485C24.1743 12.4717 23.8418 12.5323 23.6245 12.5323C22.6728 12.5323 21.8704 12.1546 21.216 11.3964C20.5737 10.6585 20.2526 9.77712 20.2526 8.75459C20.2526 7.71172 20.5668 6.82526 21.1947 6.09756C21.8418 5.34953 22.6468 4.97649 23.6102 4.97649C24.2572 4.97649 24.8496 5.15011 25.3833 5.50047C25.4753 5.56107 25.5226 5.61113 25.5226 5.65688H25.5223ZM33.1135 5.67213C33.1135 5.69246 33.1061 5.73508 33.0922 5.80547C32.9082 6.93123 32.8158 7.90098 32.8158 8.71705C32.8158 8.76749 32.8748 9.87057 32.9928 12.029L32.9998 12.1323C33.0046 12.2758 32.9434 12.3462 32.8158 12.3462C32.6882 12.3462 32.4972 12.3614 32.2395 12.3939C31.9844 12.4267 31.7934 12.4416 31.668 12.4416C31.5808 12.4416 31.5144 12.2703 31.4671 11.9278C31.4198 11.5852 31.3777 11.414 31.3348 11.414C31.3066 11.414 31.1838 11.5098 30.9616 11.701C30.69 11.9352 30.4352 12.1139 30.2013 12.2375C29.8355 12.4338 29.4718 12.5323 29.1082 12.5323C28.2133 12.5323 27.4578 12.1522 26.8438 11.3889C26.2631 10.6612 25.9724 9.81231 25.9724 8.84257C25.9724 7.75199 26.2653 6.84794 26.8508 6.1351C27.4648 5.39215 28.2724 5.02185 29.2735 5.02185C29.9795 5.02185 30.5958 5.28384 31.12 5.80508C31.1977 5.90322 31.3205 6.04712 31.4884 6.23325C31.5001 6.2485 31.5144 6.25593 31.5284 6.25593C31.5566 6.25593 31.5969 6.10226 31.6464 5.79022C31.6984 5.48013 31.7622 5.32411 31.8425 5.32411C31.9675 5.32411 32.2014 5.36204 32.5438 5.43477C32.9239 5.52315 33.1127 5.60331 33.1127 5.67174L33.1135 5.67213ZM31.3425 8.75732C31.3425 8.1528 31.175 7.63664 30.8373 7.20339C30.4832 6.73728 30.0298 6.50306 29.4751 6.50306C28.9227 6.50306 28.4622 6.73494 28.0913 7.19556C27.7371 7.6386 27.5601 8.15749 27.5601 8.75693C27.5601 9.35129 27.7371 9.86784 28.0913 10.3058C28.4619 10.7617 28.9223 10.9909 29.4751 10.9909C30.0158 10.9909 30.4667 10.7566 30.8304 10.2905C31.1728 9.85259 31.3429 9.34347 31.3429 8.75693L31.3425 8.75732ZM41.1486 8.79994C41.1486 9.79471 40.8535 10.6561 40.2633 11.3889C39.6445 12.1624 38.8772 12.5475 37.9586 12.5475C37.3871 12.5475 36.8867 12.3587 36.4593 11.9809C36.2657 11.7897 36.0721 11.5958 35.876 11.3991C35.85 11.4143 35.8313 11.4519 35.8218 11.5176C35.817 11.5477 35.8148 11.8222 35.8148 12.3438L35.8078 14.4268C35.8078 14.5856 35.7558 14.6638 35.6498 14.6638C34.9416 14.6638 34.5237 14.6536 34.3961 14.6333C34.2898 14.618 34.2356 14.5551 34.2356 14.4421C34.2356 13.8125 34.2403 12.8678 34.2499 11.6059C34.2594 10.3468 34.2642 9.40212 34.2642 8.77257C34.2642 7.61396 34.1934 6.52847 34.0515 5.51611C34.042 5.4555 34.0372 5.41757 34.0372 5.39763C34.0372 5.34484 34.0607 5.30925 34.1058 5.2944C34.2829 5.28423 34.538 5.25647 34.8756 5.21384C35.3265 5.12586 35.5817 5.08285 35.6359 5.08285C35.7162 5.08285 35.7657 5.23144 35.7895 5.52862C35.8038 5.72765 35.8155 5.9216 35.8225 6.11555C35.8225 6.15583 35.8368 6.1961 35.865 6.23403C35.898 6.21643 35.9336 6.18124 35.9757 6.1308C36.6206 5.42304 37.2745 5.06799 37.9333 5.06799C38.8472 5.06799 39.617 5.44846 40.2424 6.21135C40.8469 6.94413 41.1493 7.80791 41.1493 8.80034L41.1486 8.79994ZM39.5334 8.77492C39.5334 8.18291 39.3611 7.66675 39.014 7.21824C38.6503 6.74236 38.1947 6.50306 37.6492 6.50306C37.1154 6.50306 36.6763 6.74979 36.3339 7.24092C36.0197 7.68161 35.8643 8.19816 35.8643 8.78743C35.8643 9.38922 36.0249 9.9085 36.3482 10.3515C36.7049 10.8274 37.1558 11.0667 37.706 11.0667C38.2328 11.0667 38.6742 10.8176 39.0352 10.3214C39.3681 9.86041 39.5334 9.34425 39.5334 8.77492V8.77492ZM48.9546 5.67213C48.9546 5.69246 48.9473 5.73508 48.9334 5.80547C48.7493 6.93123 48.657 7.90098 48.657 8.71705C48.657 8.76749 48.716 9.87057 48.834 12.029L48.841 12.1323C48.8457 12.2758 48.7845 12.3462 48.657 12.3462C48.5294 12.3462 48.3384 12.3614 48.0807 12.3939C47.8255 12.4267 47.6346 12.4416 47.5092 12.4416C47.4219 12.4416 47.3556 12.2703 47.3083 11.9278C47.261 11.5852 47.2188 11.414 47.176 11.414C47.1477 11.414 47.0249 11.5098 46.8028 11.701C46.5311 11.9352 46.2764 12.1139 46.0425 12.2375C45.6766 12.4338 45.313 12.5323 44.9493 12.5323C44.0545 12.5323 43.299 12.1522 42.6849 11.3889C42.1043 10.6612 41.8136 9.81231 41.8136 8.84257C41.8136 7.75199 42.1065 6.84794 42.6919 6.1351C43.3059 5.39215 44.1135 5.02185 45.1147 5.02185C45.8207 5.02185 46.4369 5.28384 46.9611 5.80508C47.0389 5.90322 47.1617 6.04712 47.3296 6.23325C47.3413 6.2485 47.3556 6.25593 47.3695 6.25593C47.3977 6.25593 47.4381 6.10226 47.4875 5.79022C47.5396 5.48013 47.6034 5.32411 47.6837 5.32411C47.8087 5.32411 48.0426 5.36204 48.3849 5.43477C48.7651 5.52315 48.9539 5.60331 48.9539 5.67174L48.9546 5.67213ZM47.1837 8.75732C47.1837 8.1528 47.0161 7.63664 46.6785 7.20339C46.3244 6.73728 45.8709 6.50306 45.3163 6.50306C44.7638 6.50306 44.3034 6.73494 43.9324 7.19556C43.5783 7.6386 43.4012 8.15749 43.4012 8.75693C43.4012 9.35129 43.5783 9.86784 43.9324 10.3058C44.303 10.7617 44.7635 10.9909 45.3163 10.9909C45.857 10.9909 46.3079 10.7566 46.6715 10.2905C47.0139 9.85259 47.184 9.34347 47.184 8.75693L47.1837 8.75732ZM53.9295 11.0014C53.9295 11.1097 53.92 11.2556 53.9013 11.4421C53.88 11.6712 53.8657 11.8198 53.861 11.8879C53.8562 11.9759 53.8492 12.029 53.8397 12.049C53.8206 12.0842 53.7785 12.117 53.7099 12.1522C53.3323 12.3462 52.7396 12.442 51.9298 12.442C50.8601 12.442 50.322 11.9207 50.3172 10.8779C50.3172 10.4599 50.3242 9.83264 50.3385 8.99389C50.3528 8.15514 50.3597 7.52559 50.3597 7.10758C50.3597 6.9062 50.2655 6.79789 50.0764 6.78264C49.9041 6.78264 49.7362 6.7799 49.5712 6.77521C49.4744 6.74979 49.4249 6.54842 49.4249 6.16834C49.4249 6.02718 49.4345 5.87624 49.4532 5.71749C49.4675 5.599 49.5404 5.52862 49.6753 5.50359C49.7886 5.50359 49.9019 5.50086 50.0129 5.49616C50.2256 5.486 50.3319 5.3855 50.3319 5.1939C50.3319 4.99761 50.3271 4.69769 50.3176 4.2922C50.308 3.88944 50.3033 3.58718 50.3033 3.38541C50.3033 3.02527 50.3671 2.84657 50.4968 2.84657C50.5368 2.84657 50.969 2.92204 51.7883 3.07337C51.8946 3.08862 51.9463 3.14141 51.9463 3.23447C51.9463 3.45384 51.9298 3.77839 51.8968 4.21164C51.8638 4.6449 51.8473 4.96984 51.8473 5.18647C51.8473 5.32998 51.9111 5.40075 52.0361 5.40075H53.7055C53.7836 5.40075 53.8236 5.43086 53.8236 5.48913C53.8236 5.547 53.814 5.6428 53.7975 5.77379C53.7811 5.90244 53.7737 6.00059 53.7737 6.06354C53.7737 6.13667 53.7759 6.24967 53.7807 6.40335C53.7855 6.55467 53.7876 6.66768 53.7876 6.7408C53.7876 6.83387 53.7239 6.88196 53.5941 6.88196C53.4075 6.88196 53.1289 6.86945 52.7535 6.84403C52.3807 6.81901 52.1017 6.80649 51.9155 6.80649C51.8799 6.80649 51.8517 6.94765 51.8327 7.22724C51.8231 7.57721 51.8184 8.06599 51.8184 8.69789V9.79863C51.8184 10.2217 51.8561 10.5162 51.9294 10.6827C52.0379 10.9396 52.2649 11.0679 52.6094 11.0679C52.7509 11.0679 52.9588 11.0354 53.2352 10.9697C53.509 10.9044 53.7143 10.8716 53.8467 10.8716C53.9009 10.8716 53.9295 10.9142 53.9295 11.0026V11.0014ZM61.6483 5.67213C61.6483 5.69246 61.641 5.73508 61.627 5.80547C61.443 6.93123 61.3506 7.90098 61.3506 8.71705C61.3506 8.76749 61.4096 9.87057 61.5277 12.029L61.5347 12.1323C61.5394 12.2758 61.4782 12.3462 61.3506 12.3462C61.2231 12.3462 61.0321 12.3614 60.7744 12.3939C60.5192 12.4267 60.3282 12.4416 60.2029 12.4416C60.1156 12.4416 60.0493 12.2703 60.002 11.9278C59.9547 11.5852 59.9125 11.414 59.8696 11.414C59.8414 11.414 59.7186 11.5098 59.4964 11.701C59.2248 11.9352 58.97 12.1139 58.7362 12.2375C58.3703 12.4338 58.0067 12.5323 57.643 12.5323C56.7482 12.5323 55.9926 12.1522 55.3786 11.3889C54.7979 10.6612 54.5072 9.81231 54.5072 8.84257C54.5072 7.75199 54.8002 6.84794 55.3856 6.1351C55.9996 5.39215 56.8072 5.02185 57.8083 5.02185C58.5144 5.02185 59.1306 5.28384 59.6548 5.80508C59.7325 5.90322 59.8553 6.04712 60.0232 6.23325C60.035 6.2485 60.0493 6.25593 60.0632 6.25593C60.0914 6.25593 60.1317 6.10226 60.1812 5.79022C60.2333 5.48013 60.2971 5.32411 60.3773 5.32411C60.5024 5.32411 60.7362 5.36204 61.0786 5.43477C61.4588 5.52315 61.6476 5.60331 61.6476 5.67174L61.6483 5.67213ZM59.8773 8.75732C59.8773 8.1528 59.7098 7.63664 59.3722 7.20339C59.0181 6.73728 58.5646 6.50306 58.01 6.50306C57.4575 6.50306 56.9971 6.73494 56.6261 7.19556C56.272 7.6386 56.0949 8.15749 56.0949 8.75693C56.0949 9.35129 56.272 9.86784 56.6261 10.3058C56.9967 10.7617 57.4571 10.9909 58.01 10.9909C58.5507 10.9909 59.0016 10.7566 59.3652 10.2905C59.7076 9.85259 59.8777 9.34347 59.8777 8.75693L59.8773 8.75732ZM66 10.0747C66 10.8075 65.7262 11.3944 65.1759 11.8378C64.6755 12.2406 64.0685 12.4424 63.3507 12.4424C63.0743 12.4424 62.9163 12.4349 62.8785 12.4197C62.8005 12.3817 62.7605 12.2609 62.7605 12.0595C62.7605 11.9512 62.7488 11.7901 62.7227 11.5735C62.6967 11.3569 62.685 11.1981 62.685 11.0949C62.685 11.0319 62.7275 10.9893 62.81 10.969C62.869 10.9537 62.9541 10.9537 63.0651 10.969C63.2092 10.9842 63.2778 10.9916 63.273 10.9916C64.1466 10.9916 64.5835 10.7042 64.5835 10.133C64.5835 9.86354 64.3922 9.6168 64.012 9.39C63.3936 9.02478 63.0369 8.80346 62.9449 8.71744C62.5648 8.36982 62.3734 7.91153 62.3734 7.34728C62.3734 6.60942 62.6355 6.035 63.1572 5.62208C63.6293 5.25177 64.2243 5.06799 64.9468 5.06799C65.0106 5.06799 65.0579 5.10084 65.0887 5.16379C65.1191 5.22909 65.1759 5.42813 65.2632 5.76324C65.3482 6.09834 65.3907 6.29972 65.3907 6.37011C65.3907 6.4229 65.346 6.45809 65.2584 6.47334C64.9633 6.51596 64.6656 6.55897 64.3658 6.5969C64.0091 6.70013 63.832 6.9066 63.832 7.21394C63.832 7.43565 64.0186 7.65971 64.3892 7.88651C64.9395 8.2138 65.2888 8.4531 65.4355 8.60209C65.8108 8.9849 65.9996 9.47603 65.9996 10.0755L66 10.0747Z" fill="#ffffff"/>
</svg>
