<svg width="450" height="53" viewBox="0 0 450 53" fill="none" xmlns="http://www.w3.org/2000/svg">
<g clip-path="url(#clip0_163_2)">
<path fill-rule="evenodd" clip-rule="evenodd" d="M416.556 5.81506C416.985 6.4597 420.418 9.79653 421.439 10.8336C423.007 12.4266 422.091 11.7642 423.923 11.7642C426.082 11.7642 427.737 13.4601 427.737 15.909C427.737 17.6227 427.012 16.4951 430.15 19.681C430.936 20.4765 432.814 22.1902 433.316 22.9698C434.069 22.9112 433.702 22.8349 434.961 22.8349C437.889 22.8349 439.959 26.6192 437.651 29.4464C435.462 32.1049 430.728 30.4533 430.728 26.8501C430.728 26.0989 430.949 25.7082 431.01 25.044C430.033 24.3852 426.367 20.013 425.552 19.7893V34.1826C426.262 34.6621 426.5 34.726 427.015 35.4612C428.804 38.0131 427.178 41.801 423.792 41.801C420.554 41.801 418.909 38.1215 420.539 35.598C422.918 31.9166 422.418 39.5635 422.418 19.7928C422.418 19.2796 422.018 19.4146 421.311 18.8445C419.948 17.763 419.523 15.6586 420.245 14.1261L414.286 8.13078C413.619 8.59605 400.9 21.6681 399.302 23.2913C397.911 24.7049 397.657 24.8256 397.629 26.4914V26.8501C397.629 28.2939 399.093 29.3736 400.323 30.622L419.666 50.2719C421.177 51.8204 421.692 52.9303 423.851 53.0085H424.058C425.683 53.0085 426.942 51.2504 427.842 50.35L447.114 30.7588C448.624 29.2244 449.731 28.6846 449.808 26.5056V26.2978C449.808 24.6161 448.091 23.3818 447.191 22.4673L426.203 1.14811C425.273 0.203352 424.93 0.0346451 424 0.00445557H423.78H423.528H423.246C421.783 0.00445557 420.495 1.76255 419.666 2.60431C418.899 3.38569 417.077 5.05499 416.562 5.82039V5.81684L416.556 5.81506Z" fill="#EF5032"/>
<path fill-rule="evenodd" clip-rule="evenodd" d="M312.993 0.0328369H265.227L270.229 47.4873L289.11 53.0067L307.989 47.4873L312.993 0.0328369Z" fill="#0C73B8"/>
<path fill-rule="evenodd" clip-rule="evenodd" d="M308.317 4.58972L289.111 4.59327V49.5757L304.036 45.216L308.317 4.58972Z" fill="#30A9DC"/>
<path fill-rule="evenodd" clip-rule="evenodd" d="M275.538 16.5198L274.452 10.4499H303.765L301.052 40.2275L289.651 43.7153L277.165 40.2275L276.082 30.858H282.051L282.597 35.8162L289.651 37.7644L296.166 35.8162L296.71 28.1001H283.137L282.597 22.5843H296.71L297.25 16.5198H275.538Z" fill="white"/>
<path fill-rule="evenodd" clip-rule="evenodd" d="M275.538 16.52L274.454 10.4519H289.112V16.52H275.54H275.538ZM289.111 43.5628L277.166 40.2277L276.082 30.8547H282.052L282.595 35.8183L289.109 37.6154V43.5628H289.111ZM289.111 28.0968H283.137L282.597 22.581H289.111V28.0968Z" fill="#CED1DB"/>
<path fill-rule="evenodd" clip-rule="evenodd" d="M335.203 7.78448H370.918C373.339 7.78448 375.318 9.79653 375.318 12.2543V48.5351C375.318 50.9947 373.337 53.0049 370.918 53.0049H335.203C332.782 53.0049 330.803 50.9929 330.803 48.5351V12.2543C330.803 9.79476 332.784 7.78448 335.203 7.78448V7.78448ZM338.264 11.6612H367.857C369.862 11.6612 371.503 13.3287 371.503 15.3656V45.4273C371.503 47.4642 369.862 49.1318 367.857 49.1318H338.264C336.259 49.1318 334.618 47.4642 334.618 45.4273V15.3656C334.618 13.3287 336.259 11.6612 338.264 11.6612V11.6612Z" fill="#7AB041"/>
<path fill-rule="evenodd" clip-rule="evenodd" d="M342.834 0.0328369H378.548C380.97 0.0328369 382.948 2.04488 382.948 4.50267V40.7834C382.948 43.243 380.968 45.2533 378.548 45.2533H342.834C340.413 45.2533 338.434 43.2412 338.434 40.7834V4.50267C338.434 2.04311 340.415 0.0328369 342.834 0.0328369V0.0328369ZM345.895 3.90953H375.487C377.493 3.90953 379.134 5.57706 379.134 7.61397V37.6757C379.134 39.7126 377.493 41.3801 375.487 41.3801H345.895C343.89 41.3801 342.248 39.7126 342.248 37.6757V7.61397C342.248 5.57706 343.89 3.90953 345.895 3.90953V3.90953Z" fill="#7AB041"/>
<path fill-rule="evenodd" clip-rule="evenodd" d="M243.399 3.23656C243.152 3.91671 240.789 7.74901 240.231 8.88379C239.357 10.6596 235.495 16.8823 234.964 18.2497C235.044 18.3385 235.027 18.3171 235.14 18.4166C235.193 18.4628 235.249 18.5356 235.261 18.5143C235.271 18.4965 235.303 18.5445 235.322 18.5604C235.843 18.6457 237.055 19.1287 237.672 19.3471C238.867 19.7733 240.948 20.228 240.654 22.462C240.537 23.3517 239.925 23.8028 239.425 24.3089C236.68 27.0863 232.939 30.5244 229.875 33.4048L225.064 37.9137C224.603 38.3719 224 38.8798 223.47 39.3966C222.998 39.8583 220.557 41.9964 220.358 42.3729C220.395 42.8435 220.5 42.6872 220.692 43.1561L225.232 51.1385C225.309 51.293 226.242 53.0103 226.429 53.0067C226.601 53.0032 227.326 51.6891 227.405 51.4955L228.293 49.9398C228.632 49.4533 228.837 48.8868 229.16 48.3682L230.064 46.8481C230.356 46.4236 230.658 45.7151 230.968 45.2338C232.058 43.5361 232.978 41.485 234.114 39.7784L235.226 37.8019C235.665 37.1643 235.541 37.1785 235.845 36.6547C236.048 36.3066 236.133 36.287 236.317 35.9283L243.444 23.4281C243.717 22.8509 243.979 22.3998 244.308 21.844C244.638 21.281 244.9 20.7874 245.213 20.2209L250.545 10.8905C251.214 9.90313 251.879 8.43805 252.583 7.31926C253.122 6.46329 254.852 3.49406 254.959 3.01103C252.554 2.86008 247.571 2.99504 244.655 2.98439C243.918 2.98084 243.909 2.87961 243.399 3.23834V3.23656Z" fill="#40B683"/>
<path fill-rule="evenodd" clip-rule="evenodd" d="M236.67 2.91514C237.039 2.20124 236.66 1.25116 235.738 1.65783C235.469 1.77504 234.644 2.55819 234.413 2.76952C233.52 3.58463 232.777 4.31274 231.868 5.1616L216.615 19.5585C216.262 19.8906 215.509 20.4002 215.638 21.0431C215.768 21.6824 216.479 21.7676 217.098 22.0003C218.246 22.4318 219.489 22.8527 220.729 23.2878C226.279 25.2377 226.494 24.6481 225.05 27.1876C222.813 31.1175 220.391 36.0686 218.126 40.0696C217.764 40.7107 217.948 41.5862 218.822 41.4388C219.367 41.3482 219.844 40.7409 220.192 40.3911C221.082 39.496 221.881 38.8248 222.751 38.0079C227.513 33.5398 233.48 28.1039 237.992 23.6039C238.373 23.2221 239.11 22.6822 239.151 22.1974C239.222 21.3272 238.467 21.2384 237.855 21.0307L230.531 18.5036C228.613 17.8785 228.658 17.8306 229.747 15.7937C232.053 11.4765 234.452 7.20738 236.668 2.91691L236.67 2.91514Z" fill="#FFC73C"/>
<path fill-rule="evenodd" clip-rule="evenodd" d="M217.729 37.5408L222.956 27.85C223.157 27.1911 222.807 26.9087 222.493 26.3831C222.126 25.7669 222.136 25.6887 221.673 25.1986C220.404 24.7475 215.659 23.2878 214.942 22.6804C213.995 21.876 213.831 20.2955 214.659 19.3543C215.233 18.7025 216.516 17.7613 216.944 17.1309C217.08 16.5377 216.343 15.6907 216.128 15.2875C214.437 12.0999 212.009 8.13261 210.217 4.92896C209.92 4.39976 209.425 3.67698 209.268 3.22059C208.794 2.87607 207.312 2.98973 206.539 2.98795H197.947C198.059 3.68231 199.272 5.58781 199.727 6.46685L202.826 11.8708C203.747 13.3376 204.445 14.7477 205.307 16.211L206.518 18.3651C206.637 18.564 206.763 18.6776 206.861 18.8499C206.981 19.063 207.002 19.1909 207.141 19.4129C207.357 19.7609 207.532 20.0948 207.751 20.4908L212.397 28.5479C212.56 28.7947 212.499 28.848 212.652 29.1446C212.763 29.3559 212.859 29.4358 213.013 29.7199L216.981 36.676C217.427 37.5408 217.456 37.6012 217.727 37.5373L217.729 37.5408Z" fill="#40B683"/>
<path fill-rule="evenodd" clip-rule="evenodd" d="M236.67 2.91513C234.453 7.2056 232.055 11.4748 229.749 15.7919C228.66 17.8306 228.615 17.8767 230.532 18.5018L237.857 21.0289C238.469 21.2366 239.222 21.3254 239.152 22.1956C239.112 22.6804 238.374 23.2221 237.993 23.6021C233.481 28.1021 227.515 33.5398 222.753 38.0061C221.883 38.8212 221.084 39.4942 220.194 40.3893C219.846 40.7391 219.369 41.3465 218.823 41.437C217.949 41.5826 217.766 40.7071 218.128 40.0678C220.393 36.0668 222.814 31.1157 225.052 27.1858C226.498 24.6463 226.281 25.2359 220.73 23.286C219.491 22.8509 218.248 22.43 217.1 21.9985C216.481 21.7659 215.769 21.6806 215.64 21.0413C215.511 20.3984 216.264 19.8905 216.617 19.5567L231.87 5.15981C232.777 4.31095 233.522 3.58107 234.415 2.76773C234.646 2.5564 235.471 1.77503 235.74 1.65604C236.663 1.25115 237.041 2.19946 236.672 2.91335L236.67 2.91513ZM224.398 10.0416L216.946 17.1309C216.517 17.7613 215.234 18.7025 214.661 19.3542C213.832 20.2954 213.997 21.876 214.944 22.6804C215.661 23.2878 220.405 24.7475 221.674 25.1986C221.97 25.2607 222.349 25.4437 222.737 25.5538C223.139 25.6692 223.477 25.8166 223.875 25.9267C223.842 26.2659 223.216 27.612 222.956 27.8482L217.729 37.539C217.386 38.9562 215.761 39.8494 216.696 41.7585C216.979 42.3374 217.523 42.8577 218.257 42.9749C219.287 43.1419 219.605 42.6961 220.362 42.3729C220.559 41.9964 223 39.8565 223.473 39.3966C224.001 38.8798 224.606 38.3737 225.068 37.9137L229.878 33.4048C232.945 30.5226 236.686 27.0845 239.428 24.3089C239.928 23.8028 240.54 23.3517 240.657 22.462C240.951 20.228 238.871 19.7751 237.675 19.3471C237.058 19.1269 235.847 18.6457 235.326 18.5604C234.922 18.4894 234.973 18.4521 234.684 18.3242C234.544 18.2621 234.315 18.1999 234.125 18.1342C233.752 18.0064 233.424 17.8963 233.018 17.7666C232.515 17.605 231.198 17.193 230.833 16.9781C232.684 13.3234 235.093 9.29933 236.866 5.73696C237.037 5.39422 237.163 5.07102 237.364 4.72295C238.147 3.36442 238.472 3.00392 238.189 1.43761C236.261 -1.56004 234.31 0.808959 232.597 2.42676L224.398 10.0434V10.0416Z" fill="#030303"/>
<path fill-rule="evenodd" clip-rule="evenodd" d="M209.27 3.22062C209.427 3.67702 209.922 4.39979 210.219 4.929C212.013 8.13264 214.439 12.1017 216.129 15.2876C216.343 15.6925 217.082 16.5378 216.946 17.1309L224.398 10.0417L223.947 10.3507L221.807 6.70841C221.285 5.65532 220.755 4.87927 220.236 3.96648L219.713 3.03948L209.317 3.00397L209.272 3.22062H209.27Z" fill="#36495E"/>
<path fill-rule="evenodd" clip-rule="evenodd" d="M235.324 18.5604C235.305 18.5444 235.273 18.4965 235.263 18.5142C235.251 18.5355 235.195 18.4627 235.142 18.4165C235.028 18.3171 235.046 18.3384 234.966 18.2496C235.495 16.8822 239.359 10.6596 240.233 8.88374C240.79 7.74896 243.154 3.91844 243.4 3.23651C243.404 3.0163 243.447 3.12818 243.362 2.99855L238.395 3.01098C238.402 2.70198 238.469 2.49065 238.443 2.17455L238.191 1.43579C238.474 3.0021 238.149 3.3626 237.366 4.72113C237.165 5.0692 237.039 5.3924 236.868 5.73514C235.095 9.29751 232.684 13.3216 230.835 16.9763C231.2 17.1894 232.516 17.6032 233.02 17.7648C233.427 17.8944 233.756 18.0045 234.126 18.1324C234.317 18.1981 234.546 18.2603 234.686 18.3224C234.974 18.4503 234.924 18.4894 235.327 18.5586L235.324 18.5604Z" fill="#35495B"/>
<path fill-rule="evenodd" clip-rule="evenodd" d="M222.956 27.8499C223.216 27.6137 223.842 26.2676 223.875 25.9284C223.477 25.8183 223.139 25.6691 222.737 25.5555C222.349 25.4436 221.97 25.2625 221.674 25.2003C222.138 25.6905 222.127 25.7686 222.494 26.3848C222.807 26.9105 223.157 27.1928 222.958 27.8517L222.956 27.8499Z" fill="#334C55"/>
</g>
<defs>
<clipPath id="clip0_163_2">
<rect width="450" height="53" fill="white"/>
</clipPath>
</defs>
</svg>
