<svg width="66" height="16" viewBox="0 0 66 16" fill="none" xmlns="http://www.w3.org/2000/svg">
<rect width="66" height="16"/>
<path d="M24.2999 16C23.9292 16 23.5969 15.919 23.3035 15.7569C23.0102 15.5948 22.7816 15.3735 22.6177 15.0928C22.4539 14.8119 22.3719 14.4986 22.3719 14.1531C22.3719 13.7318 22.4717 13.371 22.6717 13.0704C22.8715 12.7698 23.1532 12.5509 23.517 12.4143V12.8571C23.2613 12.9652 23.0615 13.13 22.9174 13.3513C22.7733 13.5726 22.7013 13.8401 22.7013 14.1533C22.7013 14.4305 22.7661 14.6798 22.8957 14.9013C23.0253 15.1228 23.2116 15.2965 23.4547 15.4226C23.6977 15.5487 23.9795 15.6116 24.2997 15.6116C24.6202 15.6116 24.9009 15.5487 25.1423 15.4226C25.3835 15.2965 25.569 15.1228 25.6986 14.9013C25.8282 14.68 25.893 14.4305 25.893 14.1533C25.893 13.8401 25.822 13.5728 25.6798 13.3513C25.5375 13.1298 25.3404 12.9652 25.0883 12.8571V12.4143C25.4483 12.5511 25.7274 12.7706 25.9255 13.0731C26.1234 13.3755 26.2226 13.7355 26.2226 14.1531C26.2226 14.4986 26.1406 14.8121 25.9768 15.0928C25.8131 15.3735 25.5854 15.595 25.2937 15.7569C25.002 15.919 24.6707 16 24.2999 16ZM24.7105 11.8361C24.408 11.8361 24.1426 11.7756 23.9138 11.6551C23.6853 11.5346 23.5089 11.3672 23.3847 11.1529C23.2605 10.9386 23.1984 10.6966 23.1984 10.4264C23.1984 10.1455 23.2632 9.90349 23.3928 9.69999C23.5224 9.49648 23.688 9.34991 23.8896 9.25985H23.2416V8.88182H26.1903V9.25985H25.5369C25.7386 9.35342 25.905 9.50186 26.0365 9.70537C26.1679 9.90888 26.2336 10.1509 26.2336 10.4318C26.2336 10.6983 26.1706 10.9386 26.0445 11.1529C25.9187 11.3672 25.7404 11.5346 25.5098 11.6551C25.2794 11.7756 25.0129 11.8361 24.7105 11.8361ZM24.7158 9.26006C24.4782 9.26006 24.2693 9.3085 24.0894 9.4058C23.9093 9.5031 23.7708 9.63539 23.6735 9.80288C23.5764 9.97036 23.5277 10.1548 23.5277 10.3565C23.5277 10.5651 23.5745 10.7525 23.6681 10.9181C23.7617 11.0837 23.8977 11.2142 24.0759 11.3096C24.2542 11.4051 24.4658 11.4529 24.7105 11.4529C24.9517 11.4529 25.1632 11.4051 25.345 11.3096C25.5268 11.2142 25.6655 11.0837 25.7607 10.9181C25.8561 10.7525 25.904 10.5651 25.904 10.3565C25.904 10.1548 25.8553 9.97036 25.7582 9.80288C25.6609 9.63539 25.5224 9.5031 25.3423 9.4058C25.1624 9.3085 24.9535 9.26006 24.7158 9.26006V9.26006ZM23.56 7.52642H25.3908C25.5709 7.52642 25.6951 7.49226 25.7634 7.42373C25.8317 7.35542 25.8659 7.23472 25.8659 7.06185V6.71612H26.1899V7.12106C26.1899 7.38751 26.1278 7.58563 26.0035 7.71523C25.8793 7.84483 25.675 7.90963 25.3905 7.90963H23.5598V8.32016H23.2412V7.90963H22.5013V7.52621H23.2412V6.71612H23.5598V7.52621L23.56 7.52642ZM24.7158 6.26812C24.4097 6.26812 24.1424 6.20684 23.9138 6.08449C23.6853 5.96213 23.5089 5.79279 23.3847 5.57686C23.2605 5.36093 23.1984 5.11415 23.1984 4.83695C23.1984 4.47341 23.2884 4.17363 23.4683 3.93783C23.6484 3.70203 23.8931 3.54987 24.2028 3.48155V3.8867C23.9904 3.93721 23.824 4.04611 23.7033 4.21338C23.5828 4.38087 23.5224 4.58872 23.5224 4.83715C23.5224 5.03528 23.5673 5.21353 23.6573 5.3719C23.7474 5.53028 23.8813 5.65553 24.0596 5.74724C24.2378 5.83916 24.4564 5.88512 24.7158 5.88512C24.975 5.88512 25.1947 5.83916 25.3748 5.74724C25.5547 5.65553 25.6897 5.53028 25.7798 5.3719C25.8698 5.21353 25.9147 5.03528 25.9147 4.83715C25.9147 4.58872 25.8545 4.38087 25.7338 4.21338C25.6133 4.0459 25.445 3.937 25.2289 3.8867V3.48155C25.5313 3.55007 25.7744 3.70307 25.958 3.94073C26.1416 4.1784 26.2333 4.47714 26.2333 4.83715C26.2333 5.11436 26.1712 5.36114 26.047 5.57706C25.9228 5.79299 25.7464 5.96234 25.5177 6.08469C25.2891 6.20704 25.0216 6.26832 24.7156 6.26832L24.7158 6.26812ZM23.1874 1.38044C23.1874 1.15727 23.2342 0.956452 23.3277 0.778203C23.4213 0.599954 23.5646 0.459591 23.7571 0.356906C23.9499 0.254221 24.1846 0.203087 24.4618 0.203087H26.1901V0.575733H24.5051C24.1846 0.575733 23.9399 0.655852 23.7706 0.81609C23.6012 0.976328 23.5168 1.19495 23.5168 1.47236C23.5168 1.75682 23.6068 1.98351 23.7867 2.15286C23.9666 2.322 24.2314 2.40667 24.5807 2.40667H26.1901V2.7847H22.1937V2.40667H23.7437C23.5673 2.31309 23.4304 2.17542 23.3331 1.99345C23.2358 1.81168 23.1872 1.60734 23.1872 1.38044H23.1874Z" fill="#127789"/>
<path d="M28.859 1.16659V2.42842C28.859 2.51392 28.8789 2.5754 28.9191 2.61246C28.959 2.64973 29.0274 2.66836 29.1238 2.66836H29.4133V3.06129H29.041C28.8286 3.06129 28.6659 3.01161 28.5529 2.91223C28.4398 2.81307 28.3831 2.65159 28.3831 2.42821V1.16638H28.1144V0.78173H28.3831V0.214893H28.8588V0.78173H29.4133V1.16638H28.8588L28.859 1.16659ZM31.0268 0.744672C31.2005 0.744672 31.3558 0.781937 31.4922 0.856466C31.6286 0.930788 31.7363 1.04113 31.815 1.18729C31.8936 1.33345 31.9327 1.51005 31.9327 1.71687V3.06129H31.4653V1.78705C31.4653 1.58292 31.4142 1.42641 31.3121 1.31751C31.21 1.20862 31.0709 1.15417 30.8941 1.15417C30.7177 1.15417 30.5778 1.20862 30.4743 1.31751C30.3707 1.42641 30.319 1.58292 30.319 1.78705V3.06129H29.8474V0H30.319V1.04672C30.3989 0.95025 30.5003 0.87572 30.6231 0.823343C30.7459 0.770965 30.8802 0.744672 31.0264 0.744672H31.0268ZM34.6218 1.86592C34.6218 1.95143 34.6162 2.02865 34.6052 2.09759H32.8635C32.8774 2.27977 32.9449 2.42572 33.0662 2.53627C33.1875 2.64662 33.3366 2.70169 33.513 2.70169C33.7668 2.70169 33.9459 2.59548 34.0508 2.38308H34.5597C34.4907 2.59259 34.3659 2.76442 34.1852 2.89816C34.0044 3.03189 33.7804 3.09877 33.513 3.09877C33.295 3.09877 33.1 3.0497 32.9275 2.95198C32.7551 2.85406 32.6199 2.71618 32.5221 2.53834C32.4242 2.3603 32.3754 2.15431 32.3754 1.91975C32.3754 1.6854 32.423 1.4792 32.518 1.30136C32.613 1.12353 32.747 0.986271 32.9194 0.88959C33.0917 0.793116 33.2896 0.744879 33.513 0.744879C33.7281 0.744879 33.9198 0.791668 34.0881 0.88545C34.2564 0.979233 34.3872 1.1109 34.4812 1.28066C34.575 1.45022 34.6218 1.64544 34.6218 1.86613V1.86592ZM34.1295 1.71687C34.1268 1.54317 34.0647 1.40384 33.9432 1.29909C33.8219 1.19433 33.6716 1.14196 33.4923 1.14196C33.3295 1.14196 33.1902 1.19371 33.0745 1.29702C32.9586 1.40053 32.8896 1.54048 32.8677 1.71687H34.1295V1.71687Z" fill="#127789"/>
<path d="M34.8164 9.83911C35.4731 9.96146 36.0132 10.29 36.4362 10.8243C36.8593 11.3587 37.0707 11.9711 37.0707 12.6613C37.0707 13.2846 36.9175 13.8328 36.6113 14.3061C36.3051 14.7792 35.8625 15.1495 35.2837 15.4166C34.7048 15.6839 34.0202 15.8174 33.2298 15.8174H28.2034V4.16142H33.0126C33.803 4.16142 34.485 4.28957 35.0582 4.54566C35.6317 4.80176 36.0658 5.15784 36.3606 5.61433C36.6558 6.07082 36.8032 6.58839 36.8032 7.16744C36.8032 7.84648 36.6223 8.41436 36.2604 8.87085C35.8987 9.32713 35.4172 9.65009 34.816 9.83932L34.8164 9.83911ZM30.5415 8.97064H32.6789C33.2356 8.97064 33.6641 8.84538 33.9647 8.59488C34.2653 8.34438 34.4156 7.9854 34.4156 7.51773C34.4156 7.05006 34.2653 6.68838 33.9647 6.43229C33.6641 6.1762 33.2356 6.04805 32.6789 6.04805H30.5415V8.97043V8.97064ZM32.896 13.9136C33.4639 13.9136 33.9063 13.7801 34.2235 13.5128C34.5408 13.2455 34.6994 12.8671 34.6994 12.3772C34.6994 11.8764 34.5326 11.4839 34.1984 11.2001C33.8645 10.9163 33.4136 10.7742 32.8459 10.7742H30.5415V13.9136H32.896V13.9136ZM47.541 10.9912C47.541 11.3251 47.5188 11.6257 47.4743 11.893H40.7112C40.7669 12.5611 41.0006 13.0842 41.4126 13.4627C41.8246 13.8411 42.3312 14.0306 42.9322 14.0306C43.8005 14.0306 44.4184 13.6575 44.7857 12.9116H47.3073C47.04 13.8022 46.528 14.534 45.7709 15.1075C45.0138 15.6808 44.0845 15.9675 42.9823 15.9675C42.0917 15.9675 41.2928 15.7698 40.586 15.3748C39.879 14.9796 39.3279 14.4202 38.9327 13.6966C38.5375 12.9731 38.34 12.1379 38.34 11.1918C38.34 10.2343 38.5348 9.3938 38.9244 8.67024C39.314 7.94648 39.8595 7.38999 40.5609 7.00037C41.2623 6.61075 42.0695 6.41594 42.9823 6.41594C43.8617 6.41594 44.6495 6.60516 45.3451 6.98381C46.0409 7.36225 46.5808 7.89948 46.9648 8.5953C47.3491 9.29111 47.541 10.0898 47.541 10.9916V10.9912ZM45.1196 10.3233C45.1084 9.72214 44.8915 9.2406 44.4683 8.87892C44.0452 8.51704 43.5276 8.3361 42.9154 8.3361C42.3366 8.3361 41.8495 8.51145 41.4542 8.86215C41.059 9.21286 40.817 9.69978 40.7278 10.3233H45.1196V10.3233ZM48.6432 11.1583C48.6432 10.2231 48.8297 9.3938 49.2026 8.67003C49.5756 7.94627 50.082 7.38978 50.7223 7.00016C51.3625 6.61054 52.0777 6.41573 52.8681 6.41573C53.5584 6.41573 54.1625 6.55485 54.68 6.8333C55.1978 7.11154 55.6125 7.46224 55.924 7.8854V6.56624H58.2785V15.8174H55.924V14.4649C55.6234 14.899 55.2088 15.258 54.68 15.5418C54.1513 15.8259 53.5418 15.9677 52.8516 15.9677C52.0721 15.9677 51.3625 15.7673 50.7223 15.3665C50.0822 14.9657 49.5756 14.4007 49.2026 13.6716C48.8297 12.9424 48.6432 12.1046 48.6432 11.1585V11.1583ZM55.9238 11.1916C55.9238 10.6237 55.8125 10.1368 55.5899 9.73042C55.3674 9.32403 55.0668 9.01245 54.6881 8.79528C54.3097 8.57811 53.9033 8.46963 53.4689 8.46963C53.0348 8.46963 52.634 8.57542 52.2667 8.7868C51.8995 8.99838 51.6016 9.30726 51.3734 9.71344C51.1453 10.1198 51.031 10.6014 51.031 11.1581C51.031 11.7148 51.1451 12.2017 51.3734 12.6191C51.6016 13.0366 51.9022 13.3567 52.2752 13.5792C52.6483 13.802 53.0462 13.9132 53.4691 13.9132C53.9035 13.9132 54.3097 13.8047 54.6883 13.5875C55.0668 13.3706 55.3674 13.0588 55.5901 12.6524C55.8129 12.246 55.924 11.7591 55.924 11.1914L55.9238 11.1916ZM62.9041 8.00196C63.2047 7.51214 63.5972 7.1281 64.0814 6.84986C64.5657 6.57162 65.1197 6.43229 65.743 6.43229V8.887H65.1251C64.3903 8.887 63.8365 9.05945 63.4635 9.40456C63.0906 9.74967 62.9041 10.3509 62.9041 11.208V15.817H60.5662V6.56582H62.9041V8.00196V8.00196Z" fill="#D4F6FF"/>
</svg>
