<svg width="450" height="53" viewBox="0 0 450 53" fill="none" xmlns="http://www.w3.org/2000/svg">
<g clip-path="url(#clip0_163_2)">
<path fill-rule="evenodd" clip-rule="evenodd" d="M415.621 5.81456C416.064 6.45924 419.607 9.79628 420.661 10.8334C422.279 12.4265 421.334 11.7641 423.225 11.7641C425.453 11.7641 427.162 13.4601 427.162 15.9092C427.162 17.623 426.413 16.4952 429.652 19.6813C430.464 20.4769 432.402 22.1908 432.92 22.9704C433.697 22.9118 433.318 22.8354 434.617 22.8354C437.64 22.8354 439.776 26.62 437.394 29.4473C435.135 32.106 430.249 30.4543 430.249 26.8509C430.249 26.0997 430.477 25.7089 430.54 25.0447C429.531 24.3858 425.747 20.0134 424.907 19.7896V34.1839C425.639 34.6634 425.885 34.7273 426.417 35.4626C428.263 38.0146 426.585 41.8028 423.09 41.8028C419.748 41.8028 418.05 38.1229 419.732 35.5993C422.187 31.9177 421.671 39.565 421.671 19.7932C421.671 19.2799 421.258 19.4149 420.529 18.8448C419.122 17.7633 418.683 15.6587 419.429 14.1261L413.278 8.13042C412.59 8.59573 399.462 21.6686 397.813 23.2919C396.376 24.7055 396.115 24.8263 396.086 26.4921V26.8509C396.086 28.2947 397.596 29.3745 398.866 30.623L418.831 50.2741C420.39 51.8228 420.923 52.9327 423.151 53.0109H423.364C425.042 53.0109 426.341 51.2527 427.27 50.3523L447.161 30.7598C448.72 29.2254 449.862 28.6855 449.942 26.5063V26.2986C449.942 24.6167 448.17 23.3824 447.241 22.4678L425.578 1.14732C424.618 0.202509 424.264 0.0337925 423.304 0.00360107H423.077H422.817H422.527C421.016 0.00360107 419.687 1.76181 418.831 2.60362C418.039 3.38504 416.159 5.05445 415.627 5.81989V5.81634L415.621 5.81456Z" fill="#EF5032"/>
<path d="M226.628 0H172.773V53.0091H226.628V0Z" fill="#F7DF1E"/>
<path fill-rule="evenodd" clip-rule="evenodd" d="M208.859 41.4848L204.877 43.7527C205.503 45.3617 207.245 46.8482 208.722 47.6616C214.096 50.5582 223.53 48.5034 222.338 40.6003C221.437 34.5745 213.731 34.2299 211.865 32.0224C209.803 29.5858 213.897 26.4619 216.566 29.8575L217.116 30.4578C218.247 29.8717 219.893 28.506 220.916 28.1455C219.207 23.1284 208.737 22.0912 206.674 28.5966C205.987 30.7473 206.461 33.1963 207.53 34.6988C209.926 38.066 215.481 38.6183 216.948 40.6323C218.581 42.9038 216.017 44.5252 213.695 44.4346C212.169 44.3902 210.61 43.6834 209.758 42.5876L208.858 41.4883V41.4848H208.859Z" fill="black"/>
<path fill-rule="evenodd" clip-rule="evenodd" d="M187.029 44.3566C189.198 49.6597 198.45 50.6826 201.196 45.4702C202.51 42.9607 202.097 38.4089 202.097 35.3418L202.111 24.3273L197.043 24.3894C197.091 29.0922 197.043 33.8092 197.043 38.5279C197.043 40.6786 197.456 43.5468 195.61 44.2057C192.893 45.1842 191.855 43.1241 191.074 41.8312L187.029 44.3548V44.3566Z" fill="black"/>
<path fill-rule="evenodd" clip-rule="evenodd" d="M295.63 0.0319824H246.33L251.492 47.4894L270.981 53.0091L290.464 47.4894L295.63 0.0319824Z" fill="#E55126"/>
<path fill-rule="evenodd" clip-rule="evenodd" d="M290.803 4.58905L270.981 4.5926V49.5778L286.384 45.2178L290.803 4.58905Z" fill="#F1672C"/>
<path fill-rule="evenodd" clip-rule="evenodd" d="M262.711 15.5964L263.195 21.6294H285.34L283.62 40.1083L270.981 43.8787L258.336 40.4848L257.569 31.0562H263.698L264.085 35.9579L270.981 37.8422L277.875 35.9579L278.642 27.6623H257.185L255.884 9.18341H286.303L285.536 15.5964H262.711Z" fill="white"/>
<path fill-rule="evenodd" clip-rule="evenodd" d="M262.711 15.5964L263.195 21.6294H270.979V27.6623H257.188L255.882 9.18341H270.979V15.5964H262.715H262.711V15.5964ZM270.975 43.8787L258.33 40.4848L257.564 31.0562H263.693L264.076 35.9579L270.975 37.8422V43.8751V43.8787V43.8787Z" fill="#CED1DB"/>
<path fill-rule="evenodd" clip-rule="evenodd" d="M320.262 48.9972C316.789 48.9972 319.014 43.9108 320.777 42.4492C321.237 42.0727 321.535 41.8116 322 41.4298C322.489 41.0319 322.758 40.8082 323.303 40.4494C323.792 40.1102 324.117 39.8687 324.631 39.5277L327.426 37.805C327.48 38.5474 327.776 39.4265 327.776 40.286C327.776 42.6303 326.693 44.813 325.551 46.0952C324.328 47.4183 322.186 48.9989 320.261 48.9989L320.264 48.9936L320.262 48.9972ZM352.19 42.2876L355.528 38.4035C355.528 40.3447 353.222 42.2094 352.19 42.2876ZM362.361 39.9273C362.361 39.0855 362.471 38.9434 362.686 38.384C363.146 37.2633 364.124 35.7413 365.102 35.0984C365.127 35.9829 365.641 37.2225 364.369 38.725C363.965 39.1849 363.096 39.8669 362.363 39.9291L362.361 39.9273ZM337.241 42.1721C336.263 41.5328 336.483 39.5668 336.509 38.5296C336.619 35.4465 338.954 30.1772 341.528 29.6587C342.317 29.4811 342.263 30.0405 342.097 30.8415C342.017 31.4222 341.797 32.0811 341.61 32.7044C341.259 33.9086 340.85 34.9706 340.39 36.1072L338.762 40.1333C338.412 40.8544 338.084 41.975 337.245 42.1792L337.241 42.1757V42.1721ZM311.632 20.9866C311.632 23.6293 312.257 24.9328 313.828 26.9326C317.002 30.916 325.002 35.4643 325.627 36.4038C323.835 36.8851 318.139 40.7691 316.813 42.0922C316.268 42.6143 315.864 43.0352 315.4 43.6355C312.904 46.8394 313.309 53.0091 318.435 53.0091C321.065 53.0091 323.047 52.6112 325.082 51.2882C326.495 50.3664 327.687 49.2049 328.635 47.8446C330.507 45.1806 331.404 40.2559 329.694 36.7696L333.517 34.6456C333.407 35.9083 332.674 37.1106 332.674 39.9326C332.674 41.4138 333.189 43.1986 333.678 44.2607C334.302 45.5997 335.06 46.6635 336.687 46.5836C339.047 46.4415 340.217 42.7209 341.029 40.8579L341.303 40.4175C341.303 41.6997 341.003 43.0601 341.518 44.3015C341.925 45.2232 342.44 45.6051 343.443 45.6051C344.635 45.6051 345.938 43.5005 346.427 42.6428C347.676 40.5187 351.772 32.6671 352.286 30.4063C352.316 30.4277 352.34 30.4436 352.34 30.4845C352.34 30.5218 352.371 30.5431 352.371 30.5626C352.616 31.1594 352.235 30.1222 352.45 30.7402L353.208 33.5036C354.59 37.4498 355.46 35.3045 351.826 39.7106C350.902 40.8526 349.305 42.1757 349.305 43.6977C349.305 44.2163 350.227 44.6549 350.851 44.6549C354.16 44.6549 358.637 42.6143 358.637 38.9878L358.366 36.8052C358.121 35.926 357.663 35.5229 358.121 34.8427C359.341 33.1591 360.402 31.3991 361.351 29.5361C361.594 29.0761 361.73 28.5558 362.109 28.2734C362.163 30.3975 363.711 32.8217 363.897 33.7008C363.547 34.2034 363.058 34.5852 362.623 35.0239C359.532 38.0288 358.879 42.2929 361.266 42.2929C363.951 42.2929 368.317 39.613 368.317 36.6453C368.317 35.3045 367.964 34.7024 367.72 33.7025C368.398 33.5409 368.994 33.2621 369.671 33.1431C373.523 32.4416 378.431 32.9229 380.847 35.9687C382.368 37.869 382.07 40.3748 380.033 41.6731C379.574 41.9714 379.354 41.9714 379.329 42.657C380.008 42.657 380.603 42.4794 381.092 42.1597C383.833 40.3766 383.997 37.1355 382.315 34.5497C381.747 33.7079 381.041 32.9264 380.199 32.3883C376.834 30.1843 372.198 29.8238 368.37 31.289C367.855 31.4666 367.31 31.8111 366.767 31.8289C366.632 31.2055 366.062 30.385 365.789 29.7244C365.194 28.2645 365.221 26.0392 365.654 24.4959C365.979 23.354 366.982 22.0522 364.487 22.0522C362.127 22.0522 361.771 22.3719 361.396 23.592C361.206 24.1727 361.122 24.812 360.936 25.3555C360.692 25.9575 360.447 26.4584 360.178 26.9983L357.711 31.4844C357.466 31.8626 356.954 32.605 356.844 32.9868H356.6C356.111 30.9462 355.651 32.0864 355.651 28.4031C355.651 25.9789 358.121 24.1585 354.323 24.1585C351.203 24.1585 352.096 25.4621 351.149 27.6234C349.767 30.726 348.329 33.6688 346.972 36.8336C346.618 37.6754 345.262 40.8384 344.637 41.2397C344.092 38.9168 346.429 33.9494 346.429 31.8253C346.429 31.3849 345.561 30.8841 345.126 30.8841C344.612 30.8841 344.448 31.1238 344.044 31.2233C344.422 30.4632 344.179 28.7014 343.879 28.0781C342.984 26.0943 340.435 26.9166 339.053 27.7388C337.995 28.3604 336.911 29.1987 336.123 30.1417C335.038 31.5021 334.6 31.5643 333.003 32.3652L328.366 34.8676L325.246 32.1876C324.703 31.765 324.218 31.3671 323.646 30.948C321.175 29.1259 317.137 26.2417 317.137 22.878V21.6952C317.137 16.6284 323.591 12.2631 327.554 9.91879C329.885 8.53709 332.301 7.37561 335.011 6.33312C339.134 4.7898 345.947 3.30865 350.424 5.39186C356.497 8.2334 350.859 17.4862 341.904 20.6527C338.62 21.8142 333.901 22.6986 330.538 20.9919C329.696 20.5693 328.147 18.6281 328.147 19.9299C328.147 20.69 328.662 21.4324 329.069 21.8338C332.949 25.78 340.245 24.4764 344.857 22.9757C346.894 22.3168 348.955 21.2548 350.472 20.0134C352.044 18.7525 353.536 17.3281 354.624 15.6072C356.091 13.2629 356.849 11.3413 356.849 8.15881C356.849 2.32831 349.767 0.0302124 344.641 0.0302124C338.237 0.0302124 333.331 1.87189 328.091 4.35824C326.628 5.03844 325.136 5.81809 323.779 6.70252C322.123 7.78586 320.47 8.80704 318.949 10.0875C318.758 10.2491 318.729 10.2864 318.514 10.4693C318.27 10.6469 318.27 10.631 318.054 10.8316C316.343 12.4744 314.691 14.1332 313.442 16.2004C312.818 17.2003 311.625 19.5037 311.625 21.0062V20.9848L311.632 20.9866Z" fill="#CF6499"/>
</g>
<defs>
<clipPath id="clip0_163_2">
<rect width="450" height="53" fill="white"/>
</clipPath>
</defs>
</svg>
