<svg width="66" height="66" viewBox="0 0 66 66" fill="none" xmlns="http://www.w3.org/2000/svg">
<rect width="66" height="66" fill="transparent"/>
<path fill-rule="evenodd" clip-rule="evenodd" d="M53.5072 10.6118H12.4958L16.79 50.7198L33.0015 55.3852L49.21 50.7198L53.5072 10.6118Z" fill="#0C73B8"/>
<path fill-rule="evenodd" clip-rule="evenodd" d="M49.4915 14.4636L33.0016 14.4667V52.4863L45.8161 48.8016L49.4915 14.4636Z" fill="#30A9DC"/>
<path fill-rule="evenodd" clip-rule="evenodd" d="M21.3472 24.5462L20.416 19.4167H45.584L43.2544 44.5847L33.4656 47.5331L22.7456 44.5847L21.8144 36.6646H26.9408L27.408 40.8567L33.4656 42.5026L39.0592 40.8567L39.5264 34.335H27.872L27.408 29.6726H39.5264L39.9904 24.5462H21.3472Z" fill="white"/>
<path fill-rule="evenodd" clip-rule="evenodd" d="M21.3472 24.5462L20.416 19.4167H33.0016V24.5462H21.3472V24.5462ZM33.0016 47.4032L22.7456 44.5847L21.8144 36.6615H26.9408L27.408 40.8567L33.0016 42.3758V47.4032V47.4032ZM33.0016 34.3319H27.872L27.408 29.6695H33.0016V34.3319Z" fill="#CED1DB"/>
</svg>
