<svg width="66" height="66" viewBox="0 0 66 66" fill="none" xmlns="http://www.w3.org/2000/svg">
<path fill-rule="evenodd" clip-rule="evenodd" d="M36.6205 45.7143C35.3175 50.1931 28.8098 48.4064 29.8615 44.0572C30.2564 42.4236 31.8901 40.9319 34.1019 41.494C35.6497 41.8875 37.2258 43.6336 36.6205 45.7143V45.7143ZM51.5152 38.8343C50.4158 38.8343 49.6022 40.2792 48.5029 40.2798L29.0087 40.2985C24.6768 40.3032 20.3446 40.3046 16.0127 40.3014C11.6802 40.2982 7.23377 40.1942 2.91589 40.2932C2.83029 41.2491 2.80429 44.3111 2.9416 45.2065C3.17064 46.6997 3.9045 47.6667 4.71111 48.3847C6.75699 50.206 10.2128 49.6836 13.3939 49.6822L58.1059 49.6994C60.8538 49.6897 63.0595 48.0079 63.5462 45.2404C63.6891 44.428 63.6593 41.2486 63.5836 40.3298C62.9727 40.2009 58.3995 38.8366 57.1378 38.8445C53.6922 38.8664 57.6505 38.834 51.5152 38.834V38.8343Z" fill="#C7C7C7"/>
<path fill-rule="evenodd" clip-rule="evenodd" d="M25.1886 6.91996C25.1886 5.92638 25.5374 5.65118 26.4872 5.65147L38.3196 5.66404C43.5943 5.66813 43.7257 5.17849 43.7257 7.50191V15.0667C43.7257 16.0088 43.6857 15.9025 44.0874 16.5747L51.3019 29.0455C51.6314 29.6143 52.6133 31.0008 51.4973 31.4393C51.0407 31.619 37.7447 31.4107 35.7011 31.5573C35.2486 32.1547 35.2597 32.5334 34.2614 33.7978C32.4344 36.111 29.6824 37.3827 26.4875 37.3827C21.4717 37.3827 17.2368 33.1007 16.9896 28.2596C16.8391 25.3122 17.7217 23.3744 19.332 21.2943C19.9134 20.5435 20.98 19.7039 21.8894 19.1961C23.8605 18.0962 24.5348 18.2881 25.191 17.9551L25.1892 6.91938L25.1886 6.91996ZM17.107 3.04935L15.8061 3.13203C15.3437 4.15979 14.8949 3.92286 13.6849 3.92082C12.6828 3.91906 11.6805 3.91819 10.6784 3.9176C8.61647 3.91643 7.0722 3.69966 5.43065 4.67776C2.07684 6.67661 2.89221 10.5011 2.89221 14.2907V32.33C2.89221 34.2459 2.77331 36.579 2.91237 38.444C5.45606 38.5977 12.8298 38.4326 15.9157 38.4253L51.6066 38.477C51.6066 38.477 52.0658 39.2836 52.7556 39.3313C55.7918 39.5413 63.9543 39.3313 63.9543 39.3313C64.0893 36.049 63.6026 31.5696 63.6026 28.2564C63.6026 24.8295 63.6038 21.4027 63.6026 17.9758C63.602 16.1581 63.7346 9.22118 63.4621 7.97226C63.1512 6.54806 62.283 5.53988 61.3954 4.88781C60.1495 3.97253 59.0449 3.91468 57.2315 3.91468L18.8251 3.92403C17.8748 3.92841 17.2928 3.9661 17.107 3.04877V3.04935Z" fill="white"/>
<path fill-rule="evenodd" clip-rule="evenodd" d="M14.6551 62.0118C13.6595 62.0124 12.8908 61.7872 12.8707 60.7469C12.8523 59.788 13.6028 59.441 14.4611 59.4389L49.6668 59.4179C50.9262 59.4167 52.7886 59.2052 53.3451 59.8821C53.694 60.3066 53.7842 60.9832 53.4056 61.4787C52.7746 62.3049 50.9125 62.0329 49.6668 62.0308L14.6551 62.0118V62.0118ZM21.2941 57.5897C21.2973 57.2782 23.8158 52.2014 24.1635 51.5356L42.296 51.5256C42.5148 51.7804 45.204 57.2587 45.2478 57.604L21.2941 57.5897V57.5897ZM4.7111 2.85187L4.5513 2.90037C4.33687 3.16943 3.99652 3.32807 3.71314 3.54104C3.38185 3.79053 3.30823 3.95442 2.96291 4.2492C2.41427 4.7175 2.22496 5.20889 1.78879 5.86241L1.16185 7.43006L1.01139 8.7745L1.00117 10.2156L1.00292 11.6819L1.00117 13.133L1.00146 14.57L1.00234 16.0308L1.00292 17.5087L1.00409 18.9326L1.00146 20.403V21.852L1.00234 23.3124L1.00088 24.7711L1.00117 26.2082L1.00205 27.6689L1.00292 29.1506L1.00409 30.5687L1.00146 32.0408L1.00292 33.4802L1.00146 34.9523L1 36.4168L1.00175 37.8483L1.00205 39.307L1.00263 40.7888L1.0038 42.2068L1.00117 43.6789L1.01899 45.1385L1.2267 46.516C1.56705 46.8616 1.77155 47.6927 2.04996 48.1374C2.42011 48.7287 2.66054 48.9817 3.05757 49.4833L3.23987 49.7106C3.56268 49.8727 3.67574 50.0228 4.00002 50.2554C5.30678 51.1929 6.31585 51.2265 6.58491 51.4824L7.60186 51.5876L9.21829 51.6054L10.4874 51.6057H12.1324H13.3942H15.0419L16.3069 51.6048L17.9516 51.6051L19.2134 51.6106L21.9669 51.5905C21.8816 51.8838 21.8328 52.1532 21.621 52.3086C21.4261 52.8283 20.3557 55.2364 20.0323 55.469C20.0039 56.1833 19.3674 56.8789 19.1214 57.542C17.4719 57.5806 13.8648 57.254 12.686 57.902C9.81281 59.4813 11.388 62.2675 11.4079 62.507C11.7521 62.7069 11.5771 62.6475 11.8163 62.9055C13.0553 64.2391 14.9224 63.8862 16.2064 63.921C19.9476 64.0227 24.8506 63.9341 28.7174 63.9412C30.7902 63.945 32.9582 63.9818 35.0216 63.9356C39.1657 63.843 43.3769 63.9406 47.5326 63.9125C50.6621 63.8912 53.9078 64.6128 55.1427 62.2476C55.6399 61.2955 55.5879 60.7133 55.3899 59.6125C55.2692 59.4722 55.1263 59.1173 54.9809 58.921C54.7804 58.6504 54.5844 58.5587 54.5152 58.3151L54.0907 58.0691C52.5704 57.1027 49.4514 57.7068 47.4053 57.5432L47.1862 56.9648C47.0512 56.8377 47.1926 57.0024 47.0363 56.7886L46.3445 55.4339C46.0865 54.819 45.7812 54.3533 45.5954 53.7629L44.5402 51.6089L45.4146 51.6004L47.0392 51.6025L48.3156 51.6022H49.9542L51.2186 51.6025L52.8663 51.6031H54.1281L55.7758 51.6022H57.0402L58.675 51.5943C59.0536 51.5709 59.2415 51.4655 59.6128 51.5581L59.9686 51.3775C60.0405 51.355 60.2017 51.329 60.2955 51.3062C63.1991 50.6019 65.5267 47.6509 65.5237 44.2574C65.5199 39.8942 65.496 35.5267 65.5103 31.1644C65.5313 24.7787 65.6029 17.8435 65.5135 11.4762C65.4697 8.34593 65.7011 6.30472 63.1889 3.96611C60.744 1.69031 58.7612 2.05549 55.2911 2.02452C50.9501 1.98567 46.5394 1.99531 42.1981 2.03709C35.636 2.10048 29.1212 1.96142 22.6069 2.02452C21.5067 2.03533 20.4062 2.01138 19.3095 2.03095C18.2084 2.05082 17.1158 1.79315 17.1065 3.04761C17.292 3.96494 17.8742 3.92755 18.8246 3.92287L57.2309 3.91352C59.0443 3.91323 60.1489 3.97108 61.3949 4.88665C62.2824 5.53843 63.1507 6.54691 63.4615 7.97111C63.7341 9.22031 63.6017 16.157 63.602 17.9747C63.6032 21.4015 63.602 24.8284 63.602 28.2552C63.602 31.5684 63.727 35.1291 63.5924 38.4113C61.0548 38.9892 55.3992 37.4916 55.4544 39.4063C55.4787 40.2533 56.1453 40.2866 56.9394 40.2813C58.2012 40.2731 62.9721 40.1992 63.5833 40.3281C63.6593 41.2469 63.6888 44.4265 63.5459 45.2387C63.0589 48.0059 60.8535 49.6878 58.1056 49.6977L13.3936 49.6805C10.2125 49.6819 6.75669 50.2043 4.71081 48.383C3.9042 47.665 3.17034 46.6977 2.9413 45.2048C2.80399 44.3094 2.82999 41.2474 2.91559 40.2915C7.23347 40.1925 11.6799 40.2962 16.0124 40.2997C20.3443 40.3029 24.6765 40.3015 29.0084 40.2968L48.5026 40.2781C49.6019 40.2775 50.7009 40.2781 51.8 40.2781C52.795 40.2781 54.0916 40.5448 54.0559 39.3123C54.0235 38.1913 52.6726 38.4759 51.606 38.4753L15.9151 38.4236C12.8292 38.4309 5.45519 38.5959 2.91179 38.4423C2.77273 36.5772 2.89163 34.2442 2.89163 32.3283V14.289C2.89163 10.4993 2.07626 6.67487 5.43007 4.67602C7.07162 3.69763 8.61589 3.91469 10.6778 3.91586C11.6802 3.91645 12.6822 3.91732 13.6843 3.91907C14.8946 3.92112 15.3431 4.15834 15.8056 3.13029C15.7921 1.84164 14.7544 2.00816 13.5873 2.0289C11.4506 2.06688 7.59251 1.81038 5.86419 2.38941C5.40845 2.5422 5.14844 2.71983 4.71022 2.84983L4.7111 2.85187Z" fill="#3F4B59"/>
<path fill-rule="evenodd" clip-rule="evenodd" d="M18.8643 27.9656C18.639 25.6603 19.9186 23.4006 21.0001 22.2852C26.1132 17.0131 34.3187 20.7178 34.6 27.2878C34.8618 33.4012 27.6429 38.5982 21.3034 33.3422C19.8561 32.1424 19.0597 29.9648 18.8643 27.9656ZM34.5109 21.7587C34.6634 21.2393 35.4975 19.9395 35.7975 19.4312C36.5442 18.1662 39.097 13.5585 39.6696 12.7566C39.9985 13.0505 44.0103 20.1619 44.6156 21.1841C45.4532 22.5986 46.2288 23.996 47.0696 25.4243C47.447 26.0652 49.3901 29.287 49.466 29.6966L36.3129 29.6755C36.2708 29.1193 36.4528 28.0407 36.437 27.2864C36.3815 24.6095 35.5594 23.6232 34.5109 21.7584V21.7587ZM37.4718 12.7809C36.7186 14.0108 36.0117 15.2784 35.3117 16.52C34.971 17.1242 34.5848 17.7529 34.238 18.355C33.9491 18.8569 33.3789 19.7301 33.2047 20.2431C32.9395 20.1677 31.7408 19.2048 30.4723 18.6401C29.0358 18.0009 28.2059 18.1189 27.0948 17.8525C27.096 17.6518 26.9792 7.7779 27.1877 7.59998C27.3446 7.46589 38.2284 7.53396 40.1621 7.52958C40.8887 7.52783 41.7599 7.37825 41.8872 7.69522L41.8735 12.6018C40.8624 11.4522 40.7493 9.80508 39.5849 9.91142C38.846 9.97891 38.0254 11.8352 37.4721 12.7809H37.4718ZM25.1883 6.91987L25.1901 17.9556C24.5339 18.2884 23.8596 18.0964 21.8886 19.1966C20.9791 19.7044 19.9128 20.544 19.3311 21.2948C17.7208 23.3749 16.8386 25.3127 16.9887 28.2601C17.2359 33.1012 21.4711 37.3832 26.4866 37.3832C29.6812 37.3832 32.4335 36.1115 34.2605 33.7983C35.2591 32.5339 35.2477 32.1552 35.7002 31.5578C37.7438 31.4112 51.0398 31.6192 51.4964 31.4398C52.6121 31.001 51.6305 29.6145 51.301 29.046L44.0865 16.5752C43.6848 15.9027 43.7248 16.0093 43.7248 15.0672V7.50241C43.7248 5.17899 43.5934 5.66862 38.3187 5.66453L26.4863 5.65197C25.5366 5.65168 25.1877 5.92688 25.1877 6.92046L25.1883 6.91987Z" fill="#3F4B59"/>
<path fill-rule="evenodd" clip-rule="evenodd" d="M18.8643 27.9657C19.0598 29.9648 19.8561 32.1422 21.3034 33.3423C27.6429 38.5983 34.8618 33.4013 34.6 27.2879C34.3187 20.7179 26.1133 17.0132 21.0002 22.2853C19.9187 23.4007 18.6391 25.6607 18.8643 27.9657Z" fill="#FF388E"/>
<path fill-rule="evenodd" clip-rule="evenodd" d="M34.5112 21.7588C35.5597 23.6235 36.3821 24.6098 36.4373 27.2867C36.4531 28.0407 36.2708 29.1196 36.3132 29.6759L49.4664 29.6969C49.3907 29.2873 47.4474 26.0656 47.0699 25.4246C46.2291 23.9963 45.4532 22.599 44.6159 21.1844C44.0106 20.1622 39.9989 13.0509 39.6699 12.757C39.0973 13.5586 36.5446 18.1666 35.7978 19.4316C35.4978 19.9399 34.6637 21.2396 34.5112 21.7591V21.7588Z" fill="#F4BC00"/>
<path fill-rule="evenodd" clip-rule="evenodd" d="M21.294 57.5894L45.2478 57.6037C45.204 57.2584 42.5148 51.7801 42.296 51.5254L24.1635 51.5353C23.8158 52.2011 21.297 57.278 21.294 57.5894Z" fill="white"/>
<path fill-rule="evenodd" clip-rule="evenodd" d="M41.8872 7.69535C41.7602 7.37838 40.8887 7.52825 40.1624 7.52971C38.2287 7.53409 27.3449 7.46602 27.188 7.60011C26.9794 7.77803 27.096 17.6516 27.0951 17.8526C28.2062 18.119 29.0361 18.001 30.4726 18.6405C31.7411 19.2049 32.9395 20.1681 33.205 20.2435C33.3791 19.7305 33.9494 18.8573 34.2383 18.3554C34.5848 17.753 34.971 17.1246 35.312 16.5204C36.0116 15.2788 36.7189 14.0112 37.4721 12.781C38.0254 11.8356 38.846 9.97933 39.5849 9.91185C40.7493 9.80551 40.8624 11.4523 41.8735 12.6019L41.8869 7.69535H41.8872Z" fill="#3FA4E8"/>
<path fill-rule="evenodd" clip-rule="evenodd" d="M14.6551 62.0119L49.6667 62.0309C50.9124 62.033 52.7746 62.3049 53.4056 61.4788C53.7842 60.9833 53.6939 60.3067 53.3451 59.8822C52.7886 59.2053 50.9262 59.4168 49.6667 59.418L14.4611 59.439C13.6028 59.4411 12.8522 59.7878 12.8707 60.747C12.8908 61.7873 13.6594 62.0125 14.6551 62.0119V62.0119Z" fill="white"/>
<path fill-rule="evenodd" clip-rule="evenodd" d="M31.6459 45.1324C31.3078 42.9667 34.5889 42.5259 34.8466 44.6495C35.1031 46.7617 31.9471 47.0626 31.6459 45.1324ZM36.6205 45.7144C37.2258 43.6334 35.6497 41.8873 34.1019 41.494C31.8904 40.932 30.2564 42.4236 29.8614 44.0573C28.8097 48.4065 35.3175 50.1935 36.6205 45.7144V45.7144Z" fill="#3F4B59"/>
<path fill-rule="evenodd" clip-rule="evenodd" d="M31.6459 45.1324C31.9471 47.0626 35.1028 46.7617 34.8466 44.6495C34.5889 42.5259 31.3079 42.9664 31.6459 45.1324Z" fill="white"/>
</svg>
