<svg width="66" height="66" viewBox="0 0 66 66" fill="none" xmlns="http://www.w3.org/2000/svg">
<g clip-path="url(#clip0_128_2)">
<rect width="66" height="66"/>
<path fill-rule="evenodd" clip-rule="evenodd" d="M58.99 23.0841C58.9526 23.0316 58.9975 23.0316 58.7803 22.8744C58.6829 22.7995 58.5182 22.7096 58.3609 22.6273L48.9918 17.8567C47.052 16.9429 46.6027 16.4637 45.0898 16.5235C42.5884 20.0135 46.9922 21.4515 50.0253 22.9421C51.4109 23.6311 52.9387 24.2002 54.3168 24.9268C56.8781 26.2899 55.1181 29.1583 55.0433 29.2033C53.7475 29.383 51.0064 27.7878 49.9279 27.211C48.9468 26.6867 48.0556 26.492 47.3515 27.3234C46.8797 27.8852 46.3629 29.1957 46.7449 30.1992C46.9696 30.7983 59.1922 37.6286 61.5887 39.9654C62.1655 40.5346 62.7795 41.4409 63.2438 41.8077C64.3748 41.4032 65.3484 38.6997 65.6628 37.0445C66.4716 32.8878 65.4606 33.2399 64.7041 31.6371C63.7679 29.6523 65.1834 27.6153 63.5507 25.9751C62.7944 25.2112 60.3229 23.5111 58.9898 23.0843L58.99 23.0841Z" fill="#FF005E"/>
<path fill-rule="evenodd" clip-rule="evenodd" d="M46.2655 34.4006L41.8992 31.9143C39.9519 30.8657 38.6639 29.8396 37.3908 32.1915C36.2149 34.3633 38.0123 35.247 39.4129 36.1457C40.6861 36.9546 42.5659 38.063 44.0487 38.6621C44.1687 38.9243 44.3558 38.9617 44.7528 39.1714C47.8907 40.849 54.5414 44.4063 56.9754 46.3162C57.567 46.773 57.9866 47.4022 58.7055 47.6044C60.0311 47.2825 61.8584 44.2792 60.3606 42.931C58.2636 41.0512 48.3628 35.0072 46.2655 34.4006V34.4006Z" fill="#FF005E"/>
<path fill-rule="evenodd" clip-rule="evenodd" d="M42.4311 62.0139C41.7945 61.1225 37.7278 59.5723 36.5144 59.0631C35.0763 58.4489 30.7776 56.0224 30.5603 58.7186C30.433 60.2014 34.8966 61.4971 36.1249 61.9315C37.106 62.2836 38.4166 62.9201 39.2779 63.1522C40.1766 63.3993 41.8767 62.8752 42.4309 62.0139H42.4311Z" fill="#FF005E"/>
<path fill-rule="evenodd" clip-rule="evenodd" d="M63.5361 19.609C63.4088 18.89 60.8999 17.4595 60.3156 17.4072C59.8662 18.5156 60.413 19.8412 60.8249 20.8821C60.9073 20.9346 61.1245 21.2118 61.3118 21.3989C62.158 22.2152 63.7084 22.8518 65.0488 24.6493C65.4308 25.151 65.603 26.0048 66 26.4243C65.7303 25.548 65.5432 23.9305 65.2437 22.7247C64.9516 21.5414 64.6445 20.1634 63.5361 19.6092V19.609Z" fill="#FF005E"/>
<path fill-rule="evenodd" clip-rule="evenodd" d="M27.3399 54.8465C27.647 55.0112 27.7369 55.0561 28.0214 55.206C30.5302 56.5916 31.3767 55.2136 31.6163 54.2325C31.946 52.8694 30.2683 52.48 29.1524 51.7909C27.0704 50.7275 24.9583 49.3569 23.0411 48.1362C20.7344 46.6683 17.4915 43.5977 16.136 44.2418C15.3646 44.6087 14.436 46.3538 16.2932 47.9115C19.8133 50.8623 23.9248 52.4425 27.3401 54.8467L27.3399 54.8465Z" fill="#FF005E"/>
<path fill-rule="evenodd" clip-rule="evenodd" d="M34.103 64.1782C34.118 64.358 34.1705 63.9085 33.9681 64.2831C33.7283 64.7326 33.7434 64.0059 33.9307 64.5079C34.9118 64.4855 37.4731 64.3507 38.0798 63.9537C37.166 63.3995 35.8555 63.0623 34.747 62.7479C33.4737 62.3808 31.9909 61.6769 31.4967 63.2571C32.021 63.744 33.0995 63.9462 34.103 64.1784V64.1782Z" fill="#FF005E"/>
<path fill-rule="evenodd" clip-rule="evenodd" d="M31.6388 15.3777C31.1446 15.6996 30.7851 16.4336 30.7999 17.0553C30.8373 18.5833 34.5821 20.8225 35.0914 20.8375C35.4959 21.5115 39.2106 23.6384 39.7048 23.706C41.4573 23.9457 42.8128 21.0846 40.6934 19.527L36.1548 16.7484C34.3499 15.5951 32.4625 13.543 31.6388 15.3779V15.3777Z" fill="#E4E4E4"/>
<path fill-rule="evenodd" clip-rule="evenodd" d="M12.9904 56.9661L13.4698 56.719C13.979 56.8013 16.6302 58.494 17.4541 58.9508C18.8995 59.7596 20.8916 60.973 22.6069 61.2949C22.809 61.3324 23.1312 61.2726 23.3258 61.0853L23.6478 60.6807C24.7787 60.9429 25.9545 61.4223 27.1153 61.8567C28.2762 62.2911 30.0436 63.1524 30.1485 61.31C29.9612 60.6885 24.5239 58.6813 23.191 57.7452C17.5066 54.9368 19.9555 55.1015 19.6036 53.3488C19.4014 52.3602 16.4057 50.6752 15.3272 49.9113C12.002 47.5597 9.14088 44.9534 6.48233 41.8527C5.49372 40.6994 4.30294 39.1415 3.38185 37.6438C2.45303 36.1384 1.26225 33.345 0.603309 33.1203C-1.37392 34.7904 2.07881 40.3176 2.84269 41.4634C3.23216 42.0402 3.68162 42.5718 4.11583 43.1637C4.55025 43.7478 5.0296 44.1897 5.44897 44.7888C6.00317 45.5603 7.88298 47.2078 7.02921 48.7582C5.15692 48.1964 3.35947 44.1523 2.19107 43.7478C2.02634 45.0882 2.43085 45.0734 2.70785 46.0545C2.28096 46.5113 2.24354 45.7175 2.34828 46.6762C2.45323 46.9682 3.0597 47.927 3.32938 48.264C3.80121 48.8706 4.82725 49.7919 5.77844 51.0051C7.28384 52.9223 9.10366 55.304 11.1783 56.8619C12.7362 58.0378 19.3791 62.3067 21.3413 62.1719C20.6522 60.7789 13.6947 58.1875 12.9908 56.9669H12.9906L12.9904 56.9661Z" fill="#E4E4E4"/>
<path fill-rule="evenodd" clip-rule="evenodd" d="M21.5284 36.3703C21.2138 36.1305 20.8918 35.906 20.6595 35.7036C19.1466 34.3705 17.1245 32.6554 15.7765 31.1726L14.6081 29.9068C13.9414 29.2476 13.1027 28.2291 12.2639 27.0833C10.7736 25.0461 9.01357 22.2152 8.23464 19.7662C7.80775 18.418 7.45571 16.4784 7.41829 15.4898C7.40324 15.0702 7.43333 14.6659 7.44838 14.2541L7.40344 13.4151C7.39591 13.3702 7.37354 13.3102 7.36601 13.2654C7.35097 13.228 7.33592 13.168 7.31354 13.1155C6.50471 12.9659 5.58342 14.0891 5.21652 14.6958C3.85349 16.9276 5.14168 19.6012 4.64727 21.4512C4.39264 22.3873 3.7636 23.4209 2.8722 23.6381C2.01842 21.9079 2.66984 19.4516 2.5651 17.347C1.1795 17.9012 0.542926 21.3015 0.55045 24.2297C0.557974 26.177 1.01476 28.0493 1.62896 29.8842C2.5952 32.8051 5.1789 36.6247 6.69915 38.5045C8.06218 40.1822 9.0508 41.268 10.3915 42.6461C10.8259 43.0956 11.8444 44.2115 12.833 43.3876C14.2784 42.1893 13.3199 40.1747 12.3162 38.9989L11.3801 37.8381C11.3426 37.7931 9.91962 36.3101 9.76993 35.6662C9.52283 34.6103 9.97962 33.8012 10.9007 33.2621C11.5448 33.1797 13.1999 35.3817 13.8289 36.063C14.9373 37.2613 20.5619 41.6351 21.4007 41.7998C23.1009 42.1368 24.0069 40.3168 23.9394 38.7516C23.842 38.5794 23.7523 38.437 23.6773 38.3172C23.3476 37.808 22.0745 36.7744 21.5278 36.3699H21.5282L21.5284 36.3703Z" fill="#E4E4E4"/>
<path fill-rule="evenodd" clip-rule="evenodd" d="M31.6987 64.1931C29.2124 63.7737 26.0891 62.4481 25.842 63.0546C25.8794 63.489 25.887 63.5114 27.1902 63.8634C28.9502 64.3428 30.7176 64.5899 32.5901 64.455L31.6989 64.1929L31.6987 64.1931Z" fill="#E4E4E4"/>
<path fill-rule="evenodd" clip-rule="evenodd" d="M58.024 12.8237C58.4134 13.2656 59.2448 13.7074 59.9264 13.7375C59.9188 12.3968 58.4509 10.4346 56.8633 9.86537C56.339 9.35612 50.3251 6.85458 49.389 6.84726L36.3501 1.49234C36.6421 3.52204 37.9753 4.00873 39.7054 4.84745C40.4617 5.21455 41.2856 5.55154 41.8248 6.0307C42.3267 6.48016 42.9183 7.5062 42.6637 8.16515C41.2633 8.88408 37.8406 5.10208 36.5299 5.90339C35.4813 7.94794 37.4211 9.02645 38.657 9.72301C39.728 10.3372 41.8024 11.5955 43.0007 11.9699C43.6074 12.5841 52.5572 16.6207 54.4819 17.6244C55.3957 18.1038 57.6199 19.5866 58.5637 19.1447C58.9532 18.3208 58.5487 16.9577 58.1293 16.2614C57.6424 15.4599 56.7437 15.1005 55.8377 14.6736C53.7105 13.6699 52.9617 13.2132 52.2802 10.6295C54.1376 10.5546 56.7439 12.7489 58.0246 12.8239L58.0244 12.8237H58.024Z" fill="#E4E4E4"/>
<path fill-rule="evenodd" clip-rule="evenodd" d="M38.0198 52.697C38.514 54.6142 34.455 54.6592 39.2929 57.0108C43.1724 58.8906 42.4235 58.2166 45.9885 60.441C47.1494 61.1599 49.0817 59.4674 49.5909 58.5237C49.2615 57.8497 48.7522 57.8121 48.415 57.1306C48.8346 56.2095 49.5309 55.5504 50.2649 55.1458C51.5307 54.4568 51.7929 55.1235 52.5493 55.6102L53.126 57.2278C54.0847 56.7934 54.6164 56.2168 55.2979 55.4678C55.8222 54.8837 56.8633 54.2845 55.9495 53.1013C54.3992 51.0791 47.2094 47.5666 44.3485 45.8367C41.8171 44.3087 39.4205 42.5414 37.8852 43.6199C37.3759 43.9794 36.6045 45.1852 36.0802 45.5298C34.1479 46.8104 29.482 40.4521 27.1829 42.5491C24.9435 44.6011 26.6435 45.822 28.2988 46.9079C29.7218 47.844 37.8252 51.9557 38.02 52.6972L38.0198 52.697Z" fill="#E4E4E4"/>
</g>
<defs>
<clipPath id="clip0_128_2">
<rect width="66" height="66" fill="white"/>
</clipPath>
</defs>
</svg>
