<svg width="66" height="16" viewBox="0 0 66 16" fill="none" xmlns="http://www.w3.org/2000/svg">
<rect width="66" height="16"/>
<path d="M6.73529 1.70383V2.40733H0.837957V7.82028H5.99058V8.52378H0.837957V14.6766H0V1.70383H6.73529V1.70383ZM8.42735 9.64991C8.42735 8.61643 8.63659 7.71127 9.05211 6.93509C9.46763 6.15891 10.043 5.56115 10.7807 5.1418C11.5189 4.72244 12.3598 4.51424 13.3005 4.51424C14.3678 4.51424 15.2753 4.77188 16.0167 5.29042C16.7614 5.80569 17.2834 6.46631 17.5826 7.2654V4.64322H18.4169V14.6766H17.5826V12.0344C17.2834 12.8466 16.7581 13.5174 16.0101 14.0392C15.2589 14.5643 14.358 14.8252 13.3009 14.8252C12.3601 14.8252 11.5192 14.6137 10.7811 14.1878C10.043 13.7616 9.46796 13.1609 9.05244 12.3782C8.63692 11.5954 8.42768 10.6873 8.42768 9.65024L8.42735 9.64991ZM17.5826 9.64991C17.5826 8.77487 17.3997 8.00197 17.0307 7.33153C16.6649 6.66109 16.1663 6.14254 15.5347 5.77917C14.903 5.4158 14.1949 5.23411 13.4136 5.23411C12.5957 5.23411 11.8744 5.40925 11.2562 5.7592C10.6344 6.11275 10.1524 6.62115 9.8034 7.28504C9.45774 7.94893 9.28475 8.73821 9.28475 9.64958C9.28475 10.5613 9.45774 11.3506 9.8034 12.0177C10.1524 12.6816 10.6377 13.1933 11.2661 13.5501C11.8909 13.9066 12.6092 14.085 13.4136 14.085C14.1949 14.085 14.9063 13.9033 15.5445 13.54C16.1828 13.1766 16.6814 12.658 17.0405 11.9876C17.3997 11.3172 17.5823 10.5377 17.5823 9.64926L17.5826 9.64991ZM22.3065 7.28537C22.6156 6.47285 23.1445 5.80569 23.8889 5.29042C24.6303 4.77188 25.5308 4.51424 26.5846 4.51424C27.5287 4.51424 28.3663 4.72244 29.1044 5.1418C29.8425 5.56115 30.4208 6.15891 30.8363 6.93509C31.2519 7.71127 31.4581 8.6161 31.4581 9.64991C31.4581 10.687 31.2519 11.5954 30.8363 12.3778C30.4208 13.1606 29.8422 13.7616 29.1044 14.1875C28.3663 14.6137 27.5287 14.8249 26.5846 14.8249C25.5308 14.8249 24.6266 14.5672 23.8786 14.0487C23.1273 13.5301 22.6021 12.8663 22.3062 12.0541V14.6762H21.4682V1H22.3062V7.28472L22.3065 7.28537ZM30.604 9.64991C30.604 8.73853 30.4277 7.94926 30.0821 7.28537C29.7364 6.62148 29.2478 6.11308 28.6227 5.75953C27.9943 5.40958 27.273 5.23444 26.4551 5.23444C25.6738 5.23444 24.9657 5.41613 24.334 5.7795C23.7023 6.14287 23.2038 6.66141 22.8446 7.33185C22.4858 8.00229 22.3062 8.7752 22.3062 9.65024C22.3062 10.5387 22.4858 11.3182 22.8446 11.9886C23.2038 12.659 23.7023 13.1776 24.334 13.5409C24.9657 13.9043 25.6738 14.086 26.4551 14.086C27.273 14.086 27.9943 13.9076 28.6227 13.5511C29.2474 13.1943 29.7364 12.6823 30.0821 12.0187C30.4277 11.3515 30.604 10.5623 30.604 9.65056V9.64991Z" fill="#FF005E"/>
<path d="M33.882 9.49116C33.882 8.4377 34.1213 7.49294 34.6001 6.66078C35.0788 5.82502 35.7336 5.17782 36.5613 4.71231C37.3924 4.2468 38.32 4.01208 39.3507 4.01208C40.5574 4.01208 41.6112 4.31948 42.5186 4.93361C43.4228 5.54774 44.0578 6.3966 44.417 7.47984H41.9305C41.6843 6.96785 41.3354 6.58483 40.8898 6.33047C40.441 6.07284 39.9224 5.94745 39.3342 5.94745C38.7091 5.94745 38.1473 6.0928 37.6586 6.38318C37.17 6.67387 36.791 7.08668 36.5152 7.61831C36.2427 8.14995 36.1063 8.77423 36.1063 9.49083C36.1063 10.1976 36.2427 10.8186 36.5152 11.3568C36.791 11.8917 37.17 12.3081 37.6586 12.5985C38.1473 12.8892 38.7091 13.0378 39.3342 13.0378C39.9224 13.0378 40.441 12.9056 40.8898 12.6446C41.3354 12.3837 41.6843 11.9974 41.9305 11.4855H44.417C44.0581 12.5818 43.4265 13.4339 42.5256 14.0418C41.6247 14.6494 40.5676 14.9532 39.3507 14.9532C38.32 14.9532 37.3927 14.7221 36.5613 14.2563C35.7336 13.7907 35.0788 13.1432 34.6001 12.3143C34.1213 11.4855 33.882 10.5443 33.882 9.4905V9.49116ZM50.0715 15C49.247 15 48.5056 14.8183 47.8476 14.455C47.1892 14.0916 46.6709 13.5796 46.2952 12.9128C45.9196 12.2489 45.7301 11.4828 45.7301 10.6107C45.7301 9.74225 45.9229 8.97589 46.3117 8.30905C46.6972 7.64516 47.2228 7.12989 47.894 6.76684C48.5623 6.40347 49.3103 6.22178 50.1347 6.22178C50.9559 6.22178 51.7039 6.40347 52.3721 6.76684C53.0437 7.13022 53.5722 7.64516 53.9578 8.30905C54.3433 8.97622 54.5364 9.74225 54.5364 10.6107C54.5364 11.4828 54.3367 12.2489 53.9413 12.9128C53.5455 13.5799 53.0104 14.0919 52.3356 14.455C51.6607 14.8183 50.9061 15 50.0718 15H50.0715ZM50.0715 13.1275C50.4639 13.1275 50.8326 13.0349 51.175 12.8434C51.521 12.6551 51.7968 12.371 52.0027 11.9945C52.209 11.6148 52.3118 11.1555 52.3118 10.6107C52.3118 9.8051 52.099 9.18082 51.6703 8.74804C51.2412 8.312 50.7196 8.09397 50.1011 8.09397C49.4826 8.09397 48.9676 8.312 48.5488 8.74804C48.1332 9.18082 47.9237 9.80477 47.9237 10.6107C47.9237 11.42 48.1263 12.041 48.5353 12.4767C48.9409 12.9128 49.453 13.1275 50.0711 13.1275H50.0715ZM65.8124 4.15089L61.8599 14.8612H59.2336L55.2775 4.15089H57.5946L60.5599 12.6685L63.512 4.15089H65.8124Z" fill="#E4E4E4"/>
</svg>
