<svg width="450" height="53" viewBox="0 0 450 53" fill="none" xmlns="http://www.w3.org/2000/svg">
<g clip-path="url(#clip0_163_2)">
<path fill-rule="evenodd" clip-rule="evenodd" d="M416.882 5.81478C417.308 6.45949 420.727 9.79669 421.744 10.8339C423.305 12.427 422.393 11.7646 424.217 11.7646C426.367 11.7646 428.016 13.4607 428.016 15.9099C428.016 17.6238 427.293 16.496 430.418 19.6822C431.201 20.4779 433.071 22.1918 433.57 22.9714C434.321 22.9128 433.955 22.8365 435.208 22.8365C438.124 22.8365 440.185 26.6212 437.888 29.4487C435.708 32.1075 430.994 30.4557 430.994 26.8521C430.994 26.1008 431.213 25.7101 431.274 25.0459C430.301 24.387 426.651 20.0143 425.84 19.7905V34.1854C426.546 34.665 426.783 34.7289 427.297 35.4642C429.078 38.0164 427.459 41.8047 424.087 41.8047C420.863 41.8047 419.225 38.1247 420.847 35.6009C423.216 31.9192 422.719 39.5669 422.719 19.7941C422.719 19.2808 422.32 19.4158 421.617 18.8457C420.259 17.7641 419.836 15.6594 420.555 14.1267L414.621 8.13075C413.957 8.59608 401.292 21.6696 399.701 23.2929C398.315 24.7066 398.062 24.8274 398.035 26.4934V26.8521C398.035 28.296 399.492 29.3759 400.717 30.6245L419.979 50.2765C421.483 51.8252 421.996 52.9352 424.146 53.0134H424.351C425.97 53.0134 427.224 51.2551 428.12 50.3546L447.31 30.7612C448.814 29.2267 449.916 28.6868 449.993 26.5076V26.2998C449.993 24.6178 448.283 23.3835 447.387 22.4688L426.487 1.14732C425.561 0.202458 425.22 0.0337329 424.294 0.00354004H424.075H423.824H423.544C422.087 0.00354004 420.804 1.76183 419.979 2.60368C419.214 3.38514 417.401 5.05463 416.887 5.82011V5.81656L416.882 5.81478Z" fill="#EF5032"/>
<path d="M234.548 0H182.59V53.0116H234.548V0Z" fill="#F7DF1E"/>
<path fill-rule="evenodd" clip-rule="evenodd" d="M217.405 41.4869L213.563 43.7549C214.167 45.364 215.847 46.8506 217.273 47.664C222.457 50.5607 231.559 48.5058 230.409 40.6024C229.54 34.5763 222.105 34.2317 220.305 32.0241C218.316 29.5873 222.265 26.4632 224.84 29.8591L225.371 30.4594C226.462 29.8733 228.05 28.5075 229.037 28.1469C227.388 23.1296 217.287 22.0924 215.297 28.5981C214.634 30.7489 215.092 33.198 216.122 34.7006C218.434 38.068 223.794 38.6203 225.209 40.6344C226.784 42.9059 224.311 44.5275 222.07 44.4369C220.598 44.3925 219.094 43.6856 218.272 42.5898L217.403 41.4904V41.4869H217.405Z" fill="black"/>
<path fill-rule="evenodd" clip-rule="evenodd" d="M196.344 44.3587C198.436 49.662 207.363 50.685 210.012 45.4723C211.279 42.9627 210.881 38.4107 210.881 35.3434L210.895 24.3284L206.005 24.3905C206.052 29.0935 206.005 33.8107 206.005 38.5297C206.005 40.6805 206.404 43.5488 204.623 44.2077C202.001 45.1863 201 43.1261 200.247 41.8331L196.344 44.3569V44.3587Z" fill="black"/>
<path fill-rule="evenodd" clip-rule="evenodd" d="M301.118 0.0320435H253.555L258.536 47.4917L277.338 53.0117L296.134 47.4917L301.118 0.0320435Z" fill="#E55126"/>
<path fill-rule="evenodd" clip-rule="evenodd" d="M296.462 4.58942L277.338 4.59297V49.5804L292.198 45.2202L296.462 4.58942Z" fill="#F1672C"/>
<path fill-rule="evenodd" clip-rule="evenodd" d="M269.36 15.5974L269.826 21.6307H291.191L289.532 40.1105L277.338 43.881L265.138 40.487L264.399 31.0579H270.312L270.684 35.9598L277.338 37.8442L283.989 35.9598L284.729 27.6639H264.028L262.773 9.18408H292.12L291.38 15.5974H269.36Z" fill="white"/>
<path fill-rule="evenodd" clip-rule="evenodd" d="M269.36 15.5974L269.826 21.6307H277.336V27.6639H264.031L262.771 9.18408H277.336V15.5974H269.363H269.36V15.5974ZM277.332 43.881L265.133 40.487L264.393 31.0579H270.307L270.676 35.9598L277.332 37.8442V43.8775V43.881V43.881Z" fill="#CED1DB"/>
<path fill-rule="evenodd" clip-rule="evenodd" d="M324.883 48.9995C321.532 48.9995 323.678 43.9128 325.379 42.4512C325.823 42.0746 326.11 41.8135 326.559 41.4317C327.031 41.0339 327.29 40.8101 327.816 40.4513C328.288 40.1121 328.601 39.8705 329.097 39.5295L331.794 37.8068C331.846 38.5492 332.131 39.4283 332.131 40.2879C332.131 42.6323 331.087 44.8151 329.985 46.0974C328.805 47.4205 326.739 49.0012 324.881 49.0012L324.885 48.9959L324.883 48.9995ZM355.686 42.2895L358.906 38.4053C358.906 40.3465 356.681 42.2114 355.686 42.2895ZM365.498 39.9292C365.498 39.0873 365.604 38.9452 365.812 38.3858C366.255 37.2651 367.199 35.743 368.142 35.1001C368.167 35.9845 368.663 37.2242 367.436 38.7268C367.046 39.1868 366.207 39.8688 365.5 39.9309L365.498 39.9292ZM341.263 42.1741C340.32 41.5347 340.532 39.5686 340.557 38.5314C340.663 35.4482 342.915 30.1786 345.399 29.66C346.16 29.4824 346.108 30.0419 345.948 30.8429C345.871 31.4236 345.659 32.0826 345.478 32.706C345.14 33.9101 344.745 34.9722 344.301 36.1089L342.731 40.1352C342.393 40.8563 342.076 41.9769 341.267 42.1812L341.263 42.1776V42.1741ZM316.557 20.9876C316.557 23.6303 317.159 24.934 318.675 26.9338C321.737 30.9175 329.456 35.4659 330.058 36.4055C328.33 36.8868 322.834 40.771 321.555 42.0942C321.029 42.6163 320.639 43.0372 320.192 43.6376C317.784 46.8415 318.174 53.0116 323.12 53.0116C325.658 53.0116 327.569 52.6137 329.532 51.2906C330.895 50.3688 332.046 49.2073 332.96 47.8468C334.767 45.1827 335.632 40.2577 333.982 36.7713L337.67 34.6472C337.564 35.91 336.858 37.1123 336.858 39.9345C336.858 41.4157 337.354 43.2006 337.825 44.2627C338.428 45.6019 339.159 46.6657 340.729 46.5858C343.006 46.4437 344.134 42.7229 344.917 40.8598L345.182 40.4193C345.182 41.7017 344.893 43.0621 345.389 44.3036C345.782 45.2253 346.279 45.6072 347.246 45.6072C348.397 45.6072 349.654 43.5026 350.126 42.6447C351.33 40.5206 355.282 32.6687 355.778 30.4077C355.807 30.4291 355.83 30.445 355.83 30.4859C355.83 30.5232 355.86 30.5445 355.86 30.564C356.096 31.1608 355.729 30.1236 355.936 30.7416L356.667 33.5052C358.001 37.4516 358.84 35.3061 355.334 39.7125C354.443 40.8545 352.902 42.1776 352.902 43.6997C352.902 44.2183 353.792 44.657 354.394 44.657C357.586 44.657 361.905 42.6163 361.905 38.9896L361.644 36.8069C361.407 35.9277 360.965 35.5245 361.407 34.8443C362.584 33.1606 363.608 31.4006 364.523 29.5375C364.758 29.0775 364.889 28.5571 365.254 28.2747C365.307 30.3989 366.8 32.8232 366.98 33.7023C366.642 34.2049 366.17 34.5868 365.751 35.0255C362.769 38.0306 362.139 42.2949 364.442 42.2949C367.032 42.2949 371.244 39.6148 371.244 36.647C371.244 35.3061 370.903 34.704 370.668 33.7041C371.323 33.5425 371.897 33.2636 372.55 33.1446C376.267 32.4431 381.001 32.9244 383.332 35.9703C384.8 37.8707 384.512 40.3767 382.547 41.675C382.105 41.9734 381.893 41.9734 381.868 42.6589C382.523 42.6589 383.097 42.4813 383.569 42.1617C386.213 40.3785 386.372 37.1372 384.749 34.5513C384.201 33.7094 383.52 32.928 382.707 32.3898C379.461 30.1857 374.989 29.8252 371.295 31.2904C370.799 31.468 370.273 31.8126 369.749 31.8304C369.619 31.207 369.068 30.3864 368.806 29.7257C368.231 28.2658 368.257 26.0404 368.675 24.497C368.988 23.355 369.956 22.0532 367.549 22.0532C365.272 22.0532 364.929 22.3729 364.567 23.593C364.384 24.1738 364.302 24.8132 364.123 25.3567C363.888 25.9587 363.651 26.4596 363.392 26.9995L361.012 31.4858C360.776 31.8641 360.281 32.6065 360.175 32.9883H359.94C359.468 30.9477 359.024 32.0879 359.024 28.4044C359.024 25.98 361.407 24.1596 357.743 24.1596C354.733 24.1596 355.595 25.4632 354.681 27.6247C353.348 30.7274 351.96 33.6704 350.651 36.8353C350.31 37.6771 349.001 40.8403 348.399 41.2417C347.873 38.9186 350.127 33.951 350.127 31.8268C350.127 31.3863 349.29 30.8855 348.87 30.8855C348.374 30.8855 348.216 31.1253 347.826 31.2247C348.192 30.4646 347.957 28.7027 347.668 28.0793C346.804 26.0955 344.345 26.9178 343.011 27.7401C341.991 28.3617 340.945 29.2 340.184 30.1431C339.138 31.5036 338.715 31.5657 337.174 32.3667L332.701 34.8692L329.691 32.1891C329.167 31.7664 328.699 31.3686 328.147 30.9494C325.764 29.1272 321.868 26.2429 321.868 22.8791V21.6962C321.868 16.6291 328.095 12.2636 331.917 9.91921C334.166 8.53744 336.497 7.3759 339.112 6.33336C343.089 4.78997 349.663 3.30874 353.981 5.39205C359.841 8.23373 354.401 17.487 345.762 20.6537C342.593 21.8152 338.041 22.6997 334.797 20.9929C333.984 20.5702 332.49 18.629 332.49 19.9308C332.49 20.691 332.986 21.4334 333.38 21.8347C337.122 25.7811 344.162 24.4775 348.611 22.9767C350.576 22.3178 352.564 21.2557 354.028 20.0143C355.545 18.7533 356.984 17.3289 358.034 15.6079C359.449 13.2635 360.18 11.3418 360.18 8.15914C360.18 2.32836 353.348 0.0301514 348.402 0.0301514C342.224 0.0301514 337.491 1.87192 332.436 4.35839C331.024 5.03862 329.585 5.8183 328.276 6.70278C326.678 7.78617 325.083 8.8074 323.616 10.0879C323.431 10.2496 323.403 10.2869 323.196 10.4698C322.961 10.6474 322.961 10.6314 322.752 10.8321C321.102 12.4749 319.507 14.1338 318.303 16.2011C317.701 17.201 316.55 19.5046 316.55 21.0071V20.9858L316.557 20.9876Z" fill="#CF6499"/>
</g>
<defs>
<clipPath id="clip0_163_2">
<rect width="450" height="53" fill="white"/>
</clipPath>
</defs>
</svg>
