<svg width="290" height="53" viewBox="0 0 290 53" fill="none" xmlns="http://www.w3.org/2000/svg">
<g clip-path="url(#clip0_163_2)">
<path fill-rule="evenodd" clip-rule="evenodd" d="M255.249 5.82867C255.693 6.47316 259.256 9.80922 260.315 10.8461C261.942 12.4387 260.992 11.7764 262.893 11.7764C265.133 11.7764 266.851 13.472 266.851 15.9203C266.851 17.6336 266.098 16.5062 269.354 19.6914C270.17 20.4868 272.118 22.2001 272.639 22.9795C273.421 22.9209 273.04 22.8445 274.346 22.8445C277.384 22.8445 279.532 26.628 277.137 29.4545C274.866 32.1124 269.954 30.4612 269.954 26.8588C269.954 26.1078 270.183 25.7172 270.246 25.0532C269.232 24.3945 265.429 20.0234 264.583 19.7997V34.1896C265.32 34.669 265.566 34.7329 266.102 35.468C267.957 38.0193 266.27 41.8063 262.757 41.8063C259.397 41.8063 257.69 38.1276 259.381 35.6047C261.85 31.9242 261.331 39.5692 261.331 19.8032C261.331 19.2901 260.916 19.425 260.183 18.8551C258.768 17.7739 258.327 15.67 259.076 14.1378L252.892 8.14385C252.201 8.60902 239.003 21.6781 237.345 23.3008C235.901 24.7141 235.638 24.8348 235.609 26.5002V26.8588C235.609 28.3023 237.128 29.3817 238.405 30.6299L258.476 50.2752C260.043 51.8234 260.578 52.933 262.818 53.0111H263.032C264.719 53.0111 266.025 51.2535 266.96 50.3533L286.956 30.7666C288.524 29.2326 289.672 28.6929 289.752 26.5144V26.3067C289.752 24.6253 287.97 23.3914 287.036 22.477L265.258 1.1628C264.293 0.218259 263.938 0.0495918 262.973 0.0194092H262.744H262.483H262.191C260.672 0.0194092 259.336 1.7771 258.476 2.61866C257.679 3.39986 255.789 5.06878 255.254 5.83399V5.83044L255.249 5.82867Z" fill="#EF5032"/>
<path fill-rule="evenodd" clip-rule="evenodd" d="M34.1109 48.8904C34.7022 52.4732 37.853 52.9277 41.9344 52.9135L77.4166 52.9224C89.4448 52.9917 83.0978 44.3115 80.6563 40.3807L63.0267 11.2225C60.7412 8.74044 56.9102 9.43996 55.2214 11.8244L42.0468 33.6499C40.4379 36.4179 33.6792 46.2893 34.1091 48.8957V48.8921L34.1109 48.8904Z" fill="#00DC82"/>
<path fill-rule="evenodd" clip-rule="evenodd" d="M28.9539 52.8852C25.0812 47.5517 27.9889 45.968 33.4198 36.5546L44.7532 17.5964C47.3453 13.4383 46.5563 14.809 41.3938 6.01164C39.9046 3.47097 38.6784 0.340862 35.1176 0.062117C30.7515 -0.289421 29.5979 2.50691 28.1177 5.00141C21.9395 15.4055 16.1167 25.1137 10.0256 35.3598C8.53452 37.8685 7.07793 40.3328 5.51251 42.9675C3.70947 46.0089 3.02018 49.0147 6.0839 51.566C8.40573 53.4959 13.2652 52.9136 17.0237 52.9136C20.9545 52.9136 25.0467 53.0201 28.9539 52.887V52.8852Z" fill="#80EDC1"/>
<path d="M154.87 0H100.726V52.9935H154.87V0Z" fill="#F7DF1E"/>
<path fill-rule="evenodd" clip-rule="evenodd" d="M137.004 41.4726L133.001 43.7398C133.63 45.3484 135.381 46.8344 136.866 47.6476C142.268 50.5433 151.753 48.4891 150.554 40.5884C149.649 34.5643 141.902 34.2199 140.026 32.013C137.953 29.5771 142.069 26.4541 144.751 29.8487L145.305 30.4488C146.442 29.8629 148.096 28.4976 149.125 28.1372C147.407 23.1216 136.881 22.0847 134.807 28.5882C134.116 30.7382 134.593 33.1866 135.667 34.6886C138.076 38.0548 143.661 38.607 145.136 40.6203C146.778 42.8911 144.2 44.5121 141.866 44.4216C140.331 44.3772 138.764 43.6706 137.908 42.5751L137.002 41.4761V41.4726H137.004Z" fill="black"/>
<path fill-rule="evenodd" clip-rule="evenodd" d="M115.059 44.3436C117.24 49.6451 126.541 50.6677 129.302 45.4568C130.623 42.9481 130.207 38.3976 130.207 35.3314L130.222 24.3201L125.127 24.3823C125.176 29.0837 125.127 33.7992 125.127 38.5166C125.127 40.6667 125.542 43.534 123.686 44.1927C120.955 45.171 119.912 43.1114 119.126 41.8189L115.059 44.3418V44.3436Z" fill="black"/>
<path fill-rule="evenodd" clip-rule="evenodd" d="M223.233 0.0320435H173.669L178.859 47.4755L198.451 52.9936L218.04 47.4755L223.233 0.0320435Z" fill="#0C73B8"/>
<path fill-rule="evenodd" clip-rule="evenodd" d="M218.381 4.58777L198.451 4.59132V49.5634L213.938 45.2046L218.381 4.58777Z" fill="#30A9DC"/>
<path fill-rule="evenodd" clip-rule="evenodd" d="M184.368 16.5151L183.243 10.4467H213.657L210.842 40.2173L199.013 43.7043L186.056 40.2173L184.932 30.8501H191.126L191.692 35.8071L199.013 37.7548L205.772 35.8071L206.336 28.0928H192.253L191.692 22.5783H206.336L206.897 16.5151H184.368Z" fill="white"/>
<path fill-rule="evenodd" clip-rule="evenodd" d="M184.368 16.5152L183.243 10.4485H198.453V16.5152H184.369H184.368ZM198.451 43.5517L186.056 40.2174L184.932 30.8466H191.126L191.69 35.809L198.449 37.6058V43.5517H198.451ZM198.451 28.0894H192.253L191.692 22.5748H198.451V28.0894Z" fill="#CED1DB"/>
</g>
<defs>
<clipPath id="clip0_163_2">
<rect width="290" height="53" fill="white"/>
</clipPath>
</defs>
</svg>
