<svg width="64" height="63" viewBox="0 0 64 63" fill="none" xmlns="http://www.w3.org/2000/svg">
<path fill-rule="evenodd" clip-rule="evenodd" d="M22.1703 43.326C20.0919 42.7426 18.1921 41.5433 16.6333 40.3018C14.094 38.2794 12.0309 35.0608 11.1205 31.9499C9.38282 26.0119 11.2733 19.6182 15.4826 15.282C15.8437 14.91 16.5479 14.3477 17.0174 13.978C23.3691 8.97772 32.7134 9.20913 38.8436 14.4155C39.0981 14.6317 39.2882 14.8564 39.5422 15.0791C40.0673 15.5391 40.4658 16.026 40.9136 16.5513C42.1477 17.9992 43.3145 20.0074 43.9018 21.8826L27.5943 37.9969C26.6685 38.9103 25.8208 39.748 24.8942 40.6608C24.0323 41.51 23.061 42.583 22.1703 43.326V43.326ZM43.9526 21.8826C45.0927 20.5938 47.4985 18.4064 49.0024 16.8104C52.7964 12.7845 52.291 5.01112 46.4924 1.53907C45.9845 1.23485 45.3994 0.949848 44.7754 0.725525C43.2716 0.184642 42.1918 0.045073 40.4861 0.0456798C33.7455 0.0475003 27.0047 0.0462868 20.2642 0.0462868C16.9344 0.0462868 13.4023 -0.0657735 10.0974 0.0588277C8.59838 0.115262 7.23416 0.466007 5.99389 1.01174C4.99905 1.44926 3.55986 2.46529 3.04154 3.00496C1.57715 4.52991 0.152495 7.00454 0.0504708 10.0751C-0.0576994 13.3204 0.0416617 16.7378 0.0416617 20.0023C0.0416617 26.6541 0.0430949 33.3059 0.0408414 39.9579C0.0404316 41.6936 0.185068 42.7353 0.757879 44.2676C2.04609 47.7135 5.43112 50.3437 9.35741 50.7211C15.7679 51.3373 18.086 46.9914 22.1698 43.3808C22.9766 43.5388 23.682 43.8048 24.5707 43.9617C28.6345 44.6794 33.0985 43.9168 36.5172 41.7865C37.2158 41.351 37.6849 41.001 38.268 40.5896C39.0456 40.041 40.5547 38.5021 41.1709 37.7084C43.5216 34.6798 45.0007 30.7057 44.8012 26.7916C44.643 23.6877 44.3222 24.0225 43.9522 21.8826H43.9526Z" fill="white"/>
<path fill-rule="evenodd" clip-rule="evenodd" d="M63.5671 39.2263C63.5671 37.0006 62.6224 35.3675 61.3928 34.3721C60.1788 33.3892 58.1051 32.6394 56.0583 33.1809C53.958 33.7363 52.9625 35.0113 51.895 36.0674C51.358 36.5985 48.6414 39.1951 48.4204 39.5701C50.0419 40.1337 51.2105 41.162 52.0044 42.4873C52.2373 42.8759 52.4979 43.455 52.6319 43.9633C53.3298 46.6127 52.316 48.9219 50.9843 50.3196C48.3753 53.0582 42.2869 53.2585 40.0919 47.793C39.4214 48.1822 37.2358 50.5221 36.5399 51.2125C35.5705 52.1741 34.137 53.3119 33.6269 55.2353C32.6777 58.8141 35.2177 62.7342 39.7449 62.7342H57.2139C60.9438 62.7342 63.5667 60.1591 63.5667 56.4651V39.2261L63.5671 39.2263Z" fill="white"/>
<path fill-rule="evenodd" clip-rule="evenodd" d="M48.3214 39.5327C44.3513 38.7469 41.0941 40.2342 40.0196 43.8764C39.5426 45.4927 39.7432 46.1414 40.0855 47.7192L48.3212 39.5327H48.3214Z" fill="white"/>
</svg>
