<svg width="450" height="53" viewBox="0 0 450 53" fill="none" xmlns="http://www.w3.org/2000/svg">
<g clip-path="url(#clip0_163_2)">
<path fill-rule="evenodd" clip-rule="evenodd" d="M415.948 5.81246C416.384 6.45691 419.883 9.79282 420.924 10.8296C422.522 12.4221 421.588 11.7599 423.456 11.7599C425.656 11.7599 427.343 13.4554 427.343 15.9036C427.343 17.6168 426.604 16.4895 429.802 19.6745C430.604 20.4698 432.517 22.1831 433.029 22.9624C433.797 22.9039 433.422 22.8275 434.705 22.8275C437.689 22.8275 439.799 26.6108 437.447 29.4372C435.217 32.0949 430.392 30.4438 430.392 26.8416C430.392 26.0906 430.616 25.7 430.679 25.0361C429.683 24.3774 425.946 20.0065 425.116 19.7828V34.1721C425.84 34.6514 426.082 34.7153 426.607 35.4503C428.43 38.0015 426.773 41.7884 423.322 41.7884C420.022 41.7884 418.346 38.1098 420.006 35.587C422.431 31.9067 421.922 39.5514 421.922 19.7863C421.922 19.2732 421.514 19.4082 420.794 18.8383C419.404 17.7571 418.971 15.6533 419.707 14.1211L413.633 8.12753C412.954 8.59267 399.991 21.6611 398.362 23.2838C396.944 24.697 396.686 24.8177 396.657 26.483V26.8416C396.657 28.285 398.148 29.3644 399.403 30.6125L419.117 50.2568C420.657 51.8049 421.182 52.9145 423.383 52.9927H423.593C425.25 52.9927 426.533 51.2351 427.45 50.335L447.091 30.7492C448.631 29.2153 449.759 28.6756 449.837 26.4972V26.2895C449.837 24.6082 448.087 23.3743 447.17 22.46L425.779 1.14681C424.831 0.202319 424.482 0.0336601 423.534 0.003479H423.309H423.053H422.766C421.275 0.003479 419.962 1.76109 419.117 2.60261C418.335 3.38377 416.478 5.0526 415.953 5.81778V5.81423L415.948 5.81246Z" fill="#EF5032"/>
<path d="M166.965 0H113.786V52.991H166.965V0Z" fill="#F7DF1E"/>
<path fill-rule="evenodd" clip-rule="evenodd" d="M149.419 41.4706L145.487 43.7377C146.105 45.3462 147.825 46.8322 149.284 47.6453C154.59 50.5409 163.906 48.4868 162.729 40.5864C161.84 34.5626 154.23 34.2182 152.388 32.0114C150.351 29.5756 154.394 26.4528 157.029 29.8473L157.572 30.4473C158.69 29.8615 160.314 28.4962 161.325 28.1358C159.637 23.1204 149.298 22.0836 147.262 28.5868C146.583 30.7367 147.052 33.185 148.106 34.6869C150.472 38.053 155.958 38.6051 157.407 40.6184C159.019 42.8891 156.487 44.51 154.194 44.4194C152.687 44.3751 151.148 43.6685 150.307 42.5731L149.418 41.4741V41.4706H149.419Z" fill="black"/>
<path fill-rule="evenodd" clip-rule="evenodd" d="M127.863 44.3414C130.004 49.6426 139.141 50.6653 141.853 45.4546C143.15 42.946 142.742 38.3957 142.742 35.3297L142.756 24.3189L137.751 24.381C137.799 29.0822 137.751 33.7976 137.751 38.5147C137.751 40.6647 138.159 43.5319 136.336 44.1905C133.653 45.1687 132.629 43.1093 131.857 41.8169L127.863 44.3396V44.3414Z" fill="black"/>
<path fill-rule="evenodd" clip-rule="evenodd" d="M360.696 19.9L360.694 33.2809L352.644 32.2619L352.646 20.8996L360.696 19.9018V19.9ZM342.212 43.8088L352.676 41.3712C352.633 40.97 352.503 38.1383 352.792 37.7655L360.756 36.2902L360.694 33.2649L368.752 32.2601L368.754 20.8907C367.516 20.7415 361.376 20.1166 360.71 19.813L360.676 16.8624L352.879 15.451C352.596 15.3285 352.751 15.5415 352.642 15.2397L352.662 11.6393L342.186 9.2674L342.212 43.8106V43.8088Z" fill="#E05142"/>
<path fill-rule="evenodd" clip-rule="evenodd" d="M368.752 11.7281C368.756 12.3655 368.754 13.0046 368.754 13.642C368.754 13.9651 368.758 14.2847 368.763 14.6078C368.768 15.0019 368.879 15.3872 368.537 15.3463C368.177 15.6375 361.688 16.7205 360.676 16.8625L360.71 19.8131C361.376 20.1167 367.516 20.7416 368.754 20.8908L368.752 32.2602L360.694 33.265L360.756 36.2903L368.583 37.6715C368.759 37.7638 368.692 37.6981 368.754 37.8952L368.761 41.3163C370.395 41.7655 372.13 42.1188 373.814 42.536C374.953 42.8183 377.999 43.6864 378.949 43.713L379.184 43.6864L379.161 9.2746L368.751 11.7264L368.752 11.7281Z" fill="#8C3123"/>
<path fill-rule="evenodd" clip-rule="evenodd" d="M378.949 43.713C379.266 43.9616 380.44 43.2177 380.843 43.0189C381.461 42.7117 382.126 42.3638 382.735 42.085L382.731 10.9825C382.133 10.7464 381.523 10.4002 380.946 10.1126C380.39 9.83561 379.711 9.44148 379.163 9.2746L379.186 43.6864L378.951 43.713H378.949Z" fill="#DF5243"/>
<path fill-rule="evenodd" clip-rule="evenodd" d="M342.212 43.809L342.186 9.26581C340.986 9.77534 339.85 10.5245 338.66 10.9844V42.078L342.211 43.809H342.212Z" fill="#8B3123"/>
<path fill-rule="evenodd" clip-rule="evenodd" d="M360.69 13.4236L368.537 15.3463C368.877 15.3872 368.768 15.0037 368.763 14.6078C368.759 14.2847 368.754 13.9669 368.754 13.642C368.754 13.0046 368.758 12.3655 368.752 11.7281L368.731 4.06746C367.787 3.39637 361.369 0.55047 360.786 0.0249634H360.599L360.647 0.0888764L360.69 13.4201V13.4236Z" fill="#E05142"/>
<path fill-rule="evenodd" clip-rule="evenodd" d="M352.646 20.8978L352.644 32.2601L360.694 33.2791L360.696 19.9L352.646 20.8978Z" fill="#8C3123"/>
<path fill-rule="evenodd" clip-rule="evenodd" d="M360.696 39.7007V51.5104C360.696 51.9454 360.81 52.6875 360.565 52.9893C360.838 53.1668 362.171 52.3679 362.579 52.1637L368.751 49.0622L368.761 41.3145L368.754 37.8934C368.692 37.6963 368.759 37.7602 368.583 37.6697C368.289 37.9271 367.986 37.9342 367.607 38.0247C367.284 38.1011 366.919 38.1899 366.579 38.2751C365.248 38.6142 361.624 39.5782 360.697 39.6989L360.696 39.7007Z" fill="#E05142"/>
<path fill-rule="evenodd" clip-rule="evenodd" d="M352.674 41.3713L352.642 49.0941L360.564 52.991C360.808 52.6874 360.694 51.9471 360.694 51.5121V39.7024L352.788 37.7655C352.5 38.1383 352.63 40.97 352.673 41.3713H352.674Z" fill="#8C3123"/>
<path fill-rule="evenodd" clip-rule="evenodd" d="M352.662 11.6377L352.642 15.2381C352.751 15.5399 352.594 15.3287 352.879 15.4494C353.262 15.1156 359.614 13.7095 360.69 13.4219L360.647 0.0907593L352.642 4.02318L352.662 11.6377V11.6377Z" fill="#8C3123"/>
<path fill-rule="evenodd" clip-rule="evenodd" d="M352.879 15.4494L360.676 16.8608C361.688 16.7206 368.175 15.6358 368.537 15.3447L360.69 13.4219C359.614 13.7095 353.262 15.1156 352.879 15.4494Z" fill="#5E1F18"/>
<path fill-rule="evenodd" clip-rule="evenodd" d="M352.79 37.7656L360.696 39.7025C361.622 39.5818 365.246 38.6178 366.577 38.2787C366.917 38.1917 367.282 38.1047 367.605 38.0284C367.984 37.9378 368.287 37.9307 368.581 37.6733L360.754 36.2921L352.79 37.7674V37.7656Z" fill="#F0AFA8"/>
<path fill-rule="evenodd" clip-rule="evenodd" d="M235.101 0.0318604H186.42L191.517 47.473L210.759 52.9909L230 47.473L235.101 0.0318604Z" fill="#E55126"/>
<path fill-rule="evenodd" clip-rule="evenodd" d="M230.335 4.5874L210.759 4.59095V49.5608L225.971 45.2023L230.335 4.5874Z" fill="#F1672C"/>
<path fill-rule="evenodd" clip-rule="evenodd" d="M202.596 15.5912L203.073 21.6221H224.94L223.242 40.0947L210.759 43.8638L198.275 40.4711L197.518 31.0457H203.57L203.952 35.9457L210.759 37.8294L217.569 35.9457L218.324 27.653H197.138L195.854 9.18036H225.891L225.134 15.5912H202.596Z" fill="white"/>
<path fill-rule="evenodd" clip-rule="evenodd" d="M202.596 15.5912L203.073 21.6221H210.759V27.653H197.142L195.852 9.18036H210.759V15.5912H202.599H202.596V15.5912ZM210.756 43.8638L198.27 40.4711L197.513 31.0457H203.565L203.943 35.9457L210.756 37.8294V43.8603V43.8638Z" fill="#CED1DB"/>
<path fill-rule="evenodd" clip-rule="evenodd" d="M259.423 48.9805C255.993 48.9805 258.19 43.8959 259.93 42.4348C260.385 42.0584 260.679 41.7974 261.138 41.4157C261.621 41.018 261.887 40.7943 262.425 40.4357C262.908 40.0966 263.228 39.8552 263.736 39.5143L266.496 37.7922C266.549 38.5343 266.842 39.4131 266.842 40.2724C266.842 42.6158 265.773 44.7978 264.645 46.0796C263.437 47.4022 261.322 48.9823 259.421 48.9823L259.424 48.977L259.423 48.9805ZM290.95 42.2732L294.246 38.3905C294.246 40.331 291.969 42.1951 290.95 42.2732ZM300.993 39.9137C300.993 39.0722 301.102 38.9302 301.314 38.371C301.768 37.2507 302.734 35.7292 303.699 35.0865C303.724 35.9707 304.232 37.2099 302.976 38.7118C302.577 39.1716 301.718 39.8534 300.995 39.9155L300.993 39.9137ZM276.188 42.1578C275.223 41.5187 275.44 39.5533 275.465 38.5165C275.574 35.4345 277.879 30.167 280.422 29.6486C281.2 29.4711 281.147 30.0303 280.983 30.831C280.904 31.4115 280.687 32.0702 280.502 32.6934C280.156 33.8971 279.752 34.9587 279.297 36.0949L277.69 40.1197C277.345 40.8405 277.02 41.9607 276.192 42.1649L276.188 42.1614V42.1578ZM250.901 20.9795C250.901 23.6213 251.517 24.9244 253.069 26.9234C256.203 30.9056 264.103 35.4523 264.72 36.3914C262.95 36.8726 257.326 40.7553 256.016 42.0779C255.478 42.5999 255.079 43.0206 254.621 43.6207C252.157 46.8234 252.556 52.991 257.618 52.991C260.215 52.991 262.172 52.5934 264.182 51.2707C265.577 50.3493 266.754 49.1882 267.69 47.8283C269.539 45.1653 270.425 40.2422 268.735 36.7572L272.511 34.6338C272.402 35.8961 271.679 37.098 271.679 39.9191C271.679 41.3997 272.187 43.184 272.669 44.2456C273.286 45.5842 274.034 46.6477 275.641 46.5678C277.972 46.4258 279.126 42.7064 279.928 40.844L280.199 40.4037C280.199 41.6856 279.903 43.0455 280.411 44.2865C280.814 45.2079 281.321 45.5896 282.312 45.5896C283.49 45.5896 284.776 43.4858 285.259 42.6283C286.492 40.5049 290.536 32.6561 291.044 30.396C291.074 30.4173 291.097 30.4333 291.097 30.4742C291.097 30.5114 291.128 30.5327 291.128 30.5523C291.37 31.1488 290.994 30.112 291.206 30.7298L291.954 33.4923C293.319 37.4371 294.178 35.2925 290.59 39.6972C289.677 40.8387 288.101 42.1614 288.101 43.6828C288.101 44.2012 289.011 44.6398 289.628 44.6398C292.895 44.6398 297.316 42.5999 297.316 38.9746L297.048 36.7927C296.806 35.9139 296.353 35.5109 296.806 34.8309C298.01 33.1478 299.058 31.3885 299.995 29.5261C300.236 29.0663 300.369 28.5461 300.744 28.2638C300.797 30.3872 302.326 32.8105 302.509 33.6893C302.164 34.1918 301.681 34.5735 301.251 35.012C298.199 38.0159 297.554 42.2785 299.911 42.2785C302.563 42.2785 306.874 39.5995 306.874 36.6329C306.874 35.2925 306.525 34.6906 306.285 33.6911C306.954 33.5296 307.542 33.2508 308.211 33.1319C312.014 32.4306 316.861 32.9117 319.246 35.9565C320.748 37.8561 320.454 40.3611 318.443 41.6589C317.99 41.9572 317.773 41.9572 317.748 42.6425C318.418 42.6425 319.006 42.4649 319.489 42.1454C322.195 40.3629 322.357 37.1229 320.697 34.538C320.135 33.6964 319.439 32.9153 318.607 32.3773C315.284 30.1741 310.707 29.8137 306.926 31.2784C306.418 31.4559 305.88 31.8003 305.344 31.8181C305.21 31.195 304.647 30.3747 304.378 29.7143C303.79 28.255 303.817 26.0304 304.245 24.4876C304.565 23.3461 305.556 22.0447 303.092 22.0447C300.761 22.0447 300.41 22.3643 300.04 23.584C299.853 24.1645 299.769 24.8037 299.585 25.3469C299.345 25.9488 299.103 26.4494 298.837 26.9891L296.402 31.4737C296.159 31.8518 295.653 32.5939 295.545 32.9756H295.304C294.821 30.9357 294.367 32.0755 294.367 28.3934C294.367 25.9701 296.806 24.1503 293.056 24.1503C289.975 24.1503 290.857 25.4534 289.922 27.614C288.557 30.7156 287.137 33.6574 285.797 36.8211C285.448 37.6626 284.108 40.8245 283.491 41.2257C282.953 38.9036 285.261 33.9379 285.261 31.8146C285.261 31.3743 284.404 30.8736 283.974 30.8736C283.466 30.8736 283.304 31.1133 282.905 31.2127C283.279 30.4528 283.039 28.6917 282.743 28.0685C281.859 26.0855 279.342 26.9075 277.977 27.7294C276.933 28.3508 275.862 29.1888 275.084 30.1315C274.013 31.4914 273.58 31.5536 272.003 32.3543L267.424 34.8557L264.344 32.1767C263.807 31.7542 263.328 31.3565 262.763 30.9375C260.324 29.116 256.337 26.2328 256.337 22.8703V21.6879C256.337 16.6228 262.71 12.259 266.622 9.91548C268.924 8.53425 271.31 7.37316 273.986 6.33103C278.057 4.78824 284.785 3.30759 289.205 5.39009C295.202 8.23066 289.635 17.4803 280.792 20.6458C277.55 21.8068 272.89 22.691 269.569 20.9849C268.737 20.5623 267.209 18.6218 267.209 19.9232C267.209 20.683 267.716 21.4251 268.119 21.8264C271.95 25.7712 279.155 24.4681 283.709 22.9679C285.72 22.3093 287.755 21.2476 289.253 20.0066C290.805 18.7461 292.279 17.3223 293.353 15.602C294.802 13.2585 295.55 11.3375 295.55 8.1561C295.55 2.32759 288.557 0.0302734 283.495 0.0302734C277.172 0.0302734 272.327 1.87132 267.153 4.35683C265.708 5.03679 264.235 5.81617 262.895 6.7003C261.26 7.78327 259.628 8.8041 258.126 10.0841C257.937 10.2457 257.908 10.283 257.696 10.4658C257.456 10.6434 257.456 10.6274 257.242 10.828C255.553 12.4702 253.921 14.1284 252.688 16.1949C252.071 17.1945 250.894 19.4971 250.894 20.9991V20.9778L250.901 20.9795Z" fill="#CF6499"/>
</g>
<defs>
<clipPath id="clip0_163_2">
<rect width="450" height="53" fill="white"/>
</clipPath>
</defs>
</svg>
