<svg width="66" height="16" viewBox="0 0 66 16" fill="none" xmlns="http://www.w3.org/2000/svg">
<rect width="66" height="16"/>
<path fill-rule="evenodd" clip-rule="evenodd" d="M34.3936 6.56432H64.9547C65.5281 6.56432 66 7.03614 66 7.60957V14.6655C66 15.2389 65.5281 15.7107 64.9547 15.7107H34.3936C33.8202 15.7107 33.3484 15.2389 33.3484 14.6655V7.60957C33.3484 7.03614 33.8202 6.56432 34.3936 6.56432Z" fill="#111111"/>
<path d="M0 15.7617V3H8.84155V4.94532H2.18506V8.57503H8.49313V10.4697H2.18506V15.7617H0V15.7617ZM8.4787 15.7617L13.0084 3H15.9628L20.4707 15.7617H18.0751L14.4893 4.85844H14.4528L10.874 15.7617H8.47839H8.4787ZM10.9612 12.7054V10.7601H18.0023V12.7054H10.9612V12.7054ZM22.0968 15.7617V3H26.1329C27.8244 3 29.0873 3.26124 29.9296 3.76959C30.7643 4.28501 31.1855 5.06166 31.1855 6.09986C31.1855 6.86209 30.9749 7.50091 30.5466 7.99453C30.1255 8.48815 29.5232 8.81478 28.7536 8.95998V8.99651C29.7264 9.14877 30.4521 9.49013 30.9387 10.0273C31.4323 10.5646 31.672 11.2758 31.672 12.1615C31.672 13.3593 31.222 14.2593 30.3146 14.8619C29.3998 15.4645 28.0423 15.762 26.2204 15.762H22.0974L22.0968 15.7617ZM26.2198 13.8962C27.3378 13.8962 28.1581 13.7366 28.6735 13.4244C29.1959 13.1048 29.4575 12.6185 29.4575 11.9509C29.4575 11.2758 29.1959 10.7822 28.6735 10.4774C28.1581 10.1652 27.3378 10.0129 26.2198 10.0129H23.1783V8.191H26.2198C27.1852 8.191 27.8968 8.05317 28.3395 7.77719C28.7824 7.49416 29.0001 7.07299 29.0001 6.49955C29.0001 5.91875 28.7824 5.49788 28.3539 5.25107C27.9257 4.99689 27.2141 4.87348 26.2198 4.87348H24.2816V13.8968H26.2198V13.8962Z" fill="#111111"/>
<path d="M38.5679 14.1937V9.77286H39.2067V10.3681H39.2215C39.3737 10.1649 39.5772 10.0049 39.8167 9.88153C40.0561 9.75076 40.3321 9.69274 40.6443 9.69274C40.9565 9.69274 41.2177 9.75076 41.4283 9.8668C41.6386 9.98283 41.7767 10.1498 41.8492 10.3678H41.871C42.0306 10.1428 42.2341 9.97577 42.4736 9.85943C42.713 9.75045 42.996 9.69244 43.3156 9.69244C43.7874 9.69244 44.1358 9.8232 44.3464 10.0844C44.557 10.353 44.666 10.7669 44.666 11.3477V14.1933H44.0127V11.4929C44.0127 11.0573 43.94 10.7454 43.8022 10.5492C43.6643 10.3534 43.4393 10.2588 43.1271 10.2588C42.7713 10.2588 42.4883 10.3748 42.2777 10.6072C42.0601 10.8396 41.9511 11.1515 41.9511 11.5365V14.1933H41.2905V11.3044C41.2905 10.9633 41.2107 10.7091 41.0581 10.5277C40.9058 10.3537 40.6879 10.2591 40.4048 10.2591C40.1872 10.2591 39.9837 10.3171 39.8096 10.4405C39.6282 10.5566 39.4901 10.7165 39.3814 10.9124C39.2798 11.1085 39.2218 11.3117 39.2218 11.5368V14.1937H38.5685H38.5679ZM47.3514 14.2808C46.8216 14.2808 46.4366 14.1356 46.1901 13.8452C45.9433 13.5548 45.8199 13.1048 45.8199 12.4951V9.77286H46.4876V12.3791C46.4876 12.8365 46.5748 13.1702 46.7344 13.3881C46.9014 13.6058 47.1626 13.7148 47.5111 13.7148C47.7797 13.7148 48.0194 13.6567 48.2297 13.5478C48.4329 13.4388 48.5999 13.2862 48.7162 13.0977C48.8323 12.9089 48.8903 12.6839 48.8903 12.4371V9.77286H49.5583V14.1937H48.9121L48.9047 13.5984H48.8903C48.7233 13.8234 48.5127 13.9904 48.2515 14.1065C47.9899 14.2225 47.6925 14.2808 47.3514 14.2808V14.2808ZM52.3238 14.2808C52.1277 14.2808 51.9318 14.2664 51.7286 14.2446C51.5254 14.2154 51.3292 14.1792 51.1478 14.1356C50.959 14.0847 50.7994 14.0267 50.6542 13.9686L50.7629 13.4244C50.9952 13.5042 51.2347 13.5766 51.4962 13.6276C51.7504 13.6856 52.0043 13.7148 52.2511 13.7148C52.6287 13.7148 52.9117 13.6494 53.1005 13.5333C53.2963 13.4173 53.3909 13.2356 53.3909 12.9961C53.3909 12.8439 53.3473 12.7205 53.2675 12.6259C53.1803 12.5317 53.0569 12.4516 52.8899 12.3935C52.7229 12.3281 52.5053 12.2628 52.2511 12.2047C51.9463 12.1249 51.6703 12.0377 51.4235 11.9361C51.1767 11.8345 50.9879 11.6967 50.85 11.5297C50.7048 11.3627 50.6395 11.1451 50.6395 10.8838C50.6395 10.4989 50.7847 10.2014 51.0824 9.99818C51.3802 9.79496 51.8084 9.69335 52.3745 9.69335C52.636 9.69335 52.9117 9.71515 53.1874 9.75874C53.456 9.80233 53.7028 9.86772 53.9207 9.9549L53.7973 10.5065C53.6012 10.4197 53.3835 10.3613 53.1511 10.3177C52.9188 10.2812 52.6867 10.2597 52.4469 10.2597C52.0694 10.2597 51.7863 10.3177 51.5975 10.4194C51.4014 10.5283 51.3071 10.688 51.3071 10.8985C51.3071 11.0438 51.3507 11.1527 51.4305 11.2396C51.5103 11.3265 51.6267 11.3992 51.7863 11.4573C51.9459 11.5226 52.1421 11.5807 52.3889 11.6387C52.6213 11.6896 52.8389 11.7547 53.0422 11.8275C53.2383 11.8999 53.4197 11.9871 53.572 12.0887C53.7243 12.1903 53.8406 12.3211 53.9348 12.4733C54.022 12.6259 54.0656 12.8073 54.0656 13.0179C54.0656 13.2792 53.9929 13.5042 53.855 13.693C53.7172 13.8818 53.514 14.027 53.2524 14.1286C52.9983 14.2302 52.6864 14.2808 52.3232 14.2808H52.3238ZM55.2128 8.77856V7.99454H56.0042V8.77856H55.2128ZM55.2708 14.194V9.77317H55.9532V14.194H55.2708ZM59.4666 14.2811C58.9874 14.2811 58.5736 14.1869 58.2252 14.0055C57.8841 13.8241 57.6155 13.5554 57.4338 13.2141C57.2523 12.873 57.1581 12.4592 57.1581 11.9874C57.1581 11.5082 57.2523 11.1018 57.4338 10.7607C57.6152 10.4123 57.8838 10.1508 58.2252 9.96933C58.5736 9.78053 58.9874 9.69335 59.4666 9.69335C59.706 9.69335 59.931 9.71515 60.149 9.76611C60.3666 9.8097 60.5772 9.88951 60.7804 9.99849L60.6497 10.5431C60.4609 10.4488 60.265 10.3761 60.0836 10.3325C59.8948 10.2815 59.706 10.2597 59.5102 10.2597C58.9877 10.2597 58.5739 10.4123 58.2761 10.7171C57.9857 11.022 57.8405 11.4431 57.8405 11.9874C57.8405 12.5246 57.9857 12.9455 58.2761 13.2506C58.5739 13.5628 58.9877 13.7151 59.5102 13.7151C59.7063 13.7151 59.8948 13.6862 60.0836 13.6423C60.265 13.5987 60.4612 13.5263 60.6497 13.432L60.7804 13.9763C60.5772 14.0779 60.3666 14.1507 60.149 14.2013C59.9313 14.2593 59.706 14.2811 59.4666 14.2811V14.2811Z" fill="white"/>
</svg>
