<svg width="66" height="16" viewBox="0 0 66 16" fill="none" xmlns="http://www.w3.org/2000/svg">
<rect width="66" height="16"/>
<path fill-rule="evenodd" clip-rule="evenodd" d="M23.2891 5.5319C23.4215 5.64328 23.8742 7.09589 23.9665 7.37092C24.3354 8.4713 25.6353 12.1181 25.8427 12.9197L26.9231 12.8972L29.4865 5.57259C29.5759 5.92721 29.5046 11.975 29.5129 12.9212C29.7912 12.9212 30.4084 12.9625 30.6499 12.8877L30.6421 4.05166C30.4455 3.98929 29.3151 4.00325 29.0698 4.03116C28.9389 4.24025 27.9377 7.26519 27.7702 7.7582L26.4711 11.5069C26.3413 11.4333 26.3808 11.4532 26.3303 11.2886L24.5329 5.88355C24.3392 5.30767 24.0568 4.58774 23.9229 4.02077L22.1355 4.01928V12.9212C22.4126 12.9212 23.0328 12.9625 23.2718 12.8871L23.2888 5.5316L23.2891 5.5319Z" fill="#ACBCD1"/>
<path fill-rule="evenodd" clip-rule="evenodd" d="M17.2258 7.67299C19.6312 6.98514 19.5828 12.5916 17.1338 11.6846C16.5222 11.4579 16.1872 10.7487 16.1451 10.0413C16.0741 8.85178 16.2555 7.95039 17.2258 7.67299ZM16.0485 12.0834C16.1641 12.1232 16.3737 12.4033 16.6309 12.6044C17.3823 13.1918 18.3719 13.1939 19.2124 12.776C20.8231 11.975 21.0446 9.3154 20.4183 7.8999C19.9202 6.77398 18.7571 6.1185 17.5644 6.36233C16.6722 6.54499 16.4765 6.98009 16.1433 7.17166L16.1436 4.04753C15.9241 3.98575 14.7159 4.00624 14.4388 4.02941L14.4341 12.91C14.7046 12.9349 15.797 12.951 16.0274 12.8945L16.0482 12.0834H16.0485Z" fill="#ACBCD1"/>
<path fill-rule="evenodd" clip-rule="evenodd" d="M6.10746 5.53546L6.10657 4.03532C5.69047 3.97978 0.177605 3.99345 0 4.05047L0.000296997 12.8892C0.191266 12.9527 1.61804 12.9533 1.80664 12.885L1.80485 9.16182L5.51406 9.14044C5.52861 8.71632 5.54524 8.02788 5.50218 7.62901L1.83931 7.61535C1.8102 7.52803 1.73595 5.74989 1.85921 5.5515L6.10746 5.53517V5.53546Z" fill="#ACBCD1"/>
<path fill-rule="evenodd" clip-rule="evenodd" d="M11.1261 10.0225C11.2122 10.7793 11.116 11.3047 10.6218 11.6043C9.23157 12.4469 8.06437 10.8538 9.45461 10.397C9.75428 10.2987 10.8193 10.0519 11.1264 10.0225H11.1261ZM7.31801 8.21767C7.66164 8.32429 8.22564 8.36943 8.61411 8.43893C8.94526 8.49833 8.86864 8.39706 9.00021 8.14164C9.32275 7.51437 10.1318 7.5316 10.6684 7.71633C11.0441 7.84582 11.1903 8.27914 11.1258 8.76296C10.2945 9.36349 6.91944 8.87997 7.14071 11.403C7.27703 12.9596 9.11812 13.3804 10.269 12.8859C10.953 12.5919 10.9491 12.4377 11.2565 12.2479C11.3783 12.4089 11.4314 12.7264 11.4902 12.9105C11.7872 12.9337 12.9307 12.9551 13.1739 12.8945C12.9752 12.3979 12.8442 12.1128 12.8226 11.4864C12.7866 10.4606 12.9699 7.88681 12.5775 7.23341C11.9933 6.26104 10.1701 6.18025 9.08069 6.41726C8.10357 6.62991 7.57462 7.26192 7.31831 8.21767H7.31801Z" fill="#ACBCD1"/>
<path fill-rule="evenodd" clip-rule="evenodd" d="M40.4273 12.9111C40.4256 11.738 40.4267 10.5645 40.4262 9.3911C40.4256 8.24052 40.7534 7.42794 41.8235 7.26785C42.3837 7.1844 42.8351 7.41576 43.0059 7.82027C43.3159 8.55386 43.0599 11.8306 43.1594 12.9177L44.2453 12.9061C44.2886 12.4425 44.2577 10.0507 44.2568 9.3905C44.2551 8.21439 44.52 7.42081 45.6408 7.26578C46.1864 7.19034 46.6601 7.44338 46.8351 7.80542C47.0385 8.22597 46.9744 8.92422 46.9744 9.43268C46.9744 10.5066 46.9028 11.8505 46.9827 12.8915C47.2054 12.9521 47.8223 12.9322 48.07 12.9099C48.1062 11.9551 48.0747 10.9388 48.0747 9.97708C48.0747 8.42318 48.3994 6.19895 45.9168 6.32458C44.7237 6.38487 44.3073 7.28419 44.0611 7.38398C43.4065 5.89156 41.384 6.16836 40.6563 6.93996C40.5144 7.09054 40.4294 7.17371 40.3252 7.27379L40.2613 6.47457L39.3751 6.48853L39.3368 6.66732C39.3329 6.72108 39.3377 6.81968 39.3386 6.87789C39.34 7.01748 39.3391 7.15737 39.3391 7.29696C39.3391 9.04034 39.3899 11.2993 39.3338 12.9191L40.4268 12.9102L40.4273 12.9111Z" fill="#ACBCD1"/>
<path fill-rule="evenodd" clip-rule="evenodd" d="M36.8083 9.08311L33.2583 9.09766C33.1472 8.36407 33.841 7.24854 35.021 7.22835C36.187 7.20845 36.909 8.21735 36.8083 9.08281V9.08311ZM36.8175 10.8586C36.1606 12.9251 33.2628 12.5547 33.1796 10.0068L37.9565 10.0044C38.0967 8.00886 37.111 6.3222 35.105 6.3222C33.1068 6.3222 32.0445 7.72642 32.0439 9.72611C32.0427 13.5503 35.7258 13.5268 37.0239 12.4805C37.4677 12.1229 38.029 11.1802 37.9105 11.0287C37.74 10.9082 37.0795 10.8678 36.8172 10.8589L36.8175 10.8586Z" fill="#ACBCD1"/>
<path fill-rule="evenodd" clip-rule="evenodd" d="M52.091 7.24203C52.9101 7.16541 53.2463 7.42677 53.6488 7.82385C54.527 8.6899 54.5623 11.9501 52.584 12.1583C51.173 12.3068 50.4676 11.2551 50.415 9.9278C50.3678 8.73475 50.7251 7.36974 52.091 7.24233V7.24203ZM55.3214 10.1449C55.3808 9.18619 55.2502 8.19391 54.7759 7.53517C54.369 6.97028 53.783 6.49271 52.7818 6.34926C51.7994 6.20848 50.835 6.55121 50.2989 7.02671C48.7694 8.3834 48.6883 12.6623 51.879 13.0546C53.7144 13.2803 55.1961 12.1612 55.3214 10.1446V10.1449Z" fill="#ACBCD1"/>
<path fill-rule="evenodd" clip-rule="evenodd" d="M61.3021 6.47519L60.194 6.48469C60.1643 6.662 60.8976 8.43449 61.0155 8.75614L62.3066 12.1568C62.5127 12.7134 62.657 12.7392 62.4491 13.3436C62.3211 13.7163 62.1964 14.0965 61.8827 14.3264C61.445 14.6474 61.0066 14.3869 60.6169 14.4422C60.6164 14.7276 60.644 15.1585 60.7461 15.3914C61.1106 15.6314 61.8421 15.5491 62.2231 15.3376C62.6362 15.1083 62.8144 14.8232 63.0541 14.3656C63.4571 13.5954 63.7497 12.5853 64.0805 11.7502L66 6.4743C64.7993 6.4841 65.0256 6.30263 64.7431 7.09235L63.5593 10.3062C63.4325 10.6712 63.2834 11.2889 63.1388 11.5999C63.0271 11.4161 62.8037 10.5649 62.7048 10.2919L61.5486 7.09146C61.4827 6.91415 61.3912 6.60082 61.3027 6.4743L61.3021 6.47519Z" fill="#ACBCD1"/>
<path fill-rule="evenodd" clip-rule="evenodd" d="M59.7615 7.63998C59.8328 7.43416 60.0766 6.86066 60.0838 6.66909C59.709 6.38962 59.0371 6.20696 58.5305 6.41278C57.9442 6.65097 57.7803 7.2521 57.5928 7.36318C57.5685 7.08459 57.6424 6.73651 57.5504 6.48139C57.3193 6.45941 56.6793 6.35309 56.6131 6.59306L56.5994 6.87729C56.6151 8.0831 56.5492 12.2794 56.6128 12.9177L57.698 12.9046C57.8857 10.9358 57.0695 7.40446 58.9973 7.45644C59.3481 7.46594 59.488 7.60999 59.7618 7.63969L59.7615 7.63998Z" fill="#ACBCD1"/>
</svg>
