<svg width="66" height="66" viewBox="0 0 66 66" fill="none" xmlns="http://www.w3.org/2000/svg">
<g clip-path="url(#clip0_138_2)">
<rect width="66" height="66"/>
<path fill-rule="evenodd" clip-rule="evenodd" d="M22.7449 13.0437C21.3938 13.2863 20.5797 13.9964 20.0252 14.9838C19.5056 15.9538 19.6786 18.0672 19.6786 19.3494C19.6786 22.4676 19.6786 25.6029 19.6786 28.7212C19.6786 34.975 19.6786 41.2459 19.6786 47.4994C19.6786 49.3009 19.4708 50.1843 20.3542 51.4839C21.0816 52.5406 22.2075 53.0255 23.5416 53.0255C24.3557 53.0255 24.7542 52.8351 25.3779 52.5058C26.5906 51.8302 28.5828 50.6176 29.7954 49.8902C30.7481 49.3187 31.7703 48.7294 32.7229 48.1579L51.8822 36.8458C53.4585 35.9276 54.8445 35.1483 54.7059 32.6361C54.6715 31.9605 54.3767 31.3887 54.0996 30.9212C53.8226 30.4708 53.3374 30.0549 52.8696 29.7605L29.2929 15.8498C28.288 15.2435 27.3699 14.7238 26.3309 14.1001C25.3435 13.4938 24.3386 12.7489 22.7449 13.0434V13.0437Z" fill="#111111"/>
<path fill-rule="evenodd" clip-rule="evenodd" d="M33 0C51.2257 0 66 14.7744 66 33.0001C66 51.2256 51.2257 66.0003 33 66.0003C14.7747 66.0003 0 51.2259 0 33.0001C0 14.7744 14.7743 0 33 0V0ZM33 2.81667C49.6696 2.81667 63.1833 16.3301 63.1833 33.0001C63.1833 49.6698 49.6699 63.1833 33 63.1833C16.3304 63.1833 2.81698 49.6698 2.81698 33.0001C2.81698 16.3305 16.3304 2.81667 33 2.81667V2.81667Z" fill="#111111"/>
</g>
<defs>
<clipPath id="clip0_138_2">
<rect width="66" height="66" fill="white"/>
</clipPath>
</defs>
</svg>
