<svg width="450" height="53" viewBox="0 0 450 53" fill="none" xmlns="http://www.w3.org/2000/svg">
<g clip-path="url(#clip0_163_2)">
<path fill-rule="evenodd" clip-rule="evenodd" d="M415.683 5.81104C416.128 6.45572 419.695 9.79281 420.756 10.83C422.385 12.4231 421.433 11.7606 423.337 11.7606C425.58 11.7606 427.3 13.4567 427.3 15.9058C427.3 17.6196 426.546 16.4918 429.807 19.678C430.624 20.4736 432.575 22.1874 433.096 22.9671C433.879 22.9085 433.498 22.8321 434.806 22.8321C437.848 22.8321 439.999 26.6168 437.601 29.4441C435.327 32.1028 430.408 30.4511 430.408 26.8476C430.408 26.0964 430.637 25.7057 430.701 25.0415C429.685 24.3826 425.876 20.0101 425.03 19.7863V34.1807C425.767 34.6602 426.014 34.7242 426.55 35.4594C428.408 38.0115 426.719 41.7997 423.201 41.7997C419.837 41.7997 418.128 38.1199 419.82 35.5962C422.293 31.9145 421.773 39.562 421.773 19.7899C421.773 19.2766 421.357 19.4116 420.623 18.8415C419.207 17.7599 418.765 15.6554 419.515 14.1227L413.323 8.12693C412.631 8.59224 399.415 21.6653 397.755 23.2886C396.309 24.7022 396.046 24.823 396.017 26.4889V26.8476C396.017 28.2915 397.537 29.3713 398.816 30.6198L418.914 50.2712C420.483 51.8198 421.019 52.9298 423.262 53.008H423.477C425.166 53.008 426.474 51.2497 427.409 50.3493L447.433 30.7566C449.002 29.2221 450.152 28.6822 450.232 26.5031V26.2953C450.232 24.6134 448.448 23.3791 447.513 22.4645L425.706 1.14374C424.739 0.198911 424.383 0.0301918 423.417 0H423.188H422.926H422.634C421.114 0 419.775 1.75823 418.914 2.60005C418.117 3.38149 416.224 5.05092 415.688 5.81637V5.81282L415.683 5.81104Z" fill="#EF5032"/>
<path fill-rule="evenodd" clip-rule="evenodd" d="M383.159 0.0283813H333.528L338.725 47.4864L358.343 53.0062L377.958 47.4864L383.159 0.0283813Z" fill="#0C73B8"/>
<path fill-rule="evenodd" clip-rule="evenodd" d="M378.3 4.58557L358.343 4.58912V49.575L373.852 45.2149L378.3 4.58557Z" fill="#30A9DC"/>
<path fill-rule="evenodd" clip-rule="evenodd" d="M344.241 16.5166L343.115 10.4463H373.57L370.751 40.2261L358.906 43.7141L345.934 40.2261L344.806 30.856H351.009L351.576 35.8145L358.906 37.7628L365.674 35.8145L366.239 28.0979H352.137L351.576 22.5816H366.239L366.802 16.5166H344.241Z" fill="white"/>
<path fill-rule="evenodd" clip-rule="evenodd" d="M344.241 16.5167L343.115 10.4482H358.345V16.5167H344.243H344.241ZM358.343 43.5615L345.932 40.2262L344.806 30.8525H351.009L351.574 35.8164L358.342 37.6137V43.5615H358.343ZM358.343 28.0944H352.137L351.576 22.5782H358.343V28.0944Z" fill="#CED1DB"/>
<path fill-rule="evenodd" clip-rule="evenodd" d="M313.562 0.0283813H263.932L269.128 47.4864L288.747 53.0062L308.362 47.4864L313.562 0.0283813Z" fill="#E55126"/>
<path fill-rule="evenodd" clip-rule="evenodd" d="M308.702 4.58557L288.747 4.58912V49.575L304.255 45.2149L308.702 4.58557Z" fill="#F1672C"/>
<path fill-rule="evenodd" clip-rule="evenodd" d="M280.424 15.5933L280.911 21.6263H303.202L301.473 40.1055L288.747 43.8759L276.018 40.482L275.246 31.0533H281.416L281.807 35.955L288.747 37.8393L295.687 35.955L296.459 27.6594H274.861L273.551 9.18018H304.172L303.402 15.5933H280.424Z" fill="white"/>
<path fill-rule="evenodd" clip-rule="evenodd" d="M280.424 15.5933L280.911 21.6263H288.747V27.6594H274.864L273.549 9.18018H288.747V15.5933H280.428H280.424V15.5933ZM288.743 43.8759L276.014 40.482L275.242 31.0533H281.412L281.798 35.955L288.743 37.8393V43.8724V43.8759V43.8759Z" fill="#CED1DB"/>
</g>
<defs>
<clipPath id="clip0_163_2">
<rect width="450" height="53" fill="white"/>
</clipPath>
</defs>
</svg>
