<svg width="66" height="66" viewBox="0 0 66 66" fill="none" xmlns="http://www.w3.org/2000/svg">
<rect width="66" height="66" fill="transparent"/>
<path d="M40.4638 40.4638C44.5851 40.4638 47.926 37.1228 47.926 33.0015C47.926 28.8803 44.5851 25.5393 40.4638 25.5393C36.3425 25.5393 33.0016 28.8803 33.0016 33.0015C33.0016 37.1228 36.3425 40.4638 40.4638 40.4638Z" fill="#1ABCFE"/>
<path fill-rule="evenodd" clip-rule="evenodd" d="M25.5362 40.4607H25.6414H32.9985V47.923C32.9985 52.0439 29.6572 55.3852 25.5362 55.3852C21.4153 55.3852 18.074 52.0439 18.074 47.9199C18.074 43.7989 21.4153 40.4576 25.5362 40.4576V40.4607Z" fill="#0ACF83"/>
<path fill-rule="evenodd" clip-rule="evenodd" d="M25.6414 25.5362H32.9985V40.4607H25.6414H25.5362C21.4153 40.4607 18.074 37.1194 18.074 32.9954C18.074 28.8744 21.4153 25.5331 25.5362 25.5331H25.6414V25.5362Z" fill="#A259FF"/>
<path fill-rule="evenodd" clip-rule="evenodd" d="M25.6414 25.5362H32.9985V10.6118H25.6414H25.5362C21.4153 10.6118 18.074 13.9531 18.074 18.074C18.074 22.164 21.3627 25.4836 25.4403 25.5362H25.6414Z" fill="#F24E1E"/>
<path fill-rule="evenodd" clip-rule="evenodd" d="M33.0016 25.5362H40.3679H40.5628C44.6373 25.4836 47.9291 22.164 47.9291 18.074C47.9291 13.9531 44.5878 10.6118 40.4669 10.6118H33.0016V25.5362V25.5362Z" fill="#FF7262"/>
</svg>
