<svg width="66" height="66" viewBox="0 0 66 66" fill="none" xmlns="http://www.w3.org/2000/svg">
<rect width="66" height="66" fill="transparent"/>
<path fill-rule="evenodd" clip-rule="evenodd" d="M26.8573 15.5247C27.2254 16.0692 30.1707 18.8876 31.0463 19.7632C32.3921 21.109 31.6062 20.549 33.1779 20.549C35.0311 20.549 36.4511 21.9814 36.4511 24.0512C36.4511 25.4991 35.8293 24.5462 38.5209 27.2378C39.1953 27.9091 40.8072 29.357 41.2372 30.016C41.8838 29.9665 41.5683 29.9015 42.648 29.9015C45.1602 29.9015 46.936 33.0974 44.956 35.4859C43.078 37.732 39.0159 36.3366 39.0159 33.2924C39.0159 32.6581 39.2046 32.3271 39.2572 31.7671C38.4188 31.2102 35.2724 27.5162 34.5732 27.3275V39.4861C35.1827 39.8914 35.3869 39.944 35.8293 40.5659C37.3638 42.7222 35.9685 45.9212 33.0634 45.9212C30.2852 45.9212 28.8744 42.812 30.2728 40.6803C32.3147 37.5711 31.8847 44.0309 31.8847 27.3306C31.8847 26.8975 31.5413 27.0119 30.9349 26.5293C29.7654 25.6166 29.4004 23.8377 30.0191 22.5445L24.9051 17.4799C24.3327 17.8729 13.4178 28.9146 12.0472 30.2852C10.853 31.4794 10.6365 31.5815 10.6117 32.9892V33.2924C10.6117 34.5113 11.8678 35.424 12.9228 36.479L29.521 53.0772C30.8173 54.3859 31.2597 55.3233 33.1129 55.3883H33.2893C34.6846 55.3883 35.7643 53.9032 36.5378 53.1422L53.0741 36.5934C54.3704 35.2971 55.3202 34.8423 55.3852 33.0015V32.8252C55.3852 31.4051 53.9125 30.3625 53.1391 29.5891L35.1301 11.5801C34.3319 10.7819 34.038 10.6396 33.2398 10.6148H33.051H32.8345H32.5932C31.3371 10.6148 30.2326 12.0998 29.521 12.8114C28.862 13.4704 27.2997 14.8812 26.8573 15.5278V15.5247Z" fill="#EF5032"/>
</svg>
