<svg width="66" height="66" viewBox="0 0 66 66" fill="none" xmlns="http://www.w3.org/2000/svg">
<rect width="66" height="66" fill="transparent"/>
<path fill-rule="evenodd" clip-rule="evenodd" d="M53.5072 10.6118H12.4958L16.79 50.7198L33.0015 55.3852L49.21 50.7198L53.5072 10.6118Z" fill="#E55126"/>
<path fill-rule="evenodd" clip-rule="evenodd" d="M49.4915 14.4636L33.0016 14.4667V52.4863L45.8161 48.8016L49.4915 14.4636Z" fill="#F1672C"/>
<path fill-rule="evenodd" clip-rule="evenodd" d="M26.124 23.7666L26.5262 28.8652H44.9467L43.5174 44.4827L33.0015 47.6693L22.4826 44.8013L21.8453 36.8317H26.9439L27.2656 40.9743L33.0015 42.5676L38.7374 40.9743L39.3748 33.9637H21.5266L20.4438 18.3463H45.748L45.1107 23.7666H26.124Z" fill="white"/>
<path fill-rule="evenodd" clip-rule="evenodd" d="M26.124 23.7666L26.5262 28.8652H33.0015V33.9637H21.5297L20.4438 18.3463H33.0015V23.7666H26.1271H26.124ZM32.9985 47.6693L22.4795 44.8013L21.8422 36.8317H26.9408L27.2595 40.9743L32.9985 42.5676V47.6662V47.6693Z" fill="#CED1DB"/>
</svg>
