<svg width="66" height="66" viewBox="0 0 66 66" fill="none" xmlns="http://www.w3.org/2000/svg">
<rect width="66" height="66" fill="transparent"/>
<path d="M55.3883 10.6118H10.6148V55.3852H55.3883V10.6118Z" fill="#F7DF1E"/>
<path fill-rule="evenodd" clip-rule="evenodd" d="M40.6154 45.6521L37.305 47.5672C37.8248 48.9253 39.2727 50.1814 40.5009 50.8682C44.9684 53.3154 52.8111 51.5798 51.8211 44.9034C51.0724 39.8141 44.6652 39.5233 43.1152 37.6577C41.4012 35.6003 44.8044 32.9613 47.0226 35.8293L47.4805 36.3367C48.421 35.8417 49.7885 34.6877 50.6393 34.3845C49.2192 30.146 40.5133 29.2704 38.7993 34.765C38.227 36.5811 38.623 38.6508 39.5109 39.9193C41.5033 42.7625 46.1224 43.2296 47.3413 44.9312C48.6995 46.8494 46.5679 48.2199 44.6373 48.1426C43.3689 48.1055 42.0726 47.5084 41.3641 46.5833L40.6154 45.6552V45.6521Z" fill="black"/>
<path fill-rule="evenodd" clip-rule="evenodd" d="M22.4672 48.0777C24.2708 52.5575 31.962 53.4206 34.2453 49.0182C35.3374 46.8989 34.994 43.0533 34.994 40.4638L35.0063 31.1608L30.7926 31.2134C30.8328 35.1858 30.7926 39.1706 30.7926 43.1554C30.7926 44.9715 31.136 47.3939 29.6015 47.9508C27.343 48.7769 26.4798 47.0381 25.8301 45.946L22.4672 48.0777Z" fill="black"/>
</svg>
