<svg width="709" height="653" viewBox="0 0 709 653" fill="none" xmlns="http://www.w3.org/2000/svg">
<g clip-path="url(#clip0_102_2)">
<path fill-rule="evenodd" clip-rule="evenodd" d="M235.335 407.564L-0.319565 665.271H98.9569L313.568 430.577H256.508L235.335 407.564Z" fill="#FAC20B"/>
<path fill-rule="evenodd" clip-rule="evenodd" d="M609.402 0.273071L392.747 237.203H449.227L470.689 260.532L708.678 0.273071H609.402Z" fill="#EF0070"/>
<path d="M281.334 404.314L136.04 246.407L281.334 88.4988H398.632L253.34 246.407L398.632 404.314H281.334Z" fill="#1B1E1E"/>
<path fill-rule="evenodd" clip-rule="evenodd" d="M247.975 240.668L248.943 239.614L247.975 240.668ZM248.943 239.614L504.911 -40.3087L248.943 239.614V239.614Z" stroke="#FAC20B" stroke-width="0.01667" stroke-miterlimit="2.61313"/>
<path d="M424.403 263.466L569.697 421.373L424.403 579.281H307.105L452.397 421.373L307.105 263.466H424.403Z" fill="#1B1E1E"/>
<path fill-rule="evenodd" clip-rule="evenodd" d="M457.761 427.11L456.794 428.166L457.761 427.11ZM456.794 428.166L200.826 708.089L456.794 428.166V428.166Z" stroke="#EF0070" stroke-width="0.01667" stroke-miterlimit="2.61313"/>
</g>
<defs>
<clipPath id="clip0_102_2">
<rect width="709" height="653" fill="white"/>
</clipPath>
</defs>
</svg>
