<svg width="66" height="66" viewBox="0 0 66 66" fill="none" xmlns="http://www.w3.org/2000/svg">
<rect width="66" height="66" fill="transparent"/>
<path fill-rule="evenodd" clip-rule="evenodd" d="M26.3715 47.9539C26.7583 50.3485 28.8187 50.6517 31.4887 50.6424L54.6953 50.6486C62.5628 50.695 58.4109 44.8941 56.8145 42.2675L45.2839 22.7827C43.7896 21.1245 41.2836 21.5916 40.1792 23.1849L31.5629 37.7691C30.511 39.6192 26.09 46.2152 26.3715 47.957V47.9539Z" fill="#00DC82"/>
<path fill-rule="evenodd" clip-rule="evenodd" d="M22.9993 50.6238C20.4655 47.0597 22.3682 46.0017 25.9198 39.712L33.3326 27.0429C35.028 24.2646 34.5113 25.1804 31.136 19.3022C30.1614 17.6037 29.3601 15.5123 27.0305 15.3266C24.1749 15.0915 23.42 16.9602 22.4517 18.6277C18.4112 25.5795 14.6027 32.0672 10.6179 38.9138C9.64336 40.5906 8.69047 42.2365 7.66643 43.9969C6.48769 46.0295 6.036 48.0374 8.04078 49.7421C9.55983 51.0322 12.7372 50.6424 15.1967 50.6424C17.7677 50.6424 20.4438 50.7135 22.9993 50.6238V50.6238Z" fill="#80EDC1"/>
</svg>
