<svg width="66" height="66" viewBox="0 0 66 66" fill="none" xmlns="http://www.w3.org/2000/svg">
<rect width="66" height="66" fill="transparent"/>
<path fill-rule="evenodd" clip-rule="evenodd" d="M36.2686 39.381L42.6202 45.7913C42.3974 46.2554 36.6615 51.9789 36.2315 52.1924L17.0159 33.0263L36.2067 13.7643C36.8502 14.0954 41.6828 19.1259 42.6202 20.0633L49.0398 26.4241C48.783 26.9903 41.0114 34.598 39.4954 36.1139C38.4528 37.1565 37.1813 38.2981 36.2655 39.3779L36.2686 39.381ZM49.1048 52.279L42.7625 45.9769C43.0935 45.188 48.3097 40.2627 49.3801 39.1861L54.3642 34.1524C55.0016 33.5461 55.6018 32.9954 56.0442 32.4973C58.1882 30.081 58.9895 25.8208 57.192 22.331C56.3597 20.713 55.215 19.7725 54.1415 18.702L44.0557 8.61623C42.054 6.61455 39.6223 3.96935 34.7712 4.69948C31.1484 5.24399 29.3199 7.76853 26.9099 10.1755C24.6297 12.4525 22.4486 14.6337 20.1623 16.9231L10.1415 26.9377C9.22572 27.872 8.24498 29.7159 7.96345 31.4361C7.22712 35.9623 9.35566 38.261 11.8152 40.7175C14.1015 43.0007 16.2796 45.1849 18.5628 47.4651L28.5805 57.4797C29.7376 58.6368 30.4492 59.5711 32.259 60.4807C36.0551 62.3895 39.9007 61.1551 42.3696 59.0297L49.1048 52.2821V52.279Z" fill="#97CA3E"/>
</svg>
