<svg width="66" height="66" viewBox="0 0 66 66" fill="none" xmlns="http://www.w3.org/2000/svg">
<path fill-rule="evenodd" clip-rule="evenodd" d="M36.5738 41.2029C36.5857 38.9995 36.4521 29.0413 36.5901 27.4554C36.7167 26.0046 37.7441 25.45 39.2345 25.4405C45.3827 25.4014 51.7288 25.6253 57.8451 25.4306L57.8414 10.8788L4.69301 10.8804L4.69956 41.1638L36.5738 41.2029V41.2029Z" fill="#F4BC00"/>
<path fill-rule="evenodd" clip-rule="evenodd" d="M62.7526 35.4959L62.725 57.5094C62.5149 57.735 63.0093 57.6926 62.3266 57.7013L52.3744 57.7001C52.1873 57.1243 52.1222 36.3391 52.3452 35.366L62.3266 35.3349C63.0935 35.3473 62.5276 35.3366 62.7526 35.4959V35.4959ZM25.7102 51.9427L36.5072 51.9436L36.5814 57.5153L25.289 57.5314C25.8255 55.3903 25.669 54.1482 25.7102 51.9427V51.9427ZM2.89784 44.8902L36.5781 44.8907L36.5729 49.9745C30.2771 50.2101 23.5429 49.9869 17.2192 49.9869C14.0163 49.9869 10.8134 49.9869 7.61056 49.9869C2.01762 49.9869 2.90462 50.5648 2.8976 44.8902H2.89784ZM50.4909 55.2083L50.4858 57.6578L41.3746 57.6582C41.0585 57.6582 38.7232 57.7486 38.5236 57.5167C38.2877 57.2425 38.4419 33.7086 38.4314 29.1849C38.4305 28.7401 38.3034 27.7237 38.5816 27.4469C38.8549 27.1753 58.9915 27.1645 59.2751 27.4142C59.5514 27.6575 59.4379 29.9147 59.4379 30.3861C59.4379 31.4308 59.4325 32.4767 59.4419 33.5237L57.6805 33.5106C49.5426 33.7731 50.4935 32.0761 50.4935 40.6618C50.4935 45.5075 50.5258 50.3643 50.4912 55.2083H50.4909ZM36.5739 41.2023L36.5367 43.0257L2.97014 43.0259C2.68796 40.8871 2.92638 36.8628 2.92638 34.523C2.92638 31.0394 2.73733 9.71161 3.08549 9.30051C3.78086 8.77126 8.76734 9.04618 10.0133 9.04618H31.2325C33.8815 9.04618 59.0083 8.82788 59.4459 9.24904C59.9335 9.71839 59.6789 23.7382 59.6871 25.4839L57.8457 25.4301C51.7294 25.6245 45.3833 25.4008 39.2351 25.4399C37.7447 25.4495 36.7171 26.004 36.5907 27.4549C36.4527 29.0408 36.5863 38.999 36.5743 41.2023H36.5739ZM61.5301 33.4828C61.733 27.1442 61.5449 20.4794 61.5449 14.105C61.5449 11.0539 62.2531 7.23638 58.864 7.06628C55.8335 6.9142 52.3319 7.07143 49.2483 7.07143H5.74274C1.21579 7.07143 1.06652 7.68913 1.06652 11.9697L1.0375 45.7332C1.0375 48.3779 0.383542 51.862 4.5373 51.8522C10.9594 51.8365 17.3982 51.906 23.8173 51.8456C23.8482 52.9593 23.9343 55.337 23.6765 56.3349C23.3533 57.5869 21.6867 57.475 20.4638 57.5476L20.4537 59.3567C23.6526 59.7025 33.6234 59.2263 38.7271 59.5446C41.5636 59.7214 45.0098 59.5511 47.9137 59.5511L61.7936 59.5516C63.4183 59.5567 64.4794 59.3777 64.6546 57.8501L64.6675 39.4613C64.6675 33.8298 65.2003 33.8054 61.5301 33.4832V33.4828Z" fill="#3F4B59"/>
<path fill-rule="evenodd" clip-rule="evenodd" d="M50.4909 55.2081C50.5256 50.3641 50.4933 45.5073 50.4933 40.6617C50.4933 32.0759 49.5424 33.773 57.6803 33.5104L57.7224 29.3721L40.1752 29.4018L40.193 55.2065L50.4912 55.2079L50.4909 55.2081Z" fill="#F04633"/>
<path fill-rule="evenodd" clip-rule="evenodd" d="M36.5738 41.2027L4.69961 41.1636L4.69306 10.8802L57.8414 10.8786L57.8452 25.4304L59.6866 25.4842C59.6784 23.7385 59.9329 9.71875 59.4453 9.24939C59.0076 8.82801 33.881 9.04654 31.2319 9.04654H10.0127C8.7668 9.04654 3.78032 8.77162 3.08495 9.30087C2.73679 9.71196 2.92585 31.04 2.92585 34.5234C2.92585 36.8629 2.68766 40.8875 2.9696 43.0263L36.5361 43.026L36.5733 41.2027H36.5738Z" fill="#FEFFFE"/>
<path fill-rule="evenodd" clip-rule="evenodd" d="M2.89765 44.8911C2.90444 50.5659 2.01767 49.9878 7.61061 49.9878C10.8135 49.9878 14.0164 49.9878 17.2193 49.9878C23.5429 49.9878 30.2772 50.2112 36.573 49.9754L36.5781 44.8916L2.89788 44.8911H2.89765Z" fill="#FEFFFE"/>
<path fill-rule="evenodd" clip-rule="evenodd" d="M53.5896 55.2368L61.5151 55.2328L61.5064 37.0429L53.5887 36.9952L53.5896 55.2368Z" fill="#4397D0"/>
<path fill-rule="evenodd" clip-rule="evenodd" d="M50.491 55.2091L40.1928 55.2077L40.1751 29.4031L57.7223 29.3734L57.6801 33.5117L59.4415 33.5248C59.4322 32.4777 59.4375 31.4319 59.4375 30.3872C59.4375 29.9155 59.551 27.6586 59.2747 27.4152C58.9911 27.1656 38.8545 27.1763 38.5812 27.448C38.303 27.7248 38.4301 28.7414 38.431 29.186C38.4415 33.7099 38.2874 57.2435 38.5232 57.5178C38.7225 57.7496 41.0581 57.6593 41.3742 57.6593L50.4854 57.6588L50.4906 55.2094L50.491 55.2091Z" fill="#FEFFFE"/>
<path fill-rule="evenodd" clip-rule="evenodd" d="M53.5888 36.9952L61.5065 37.043L61.5152 55.2329L53.5898 55.2369L53.5888 36.9952V36.9952ZM62.7529 35.4966C62.5278 35.3375 63.0938 35.348 62.3266 35.3359L52.3452 35.367C52.1225 36.3399 52.1873 57.125 52.3747 57.7009L62.3266 57.702C63.0094 57.6934 62.5152 57.7357 62.7253 57.5102L62.7532 35.4966H62.7529Z" fill="#F7F8FC"/>
<path fill-rule="evenodd" clip-rule="evenodd" d="M25.7102 51.9428C25.6692 54.1483 25.8255 55.3905 25.289 57.5316L36.5813 57.5154L36.5072 51.9438L25.7102 51.9428V51.9428Z" fill="#A1E3ED"/>
</svg>
