<svg width="66" height="66" viewBox="0 0 66 66" fill="none" xmlns="http://www.w3.org/2000/svg">
<rect width="66" height="66" fill="transparent"/>
<path fill-rule="evenodd" clip-rule="evenodd" d="M12.9909 49.7699C10.4416 49.7699 12.0751 45.9769 13.3683 44.8879C13.7055 44.6064 13.9252 44.4115 14.2655 44.1268C14.6244 43.8298 14.8224 43.6628 15.2215 43.3967C15.5804 43.143 15.8186 42.9636 16.196 42.7099L18.2472 41.426C18.2874 41.9797 18.504 42.6356 18.504 43.276C18.504 45.024 17.7089 46.6514 16.8705 47.6074C15.9733 48.5943 14.4016 49.773 12.9878 49.773L12.9909 49.7699ZM36.4233 44.7673L38.8736 41.8715C38.8736 43.3194 37.1813 44.7085 36.4233 44.7673ZM43.8886 43.0069C43.8886 42.3788 43.9691 42.2737 44.1268 41.856C44.4641 41.0207 45.1818 39.8852 45.8996 39.4057C45.9182 40.0647 46.2956 40.9897 45.3613 42.1097C45.0643 42.4531 44.4269 42.9605 43.8886 43.0069ZM25.4527 44.6806C24.7349 44.2042 24.8958 42.7377 24.9144 41.9643C24.9948 39.6656 26.7088 35.7365 28.5991 35.3497C29.1776 35.2167 29.1374 35.6344 29.0167 36.2315C28.958 36.6646 28.7971 37.1565 28.6579 37.6206C28.4011 38.5178 28.101 39.3098 27.7637 40.1575L26.5695 43.1585C26.3128 43.6968 26.0714 44.5321 25.4558 44.6837L25.4527 44.6806ZM6.65785 28.8837C6.65785 30.8544 7.11573 31.8259 8.26972 33.3171C10.5994 36.2872 16.4714 39.678 16.9293 40.3803C15.6144 40.7391 11.4347 43.6349 10.4601 44.6218C10.061 45.0117 9.76403 45.3241 9.42371 45.7727C7.59218 48.1612 7.88918 52.7616 11.6512 52.7616C13.5818 52.7616 15.0359 52.4646 16.5302 51.4777C17.5666 50.7909 18.4421 49.9246 19.1382 48.9099C20.5119 46.9236 21.1709 43.2513 19.9148 40.6525L22.7209 39.0685C22.6404 40.009 22.1021 40.9062 22.1021 43.01C22.1021 44.1145 22.4795 45.4448 22.8384 46.2368C23.2963 47.2361 23.8532 48.0281 25.0474 47.9693C26.7799 47.8641 27.6369 45.089 28.234 43.6999L28.4351 43.372C28.4351 44.3279 28.2154 45.3427 28.5929 46.2677C28.893 46.9546 29.2704 47.2392 30.0067 47.2392C30.8823 47.2392 31.8383 45.6706 32.1972 45.0302C33.1129 43.4462 36.1201 37.5927 36.4975 35.9066C36.5192 35.9221 36.5378 35.9345 36.5378 35.9654C36.5378 35.9932 36.5594 36.0087 36.5594 36.0242C36.7389 36.4697 36.4604 35.6962 36.6182 36.1572L37.1751 38.2177C38.1898 41.1599 38.8272 39.5604 36.1603 42.846C35.4828 43.6968 34.3102 44.6837 34.3102 45.8191C34.3102 46.2059 34.9878 46.5338 35.4456 46.5338C37.8743 46.5338 41.1599 45.0117 41.1599 42.3077L40.9619 40.6803C40.7824 40.0245 40.4452 39.7244 40.7825 39.217C41.6766 37.9609 42.4562 36.6491 43.1523 35.26C43.3317 34.9166 43.4307 34.5299 43.7092 34.3195C43.7494 35.9035 44.8848 37.7103 45.021 38.3662C44.7642 38.7405 44.4053 39.0252 44.0866 39.3531C41.8189 41.593 41.3393 44.7734 43.0904 44.7734C45.0612 44.7734 48.2663 42.7748 48.2663 40.5628C48.2663 39.5635 48.0065 39.1149 47.827 38.3693C48.3251 38.2486 48.7614 38.0413 49.2595 37.9516C52.0872 37.4288 55.6884 37.7876 57.4611 40.0585C58.578 41.4755 58.3583 43.3441 56.864 44.3125C56.5268 44.5352 56.3659 44.5352 56.3473 45.0457C56.8455 45.0457 57.2817 44.9127 57.6406 44.6744C59.6515 43.3441 59.7722 40.9279 58.5378 39.0004C58.1201 38.3724 57.6034 37.7907 56.9847 37.3885C54.5158 35.7457 51.1126 35.4766 48.3035 36.5687C47.926 36.7017 47.5269 36.9585 47.1278 36.9709C47.0288 36.5068 46.6112 35.8942 46.4101 35.4023C45.9738 34.3133 45.9924 32.655 46.3111 31.5041C46.5493 30.6533 47.2856 29.6819 45.4541 29.6819C43.7216 29.6819 43.4617 29.9201 43.1863 30.8297C43.0471 31.2628 42.9852 31.7393 42.8491 32.1446C42.6697 32.5932 42.4902 32.9675 42.2922 33.3697L40.4824 36.7141C40.3029 36.9956 39.9255 37.5494 39.845 37.8341H39.6656C39.3067 36.3119 38.9695 37.1627 38.9695 34.4154C38.9695 32.6086 40.7824 31.2505 37.9949 31.2505C35.7055 31.2505 36.3614 32.2219 35.6653 33.8338C34.6505 36.1479 33.5956 38.3414 32.5994 40.702C32.3395 41.33 31.3433 43.6875 30.8854 43.9876C30.4863 42.2551 32.2003 38.5518 32.2003 36.9678C32.2003 36.6398 31.5629 36.2655 31.2443 36.2655C30.8668 36.2655 30.7462 36.4449 30.4492 36.5192C30.7276 35.953 30.5482 34.6382 30.3285 34.1741C29.6726 32.6953 27.8009 33.3078 26.7861 33.9204C26.0096 34.3845 25.2145 35.0094 24.6359 35.7117C23.8408 36.7265 23.5191 36.7729 22.3465 37.37L18.9433 39.2355L16.6539 37.237C16.2548 36.9214 15.899 36.6244 15.4783 36.3119C13.6653 34.9537 10.7014 32.8035 10.7014 30.2945V29.4127C10.7014 25.6352 15.4381 22.3805 18.3462 20.6325C20.0571 19.6023 21.8298 18.736 23.8192 17.9595C26.8449 16.8086 31.8445 15.7041 35.1301 17.2572C39.5882 19.3764 35.4487 26.2756 28.8775 28.6362C26.4674 29.5025 23.0055 30.1614 20.5366 28.8899C19.9179 28.5743 18.7824 27.1264 18.7824 28.0979C18.7824 28.664 19.1599 29.2178 19.46 29.5179C22.3063 32.4601 27.6617 31.4887 31.0463 30.3687C32.5406 29.8768 34.0534 29.0848 35.1672 28.1597C36.3212 27.2192 37.4164 26.1581 38.2146 24.8741C39.2912 23.1261 39.8481 21.6937 39.8481 19.3208C39.8481 14.974 34.6505 13.26 30.8885 13.26C26.189 13.26 22.5878 14.6337 18.7422 16.4868C17.6687 16.9942 16.5735 17.5759 15.5773 18.2348C14.3614 19.0423 13.1486 19.8034 12.0318 20.7594C11.8926 20.88 11.8709 20.9079 11.7131 21.044C11.5337 21.177 11.5337 21.1647 11.3759 21.3132C10.1198 22.5383 8.90704 23.7758 7.99128 25.3165C7.5334 26.0621 6.65785 27.7792 6.65785 28.8992V28.8837Z" fill="#CF6499"/>
</svg>
