<svg width="66" height="66" viewBox="0 0 66 66" fill="none" xmlns="http://www.w3.org/2000/svg">
<path fill-rule="evenodd" clip-rule="evenodd" d="M16.7899 42.0657C15.0485 42.4708 14.9829 42.982 14.5899 40.9438C12.3112 29.1288 20.6244 18.2536 31.9527 16.8355C36.4484 16.2727 41.0617 17.3003 44.4012 19.1822C50.151 22.4224 55.8164 29.2944 54.8494 39.0589C54.4117 43.4803 52.5487 47.2553 50.408 49.8447C47.7004 53.12 45.4935 54.4646 41.5935 56.1748C42.7332 56.3333 49.8079 56.4436 50.4209 56.0849C51.5439 55.4278 54.0694 52.4245 54.7649 51.4296C57.2221 47.914 59.1284 43.5239 59.3656 38.0831C59.7951 28.2303 54.5359 19.8223 46.398 15.2402C42.4285 13.0051 36.9812 11.7693 31.6781 12.4023C26.2434 13.0512 20.7618 15.7983 17.7147 18.815C17.2498 19.2751 17.1363 19.5137 16.6278 19.9413C14.8011 21.4787 12.3691 25.713 11.412 28.1621C10.0015 31.7714 9.48046 35.9495 9.93626 39.9085C10.0405 40.8122 10.6175 43.1528 10.5273 43.7666C9.97164 44.2622 9.41821 44.1637 8.77867 44.5487L14.1585 47.6359L16.7899 42.0655V42.0657Z" fill="#F8759D"/>
<path fill-rule="evenodd" clip-rule="evenodd" d="M3.28801 57.3401C3.09741 58.128 3.11468 60.9912 3.26524 61.8188C5.38845 61.8767 7.57116 61.8301 9.70095 61.8301C25.6217 61.8301 40.9781 61.829 58.3221 61.8301C60.826 61.8262 60.2978 61.6716 60.4777 63.775C61.6493 62.8612 63.1905 61.2613 64.4712 60.1676L65 59.5588L60.4516 55.4256C60.4516 56.1241 60.5158 56.6644 60.3118 57.2376C59.291 57.4751 48.1712 57.3336 46.1319 57.3336C32.0876 57.3336 17.1174 57.1035 3.28801 57.3404V57.3401Z" fill="#6DC9F7"/>
<path fill-rule="evenodd" clip-rule="evenodd" d="M10.6707 26.8205C10.72 26.7725 12.7336 23.1253 12.8603 22.8733C10.5876 22.1375 8.88453 21.2028 7.63918 19.0964C5.10433 14.808 6.77065 9.13303 11.4452 7.14284C13.8615 6.11387 16.8711 6.29103 18.8361 7.58163C18.8884 8.38818 18.4006 8.68574 18.0443 9.22847L24.1773 8.9364L23.4409 2.78371C22.3908 3.68351 22.4459 4.50871 21.4022 3.95529C18.5928 2.46586 16.2082 1.54358 12.4906 2.23221C8.32315 3.00366 5.45345 5.48311 3.80578 8.22967C-0.380567 15.2092 3.04201 24.3745 10.6707 26.8205V26.8205Z" fill="#0088EE"/>
</svg>
