<svg width="79" height="63" viewBox="0 0 79 63" fill="none" xmlns="http://www.w3.org/2000/svg">
<g clip-path="url(#clip0_144_176)">
<path fill-rule="evenodd" clip-rule="evenodd" d="M60.5497 22.7514H68.3376L68.3401 25.5017H60.5481L60.5495 22.7514H60.5497ZM47.3107 22.7514H54.978L54.9815 25.5017H47.2857L47.3109 22.7514H47.3107ZM60.5565 15.5205C61.3377 15.3024 67.0475 15.4621 68.3407 15.4623L68.3064 18.1489L60.5523 18.1103L60.5565 15.5205ZM47.3107 15.4621L54.9819 15.4623L54.9339 18.1477L47.2938 18.1478L47.3107 15.4621ZM41.7901 30.2626L48.618 30.2987C48.2295 31.1281 44.0308 33.4523 43.005 33.9949C42.0138 34.5189 40.8244 34.9636 39.7112 35.3888C39.1058 35.6202 38.5964 35.7783 37.9924 35.9651C37.6845 36.0603 37.4364 36.145 37.1177 36.2378C36.7483 36.3452 36.4395 36.3719 36.2237 36.599C37.0927 37.463 37.1914 37.2996 38.2826 38.6413C38.765 39.2344 39.6476 40.3116 39.9413 41.1107C41.0072 40.9328 43.474 39.721 44.4297 39.2586C46.2426 38.3809 46.9986 37.7942 48.443 36.9965C48.8629 39.6517 47.5869 42.4905 45.8455 44.1288C44.9956 44.9283 44.1832 45.521 42.9639 46.1352C42.0475 46.5969 40.4749 47.2817 39.4514 47.5263C39.6545 47.9394 41.4712 49.2401 42.4748 50.7384C42.7525 51.1528 42.9694 51.6861 43.2092 52.1004C51.4447 49.2158 54.7779 43.8078 54.0774 34.5725L51.8332 34.5663C52.2819 34.0297 52.8458 33.6029 53.3898 33.0935L54.9567 31.4992C55.1769 31.2424 55.4323 30.9284 55.6467 30.6537C56.0261 30.1675 56.1275 30.2908 56.8684 30.2963C60.7012 30.3252 59.6881 29.9113 60.9205 31.3658L63.5252 34.0292C63.795 34.2429 63.925 34.2826 64.088 34.6049L62.2795 34.6173L62.2467 51.5062L67.8936 51.5221L67.9122 37.3658C68.3498 37.5281 70.4649 38.7912 71.7234 39.3325C72.644 39.7287 74.9052 40.7696 75.8918 40.8984C76.7686 39.7911 77.1447 38.696 78.6071 37.2935C78.9262 36.9875 79.5353 36.6166 79.7307 36.1849C76.6453 35.6086 72.4205 33.9248 69.7856 32.2584C69.2839 31.9411 67.3447 30.6733 67.1372 30.3011L74.004 30.2967L74.0035 10.6661L41.8005 10.6666L41.7903 30.2623L41.7901 30.2626Z" fill="#FF0000"/>
<path fill-rule="evenodd" clip-rule="evenodd" d="M15.8724 25.6007C16.0053 25.4172 15.6477 25.4852 16.2365 25.4212C16.2712 25.4175 16.5652 25.4294 16.6265 25.4303C17.7433 25.4464 21.3986 25.3405 21.9409 25.4966C21.9586 25.6803 22.1066 33.4933 21.8622 33.9289L15.8832 33.9117L15.8726 25.6007H15.8724ZM-7.97663e-07 48.8844V10.4099L4.6133 10.4022L4.61476 20.1094L10.3482 20.1133L10.3669 9.46907L15.8808 9.46687L15.8825 20.1107L21.9278 20.1131L21.9426 9.94944L27.6388 9.94651L27.6406 20.1105L33.9182 20.1184L33.9207 25.4827L27.6415 25.4995L27.6404 39.2002L10.3491 39.1603L10.313 25.483L4.61512 25.5072L4.61457 43.5146L32.5904 43.5274C32.7769 44.251 32.649 47.8638 32.649 48.8838H-0.000183105L-7.97663e-07 48.8844Z" fill="#FF0000"/>
<path fill-rule="evenodd" clip-rule="evenodd" d="M21.862 33.9289C22.1066 33.4933 21.9586 25.6803 21.9407 25.4966C21.3982 25.3405 17.7431 25.4464 16.6263 25.4303C16.5652 25.4292 16.2711 25.4173 16.2363 25.421C15.6475 25.4851 16.0052 25.417 15.8723 25.6005C16.5552 25.3859 20.8119 25.5198 21.8618 25.5198V33.9289H21.862Z" fill="#FF6F6F"/>
</g>
<defs>
<clipPath id="clip0_144_176">
<rect width="79" height="63" fill="white"/>
</clipPath>
</defs>
</svg>
