<svg width="66" height="66" viewBox="0 0 66 66" fill="none" xmlns="http://www.w3.org/2000/svg">
<rect width="66" height="66"/>
<path fill-rule="evenodd" clip-rule="evenodd" d="M19.7817 27.6647C19.8312 27.5565 20.1035 27.2007 20.1777 27.1048C20.5335 26.6407 21.1739 25.9446 21.638 25.5641C22.331 24.9948 23.0983 24.441 24.11 24.0295C27.2656 22.7456 29.9139 23.7573 32.2962 25.6661C32.6241 25.926 33.6636 26.8139 33.8833 27.0769C34.0194 27.2378 34.2329 27.4203 34.3937 27.575L35.8973 29.0693C36.2376 29.3911 36.5563 29.7128 36.974 30.0129C39.5109 31.8507 42.5459 33.0046 45.9274 33.0634C48.2137 33.1036 50.8187 32.5994 52.6007 31.7145C53.6093 31.2164 54.6829 30.4275 55.4718 29.6262L55.9575 29.1034C56.3071 28.664 56.4773 28.4815 56.8516 27.9772C57.8169 26.6747 59.1039 24.1223 59.3421 22.4672C59.1936 22.6435 59.0637 22.8229 58.9183 23.0055L57.458 24.5184C56.9878 24.8927 56.8454 25.0226 56.3164 25.3661C53.8599 26.9655 51.0631 26.9346 48.5015 25.7157C47.4527 25.2175 46.8679 24.673 46.2182 24.0172C46.0636 23.8625 45.8903 23.6552 45.7325 23.5221C45.5252 23.3458 45.4108 23.188 45.2406 23.0024C45.1602 22.9158 45.0797 22.857 44.9993 22.7673L44.3867 22.1176C44.3156 22.0588 44.3063 22.0619 44.2506 22C44.0681 21.7865 43.9536 21.6844 43.7649 21.5081C43.669 21.4215 43.5947 21.3565 43.4988 21.2699L42.8522 20.682C40.2101 18.3555 36.8904 17.1799 33.1686 17.1768C29.8428 17.1737 26.4798 17.9842 24.0759 20.0354C22.5476 21.341 21.5452 22.6868 20.6944 24.6143C20.4222 25.233 19.791 27.0367 19.7848 27.6616L19.7817 27.6647Z" fill="#06B6D5"/>
<path fill-rule="evenodd" clip-rule="evenodd" d="M6.65785 43.4245C6.8342 43.1306 7.30755 42.5335 7.5303 42.2984C7.70356 42.1158 7.82731 41.955 8.01603 41.7724C8.17691 41.6177 8.35325 41.46 8.53579 41.3115C9.21642 40.7391 10.0053 40.1853 11.0108 39.7769C13.2879 38.8612 15.4566 39.0932 17.4057 40.2132C18.3122 40.7329 19.0454 41.2991 19.7384 41.89L20.5304 42.6109C20.6233 42.6913 20.7099 42.7655 20.7934 42.8491L21.2946 43.3596C21.4679 43.5266 21.6164 43.6782 21.7865 43.8515C22.331 44.4022 23.2499 45.3396 23.8656 45.782C25.1402 46.6916 26.2787 47.3196 27.7699 47.8765C29.3385 48.4612 31.1298 48.7984 32.8314 48.8232C35.0032 48.8541 37.8093 48.3529 39.4769 47.4712C40.4607 46.9515 41.1506 46.4905 41.856 45.8377C42.286 45.4417 42.4593 45.3025 42.8677 44.8291C43.1647 44.4826 43.4648 44.1206 43.7463 43.7184C44.3032 42.9202 44.7456 42.1653 45.219 41.1815C45.5067 40.5844 46.1595 38.9323 46.2182 38.2238L44.5785 40.0616C43.8793 40.7082 42.9141 41.395 41.8715 41.8157C39.5882 42.7377 37.4195 42.4252 35.3528 41.4631C34.8424 41.2279 34.5144 41.0175 34.1215 40.7082C33.5151 40.2317 32.621 39.3191 32.1043 38.7436L31.1267 37.7288C30.4801 37.0884 29.8087 36.4759 29.0198 35.8571C26.5108 33.8956 23.4231 32.9304 20.0231 32.9304C18.7886 32.9304 17.5449 33.0263 16.3786 33.2738C14.7729 33.6172 13.4147 34.1308 12.0998 34.963C11.7626 35.1765 10.6891 35.9561 10.4044 36.2686C10.2467 36.4418 10.0734 36.6244 9.91872 36.7636C9.80115 36.8657 9.77331 36.9275 9.6774 37.0265C8.91014 37.8217 8.00984 39.3252 7.56434 40.3833C7.25496 41.1227 6.72592 42.6232 6.66095 43.4152L6.65785 43.4245Z" fill="#06B6D5"/>
</svg>
