<svg width="66" height="66" viewBox="0 0 66 66" fill="none" xmlns="http://www.w3.org/2000/svg">
<path fill-rule="evenodd" clip-rule="evenodd" d="M23.0623 4.30908H25.2759L25.2655 6.51513H23.0729L23.0623 4.30908ZM13.3134 1.00077H13.7856C14.7729 1.00567 16.2037 1.0049 17.9162 1.00077H43.909C44.6886 1.01959 45.1656 1.04459 45.2499 1.07706C45.2344 1.10901 45.2192 1.12319 45.2149 1.17731C45.2105 1.2322 45.1883 1.25282 45.1832 1.27988C44.977 2.33291 45.1597 8.92839 45.2478 9.52243C44.7997 10.3157 45.2491 12.1321 45.7226 12.7818C46.2584 13.5173 47.033 14.1154 48.2505 14.2149C49.869 14.3471 54.7112 14.3853 56.2498 14.1917V26.3786L42.9336 26.3827L42.9385 39.6015V42.923H56.1248L56.1946 39.6294L56.2498 39.6417V44.016L56.1812 44.008L37.413 44.0013L37.4125 59.4735L37.4223 62.7313L55.9998 62.7816C55.5364 64.5307 54.0306 64.9255 52.5959 65H50.7498H13.4565C11.9511 64.9768 10.6515 64.5109 10.0448 62.9553C9.46341 61.4641 9.74999 55.8629 9.74999 53.9239L32.955 53.9558L32.9937 51.7508L32.9994 38.515L9.74999 38.506V37.3548L38.5075 37.4073L38.491 34.0831L38.5021 29.624L38.5135 12.0364L9.74999 12.0179C9.74999 10.0536 9.75025 8.08952 9.74999 6.12521C9.74999 5.09202 9.72422 4.1761 9.95101 3.32615C10.3734 1.74325 11.7117 1.03943 13.3134 1V1.00077ZM18.7049 4.31501L20.8457 4.31733L20.8596 6.51487L18.6528 6.47802L18.7049 4.31475V4.31501ZM14.3074 4.30727L16.4364 4.33872L16.4457 6.4989L14.2368 6.51513L14.3074 4.30727V4.30727Z" fill="#A1E3ED"/>
<path fill-rule="evenodd" clip-rule="evenodd" d="M22.3456 15.4393C26.465 14.4221 28.0937 20.8653 23.8499 21.858C19.6015 22.8517 18.0394 16.5026 22.3456 15.4393ZM1 18.6028V28.5364C1.5278 28.2597 1.9234 27.8628 2.37543 27.4994C4.5802 25.7271 10.41 21.2291 12.0004 19.7916C12.5967 20.1782 14.2281 21.8018 14.7664 22.2327C16.0292 23.244 22.3822 29.2485 23.125 29.6276C23.9365 28.9462 30.2841 23.3584 30.9307 23.0997C31.1412 23.4834 32.3674 24.3846 32.7519 24.749C33.3506 25.3163 33.9501 25.758 34.6271 26.3716L38.5021 29.625L38.5135 12.0374L9.74999 12.0189L7.57074 12.0011L7.62331 18.6618L1.00026 18.603L1 18.6028Z" fill="#3FA4E8"/>
<path fill-rule="evenodd" clip-rule="evenodd" d="M53.2239 50.2082C53.7772 49.8017 54.1349 49.168 54.7496 48.8405C55.2326 49.1301 57.2358 50.9743 57.242 51.7519C57.2482 52.5529 55.2457 54.4082 54.7468 54.6821L53.2677 53.1258C53.6584 52.8446 54.3697 52.164 54.5615 51.7508C54.1978 51.0906 53.5801 50.879 53.2236 50.2082H53.2239ZM44.3747 54.6806C43.8348 54.2159 43.441 53.7556 42.9683 53.2822C42.6289 52.9425 41.8617 52.4155 41.8687 51.7534C41.8777 50.888 44.017 49.0005 44.402 48.8173L45.8749 50.236C45.454 50.8921 44.9435 51.0228 44.5383 51.764L45.8798 53.0843C45.6914 53.5667 44.8182 54.4071 44.375 54.6806H44.3747ZM49.6349 47.1058L51.6944 47.6609L49.485 56.4217L47.3877 55.8807L49.6349 47.1058V47.1058ZM56.1459 59.4991L56.2498 59.4893L61.7497 59.5011V44.0008L56.2498 44.0165L56.1812 44.0085C55.7601 44.2126 54.455 44.1268 53.8746 44.1268H37.513V59.397L56.1459 59.4991V59.4991Z" fill="#F04633"/>
<path fill-rule="evenodd" clip-rule="evenodd" d="M29.9998 27.8636C30.4652 28.111 31.2585 28.9086 31.5476 29.4076L29.3748 31.5167C28.9076 31.2595 28.1102 30.466 27.8381 29.9761L30.0001 27.8638L29.9998 27.8636ZM5.89532 28.8756C6.05614 28.6228 5.94584 28.7677 6.17366 28.5478L9.99379 25.4939C10.417 25.1485 10.8677 24.7308 11.3749 24.4795C11.8774 25.0444 12.2578 25.4807 12.6789 26.1256L7.24988 30.4987C6.73599 30.1024 6.29917 29.4101 5.89532 28.8756ZM1 28.5362V34.1258L9.74999 34.0962L38.491 34.0836L38.5021 29.6246L34.6271 26.3712C33.9501 25.7575 33.3504 25.3158 32.752 24.7486C32.3674 24.3844 31.1412 23.4829 30.9307 23.0992C30.2841 23.3582 23.9365 28.946 23.125 29.6271C22.3822 29.2483 16.0292 23.2435 14.7664 22.2322C14.2281 21.8011 12.5967 20.1777 12.0004 19.7911C10.41 21.2287 4.5802 25.7266 2.37543 27.4989C1.9234 27.8623 1.5278 28.2592 1 28.536V28.5362Z" fill="#93C928"/>
<path fill-rule="evenodd" clip-rule="evenodd" d="M13.133 46.2563L29.6862 46.2504L29.6789 48.4096L13.1856 48.4459L13.133 46.2563ZM8.71732 46.2481L10.9259 46.2679L10.9195 48.4041L8.7887 48.4503L8.71732 46.2481V46.2481ZM13.1387 41.8295L29.6885 41.8288L29.7501 44.0338L13.625 44.0371L13.139 44.0173V41.8295H13.1387ZM8.72505 41.8288H10.9275L10.9375 44.0338H8.72505V41.8288ZM9.74999 51.7604L32.9937 51.7514L32.9994 38.5156L9.74999 38.5065L5.37499 38.5006V51.7508L9.74999 51.7606V51.7604Z" fill="#FFAE17"/>
<path fill-rule="evenodd" clip-rule="evenodd" d="M46.2426 34.1026H61.6871L61.6899 36.3099H46.2498L46.2429 34.1026H46.2426ZM52.8636 29.6918H61.6871L61.6899 31.8991H52.8747L52.8639 29.6918H52.8636ZM46.2426 29.6918H50.6558L50.6547 31.8991H46.2416L46.2424 29.6918H46.2426ZM42.9382 39.602L56.1943 39.6298L56.2495 39.6422L64.9995 39.6254V26.376L56.2495 26.3793L42.9333 26.3835L42.9382 39.6022V39.602Z" fill="#4397D0"/>
<path fill-rule="evenodd" clip-rule="evenodd" d="M9.74999 37.3553L38.5073 37.4078L38.4908 34.0838L9.74999 34.0962V37.3553Z" fill="#1E8080"/>
<path fill-rule="evenodd" clip-rule="evenodd" d="M55.9995 62.7821C56.3379 61.9752 56.2495 60.6379 56.2495 59.4892L56.1456 59.499L37.4122 59.474L37.422 62.7318L55.9995 62.7821V62.7821Z" fill="#1E8080"/>
<path fill-rule="evenodd" clip-rule="evenodd" d="M45.2476 9.523C45.8035 11.442 47.1547 12.0468 49.4999 12.0412C51.4055 12.0368 54.3473 12.2169 56.1248 11.9973L45.2499 1.07764C45.2344 1.10959 45.2192 1.12377 45.2149 1.17789C45.2105 1.23278 45.1883 1.2534 45.1832 1.28046C44.977 2.33349 45.1597 8.92897 45.2478 9.523H45.2476Z" fill="#C7C7C7"/>
<path fill-rule="evenodd" clip-rule="evenodd" d="M9.74999 53.9244L32.9548 53.9564L32.9937 51.7514L9.74999 51.7604V53.9244Z" fill="#1E8080"/>
<path fill-rule="evenodd" clip-rule="evenodd" d="M56.1946 39.6299L42.9382 39.6018V42.9235H56.1245L56.1946 39.6299Z" fill="#1E8080"/>
<path fill-rule="evenodd" clip-rule="evenodd" d="M13.1387 44.0173L13.6248 44.0374L29.7498 44.034L29.6882 41.8287L13.1387 41.8295V44.0173Z" fill="white"/>
<path fill-rule="evenodd" clip-rule="evenodd" d="M13.1856 48.4462L29.6789 48.4096L29.6862 46.2504L13.133 46.2564L13.1856 48.4462Z" fill="white"/>
<path fill-rule="evenodd" clip-rule="evenodd" d="M22.3456 15.4393C18.0392 16.5029 19.6012 22.852 23.8499 21.858C28.094 20.8653 26.4652 14.4219 22.3456 15.4393Z" fill="#F4BC00"/>
<path fill-rule="evenodd" clip-rule="evenodd" d="M46.2498 36.3096H61.6899L61.6871 34.1025H46.2426L46.2498 36.3096Z" fill="white"/>
<path fill-rule="evenodd" clip-rule="evenodd" d="M56.2495 14.1922L56.2248 12.275C56.1701 12.0091 56.2193 12.1493 56.1245 11.9972C54.347 12.2171 51.4052 12.0367 49.4996 12.041C47.1544 12.0464 45.8035 11.4418 45.2473 9.52289C44.7992 10.3161 45.2486 12.1325 45.722 12.7822C46.2578 13.5178 47.0325 14.1159 48.25 14.2154C49.8684 14.3476 54.7107 14.3857 56.2492 14.1922H56.2495Z" fill="#1E8080"/>
<path fill-rule="evenodd" clip-rule="evenodd" d="M1 18.6025L7.62305 18.6615L7.57048 12.0009L1 18.6025Z" fill="#A1E3ED"/>
<path fill-rule="evenodd" clip-rule="evenodd" d="M52.8747 31.8989H61.6899L61.6871 29.6918H52.8639L52.8747 31.8989Z" fill="white"/>
<path fill-rule="evenodd" clip-rule="evenodd" d="M47.3877 55.8807L49.485 56.4216L51.6944 47.6611L49.635 47.1057L47.3877 55.8807Z" fill="white"/>
<path fill-rule="evenodd" clip-rule="evenodd" d="M5.89532 28.8759C6.29916 29.4107 6.73599 30.1027 7.24988 30.499L12.6789 26.1258C12.2578 25.4808 11.8774 25.0445 11.3749 24.4798C10.8674 24.7313 10.417 25.1488 9.99378 25.4942L6.17365 28.5481C5.94583 28.7679 6.05614 28.6228 5.89532 28.8759V28.8759Z" fill="#83A834"/>
<path fill-rule="evenodd" clip-rule="evenodd" d="M44.3747 54.6805C44.8182 54.4071 45.6914 53.5669 45.8795 53.0842L44.5381 51.764C44.9432 51.0228 45.4535 50.8921 45.8746 50.236L44.4018 48.8172C44.0167 49.0002 41.8774 50.8877 41.8684 51.7534C41.8614 52.4155 42.6289 52.9425 42.9681 53.2822C43.441 53.7556 43.8348 54.2156 44.3744 54.6805H44.3747Z" fill="white"/>
<path fill-rule="evenodd" clip-rule="evenodd" d="M53.2239 50.2081C53.5803 50.879 54.1981 51.0905 54.5617 51.7508C54.37 52.1639 53.6587 52.8446 53.268 53.1257L54.747 54.6821C55.246 54.4081 57.2487 52.5528 57.2422 51.7518C57.236 50.9743 55.2328 49.1301 54.7499 48.8404C54.1352 49.168 53.7775 49.8017 53.2242 50.2081H53.2239Z" fill="white"/>
<path fill-rule="evenodd" clip-rule="evenodd" d="M46.2419 31.8989H50.655L50.6558 29.6918H46.2426L46.2419 31.8989Z" fill="white"/>
<path fill-rule="evenodd" clip-rule="evenodd" d="M27.8378 29.976C28.11 30.4662 28.9076 31.2595 29.3746 31.5167L31.5474 29.4075C31.2582 28.9086 30.465 28.1109 29.9995 27.8635L27.8376 29.9758L27.8378 29.976Z" fill="#83A834"/>
<path fill-rule="evenodd" clip-rule="evenodd" d="M8.72505 44.034H10.9373L10.9272 41.8287H8.72505V44.034Z" fill="white"/>
<path fill-rule="evenodd" clip-rule="evenodd" d="M23.0729 6.51507H25.2655L25.2756 4.30902H23.0623L23.0729 6.51507Z" fill="#4397D0"/>
<path fill-rule="evenodd" clip-rule="evenodd" d="M18.6528 6.47858L20.8596 6.51518L20.8457 4.31763L18.7049 4.31531L18.6528 6.47858Z" fill="#4397D0"/>
<path fill-rule="evenodd" clip-rule="evenodd" d="M14.2368 6.51522L16.4457 6.49898L16.4364 4.3388L14.3074 4.30762L14.2368 6.51522Z" fill="#4397D0"/>
<path fill-rule="evenodd" clip-rule="evenodd" d="M8.7887 48.4502L10.9195 48.404L10.9259 46.2678L8.71706 46.248L8.7887 48.4502Z" fill="white"/>
<path fill-rule="evenodd" clip-rule="evenodd" d="M37.4125 59.4741L56.1459 59.4991L37.513 59.397V44.1268H53.8746C54.455 44.1268 55.7598 44.2126 56.1812 44.0085L37.413 44.0018L37.4125 59.4741V59.4741Z" fill="#CD7A72"/>
</svg>
