<svg width="66" height="66" viewBox="0 0 66 66" fill="none" xmlns="http://www.w3.org/2000/svg">
<path fill-rule="evenodd" clip-rule="evenodd" d="M5.8721 32.1048H15.9436C16.4232 32.1048 16.8157 32.4973 16.8157 32.9769C16.8157 33.4565 16.4222 33.849 15.9436 33.849H5.8721C5.39346 33.849 5 33.4565 5 32.9769C5 32.4973 5.39247 32.1048 5.8721 32.1048Z" fill="#20C4C4"/>
<path fill-rule="evenodd" clip-rule="evenodd" d="M45.6977 39.2704V2.74445H11.7879V28.8059C11.7879 29.2816 11.3954 29.678 10.9158 29.678C10.4361 29.678 10.0437 29.2855 10.0437 28.8059V1.87235L10.0439 1.84981L10.0447 1.82753L10.0461 1.80549L10.0481 1.78345L10.0506 1.76166L10.0538 1.74012L10.0575 1.71858L10.0617 1.69728V1.69704L10.0664 1.67599V1.67574L10.0716 1.65494L10.0773 1.63414L10.0835 1.61359L10.0902 1.59328L10.0974 1.57323V1.57298L10.1051 1.55317V1.55292L10.1132 1.53336L10.1217 1.51405L10.1308 1.49498L10.1402 1.47616V1.47592L10.1501 1.45734L10.1605 1.43902H10.1608L10.1714 1.42119L10.1826 1.40336L10.194 1.38578L10.2059 1.3687H10.2061L10.2185 1.35161L10.2314 1.33502L10.2445 1.31868L10.2579 1.30259L10.2717 1.28699L10.2858 1.27163L10.3004 1.25653L10.3153 1.24192L10.3307 1.22781L10.3463 1.21394L10.3623 1.20057L10.3787 1.18744L10.3953 1.17457L10.4124 1.16219V1.16194L10.4294 1.15005L10.447 1.13842L10.4649 1.12727L10.4827 1.11663H10.4829L10.5013 1.10623L10.5198 1.09632L10.5386 1.08691L10.5577 1.07775L10.577 1.06933L10.5966 1.06116H10.5968L10.6166 1.05348L10.6367 1.0463L10.657 1.03962L10.6776 1.03343L10.6981 1.02773L10.7189 1.02253H10.7192L10.7402 1.01783H10.7405L10.7617 1.01362L10.7833 1.0099L10.8048 1.00669L10.8266 1.00421L10.8487 1.00248L10.8707 1.00099L10.893 1.00025L10.9155 1H46.5696L46.5921 1.00025L46.6144 1.00099H46.6146L46.6367 1.00248L46.6587 1.00421L46.6805 1.00669L46.702 1.0099L46.7236 1.01362L46.7449 1.01783L46.7659 1.02253H46.7662L46.787 1.02749L46.8078 1.03318L46.8283 1.03937L46.8486 1.04606L46.8687 1.05324H46.8689L46.8887 1.06091L46.9083 1.06884L46.9276 1.07726V1.0775L46.9467 1.08642L46.9655 1.09583H46.9657L46.9843 1.10548V1.10573L47.0026 1.11588L47.0207 1.12653V1.12678L47.0385 1.13767V1.13792L47.0561 1.14931L47.0903 1.17358L47.1069 1.18621L47.1232 1.19933L47.1549 1.22682L47.1703 1.24093C47.1903 1.26024 47.2096 1.2803 47.228 1.30135V1.30159L47.2413 1.31744V1.31769L47.2547 1.33379L47.2676 1.35037V1.35062L47.28 1.36746L47.2802 1.36771L47.3037 1.40237V1.40262L47.3149 1.42045L47.3255 1.43828V1.43853L47.3359 1.4566V1.45685L47.3458 1.47517V1.47542L47.3552 1.49424V1.49449L47.3644 1.51331V1.51355L47.3728 1.53287V1.53311L47.381 1.55243V1.55268L47.3887 1.57224V1.57249L47.3959 1.59254L47.4025 1.6126L47.4087 1.63315V1.6334L47.4144 1.65395V1.6542L47.4196 1.67475V1.675L47.4241 1.6958V1.69605L47.4283 1.71734L47.432 1.73864L47.4352 1.76018V1.76042L47.4377 1.78197V1.78222L47.4394 1.80401L47.4409 1.82604L47.4417 1.84833L47.4419 1.87086V39.2689C47.4419 39.748 47.0494 40.141 46.5698 40.141C46.0902 40.141 45.6977 39.7485 45.6977 39.2689V39.2704Z" fill="#3FA4E8"/>
<path fill-rule="evenodd" clip-rule="evenodd" d="M41.6279 39.2703V11.4646H15.8579V28.8048C15.8579 29.2817 15.4654 29.6769 14.9858 29.6769C14.5062 29.6769 14.1137 29.2844 14.1137 28.8048V10.5925L14.114 10.5702L14.115 10.5479V10.5477L14.1164 10.5256L14.1184 10.5036L14.1209 10.4818L14.1241 10.46L14.1276 10.4387L14.1318 10.4174L14.1362 10.3964L14.1414 10.3756L14.1469 10.3548L14.1531 10.3342L14.1595 10.3139L14.1667 10.2939V10.2936L14.1741 10.2738L14.1823 10.2543V10.254L14.191 10.2347L14.2001 10.2156L14.2093 10.1968V10.1966L14.2192 10.178L14.2293 10.1597H14.2296L14.2402 10.1416L14.2514 10.1238L14.2628 10.1062L14.2747 10.0891V10.0888L14.287 10.072L14.2999 10.0554L14.313 10.0391L14.3264 10.023H14.3267L14.3405 10.0074L14.3549 9.99228L14.3695 9.97717L14.3844 9.96256H14.3846L14.3997 9.9482L14.4153 9.93434V9.93409L14.4314 9.92072L14.4477 9.90759L14.4643 9.89472L14.4812 9.88234L14.4985 9.87045L14.5161 9.85906L14.5339 9.84792L14.552 9.83727L14.5703 9.82687H14.5706L14.5891 9.81697L14.608 9.80756H14.6082L14.6273 9.7984L14.6466 9.78973H14.6468L14.6664 9.78156L14.6862 9.77413L14.7063 9.76695L14.7266 9.76026L14.7471 9.75407L14.7679 9.74838L14.7887 9.74318L14.8098 9.73872L14.8311 9.73451L14.8526 9.7308L14.8744 9.72758L14.8962 9.7251L14.9182 9.72312L14.9403 9.72164L14.9625 9.72065L14.9848 9.7204H42.499L42.5213 9.72065L42.5436 9.72164H42.5439L42.5659 9.72312L42.5879 9.7251L42.6097 9.72758L42.6315 9.7308L42.6528 9.73451L42.6741 9.73872L42.6951 9.74318V9.74343L42.7159 9.74838L42.7367 9.75383L42.7573 9.75977L42.7776 9.76621L42.7977 9.77314C43.0648 9.87169 43.2711 10.0973 43.3429 10.3751L43.3481 10.3954V10.3959L43.3526 10.4164V10.4169L43.3568 10.4377V10.4382L43.3602 10.4593V10.4598L43.3635 10.4811V10.4813L43.3659 10.5029V10.5031L43.3679 10.5247V10.5249L43.3694 10.5467V10.5469L43.3704 10.569L43.3706 10.5913V39.2693C43.3706 39.7474 42.9784 40.1414 42.4985 40.1414C42.0189 40.1414 41.6264 39.7489 41.6264 39.2693L41.6279 39.2703Z" fill="#3FA4E8"/>
<path fill-rule="evenodd" clip-rule="evenodd" d="M25.0583 60.5935H32.2228C32.7024 60.5935 33.0949 60.201 33.0949 59.7214C33.0949 59.2417 32.7004 58.8493 32.2228 58.8493H25.0583C24.5806 58.8493 24.1862 59.2417 24.1862 59.7214C24.1862 60.201 24.5786 60.5935 25.0583 60.5935Z" fill="#3FA4E8"/>
<path fill-rule="evenodd" clip-rule="evenodd" d="M45.6977 55.2192V63.2556H11.7879V48.8224C11.7879 48.3482 11.3954 47.9503 10.9158 47.9503C10.4361 47.9503 10.0437 48.3427 10.0437 48.8224V64.1277L10.0439 64.1502L10.0447 64.1725L10.0461 64.1945L10.0481 64.2166L10.0506 64.2384L10.0538 64.2599L10.0575 64.2814L10.0617 64.3027V64.303L10.0664 64.324V64.3243L10.0716 64.3451L10.0773 64.3659L10.0835 64.3864L10.0902 64.4067L10.0974 64.4268L10.1051 64.4466V64.4468L10.1132 64.4664L10.1217 64.4857L10.1308 64.5048L10.1402 64.5236V64.5239L10.1501 64.5424L10.1605 64.5608L10.1608 64.561L10.1714 64.5788L10.1826 64.5967L10.194 64.6142L10.2059 64.6313H10.2061L10.2185 64.6484L10.2314 64.665L10.2445 64.6813L10.2579 64.6974L10.2717 64.713L10.2858 64.7284L10.3004 64.7435L10.3153 64.7581L10.3307 64.7722L10.3463 64.7861L10.3623 64.7995L10.3787 64.8126L10.3953 64.8255L10.4124 64.8378V64.8381L10.4294 64.85L10.447 64.8616L10.4649 64.8728L10.4827 64.8834H10.4829L10.5013 64.8938L10.5198 64.9037L10.5386 64.9131L10.5577 64.9223L10.577 64.9307L10.5966 64.9389H10.5968L10.6166 64.9465L10.6367 64.9537L10.657 64.9604L10.6776 64.9666L10.6981 64.9723L10.7189 64.9775H10.7192L10.7402 64.9822H10.7405L10.7617 64.9864L10.7833 64.9901L10.8048 64.9933L10.8266 64.9958L10.8487 64.9975L10.8707 64.999L10.893 64.9998L10.9155 65H46.5696L46.5921 64.9998L46.6144 64.999H46.6146L46.6367 64.9975L46.6587 64.9958L46.6805 64.9933L46.702 64.9904L46.7236 64.9867L46.7449 64.9824L46.7659 64.9777H46.7662L46.787 64.9728V64.9725L46.8078 64.9671L46.8283 64.9611V64.9609C47.1287 64.8668 47.3602 64.6145 47.4241 64.303L47.4283 64.2822V64.2817L47.432 64.2609V64.2604L47.4352 64.2394V64.2389L47.4377 64.2176V64.2171L47.4394 64.1955V64.1953L47.4409 64.1735V64.1732L47.4417 64.1512V64.151L47.4419 64.1287V55.2202C47.4419 54.7428 47.0494 54.3481 46.5698 54.3481C46.0902 54.3481 45.6977 54.7406 45.6977 55.2202V55.2192Z" fill="#3FA4E8"/>
<path fill-rule="evenodd" clip-rule="evenodd" d="M5.8721 36.175H17.6878C18.1674 36.175 18.5599 36.5675 18.5599 37.0471C18.5599 37.5267 18.1662 37.9192 17.6878 37.9192H5.8721C5.39371 37.9192 5 37.5267 5 37.0471C5 36.5675 5.39247 36.175 5.8721 36.175V36.175Z" fill="#20C4C4"/>
<path fill-rule="evenodd" clip-rule="evenodd" d="M5.8721 40.2454H17.6878C18.1674 40.2454 18.5599 40.6376 18.5599 41.1175C18.5599 41.5972 18.1659 41.9896 17.6878 41.9896H5.8721C5.39395 41.9896 5 41.5972 5 41.1175C5 40.6379 5.39247 40.2454 5.8721 40.2454V40.2454Z" fill="#20C4C4"/>
<path fill-rule="evenodd" clip-rule="evenodd" d="M5.8721 44.3158H17.6878C18.1674 44.3158 18.5599 44.708 18.5599 45.1879C18.5599 45.6675 18.1662 46.06 17.6878 46.06H5.8721C5.39371 46.06 5 45.6675 5 45.1879C5 44.7083 5.39247 44.3158 5.8721 44.3158V44.3158Z" fill="#20C4C4"/>
<path fill-rule="evenodd" clip-rule="evenodd" d="M25.0583 7.10272H32.2228C32.7024 7.10272 33.0949 6.71025 33.0949 6.23062C33.0949 5.75099 32.7004 5.35852 32.2228 5.35852H25.0583C24.5806 5.35852 24.1862 5.75099 24.1862 6.23062C24.1862 6.71025 24.5786 7.10272 25.0583 7.10272Z" fill="#3FA4E8"/>
<path d="M37.5777 15.7011H20.0971C19.7866 15.7011 19.535 15.9614 19.535 16.2825V23.6746C19.535 23.9957 19.7866 24.256 20.0971 24.256H37.5777C37.8881 24.256 38.1398 23.9957 38.1398 23.6746V16.2825C38.1398 15.9614 37.8881 15.7011 37.5777 15.7011Z" fill="#C7C7C7"/>
<path fill-rule="evenodd" clip-rule="evenodd" d="M16.0463 49.4223H33.4918L33.4886 51.5815C33.4883 51.9012 42.7912 51.5025 42.7912 51.8205V54.4888C42.7912 54.8069 42.528 55.0701 42.2098 55.0701H16.0463C15.7281 55.0701 15.4649 54.8087 15.4649 54.4888V50.0037C15.4649 49.6838 15.7264 49.4223 16.0463 49.4223Z" fill="#C7C7C7"/>
<path fill-rule="evenodd" clip-rule="evenodd" d="M14.9858 56.2793H42.5C42.9796 56.2793 43.3721 55.8868 43.3721 55.4072C43.3721 54.9276 42.9787 54.5351 42.5 54.5351H15.8579V48.8234C15.8579 48.3474 15.4654 47.9513 14.9858 47.9513C14.5062 47.9513 14.1137 48.3442 14.1137 48.8234V55.4072L14.114 55.4297L14.115 55.452V55.4523L14.1164 55.4743V55.4745L14.1184 55.4963L14.1209 55.5181L14.1241 55.5397V55.5399L14.1276 55.5612L14.1318 55.5825L14.1362 55.6036L14.1414 55.6244L14.1469 55.6449L14.1531 55.6655L14.1595 55.6855V55.6858L14.1667 55.7058V55.7061L14.1741 55.7256V55.7259L14.1823 55.7454V55.7457L14.191 55.765L14.2001 55.7841L14.2093 55.8029V55.8031L14.2192 55.8215V55.8217L14.2293 55.8398L14.2296 55.84L14.2402 55.8579V55.8581L14.2514 55.8759L14.2628 55.8933L14.2747 55.9103V55.9106L14.287 55.9274L14.2999 55.944V55.9443L14.313 55.9604L14.3264 55.9765H14.3267L14.3405 55.9921V55.9923L14.3549 56.0074L14.3695 56.0223L14.3844 56.0366H14.3846L14.3997 56.0507V56.051L14.4153 56.0649L14.4314 56.0782V56.0785L14.4477 56.0914V56.0916L14.4643 56.1042V56.1045L14.4812 56.1169L14.4985 56.1287V56.129L14.5161 56.1404L14.5339 56.1515L14.552 56.1622L14.5703 56.1723H14.5706L14.5891 56.182L14.608 56.1914H14.6082L14.6273 56.2003L14.6466 56.209H14.6468L14.6664 56.2169V56.2171L14.6862 56.2246L14.7063 56.2317L14.7266 56.2384L14.7471 56.2446L14.7679 56.2503L14.7887 56.2555L14.8098 56.26L14.8311 56.2642L14.8526 56.2679L14.8744 56.2711L14.8962 56.2736L14.9182 56.2756L14.9403 56.2771L14.9625 56.2781L14.9848 56.2783L14.9858 56.2793Z" fill="#3FA4E8"/>
<path fill-rule="evenodd" clip-rule="evenodd" d="M25.9512 32.9997H36.4166L36.4389 32.9995L36.4612 32.9985L36.4832 32.997L36.5053 32.995L36.5271 32.9925V32.9923L36.5488 32.9893L36.5704 32.9859L36.5917 32.9816L36.6127 32.9772L36.6338 32.972C36.9604 32.8873 37.2144 32.6169 37.2749 32.2814V32.2806L37.2783 32.2599V32.2591L37.2815 32.2381V32.2376L37.284 32.2163V32.2158L37.286 32.1942V32.1937L37.2875 32.1719V32.1717L37.2885 32.1497L37.2887 32.1274V22.0552L37.2885 22.0329V22.0326L37.2875 22.0106V22.0103L37.286 21.9885V21.988L37.284 21.9665V21.966L37.2815 21.9447L37.2813 21.9442L37.2783 21.9232V21.9224L37.2749 21.9016V21.9009C37.2724 21.8868 37.2694 21.8729 37.2662 21.8593V21.8583L37.2612 21.8385L37.261 21.8375L37.2555 21.8177C37.2516 21.8038 37.2474 21.7905 37.2427 21.7768L37.2424 21.7758C37.1941 21.6347 37.1104 21.5094 37.0022 21.4109L37.0012 21.4099C36.9861 21.396 36.9703 21.3829 36.9542 21.37L36.9532 21.3693L36.9376 21.3574L36.9366 21.3566L36.9205 21.345L36.8856 21.3212L36.8846 21.3205L36.8678 21.3101L36.8668 21.3093L36.8497 21.2992L36.8485 21.2984L36.8311 21.2888L36.8301 21.288L36.8126 21.2789L36.8116 21.2784L36.7937 21.2695L36.7927 21.269L36.7747 21.2606L36.7737 21.2601L36.7554 21.2519L36.7544 21.2514L36.7356 21.2437L36.7346 21.2432L36.7155 21.2358L36.7145 21.2355L36.6952 21.2286L36.6944 21.2284L36.6749 21.2219L36.6739 21.2217L36.6541 21.2157L36.6533 21.2155L36.6335 21.21L36.6328 21.2098L36.6125 21.2048H36.6117L36.5907 21.2001L36.5701 21.1959H36.5696L36.5488 21.1922H36.5484L36.5273 21.1892H36.5268L36.5053 21.1868H36.5048L36.4832 21.185H36.483L36.4612 21.1835H36.4609L36.4389 21.1828L36.4166 21.1826H25.9512L25.9289 21.1828L25.9069 21.1835H25.9066L25.8848 21.185H25.8846L25.863 21.1868H25.8625L25.841 21.1892H25.8405L25.8195 21.1925H25.819L25.7979 21.1962H25.7974L25.7766 21.2004C25.4649 21.2645 25.2125 21.496 25.1187 21.7961L25.1128 21.8167L25.1073 21.8375L25.1024 21.8583L25.1021 21.8585L25.0977 21.8796V21.8798L25.0934 21.9011L25.0897 21.9227L25.0868 21.9442L25.0843 21.966L25.0823 21.988L25.0808 22.0101L25.0801 22.0324L25.0798 22.0549V32.1271L25.0801 32.1494L25.0808 32.1717L25.0823 32.1937L25.0843 32.2158L25.0868 32.2376L25.09 32.2594L25.0937 32.2809L25.0979 32.3022L25.1024 32.3232L25.1076 32.344L25.1133 32.3648L25.1194 32.3854L25.1261 32.4057L25.1333 32.4258L25.1407 32.4456L25.1489 32.4651V32.4654L25.1573 32.4847L25.1665 32.5038V32.504L25.1759 32.5228L25.1858 32.5414V32.5416L25.1962 32.56L25.2069 32.578L25.218 32.5959L25.2294 32.6134L25.2413 32.6308L25.2537 32.6476L25.2665 32.6642L25.2799 32.6805L25.2933 32.6966L25.3071 32.7122L25.3215 32.7273V32.7276L25.3361 32.7425L25.3512 32.7571L25.3663 32.7712L25.3819 32.785V32.7853L25.398 32.7987L25.4144 32.8118L25.4309 32.8247L25.4478 32.837H25.448L25.4651 32.8489L25.4827 32.8603L25.5005 32.8715L25.5186 32.8821V32.8824L25.5369 32.8925L25.5555 32.9024H25.5557L25.5746 32.9116L25.5936 32.9207L25.6129 32.9294H25.6132L25.6328 32.9376L25.6526 32.945H25.6528L25.6729 32.9522L25.6932 32.9586L25.7137 32.9648L25.7345 32.9703L25.7553 32.9755L25.7764 32.9799L25.7977 32.9841L25.8192 32.9876L25.8407 32.9908L25.8625 32.9933L25.8846 32.9953L25.9066 32.9968H25.9069L25.9291 32.9977L25.9517 32.998L25.9512 32.9997ZM35.5445 24.016L32.5246 27.0359L35.5445 30.0558V24.0163V24.016ZM31.2915 28.269L28.3053 31.2553H34.2777L31.2915 28.269V28.269ZM26.8233 30.2705L30.0581 27.0357L26.8233 23.8008V30.2705V30.2705ZM31.2915 25.8023L34.1668 22.9272H28.4164L31.2915 25.8023Z" fill="#3F4B59"/>
<path fill-rule="evenodd" clip-rule="evenodd" d="M34.6514 43.2538H53.2569V51.0004H34.6514V43.2538ZM55.0011 42.3817V51.8727L55.0009 51.895L54.9999 51.917V51.9173L54.9984 51.9391V51.9396L54.9964 51.9611V51.9616L54.9939 51.9829V51.9834L54.9907 52.0045V52.0052L54.9872 52.026V52.0267C54.9295 52.3481 54.6943 52.6094 54.3875 52.7055L54.367 52.7114V52.7116L54.3462 52.7171V52.7173L54.3254 52.7223L54.3043 52.727L54.283 52.7312L54.2617 52.7347L54.2399 52.7376V52.7379L54.2181 52.7404L54.1961 52.7423L54.1741 52.7438H54.1738L54.1515 52.7448L54.1292 52.7451H33.7795L33.757 52.7448L33.7347 52.7438H33.7345L33.7124 52.7423L33.6904 52.7404L33.6686 52.7379L33.6471 52.7347L33.6255 52.7312L33.6042 52.727L33.5832 52.7223H33.5829L33.5621 52.7171L33.5413 52.7114L33.5208 52.7052L33.5005 52.6988L33.4804 52.6916H33.4802L33.4604 52.6842L33.4408 52.676L33.4215 52.6676L33.4024 52.6584L33.3836 52.649H33.3833L33.3648 52.6391L33.3464 52.6289V52.6287L33.3284 52.618L33.3105 52.6069L33.293 52.5955L33.2759 52.5836H33.2756L33.2588 52.5712L33.2422 52.5584L33.2259 52.5452L33.2098 52.5319V52.5316L33.1942 52.5178L33.1788 52.5037L33.1637 52.489L33.1491 52.4742V52.4739L33.1347 52.4588L33.1209 52.4432L33.1075 52.4271L33.0941 52.4108L33.0813 52.3942L33.0689 52.3774H33.0686L33.0567 52.3603L33.0451 52.3427L33.034 52.3249L33.0233 52.307V52.3068L33.0129 52.2885V52.2882L33.003 52.2697L32.9936 52.2508V52.2506L32.9844 52.2315L32.976 52.2122L32.9678 52.1926L32.9602 52.1728L32.953 52.1528L32.9463 52.1325L32.9401 52.1119L32.9344 52.0914L32.9292 52.0703L32.9248 52.0493L32.9205 52.028L32.9168 52.0064L32.9136 51.9847L32.9111 51.9629L32.9094 51.9408L32.9079 51.9188L32.9072 51.8965L32.9069 51.8742V42.3831L32.9072 42.3609L32.9079 42.3386V42.3383L32.9094 42.3163L32.9111 42.2942L32.9136 42.2725L32.9168 42.2507L32.9205 42.2294L32.9248 42.2081L32.9292 42.187H32.9295L32.9344 42.1662L32.9399 42.1454L32.9458 42.1249H32.9461L32.9525 42.1046L32.9594 42.0845C33.0577 41.8176 33.2831 41.6111 33.5616 41.5393L33.5819 41.5341H33.5824L33.603 41.5296H33.6035L33.6243 41.5254H33.6248L33.6458 41.5219H33.6463L33.6676 41.5187H33.6679L33.6894 41.5162H33.6896L33.7114 41.5143H33.7117L33.7335 41.5128H33.7337L33.7558 41.5118L33.7783 41.5115H54.128L54.1503 41.5118L54.1723 41.5128H54.1726L54.1944 41.5143H54.1946L54.2162 41.5162H54.2164L54.2379 41.5187L54.2382 41.519L54.2595 41.5219H54.26L54.281 41.5254H54.2815L54.3026 41.5296H54.3031L54.3236 41.5341L54.3241 41.5343L54.3444 41.5393H54.3449L54.365 41.5447L54.3655 41.545L54.3855 41.5509H54.386L54.4058 41.5573L54.4063 41.5576L54.4259 41.5645L54.4266 41.5648L54.4459 41.572L54.4467 41.5724L54.4658 41.5801L54.4665 41.5806L54.4851 41.5888L54.4858 41.5893L54.5044 41.598L54.5051 41.5984L54.5232 41.6074L54.5242 41.6079L54.542 41.6173L54.543 41.6178L54.5606 41.6274L54.5613 41.6279L54.5787 41.6383L54.5794 41.6388C54.6274 41.6683 54.6725 41.702 54.7139 41.7396L54.7285 41.753L54.7292 41.7537C54.8401 41.8597 54.9236 41.9941 54.9669 42.1454L54.9672 42.1462L54.9726 42.1662V42.167L54.9776 42.187L54.9778 42.1878C54.981 42.2016 54.984 42.2155 54.9865 42.2296V42.2304L54.99 42.2509V42.2517L54.9932 42.2727V42.2732L54.9957 42.2945V42.295L54.9976 42.3165V42.317L54.9991 42.3386V42.3388L55.0001 42.3609L55.0004 42.3831L55.0011 42.3817Z" fill="#3FA4E8"/>
<path fill-rule="evenodd" clip-rule="evenodd" d="M49.0975 46.1372C49.0011 46.2796 48.8872 46.2494 48.6862 46.6911C48.6334 46.8073 48.6196 46.885 48.6067 47.0212C48.5978 47.1155 48.6272 47.3327 48.6102 47.3916L48.6391 47.452L50.3375 52.0074L50.4754 52.3722L50.6186 52.7567L50.7617 53.1412L50.9048 53.5258L51.0484 53.9101L51.192 54.2944L51.3357 54.6787L51.4793 55.063L51.6229 55.4473L51.7665 55.8316L51.9101 56.2159L52.0537 56.6002L52.1974 56.9845L52.341 57.3688L52.4846 57.7531C52.5413 57.9014 52.5757 57.992 52.6629 58.1178C52.7904 58.3087 52.9726 58.4494 53.1309 58.5197C53.2834 58.5875 53.5164 58.6774 53.7321 58.6338C53.9121 58.6276 54.0282 58.586 54.2003 58.512L54.4499 58.3644L54.6542 58.1158C54.8216 57.8749 55.5144 56.3484 55.6555 56.1428L55.9584 56.461L56.5764 57.1068L57.2051 57.7697C57.2688 57.8014 57.7439 58.3082 57.7724 58.3746C57.8531 58.4045 58.0695 58.6544 58.1319 58.7381C58.2545 58.802 58.2939 58.9438 58.6264 59.0629C58.6923 59.0865 58.6655 59.0612 58.6868 59.0981C58.7871 59.1028 58.8753 59.1305 58.9897 59.1377C59.0934 59.1442 59.1959 59.1348 59.3051 59.1112C59.6226 59.0421 59.7068 58.9312 59.9237 58.7752L60.2248 58.4754L60.8884 57.8382C60.9045 57.7674 61.3056 57.5337 61.3854 57.0169C61.4054 56.8874 61.3903 56.7953 61.3943 56.671C61.3544 56.4868 61.3304 56.4003 61.2474 56.2223C61.1447 56.0851 61.1053 56.0208 60.9835 55.8977C60.9018 55.8152 60.7406 55.6818 60.6967 55.5872C60.614 55.5599 60.4048 55.325 60.3426 55.2455C60.2815 55.2101 59.7716 54.6938 59.7494 54.6428C59.66 54.5999 59.1068 54.0203 59.0771 53.9812L58.4722 53.3834L58.7257 53.2608C59.117 53.0771 59.5032 52.8855 59.8955 52.6995C60.0879 52.6081 60.3013 52.5143 60.486 52.412C60.7195 52.2828 60.7646 52.1627 60.9119 52.0376C60.9169 51.9445 60.8988 52.0178 60.9441 51.9891L60.9926 51.8757C61.0147 51.8309 61.0194 51.8168 61.0345 51.768C61.1771 51.3039 61.0533 51.1497 61.0753 51.0311L60.93 50.702C60.925 50.6985 60.9193 50.6933 60.9161 50.6904C60.6965 50.4876 60.7794 50.4076 60.1391 50.1439L58.5831 49.4993C58.4603 49.4342 58.3692 49.4075 58.2478 49.3599L57.3765 48.9984C56.8456 48.7523 56.1577 48.4844 55.5877 48.2382C55.5273 48.212 55.5567 48.233 55.5047 48.1922C55.4451 48.1959 55.3604 48.1518 55.3047 48.1228C55.2601 48.0998 55.2569 48.0983 55.2123 48.08L55.1304 48.0357C55.0593 48.0302 55.0365 48.0208 54.9818 47.9802C54.9404 47.9775 54.6081 47.8354 54.573 47.8121C54.5081 47.8007 54.5324 47.8185 54.4781 47.7588C54.3991 47.7529 54.315 47.7078 54.2332 47.6756C54.1632 47.6482 54.0656 47.6308 54.0178 47.5667C53.9609 47.5647 53.9861 47.5704 53.9544 47.5402C53.8702 47.5407 53.0033 47.1594 52.9343 47.1326L50.8991 46.2813C50.7132 46.2095 50.3019 46.0146 50.1332 45.9678C50.0783 45.9525 49.9252 45.9463 49.8874 45.9196C49.6137 45.9443 49.5293 45.9369 49.2416 46.0659L49.0977 46.1372H49.0975Z" fill="#07437A"/>
</svg>
