<svg width="66" height="66" viewBox="0 0 66 66" fill="none" xmlns="http://www.w3.org/2000/svg">
<rect width="66" height="66" fill="transparent"/>
<path fill-rule="evenodd" clip-rule="evenodd" d="M48.2787 10.6148L32.9861 37.0884L17.7244 10.6148H7.16524L7.86753 11.8585C8.01603 12.1153 8.13669 12.3381 8.28519 12.5948L10.7479 16.8519C10.8809 17.0963 11.017 17.316 11.1501 17.5635L13.226 21.1492C13.7922 22.1052 14.2995 23.0395 14.8688 23.9955L18.1544 29.6881C18.439 30.18 18.6927 30.6193 18.9619 31.1112C19.1104 31.3433 19.2434 31.5784 19.3796 31.8104C19.5281 32.0579 19.6487 32.29 19.7972 32.5344C19.9457 32.7912 20.0509 32.9984 20.2149 33.2459C21.0224 34.5917 21.8577 36.1572 22.6652 37.503L23.9058 39.6501C24.6514 41.0083 25.6074 42.5614 26.3839 43.9319C26.5169 44.1918 26.6376 44.3836 26.7861 44.6435C26.9346 44.8879 27.0398 45.0952 27.1883 45.3427L29.6664 49.64C30.2326 50.5867 30.7431 51.5427 31.3092 52.4863C31.399 52.6162 32.9087 55.1903 32.952 55.3852C33.1315 55.2707 33.6853 54.2095 33.8028 54.0022C34.5175 52.6812 35.5354 51.0786 36.2655 49.7173C36.7729 48.7985 37.4288 47.7775 37.9238 46.871L39.5666 44.0247C40.9248 41.7601 42.3139 39.1706 43.6752 36.909C44.4826 35.5508 45.3303 33.9575 46.1533 32.5993C46.4379 32.1198 46.704 31.6526 46.9731 31.1886L58.8286 10.6148H48.2725H48.2787Z" fill="#40B783"/>
<path fill-rule="evenodd" clip-rule="evenodd" d="M38.5394 10.6148L33.4161 19.5435C33.3419 19.6734 33.0882 20.1251 32.9984 20.1901C32.8778 20.1128 32.6829 19.7106 32.5963 19.5683C32.4756 19.3331 32.358 19.1537 32.2219 18.9217L31.4763 17.6161C30.61 16.1682 29.7159 14.5223 28.8497 13.0496L27.4605 10.6179H17.7244L32.9861 37.0915L48.2787 10.6179H38.5425L38.5394 10.6148Z" fill="#34495E"/>
</svg>
