<svg width="66" height="66" viewBox="0 0 66 66" fill="none" xmlns="http://www.w3.org/2000/svg">
<path fill-rule="evenodd" clip-rule="evenodd" d="M33.4855 54.6706C34.0301 53.0544 34.6352 51.4983 35.1657 49.8294C35.6917 48.1751 36.2099 46.5318 36.6978 44.8443C39.0405 36.7389 41.4778 25.0564 40.5864 16.5263C40.4269 14.9989 40.2474 13.7578 39.892 12.284C39.8416 12.0745 39.6702 11.175 39.5122 11.1042C38.7122 12.367 37.1587 15.1588 36.3535 16.5778C33.2507 22.0453 29.9197 27.6026 26.8584 33.037L24.1095 37.811C23.6446 38.6411 23.6848 38.2198 24.6318 39.9057C24.9074 40.3962 25.1641 40.8172 25.4258 41.2837C25.9584 42.2325 26.4854 43.1114 27.0177 44.0328C27.1115 44.195 33.1956 54.8412 33.3589 55C33.4497 54.8459 33.4652 54.8503 33.4858 54.6709L33.4855 54.6706Z" fill="#1767BF"/>
<path fill-rule="evenodd" clip-rule="evenodd" d="M33.4855 54.6706C33.6785 54.5452 39.5613 44.2501 39.8238 43.7876C42.4048 39.2386 45.1364 34.6926 47.6915 30.1494C48.2042 29.2381 48.7242 28.3337 49.2636 27.4321C50.3482 25.6195 51.346 23.7515 52.4204 21.9552C54.5211 18.4434 56.6014 14.5753 58.7026 11.0497C58.0321 10.9778 45.5773 11.0353 44.2638 11.0353C43.6428 11.0353 39.735 10.9209 39.5117 11.104C39.6697 11.1745 39.8411 12.0743 39.8915 12.2837C40.2469 13.7576 40.4264 14.9989 40.5859 16.526C41.4773 25.0561 39.04 36.7386 36.6972 44.844C36.2096 46.5315 35.6912 48.1748 35.1652 49.8291C34.6347 51.4978 34.0296 53.0542 33.485 54.6703L33.4855 54.6706Z" fill="#1697F6"/>
<path fill-rule="evenodd" clip-rule="evenodd" d="M21.2835 34.0527C21.1898 33.4635 20.985 32.782 20.8688 32.1696C20.4493 29.9597 20.2164 28.1409 20.2231 25.8188C20.2346 21.9377 20.985 18.4726 23.2596 15.5524C23.3649 15.4171 23.4307 15.3693 23.5284 15.2397C24.0523 14.5445 25.3569 13.5204 26.0545 13.1051C27.6576 12.1511 29.3111 11.6013 31.2292 11.2881C31.6567 11.2184 33.0836 11.1338 33.3259 11.0382L8 11.0369C8.15488 11.4184 17.2535 27.0659 17.9318 28.277C18.4782 29.2525 19.0316 30.2147 19.5976 31.1667C19.9745 31.8008 20.956 33.5943 21.2838 34.0532L21.2835 34.0527Z" fill="#ADDCFF"/>
<path fill-rule="evenodd" clip-rule="evenodd" d="M21.2835 34.0527C21.33 34.1538 21.2872 34.1089 21.3807 34.136L34.2573 11.7758C34.3866 11.5452 34.5642 11.2769 34.6718 11.0406L33.3259 11.038C33.0836 11.1336 31.6567 11.2182 31.2292 11.2879C29.3111 11.6011 27.6576 12.1508 26.0545 13.1049C25.3569 13.5202 24.052 14.5443 23.5283 15.2395C23.4307 15.3691 23.3648 15.4169 23.2596 15.5522C20.985 18.4724 20.2346 21.9375 20.2231 25.8186C20.2163 28.1407 20.4496 29.9595 20.8688 32.1694C20.985 32.7816 21.1898 33.4633 21.2835 34.0525V34.0527Z" fill="#7BC6FF"/>
</svg>
