<svg width="66" height="66" viewBox="0 0 66 66" fill="none" xmlns="http://www.w3.org/2000/svg">
<rect width="66" height="66" fill="transparent"/>
<path fill-rule="evenodd" clip-rule="evenodd" d="M33.0016 55.2335L33.0356 38.261L29.5087 30.2666C28.5217 27.9555 24.5276 18.5194 23.6212 16.7931H13.2538C13.3652 17.2912 13.5787 17.6099 13.8262 18.0182C14.9028 19.7662 22.1795 34.3256 23.0179 36.0118L29.1776 48.0281C29.5922 48.8603 30.0068 49.5224 30.4306 50.3794C30.8545 51.2456 31.2041 51.9232 31.6279 52.7802L32.6798 54.887C32.9706 55.283 32.7138 55.0015 33.0047 55.2304L33.0016 55.2335Z" fill="#7BC6FE"/>
<path fill-rule="evenodd" clip-rule="evenodd" d="M33.0356 38.261L33.0016 55.2335V55.3851L33.2707 55.0015L45.3396 31.4546C45.7759 30.5976 46.1131 29.9077 46.5493 29.0538C47.4898 27.1635 52.5822 17.4985 52.7524 16.7931H42.385L41.2558 19.4104C40.8412 20.3943 40.4947 21.1213 40.0709 22.1299L34.2391 35.5137C33.9019 36.2933 33.444 37.6453 33.0418 38.2579L33.0356 38.261Z" fill="#AEDDFD"/>
<path fill-rule="evenodd" clip-rule="evenodd" d="M32.9211 32.0301L33.2243 32.1198C33.28 31.5072 34.0194 29.9603 34.2545 29.388L41.1413 13.1301C41.4786 12.3783 41.9148 11.4316 42.1623 10.6148H33.0139C33.0139 16.9478 32.8902 24.342 33.0139 30.6131C33.0263 31.136 33.0944 31.6341 32.9242 32.0301H32.9211Z" fill="#1867C0"/>
<path fill-rule="evenodd" clip-rule="evenodd" d="M32.9211 32.0301C33.0882 31.6341 33.0201 31.136 33.0108 30.6131C32.8871 24.342 33.0108 16.9478 33.0108 10.6148H23.8872L32.9211 32.0301V32.0301Z" fill="#1696F5"/>
</svg>
