<svg width="554" height="53" viewBox="0 0 554 53" fill="none" xmlns="http://www.w3.org/2000/svg">
<g clip-path="url(#clip0_163_2)">
<path fill-rule="evenodd" clip-rule="evenodd" d="M520.144 5.7798C520.582 6.42044 524.098 9.73664 525.143 10.7673C526.749 12.3504 525.811 11.6921 527.687 11.6921C529.897 11.6921 531.592 13.3776 531.592 15.8113C531.592 17.5144 530.85 16.3937 534.063 19.5599C534.868 20.3506 536.791 22.0537 537.304 22.8285C538.076 22.7702 537.7 22.6943 538.989 22.6943C541.987 22.6943 544.106 26.4553 541.743 29.265C539.502 31.907 534.655 30.2657 534.655 26.6847C534.655 25.9382 534.881 25.5499 534.943 24.8899C533.943 24.2351 530.189 19.89 529.355 19.6676V33.9719C530.082 34.4484 530.325 34.5119 530.853 35.2426C532.684 37.7787 531.02 41.5432 527.552 41.5432C524.237 41.5432 522.553 37.8864 524.221 35.3785C526.657 31.7199 526.146 39.3195 526.146 19.6711C526.146 19.1611 525.736 19.2952 525.013 18.7287C523.616 17.6539 523.181 15.5625 523.921 14.0394L517.819 8.08119C517.137 8.54359 504.113 21.5348 502.477 23.1479C501.052 24.5528 500.792 24.6728 500.764 26.3282V26.6847C500.764 28.1196 502.262 29.1926 503.522 30.4333L523.328 49.9617C524.875 51.5006 525.403 52.6037 527.613 52.6813H527.825C529.489 52.6813 530.778 50.9341 531.7 50.0393L551.432 30.5692C552.979 29.0444 554.112 28.5078 554.191 26.3423V26.1359C554.191 24.4645 552.433 23.2379 551.511 22.329L530.021 1.14171C529.069 0.202793 528.718 0.0351298 527.765 0.00512695H527.54H527.282H526.994C525.496 0.00512695 524.177 1.75235 523.328 2.5889C522.542 3.36545 520.677 5.02443 520.149 5.78509V5.78156L520.144 5.7798Z" fill="#EF5032"/>
<path fill-rule="evenodd" clip-rule="evenodd" d="M156.605 26.3213C156.571 26.5683 155.177 29.2051 154.949 29.6551L144.949 49.3741C144.687 49.8894 143.395 52.3549 143.293 52.685H159.236C159.379 52.6479 159.859 51.5766 159.959 51.3825L169.956 31.6635C170.133 31.81 170.509 32.6783 170.658 32.9695L180.345 52.0637C180.445 52.2614 180.53 52.5773 180.723 52.685L196.666 52.6726C196.535 52.2614 196.059 51.4425 195.836 51.0013C194.531 48.4422 183.386 26.556 183.354 26.3195C183.172 26.1589 181.573 22.8762 181.317 22.3715L175.45 10.7904C175.385 10.6651 175.387 10.5874 175.281 10.6368C175.043 11.0304 174.821 11.5298 174.607 11.9534L170.644 19.77C170.497 20.0577 170.133 20.9013 169.963 21.0443L164.679 10.6386C164.563 10.628 164.633 10.6156 164.56 10.7057C164.404 10.8945 156.841 26.1165 156.607 26.3213H156.605Z" fill="#4FBF8C"/>
<path fill-rule="evenodd" clip-rule="evenodd" d="M156.605 26.3206C156.84 26.1158 164.402 10.8938 164.558 10.7049C164.633 10.6132 164.563 10.6273 164.678 10.6379C164.499 10.2125 164.225 9.74133 163.998 9.29305L160.62 2.63065C160.387 2.17178 160.173 1.74998 159.943 1.29817C159.847 1.10756 159.378 0.0627582 159.236 0.0256958L143.279 0.0433445L156.603 26.3223L156.605 26.3206Z" fill="#35495E"/>
<path fill-rule="evenodd" clip-rule="evenodd" d="M175.28 10.6369C175.385 10.5875 175.384 10.6651 175.448 10.7904L181.316 22.3716C181.572 22.8781 183.17 26.1607 183.353 26.3196L196.665 0.0229492H180.721C180.523 0.134136 180.433 0.467698 180.329 0.674188L177.972 5.32287C177.607 6.03941 175.547 10.0068 175.28 10.6369V10.6369Z" fill="#35495E"/>
<path fill-rule="evenodd" clip-rule="evenodd" d="M117.033 0.0334421L98.7946 31.1641L80.5924 0.0334421H68L68.8377 1.49652C69.0149 1.79832 69.1599 2.06128 69.3353 2.36308L72.2727 7.37002C72.432 7.6577 72.5931 7.91537 72.7524 8.20657L75.2279 12.4229C75.9027 13.5471 76.5077 14.6448 77.1879 15.7691L81.1061 22.4632C81.4462 23.0421 81.7487 23.5575 82.0691 24.1363C82.2446 24.4081 82.4039 24.6852 82.5667 24.9588C82.744 25.25 82.8872 25.5218 83.0644 25.8094C83.2416 26.1112 83.3669 26.3548 83.562 26.646C84.525 28.2273 85.5202 30.0698 86.485 31.6512L87.9635 34.1767C88.8531 35.7739 89.9933 37.6006 90.9187 39.2119C91.078 39.519 91.2212 39.7431 91.3985 40.0484C91.5757 40.3361 91.701 40.5797 91.8782 40.8709L94.8334 45.9237C95.5082 47.0356 96.1186 48.1616 96.7916 49.2699C96.899 49.4217 98.6997 52.4502 98.7516 52.6779C98.9646 52.5438 99.6251 51.296 99.7665 51.0507C100.619 49.4976 101.832 47.6127 102.704 46.0119C103.309 44.9318 104.091 43.7317 104.682 42.6657L106.64 39.3195C108.26 36.6563 109.916 33.6102 111.539 30.9523C112.502 29.3551 113.513 27.4808 114.494 25.8836C114.834 25.3188 115.151 24.7699 115.472 24.2246L129.611 0.0316772H117.022H117.029L117.033 0.0334421Z" fill="#40B783"/>
<path fill-rule="evenodd" clip-rule="evenodd" d="M105.416 0.0334473L99.3065 10.5327C99.2188 10.6862 98.9145 11.2157 98.8089 11.2933C98.6657 11.2033 98.433 10.7286 98.3292 10.5627C98.186 10.2856 98.0446 10.0756 97.8817 9.80203L96.9921 8.26659C95.9593 6.56348 94.8924 4.62918 93.8596 2.89607L92.2021 0.036977H80.5906L98.7928 31.1676L117.031 0.036977H105.419L105.416 0.0334473V0.0334473Z" fill="#34495E"/>
<path fill-rule="evenodd" clip-rule="evenodd" d="M488.093 0.0334473H439.184L444.305 47.1944L463.638 52.6796L482.968 47.1944L488.093 0.0334473Z" fill="#0C73B8"/>
<path fill-rule="evenodd" clip-rule="evenodd" d="M483.305 4.56201L463.638 4.56554V49.2698L478.921 44.937L483.305 4.56201Z" fill="#30A9DC"/>
<path fill-rule="evenodd" clip-rule="evenodd" d="M449.741 16.4185L448.631 10.3862H478.643L475.865 39.9796L464.193 43.4458L451.409 39.9796L450.298 30.6681H456.41L456.969 35.5956L464.193 37.5317L470.862 35.5956L471.419 27.9273H457.522L456.969 22.4456H471.419L471.974 16.4185H449.741Z" fill="white"/>
<path fill-rule="evenodd" clip-rule="evenodd" d="M449.741 16.4185L448.631 10.3879H463.64V16.4185H449.743H449.741ZM463.638 43.294L451.407 39.9795L450.298 30.6645H456.41L456.967 35.5973L463.636 37.3834V43.294H463.638ZM463.638 27.9237H457.522L456.969 22.442H463.638V27.9237Z" fill="#CED1DB"/>
<path fill-rule="evenodd" clip-rule="evenodd" d="M210.617 17.6805C210.823 20.0278 211.971 21.858 213.58 23.2858C215.565 25.0454 217.503 25.0595 219.746 25.6931C222.003 26.3302 223.928 27.3521 225.522 28.4851C227.269 29.7276 228.494 31.0512 229.788 32.7667C231.959 35.6452 233.944 40.4457 235.061 44.5984C235.834 47.4716 236.006 48.6135 237.692 50.4913C238.237 51.0984 239.239 51.845 240.195 52.295C244.774 54.4588 249.913 52.2403 251.695 48.2711C252.163 47.2316 252.363 46.2044 252.689 45.0308C255.025 36.6088 258.655 28.7287 267.651 25.8343C268.809 25.4619 269.937 25.2977 271.115 24.9765C274.088 24.1647 276.61 21.6074 277.181 18.2471C277.641 15.5433 276.708 13.226 275.43 11.6182C272.473 7.89609 266.804 7.42486 263.316 10.351C261.93 11.5141 260.595 13.2419 260.253 15.8257C259.6 20.7479 258.071 25.1883 255.556 28.2168C254.382 29.6323 252.676 30.9965 250.884 32.0978C249.136 33.1726 246.773 33.9845 244.247 34.0462C241.858 34.1045 239.021 33.3456 237.334 32.3149C235.416 31.1412 233.857 29.9323 232.575 28.5204C230.117 25.8131 228.329 21.085 227.688 16.3657C227.497 14.9573 227.323 14.149 226.741 13.0248C225.231 10.1022 222.08 8.20847 218.475 8.46438C213.936 8.78558 210.182 12.7265 210.619 17.677L210.617 17.6805Z" fill="#4FBF8C"/>
<path fill-rule="evenodd" clip-rule="evenodd" d="M243.037 0.054626C238.637 0.532907 234.896 4.38563 235.43 9.33257C235.897 13.6689 239.835 17.3522 244.849 16.8262C249.234 16.3674 252.975 12.4882 252.44 7.53593C251.976 3.23846 248.022 -0.49072 243.037 0.0528611V0.054626Z" fill="#35485D"/>
<path fill-rule="evenodd" clip-rule="evenodd" d="M332.065 14.6626C333.663 15.8645 334.963 17.3964 336.042 19.6255C337.263 22.1475 337.333 24.0076 337.401 27.0468C341.412 27.1809 344.562 30.0788 344.611 34.0763C344.657 37.996 341.487 41.1587 337.61 41.2628C336.726 41.5452 325.066 41.344 323.056 41.344L323.058 52.6816C327.065 52.6886 331.073 52.6816 335.079 52.6816C339.418 52.6816 341.707 52.5457 345.339 50.9449C357.565 45.5568 360.25 28.4834 349.109 19.6961C348.889 19.5231 348.438 19.2531 348.23 19.0431C348.031 18.8401 346.7 14.8938 345.509 12.9136C344.498 11.2317 341.681 7.29781 340.089 6.4895L334.027 12.5095C333.52 13.0089 332.271 14.0573 332.068 14.6644L332.065 14.6626Z" fill="#4284F2"/>
<path fill-rule="evenodd" clip-rule="evenodd" d="M298.039 18.9688C290.555 24.1381 287.316 33.672 291.921 42.7275C293.033 44.9142 295.161 47.5368 297.173 48.8746L305.557 40.6768C299.242 37.5123 300.518 29.498 306.234 27.5461C309.839 26.316 313.34 27.9432 315.121 31.2929L323.477 23.2116C322.374 20.6578 316.231 16.6515 312.246 16.1927C309.808 15.5785 306.619 15.755 304.204 16.3127C303.091 16.5703 301.838 16.9886 300.866 17.4334C299.711 17.9611 299.01 18.4588 298.038 18.9688H298.039Z" fill="#FBBB05"/>
<path fill-rule="evenodd" clip-rule="evenodd" d="M298.039 18.9688C299.011 18.4588 299.713 17.9611 300.867 17.4334C301.839 16.9887 303.092 16.5704 304.206 16.3127C306.619 15.755 309.808 15.5785 312.248 16.1927C312.781 15.245 315.178 13.6019 316.093 13.1536C317.731 12.3506 319.327 11.7523 321.423 11.5405C325.841 11.094 329.491 12.7247 332.067 14.6625C332.271 14.0554 333.518 13.0053 334.025 12.5076L340.087 6.48765C333.951 1.1242 324.441 -2.01022 314.113 1.55483C311.255 2.54139 308.092 4.35568 306.003 6.23704C305.228 6.93593 304.505 7.45833 303.842 8.23841C301.496 11.0022 299.011 14.5302 298.011 18.217C297.982 18.3211 297.943 18.5312 297.948 18.6512C297.964 19.0341 297.88 18.6988 298.041 18.9706L298.039 18.9688Z" fill="#E74335"/>
<path fill-rule="evenodd" clip-rule="evenodd" d="M297.173 48.8746C299.878 50.8742 303.663 52.5102 308.103 52.662C312.943 52.8279 318.049 52.6797 322.92 52.6797L322.954 41.2768C320.063 41.4092 316.898 41.2962 313.975 41.2962C312.484 41.2962 310.995 41.2962 309.504 41.2962C307.501 41.2998 307.231 41.1074 305.559 40.6768L297.175 48.8746H297.173Z" fill="#34A853"/>
<path fill-rule="evenodd" clip-rule="evenodd" d="M322.918 52.6797H323.056L323.054 41.3421C325.064 41.3421 336.724 41.5451 337.608 41.2609L322.95 41.275L322.916 52.6779L322.918 52.6797Z" fill="#3B96A2"/>
<path fill-rule="evenodd" clip-rule="evenodd" d="M398.405 16.1115L414.906 52.6796L429.199 52.6126V52.4361C428.344 51.2695 410.598 11.1116 408.407 6.33581C408.015 5.47985 406.015 0.252292 405.144 0.0334473L391.798 0.111102C391.175 0.257586 391.545 0.114631 391.178 0.388187C392.07 1.38534 397.535 13.923 398.403 16.1115H398.405Z" fill="#222222"/>
<path fill-rule="evenodd" clip-rule="evenodd" d="M367.694 52.4237V52.5843L381.982 52.6761L398.405 16.1132C397.536 13.9247 392.072 1.38705 391.18 0.389893L367.696 52.4237H367.694Z" fill="#0A99E0"/>
</g>
<defs>
<clipPath id="clip0_163_2">
<rect width="554" height="53" fill="white"/>
</clipPath>
</defs>
</svg>
